<svg width="164" height="49" viewBox="0 0 164 49" fill="none" xmlns="http://www.w3.org/2000/svg">
<ellipse cx="24.5" cy="24.5" rx="24" ry="23.5" fill="white" style="fill:white;fill-opacity:1;"/>
<path fill-rule="evenodd" clip-rule="evenodd" d="M28.5714 21.0355C28.5714 23.7372 24.3574 23.4094 23.0206 23.4094V18.6498C24.3599 18.6498 28.5714 18.2261 28.5714 21.0355ZM29.6718 28.4242C29.6718 31.3764 24.6243 31.0392 23.0159 31.0392V25.8115C24.6243 25.8115 29.6718 25.3432 29.6718 28.436M32.9964 19.9819C32.727 17.1491 30.3018 16.2127 27.2324 15.9177V12.0337H24.8748V15.8404C24.2497 15.8404 23.6129 15.8404 22.9784 15.8638V12.0337H20.6092V15.9411H15.8027V18.4836C15.8027 18.4836 17.5539 18.4532 17.5282 18.4836C17.8442 18.4488 18.1614 18.5383 18.4126 18.7332C18.6639 18.928 18.8294 19.213 18.8743 19.5278V30.2293C18.8678 30.3394 18.8395 30.4471 18.7913 30.5462C18.743 30.6456 18.6755 30.7343 18.5929 30.8073C18.5102 30.8803 18.4139 30.9364 18.3096 30.9723C18.2052 31.008 18.0948 31.0228 17.9847 31.0158C18.0151 31.0438 16.2592 31.0158 16.2592 31.0158L15.791 33.8556H20.5787V37.8357H22.9504V33.9142H24.8443V37.81H27.2161V33.8837C31.2218 33.6498 34.0055 32.6499 34.3659 28.8925C34.6493 25.8652 33.2305 24.5167 30.962 23.976C32.3408 23.2736 33.2071 22.0352 33.001 19.9749" fill="#F7931A" style="fill:#F7931A;fill:color(display-p3 0.9686 0.5765 0.1020);fill-opacity:1;"/>
<path d="M11.5466 10.1373C13.9505 7.96271 16.8688 6.43641 20.0261 5.70237C23.1835 4.96833 26.4757 5.05078 29.5924 5.94192L29.8639 6.01919C29.9999 6.05899 30.1332 6.10113 30.2668 6.14562C30.4587 6.20649 30.6506 6.27202 30.8379 6.33992L31.0251 6.40782C31.2805 6.50146 31.5357 6.60213 31.7862 6.70748L31.8165 6.72154C33.8135 7.58008 35.6691 8.73565 37.3206 10.149L38.3649 9.02056C38.2242 8.88009 38.0792 8.75132 37.9364 8.61789C34.3213 5.48619 29.7333 3.70267 24.9521 3.57031C24.6969 3.57031 24.4418 3.57031 24.1866 3.57031H24.1328C22.582 3.5918 21.0381 3.78017 19.5277 4.1322L19.2186 4.20713L18.9611 4.27501C17.4561 4.67853 16.0015 5.25109 14.6252 5.98171C13.1182 6.79081 11.7463 7.82945 10.5586 9.06036L11.5466 10.1373Z" fill="black" fill-opacity="0.6" style="fill:black;fill-opacity:0.6;"/>
<path d="M10.2234 11.4506L9.07621 10.4463C1.29412 18.6029 2.42725 31.8751 9.07621 38.2008L10.2468 37.2854C7.01043 33.7632 5.21272 29.1554 5.20881 24.372C5.2049 19.5889 6.9951 14.9781 10.2257 11.4506H10.2234Z" fill="black" fill-opacity="0.6" style="fill:black;fill-opacity:0.6;"/>
<path d="M40.2445 10.9543C40.0643 10.767 39.8817 10.5821 39.692 10.4065L38.6875 11.5069C44.5874 18.2096 45.8329 28.8502 38.8726 37.042L39.8512 38.2243C43.195 34.4913 45.0775 29.6757 45.1514 24.6646C45.2254 19.6535 43.486 14.7844 40.2538 10.9543H40.2445Z" fill="black" fill-opacity="0.6" style="fill:black;fill-opacity:0.6;"/>
<path d="M37.3947 38.6082C36.7157 39.1163 36.0415 39.5821 35.365 40.0128C32.9097 41.7483 30.0784 42.8778 27.1028 43.3092C25.5804 43.5519 24.0322 43.5883 22.5001 43.4169C18.6411 43.0426 14.988 41.5007 12.028 38.9969C11.8735 38.8845 11.7213 38.7744 11.5598 38.6575L10.4805 39.6244C14.2568 43.3537 19.4332 45.147 24.5276 45.1448C24.6399 45.1448 24.7617 45.1448 24.8648 45.1448H24.9185C29.6574 45.0213 34.2101 43.275 37.8161 40.1979C37.9799 40.0433 38.1462 39.8912 38.303 39.7296L37.3947 38.6082Z" fill="black" fill-opacity="0.6" style="fill:black;fill-opacity:0.6;"/>
<path d="M24.4068 1.63882C28.9126 1.63697 33.3175 2.9715 37.0647 5.47358C40.8118 7.97566 43.7327 11.5329 45.458 15.6953C47.183 19.8576 47.6349 24.4382 46.7564 28.8573C45.8777 33.2766 43.7083 37.336 40.5223 40.5221C37.3362 43.7079 33.2768 45.8775 28.8574 46.756C24.4383 47.6347 19.8578 47.1828 15.6954 45.4575C11.5329 43.7325 7.97572 40.8116 5.47362 37.0645C2.97152 33.3174 1.63698 28.9125 1.63884 24.4067C1.64812 18.3711 4.04986 12.5854 8.31769 8.31763C12.5855 4.04983 18.3712 1.64811 24.4068 1.63882ZM24.4068 1.7962e-06C19.5778 0.00185448 14.8577 1.43564 10.8435 4.12005C6.82931 6.80445 3.7013 10.6189 1.855 15.0811C0.00870816 19.5432 -0.47293 24.4526 0.47099 29.1886C1.41491 33.9244 3.742 38.2741 7.15797 41.6874C10.5739 45.1008 14.9254 47.4245 19.662 48.3647C24.3985 49.305 29.3077 48.8196 33.7685 46.9698C38.2293 45.1203 42.0414 41.9892 44.7228 37.973C47.404 33.9568 48.8343 29.2357 48.8323 24.4067C48.8311 21.2003 48.1985 18.0256 46.9703 15.0638C45.742 12.1019 43.9425 9.41103 41.6745 7.14466C39.4062 4.87829 36.7141 3.08085 33.7512 1.85498C30.7885 0.629094 27.6132 -0.00122804 24.4068 1.7962e-06Z" fill="black" style="fill:black;fill-opacity:1;"/>
<path d="M154.718 11.6902C156.435 11.6943 158.138 12.0019 159.747 12.5994C161.285 13.1278 162.665 14.0371 163.757 15.2419L159.8 19.199C159.255 18.4512 158.509 17.8715 157.65 17.5271C156.785 17.1689 155.858 16.9832 154.922 16.9812C153.955 16.9703 152.996 17.163 152.107 17.5457C151.276 17.9068 150.527 18.4346 149.908 19.0964C149.283 19.775 148.797 20.5687 148.476 21.4333C148.126 22.379 147.952 23.3812 147.964 24.3894C147.952 25.4127 148.125 26.43 148.476 27.3914C148.792 28.2548 149.277 29.0473 149.901 29.7224C150.51 30.3747 151.248 30.8917 152.068 31.241C152.942 31.6104 153.883 31.796 154.831 31.7849C155.884 31.8108 156.927 31.5759 157.867 31.1023C158.691 30.684 159.404 30.0762 159.947 29.3289L164 33.1492C162.906 34.3959 161.554 35.3908 160.039 36.0662C158.33 36.8106 156.479 37.1766 154.615 37.1394C152.85 37.1572 151.097 36.8449 149.447 36.2185C147.911 35.6401 146.511 34.7507 145.334 33.6062C144.158 32.4615 143.23 31.0867 142.609 29.5671C141.935 27.9231 141.599 26.1597 141.62 24.3826C141.594 22.5825 141.936 20.7959 142.625 19.1326C143.258 17.6136 144.207 16.2456 145.406 15.1189C146.61 14.0035 148.025 13.1393 149.567 12.5769C151.217 11.9767 152.962 11.6764 154.718 11.6902ZM69.208 28.408H69.3096L73.6074 12.3425H79.6787L84.0107 28.408H84.1133L88.001 12.3425H94.0723L87.1826 36.4939H81.418L76.6436 20.158H76.541L71.7656 36.4939H65.9668L59.1113 12.3425H65.3877L69.208 28.408ZM107.747 12.3425C108.709 12.3459 109.669 12.4434 110.612 12.6335C111.548 12.8113 112.448 13.1459 113.272 13.6228C114.065 14.086 114.732 14.7361 115.217 15.5154C115.717 16.3134 115.967 17.3342 115.967 18.5505C115.967 19.8936 115.604 21.003 114.876 21.8777C114.123 22.7708 113.128 23.4276 112.011 23.7693V23.8376C112.682 23.9495 113.332 24.1623 113.938 24.4695C114.864 24.9317 115.639 25.6473 116.173 26.533C116.707 27.4187 116.979 28.4382 116.956 29.4724L116.944 29.9509C116.887 31.0609 116.629 32.0078 116.172 32.7917C115.665 33.6723 114.951 34.4156 114.091 34.9568C113.183 35.5213 112.182 35.9204 111.135 36.1345C110.022 36.3745 108.886 36.4951 107.747 36.4939H98.1289V12.3425H107.747ZM139.539 17.323H132.717V36.4939H126.885V17.323H120.062V12.3425H139.539V17.323ZM103.756 31.7849H107.03C107.505 31.7837 107.979 31.744 108.447 31.6667C108.91 31.5942 109.359 31.4504 109.777 31.241C110.17 31.0382 110.505 30.7384 110.749 30.3699C111.015 29.9346 111.146 29.4296 111.124 28.9197H111.117C111.117 27.922 110.737 27.2282 109.979 26.8386C109.229 26.4546 108.229 26.2586 106.979 26.2585H103.756V31.7849ZM103.749 21.9617H106.888C107.979 21.9616 108.826 21.7402 109.43 21.2976C110.033 20.855 110.333 20.2003 110.332 19.3347C110.332 18.5163 110.02 17.92 109.396 17.5457C108.771 17.1712 107.844 16.9827 106.614 16.9812H103.749V21.9617Z" fill="black" style="fill:black;fill-opacity:1;"/>
</svg>
