<svg xmlns="http://www.w3.org/2000/svg" viewBox="0 0 500 600">
  <title>Artboard 1</title>
  <rect width="499.5" height="600" fill="#e7d9fd"/>
  <g>
    <g>
      <path d="M288.6,155.1l173,99.8.3.3c1.1.8.9,1.9-.3,2.6L216.3,399.4a5.3,5.3,0,0,1-4.9,0l-173-99.9c-1.3-.8-1.3-2,0-2.8L283.7,155.1A5.3,5.3,0,0,1,288.6,155.1Z" fill="#1c0f30" stroke="#1c0f30" stroke-linecap="round" stroke-linejoin="round" stroke-width="0.48"/>
      <path d="M286.6,138.6l173,99.9.3.2c1.1.8.9,1.9-.3,2.7L214.3,383a6,6,0,0,1-4.9,0l-173-99.9a1.6,1.6,0,0,1,0-2.9L281.7,138.6A5.3,5.3,0,0,1,286.6,138.6Z" fill="#ae7eff" stroke="#000" stroke-linecap="round" stroke-linejoin="round" stroke-width="0.45"/>
      <path d="M297.9,145.2l162,93.5c1.1.8.9,1.9-.3,2.7L253.2,360.5,89.1,265.8c-1.4-.8-1.4-2.1,0-2.9L293,145.2A5.3,5.3,0,0,1,297.9,145.2Z" fill="#e7d9fd" stroke="#000" stroke-linecap="round" stroke-linejoin="round" stroke-width="0.45"/>
      <g>
        <path d="M161.8,227.7l48.9,28.2c1.4.8,1.4,2.1.1,2.9l-60.7,35a5.3,5.3,0,0,1-4.9,0l-49-28.3c-1.3-.8-1.3-2,0-2.8l60.7-35A5.3,5.3,0,0,1,161.8,227.7Z" fill="#ae7eff" stroke="#904dff" stroke-linecap="round" stroke-linejoin="round" stroke-width="0.42"/>
        <path d="M230.3,188.1l49,28.3c1.3.8,1.3,2,0,2.8l-60.7,35a5.3,5.3,0,0,1-4.9,0L164.8,226c-1.4-.8-1.4-2.1-.1-2.9l60.7-35A5.3,5.3,0,0,1,230.3,188.1Z" fill="#ae7eff" stroke="#904dff" stroke-linecap="round" stroke-linejoin="round" stroke-width="0.42"/>
        <path d="M298.9,148.6l48.9,28.2c1.3.8,1.4,2.1,0,2.8l-60.7,35.1a5.3,5.3,0,0,1-4.9,0l-48.9-28.3c-1.4-.8-1.4-2,0-2.8l60.6-35.1A5.8,5.8,0,0,1,298.9,148.6Z" fill="#ae7eff" stroke="#904dff" stroke-linecap="round" stroke-linejoin="round" stroke-width="0.42"/>
      </g>
      <path d="M77.7,259.2l173,99.9c1.4.8,1.4,2.1,0,2.9l-36.4,21a6,6,0,0,1-4.9,0l-173-99.9a1.6,1.6,0,0,1,0-2.9l36.4-21A6,6,0,0,1,77.7,259.2Z" fill="#904dff" stroke="#1c0f30" stroke-linecap="round" stroke-linejoin="round" stroke-width="0.42"/>
      <g>
        <path d="M283,140.5l-22.9,13.3c-.6.3-.5.8,0,1.1l4.8,2.8a2.3,2.3,0,0,0,2,0l22.9-13.2c.6-.3.5-.9,0-1.2l-4.8-2.7A2.1,2.1,0,0,0,283,140.5Z" fill="#fff" stroke="#904dff" stroke-linecap="round" stroke-linejoin="round" stroke-width="0.45"/>
        <path d="M256.5,155.8l-23.3,13.5c-.5.3-.5.8.1,1.1l4.7,2.8a2.3,2.3,0,0,0,2,0l23.4-13.4c.5-.4.5-.9-.1-1.2l-4.7-2.8A2.6,2.6,0,0,0,256.5,155.8Z" fill="#fff" stroke="#904dff" stroke-linecap="round" stroke-linejoin="round" stroke-width="0.45"/>
      </g>
      <path d="M283.2,221.5l-46.3,26.7-14.3,8.3L154,296.1c-1.3.7-1.3,2,.1,2.8l96.7,55.8a5.6,5.6,0,0,0,4.9.1l68.5-39.6,14.3-8.3,46.4-26.7a1.6,1.6,0,0,0,0-2.9l-96.8-55.8A5.3,5.3,0,0,0,283.2,221.5Z" fill="#904dff" stroke="#ae7eff" stroke-linecap="round" stroke-linejoin="round" stroke-width="0.42"/>
      <path d="M356.7,181.9l96.7,55.9c1.3.8,1.3,2,0,2.8l-60.7,35a5.3,5.3,0,0,1-4.9,0l-96.7-55.8c-1.4-.8-1.4-2.1,0-2.9l60.6-35A5.5,5.5,0,0,1,356.7,181.9Z" fill="#904dff" stroke="#ae7eff" stroke-linecap="round" stroke-linejoin="round" stroke-width="0.42"/>
      <g>
        <path d="M92.2,254h-.3v.2l.9,1.5-2.6-.5h-.4l.2.2,1.3,1.1-.5.3-2.6-2.4,3,.6h.6l-.2-.3h-.1l-1.1-1.7,4.2,1.5-.5.3Z" fill="#1c0f30"/>
        <path d="M97,253.1l-.5.2h-.2a.4.4,0,0,1-.1.3l-.3.3-1,.2a1.9,1.9,0,0,1-1-.3q-.6-.3-.6-.6c0-.3.1-.4.4-.6l.5-.2h.6l-.3-.2.4-.2Zm-1.5-.4-.7-.2a.7.7,0,0,0-.6.2l-.2.3c0,.1.1.3.4.4l.6.2h.6a.5.5,0,0,0,.3-.4Z" fill="#1c0f30"/>
        <path d="M94.6,251v-.2c0-.1.1-.1.2-.2h.5c.1.1.2.1.2.2l-.2.2h-.6Zm3.1,1.7-2.1-1.2.5-.3,2.1,1.2Z" fill="#1c0f30"/>
        <path d="M98.9,252l-2.1-1.2.4-.3.4.2a.2.2,0,0,1,0-.3c0-.2.2-.3.4-.4l.4-.2h.8l.4.2,1.3.7-.5.3-1.1-.6-.6-.3-.5.2-.3.2v.2H98l.4.3.9.5Z" fill="#1c0f30"/>
        <path d="M103.3,249.4l-.4.3-2.1-1.2.4-.3.4.2a.3.3,0,0,1,0-.4l.3-.3H103a.3.3,0,0,1,0-.4l.3-.3.5-.2h1.1l1.3.8-.5.2-1.1-.6-.6-.2c-.2-.1-.3,0-.5.1s-.2.2-.2.3.2.3.5.4l1,.6-.5.3-1.1-.7-.6-.2h-.5a.2.2,0,0,0-.2.2v.2h.1l.4.3Z" fill="#1c0f30"/>
        <path d="M107.8,245.7l-1.6.9.6.2h.6l.3-.3a.8.8,0,0,0-.1-.4h.7a.6.6,0,0,1,0,.6,1.1,1.1,0,0,1-.5.4,2,2,0,0,1-1.1.3,2.3,2.3,0,0,1-1.1-.3c-.3-.2-.5-.4-.5-.6s.2-.5.5-.7a2,2,0,0,1,1.1-.3l1.1.3Zm-.8.1h-1l-.3.3.2.3Z" fill="#1c0f30"/>
        <path d="M109.3,246l-2.1-1.2.5-.3.3.2v-.4l.4-.3.5-.2h.7l.5.3,1.2.7-.5.3-1-.6-.7-.3h-.5l-.2.2c0,.1-.1.2,0,.2s0,.1.1.2l.3.2,1,.6Z" fill="#1c0f30"/>
        <path d="M110.3,243l1.2.6.6.2h.5l.3-.4q0-.2-.3-.3l-1.2-.7.5-.2,1,.6q.6.3.6.6c.1.2-.1.4-.5.6a1.9,1.9,0,0,1-1,.3,1.9,1.9,0,0,1-1.1-.4l-1-.6Z" fill="#1c0f30"/>
      </g>
      <g>
        <path d="M120.6,239.4l-3.3-1.9,1.8-1,.5.3-1.3.7.8.5,1.3-.8.4.3-1.2.7,1,.6,1.3-.7.4.3Z" fill="#1c0f30"/>
        <path d="M123.4,237.8l-.5.2-2.1-1.2.5-.2.3.2v-.4l.3-.3.6-.2h.5v-.4l.4-.3.4-.2h1.1l1.3.7-.5.3-1-.6-.7-.3h-.4a.5.5,0,0,0-.3.4l.6.4.9.6-.5.2-1-.6-.7-.2c-.1-.1-.3,0-.5.1H122a.3.3,0,0,0-.1.2l.2.2.3.2Z" fill="#1c0f30"/>
        <path d="M127.8,236.3l-3-1.7.4-.3.4.2a.4.4,0,0,1-.1-.3l.4-.4,1-.2,1,.3a1,1,0,0,1,.6.7.5.5,0,0,1-.4.5l-.5.2h-.5l1.2.8Zm-1.5-1.4.6.2h.7a.8.8,0,0,0,.2-.4l-.4-.4-.6-.2-.6.2-.3.3C125.9,234.6,126,234.8,126.3,234.9Z" fill="#1c0f30"/>
        <path d="M129.5,234.2l-3.4-1.9.5-.3,3.4,2Z" fill="#1c0f30"/>
        <path d="M129.5,233.1l-.4-.3a.6.6,0,0,1-.1-.4v-.3c.1-.2.2-.3.4-.3l.5-.3h1.2l.6.2.3.3a.6.6,0,0,1,.1.4.4.4,0,0,1-.1.3.8.8,0,0,1-.4.4l-.5.2H130Zm1.8-1.1h-.7a.8.8,0,0,0-.7.1c-.2.1-.2.2-.2.4a.5.5,0,0,0,.3.4h.7a.7.7,0,0,0,.6-.1c.2-.1.3-.2.3-.4A.5.5,0,0,0,131.3,232Z" fill="#1c0f30"/>
        <path d="M134.6,232.4l-.4.3-.6-1-2.7-.7.5-.3,1.5.4h.5c-.1,0-.1-.1-.2-.3h0l-.6-.9.5-.3Z" fill="#1c0f30"/>
        <path d="M136.5,229.1l-1.7,1H136l.3-.3v-.3h.6a.4.4,0,0,1,0,.5l-.4.4a2.3,2.3,0,0,1-1.1.3l-1.2-.3c-.3-.2-.5-.4-.5-.6s.2-.5.5-.7a2,2,0,0,1,1.1-.3,2.3,2.3,0,0,1,1.1.3Zm-.9.1h-.5l-.5.2-.2.2c-.1.1,0,.2.1.4Z" fill="#1c0f30"/>
        <path d="M139,227.6l-1.7,1,.6.2.6-.2.3-.2V228h.6a.4.4,0,0,1,0,.5l-.4.5a2.3,2.3,0,0,1-1.1.3l-1.2-.3a1.2,1.2,0,0,1-.5-.7c0-.2.2-.4.5-.6a2.2,2.2,0,0,1,2.2,0Zm-.8.2a.7.7,0,0,0-.6-.1h-.5l-.2.3c-.1.1,0,.2.1.3Z" fill="#1c0f30"/>
        <path d="M139.8,227.8l.2-.3h.8c.1-.1.2-.1.2-.2V227h-2.1c-.2-.1-.3-.2-.3-.4a1.1,1.1,0,0,1,.5-.4l.5-.2h.5v.3h-.6l-.2.2h1.7l.5.2c.2.1.3.2.3.4a1.1,1.1,0,0,1-.5.4c-.2.2-.4.2-.6.3Z" fill="#1c0f30"/>
      </g>
      <g>
        <path d="M89,259.3l-2.8,1.6a1.1,1.1,0,0,1-.8,0l-4.2-2.4c-.2-.2-.2-.3,0-.4l2.9-1.7h.7l4.2,2.4C89.2,259,89.2,259.1,89,259.3Zm-7.5-1.1c-.1,0-.1.1,0,.1l4.2,2.5h.2l2.9-1.7h0l-4.3-2.5h-.2Z" fill="#1c0f30"/>
        <path d="M86.8,260.5c0,.1-.1.1-.2,0l-4.7-2.7c-.1,0-.1-.1,0-.1h.2l4.7,2.7C86.9,260.4,86.9,260.5,86.8,260.5Z" fill="#1c0f30"/>
      </g>
    </g>
    <g>
      <path d="M304.6,129.8l.2-1.9-2.2.7-4.8-2.8a3.2,3.2,0,0,0-2.7,0l-22.4,12.9-8.9,3v2.5q-.1.5.6.9l6.3,3.7a3.4,3.4,0,0,0,2.8,0l30.7-17.7c.6-.4.7-.9.3-1.3Z" fill="#904dff" stroke="#1c0f30" stroke-linecap="round" stroke-linejoin="round" stroke-width="0.42"/>
      <g>
        <path d="M295.1,123.3,264.4,141c-.7.5-.7,1.2.1,1.6l6.3,3.7a3.1,3.1,0,0,0,2.8,0l30.7-17.7c.7-.4.7-1.1-.1-1.6l-6.4-3.6A2.9,2.9,0,0,0,295.1,123.3Z" fill="#dbf301" stroke="#000" stroke-linecap="round" stroke-linejoin="round" stroke-width="0.45"/>
        <g>
          <path d="M274.5,139.2h-.6l-.6.2c-.3.2-.5.4-.5.6a.6.6,0,0,0,.5.6,2,2,0,0,0,1.1.3,1.6,1.6,0,0,0,1-.2.8.8,0,0,0,.4-.4.5.5,0,0,0,.2-.4l.5.3a.5.5,0,0,1-.2.4l-.4.3-.7.3h-1.7l-.7-.3-.4-.4c-.2-.1-.2-.3-.2-.5l.2-.4a.7.7,0,0,1,.5-.4l.5-.3h.7Z" fill="#1c0f30"/>
          <path d="M276.2,139.7l-.3-.3a.5.5,0,0,1,0-.6l.3-.3.5-.2h1.1l.4.2q.3.1.3.3l.2.3-.2.3-.3.3h-1.6Zm1.6-.9-.6-.2h-.6c-.2.1-.2.2-.2.4l.2.3.6.2.6-.2a.3.3,0,0,0,.3-.3Z" fill="#1c0f30"/>
          <path d="M279.6,138.8l-1.8-1.1.4-.2h.3a.2.2,0,0,1,0-.3c0-.1.2-.2.3-.3l.4-.2h.7l.4.2,1.1.6-.4.3-1-.6-.5-.2H279l-.2.2v.2a.1.1,0,0,0,.1.1l.3.2.8.5Z" fill="#1c0f30"/>
          <path d="M282,137.4l-1.9-1.1.4-.2.3.2c0-.2,0-.3.1-.4l.3-.3h1.1l.4.2,1.1.7-.4.2-1-.5-.6-.3h-.4l-.2.2a.3.3,0,0,0-.1.2l.2.2.3.2.8.5Z" fill="#1c0f30"/>
          <path d="M285.3,134.5l-1.5.9h1.1l.2-.3a.2.2,0,0,0,0-.3h.6v.5c-.1.1-.2.3-.4.4a2.6,2.6,0,0,1-2,0,1.3,1.3,0,0,1-.5-.6c0-.2.2-.4.5-.6l.9-.2,1,.2Zm-.7.1h-1l-.2.3a.4.4,0,0,0,.1.3Z" fill="#1c0f30"/>
          <path d="M286.7,133.2h-.8a.5.5,0,0,0-.2.4q0,.2.3.3l.6.2.6-.2a.2.2,0,0,0,.2-.2.1.1,0,0,0,0-.2l.5.3v.2l-.3.2a1.6,1.6,0,0,1-1,.2,1.8,1.8,0,0,1-1-.2.7.7,0,0,1-.4-.6c0-.2.2-.4.5-.6h.6Z" fill="#1c0f30"/>
          <path d="M288.5,133.6l-1.5-.8-.3.2-.4-.3.4-.2-.7-.4.4-.2.7.4.3-.2.4.2-.3.2,1.5.9Z" fill="#1c0f30"/>
          <path d="M290.9,132.3l-1.9-1.1.4-.2h.3v-.3l.4-.3.4-.2h.7l.3.2,1.2.6-.5.3-.9-.6-.6-.2h-.4l-.3.2v.2h.1l.3.2.9.5Z" fill="#1c0f30"/>
          <path d="M292.2,130.4c-.2,0-.3-.1-.3-.2a.4.4,0,0,1-.1-.3.8.8,0,0,1,.1-.4l.3-.2.5-.2h1.1l.4.2c.2,0,.3.1.3.2a.4.4,0,0,1,.1.3c0,.2,0,.3-.1.4l-.3.2-.5.2h-1.1Zm1.6-.9h-1.2c-.2.1-.3.2-.2.3a.5.5,0,0,0,.2.4h.6a.6.6,0,0,0,.6-.1c.2-.1.3-.2.2-.3A.5.5,0,0,0,293.8,129.5Z" fill="#1c0f30"/>
          <path d="M297.5,128.6l-1.4-.3h-.5c0,.1.1.1.1.2h.1l.6.8-3-.6.5-.2,1.3.3h.2l-.5-.9h0l1.5.3h.4l-.2-.2h-.1l-.5-.8.5-.2Z" fill="#1c0f30"/>
        </g>
      </g>
    </g>
    <g>
      <path d="M249.1,159.4l-2.4.8-4.6-2.7a3.2,3.2,0,0,0-2.7,0l-22.6,13-9.2,3.2v2.5a.8.8,0,0,0,.5.9l6.4,3.7a2.9,2.9,0,0,0,2.7.1l31.3-18.1c.5-.3.6-.6.5-1h.1Z" fill="#904dff" stroke="#1c0f30" stroke-linecap="round" stroke-linejoin="round" stroke-width="0.42"/>
      <g>
        <path d="M239.4,155l-31.3,18.1c-.8.4-.7,1.1,0,1.6l6.4,3.6a2.9,2.9,0,0,0,2.7.1l31.3-18.1c.8-.4.7-1.1,0-1.5l-6.4-3.7A2.9,2.9,0,0,0,239.4,155Z" fill="#dbf301" stroke="#000" stroke-linecap="round" stroke-linejoin="round" stroke-width="0.45"/>
        <g>
          <path d="M215.3,175.9l-2.9-1.7.4-.2,3.8.4-2.3-1.3.4-.2,2.9,1.6-.4.3-3.8-.5,2.3,1.3Z" fill="#1c0f30"/>
          <path d="M218.9,173l.4-.2c.2.2.3.3.2.5l-.4.4a1.7,1.7,0,0,1-1,.3,2.3,2.3,0,0,1-1.1-.3c-.3-.2-.5-.4-.5-.7a.5.5,0,0,1,.4-.5,1.7,1.7,0,0,1,1-.3,2.1,2.1,0,0,1,1,.4h.1l-1.5.9.7.2h.6l.2-.3C219.1,173.2,219,173.1,218.9,173Zm-1.7.3,1.2-.6-.6-.2h-.6c-.2.1-.3.2-.3.4Z" fill="#1c0f30"/>
          <path d="M220.9,172.3h.3l-.2.2h-.4a.2.2,0,0,1-.3,0l-.4-.2-1.2-.7-.3.2-.3-.2h.3l-.5-.3V171l.7.5.4-.2h.3l-.4.2,1.2.7h.7Z" fill="#1c0f30"/>
          <path d="M221.9,172l-2.7-.8.4-.2,1.5.5.6.2-.4-.3-.8-.9.3-.2,1.5.5.5.2-.2-.4-.9-.9.4-.2,1.4,1.6-.4.2-1.6-.5h-.4l1.2,1.1Z" fill="#1c0f30"/>
          <path d="M223.3,170.1c-.4-.3-.6-.5-.6-.7a.8.8,0,0,1,.5-.5,1.4,1.4,0,0,1,.9-.3,2,2,0,0,1,1.1.3l.5.4a.5.5,0,0,1,0,.5l-.4.3a1.7,1.7,0,0,1-1,.3A1.9,1.9,0,0,1,223.3,170.1Zm.3-.3.8.3h.6l.3-.4c0-.2-.2-.3-.5-.5l-.7-.2h-.7l-.2.4Z" fill="#1c0f30"/>
          <path d="M226.7,169.3l-2.1-1.2.3-.2.3.2c0-.2-.1-.3,0-.3s0-.1.1-.2h.5l.2.2h-.3l-.2.2v.2l.3.3,1.1.6Z" fill="#1c0f30"/>
          <path d="M228,168.5l-2.9-1.7.4-.2,1.6,1v-1l.5-.2v.9l2.2.2-.5.3-1.7-.3v.3l.8.5Z" fill="#1c0f30"/>
        </g>
        <path d="M240.4,159.2h2.3v-1.2c0-.1.1-.2.3-.2l.3.2v1.4h-3A.1.1,0,0,1,240.4,159.2Z" fill="#1c0f30"/>
      </g>
    </g>
    <g>
      <path d="M478.4,214.4h.1v-6.5a39.2,39.2,0,0,0-4.1,1.4L361.5,144a6.8,6.8,0,0,0-5.9,0l-71.5,41.3-2.4-2.1V190h0a2.3,2.3,0,0,0,1.2,1.6l115.8,66.9a6.8,6.8,0,0,0,5.9,0l72.7-42C478.3,216,478.7,215.2,478.4,214.4Z" fill="#904dff" stroke="#1c0f30" stroke-linecap="round" stroke-linejoin="round" stroke-width="0.42"/>
      <g>
        <path d="M477.3,210l-72.7,41.9a6,6,0,0,1-5.8,0L295.6,192.4,282.9,185c-1.6-.9-1.6-2.4,0-3.4l72.7-41.9a6.8,6.8,0,0,1,5.9,0l12.6,7.3,103.2,59.6C478.9,207.5,478.9,209,477.3,210Z" fill="#fff" stroke="#000" stroke-linecap="round" stroke-linejoin="round" stroke-width="0.5"/>
        <path d="M374.1,147l-78.5,45.4L282.9,185c-1.6-.9-1.6-2.4,0-3.4l72.7-41.9a6.8,6.8,0,0,1,5.9,0Z" fill="#dbf301" stroke="#000" stroke-linecap="round" stroke-linejoin="round" stroke-width="0.45"/>
        <line x1="416.8" y1="173.8" x2="341.8" y2="217.2" fill="none" stroke="#904dff" stroke-linecap="round" stroke-linejoin="round" stroke-width="0.4"/>
        <path d="M399.6,249a2.4,2.4,0,0,1-2.2,0l-8-4.6c-.6-.4-.6-.9,0-1.3l72.7-41.9a2,2,0,0,1,2.1,0l8,4.6c.6.4.6.9.1,1.3Z" fill="#dbf301" stroke="#000" stroke-linecap="round" stroke-linejoin="round" stroke-width="0.5"/>
        <path d="M385.3,240.8a2.4,2.4,0,0,1-2.2-.1L347.2,220a.6.6,0,0,1,0-1.2l72.6-42a2.8,2.8,0,0,1,2.2,0l35.9,20.8a.6.6,0,0,1,.1,1.2Z" fill="#e7d9fd" stroke="#000" stroke-linecap="round" stroke-linejoin="round" stroke-width="0.5"/>
        <line x1="430.3" y1="185.3" x2="361.6" y2="224.9" fill="#904dff" stroke="#fff" stroke-linecap="round" stroke-linejoin="round" stroke-width="0.4"/>
        <g>
          <path d="M308.9,177.8l.4-.6a1.4,1.4,0,0,0,.9.1l.9-.2c.2-.2.4-.3.4-.5s-.1-.3-.4-.5a2.1,2.1,0,0,0-1.6,0h-.3l-1.9.3-1.2-.4a.9.9,0,0,1-.6-.8c0-.3.3-.6.8-.9a3.1,3.1,0,0,1,1.2-.5h1.2l-.3.6h-.7l-.6.2c-.2.1-.4.2-.4.4a.5.5,0,0,0,.3.4,2.6,2.6,0,0,0,1.8,0h.2l1.8-.3,1.1.4c.5.3.8.6.8.9a1.4,1.4,0,0,1-.9,1,2.4,2.4,0,0,1-1.4.5A2.6,2.6,0,0,1,308.9,177.8Z" fill="#1c0f30"/>
          <path d="M311.6,173.5l2,1.1a1.6,1.6,0,0,0,.9.3l.9-.2c.3-.2.5-.4.5-.6l-.5-.5-2-1.1.8-.5,1.7,1c.7.4,1,.7,1.1,1.1s-.3.6-.9,1a2.7,2.7,0,0,1-1.7.4,3.2,3.2,0,0,1-1.8-.6l-1.8-.9Z" fill="#1c0f30"/>
          <path d="M319.5,172.9l-.8.5-3.4-2,.7-.4.6.3a.6.6,0,0,1,0-.6,1.2,1.2,0,0,1,.5-.5l.9-.3h.9a.7.7,0,0,1,.1-.6,1.2,1.2,0,0,1,.5-.5l.7-.3h1.2l.4.3h.3l2.1,1.2-.8.5-1.8-1-1-.5-.8.2q-.4.3-.3.6c0,.1.3.4.8.7l1.6.9-.8.4-1.8-1-1-.4a1.1,1.1,0,0,0-.8.2.3.3,0,0,0-.3.3.4.4,0,0,0-.1.3c.1.1.1.2.2.2l.6.4Z" fill="#1c0f30"/>
          <path d="M326.1,169.2l-.8.4-3.5-2,.8-.4.5.3a.6.6,0,0,1,0-.6c.1-.2.3-.3.6-.5a1.1,1.1,0,0,1,.8-.3h.9a1.5,1.5,0,0,1,.1-.7l.5-.5.8-.2h1.1l.5.3h.3l2.1,1.3-.8.4-1.8-1-1.1-.5-.7.2c-.3.2-.5.4-.4.6a1.9,1.9,0,0,0,.8.7l1.6.9-.8.5-1.8-1.1a2.6,2.6,0,0,0-1-.4,1.2,1.2,0,0,0-.8.2l-.3.3a.2.2,0,0,0,0,.3l.2.3.6.4Z" fill="#1c0f30"/>
          <path d="M335.1,164l-.8.4-.5-.2a.5.5,0,0,1,0,.5l-.5.5a3.2,3.2,0,0,1-1.7.3,4.1,4.1,0,0,1-1.8-.5,2,2,0,0,1-.9-1,1.2,1.2,0,0,1,.6-1l.9-.3h1l-.6-.3.8-.4Zm-2.5-.6-1.1-.3a1.2,1.2,0,0,0-1,.2c-.3.2-.5.4-.4.6s.2.4.6.6a2.1,2.1,0,0,0,1.1.4,1.9,1.9,0,0,0,1-.3.4.4,0,0,0,.3-.6C333.1,163.8,332.9,163.6,332.6,163.4Z" fill="#1c0f30"/>
          <path d="M334.1,161.2c-.2-.2-.3-.4-.2-.5a.5.5,0,0,1,.3-.4l.4-.2h.4l.4.6h-.3l-.3.2c-.3.1-.3.3-.2.5s.3.4.8.7l1.6.9-.8.4-3.5-2,.8-.4Z" fill="#1c0f30"/>
          <path d="M341.1,162.3l-.8.5-.9-1.7-4.5-1,.9-.6,2.4.7.5.2h.4l-.4-.5h0l-1-1.5.9-.5Z" fill="#1c0f30"/>
        </g>
        <g>
          <path d="M363.3,219.8l-3.3-1.9.3-.2,3,1.8,1.2-.7.3.2Z" fill="#904dff"/>
          <path d="M362.3,217.1h0Zm2.9,1.6-2-1.2h.3l2,1.1Z" fill="#904dff"/>
          <path d="M366.3,218.1l-2-1.2h.5a.4.4,0,0,1,.1-.3l.3-.3.7-.2.7.2,1.4.8-.3.2-1.2-.8h-1.2c-.2.1-.3.3-.2.4s.1.3.4.4l1.1.6Z" fill="#904dff"/>
          <path d="M369.5,215.1l-1.6.9a1.1,1.1,0,0,0,.8.3l.7-.2.3-.3a.8.8,0,0,0-.1-.4h.4a.5.5,0,0,1,0,.5l-.4.4-1,.2a1.7,1.7,0,0,1-1-.3,1.1,1.1,0,0,1-.6-.6.7.7,0,0,1,.4-.6,1.6,1.6,0,0,1,1-.2,1.9,1.9,0,0,1,1,.3Zm-.6.1-.6-.2-.6.2-.3.3a.8.8,0,0,0,.2.4Z" fill="#904dff"/>
          <path d="M372.5,214.5l-.3-.2a.2.2,0,0,1,0,.3q0,.2-.3.3a1.8,1.8,0,0,1-2,0,1.1,1.1,0,0,1-.6-.6c0-.3.1-.4.4-.6l.6-.2h.6l-.4-.2h.3l2,1.1Zm-2.3.2.8.2a.9.9,0,0,0,.7-.1.5.5,0,0,0,.3-.4.8.8,0,0,0-.5-.5c-.2-.2-.5-.2-.8-.3l-.7.2a.5.5,0,0,0-.3.4A1.2,1.2,0,0,0,370.2,214.7Z" fill="#904dff"/>
          <path d="M372.2,212.8c0-.2-.1-.3,0-.4l.2-.3h.3l.2.2h-.3a.5.5,0,0,0-.2.4.7.7,0,0,0,.5.4l1,.6-.3.2-2-1.2h.2Z" fill="#904dff"/>
          <path d="M376.4,212.2l-3.3-1.9,1.6-.9h.3l-1.3.8,1,.6,1.3-.8.3.2-1.3.8,1.7,1Z" fill="#904dff"/>
          <path d="M379,210.7l-.2.2-3.6-2,.3-.2Z" fill="#904dff"/>
          <path d="M380.8,209.8l-.5.2h-1.2l-.5-.2-.3-.3a.4.4,0,0,1-.1-.3.6.6,0,0,1,.1-.4l.3-.3.5-.2h1.2l.5.2.4.3c0,.1.1.2.1.4s-.1.2-.1.3Zm-.2-.2c.2-.1.3-.2.3-.4a.5.5,0,0,0-.4-.5l-.8-.2-.8.2a.5.5,0,0,0-.3.5.5.5,0,0,0,.3.4,1.3,1.3,0,0,0,.9.2A1.2,1.2,0,0,0,380.6,209.6Z" fill="#904dff"/>
          <path d="M383,208.6l-2.9-.8.3-.2,2,.6-1-1.3,2.2.5-.9-1.1.3-.2,1.3,1.7-2.2-.5Z" fill="#904dff"/>
        </g>
        <g>
          <path d="M308.5,191.4h-.8l-.7.3a.9.9,0,0,0-.6.8,1.2,1.2,0,0,0,.6.9l.7.2h1.6l.6-.3a1,1,0,0,0,.5-.4.8.8,0,0,0,.2-.5l.4.3-.3.4-.5.3a2,2,0,0,1-.8.4h-1.9l-.8-.4-.5-.4a.7.7,0,0,1-.2-.6.6.6,0,0,1,.2-.5l.5-.5.7-.3h.8Z" fill="#904dff"/>
          <path d="M311.8,192.6l-3.5-2,.3-.2,1.8,1.1v-.4l.3-.3.8-.2.7.2,1.4.8-.3.2-1.3-.7-.6-.2h-.5l-.3.4c0,.1.2.3.5.4l1,.7Z" fill="#904dff"/>
          <path d="M315.8,190.3l-.4-.2a.8.8,0,0,1,.1.4l-.3.3a1.2,1.2,0,0,1-1,.2,2,2,0,0,1-1.1-.3.7.7,0,0,1-.5-.6c-.1-.2.1-.4.3-.5l.6-.2h.6l-.3-.2.2-.2,2.1,1.2Zm-2.4.3.8.2a.8.8,0,0,0,.7-.2c.2-.1.3-.2.3-.4l-.5-.5-.7-.2-.7.2c-.3.1-.3.2-.3.4S313.2,190.4,313.4,190.6Z" fill="#904dff"/>
          <path d="M313.9,188.2V188h.6v.2h-.5Zm2.9,1.5-2-1.1.3-.2,2,1.2Z" fill="#904dff"/>
          <path d="M317.9,189.1l-2-1.1.2-.2.3.2a.8.8,0,0,1,.1-.4c0-.1.1-.2.3-.2a.8.8,0,0,1,.7-.2h.7l1.4.8-.3.2-1.2-.7-.6-.2h-.6c-.2.2-.3.3-.2.4s.1.3.4.5l1.1.6Z" fill="#904dff"/>
        </g>
        <g>
          <path d="M355.1,167.7l-3.4-2,1.7-.9.3.2-1.4.7,1,.6,1.4-.7h.3l-1.4.8,1.5.8,1.3-.7h.3Z" fill="#904dff"/>
          <path d="M358.9,165.4l-.4-.2a.8.8,0,0,1,.1.4l-.3.3a1.6,1.6,0,0,1-1,.2,2.3,2.3,0,0,1-1.1-.3c-.3-.2-.5-.4-.5-.6a.5.5,0,0,1,.4-.5l.5-.2h.7l-1.9-1.1.3-.2,3.5,2.1Zm-2.3.3.7.2a1.2,1.2,0,0,0,.8-.2c.2-.1.3-.2.2-.4s-.2-.3-.4-.5l-.8-.2a.8.8,0,0,0-.7.2c-.2.1-.3.2-.3.4S356.3,165.5,356.6,165.7Z" fill="#904dff"/>
          <path d="M358.2,163.5l1,.6.8.3h.6l.3-.4a2.3,2.3,0,0,0-.5-.5l-1.1-.5.3-.2,1.2.7c.3.1.5.3.5.5s-.1.3-.4.5a1.5,1.5,0,0,1-.9.2l-.9-.3-1.2-.6Z" fill="#904dff"/>
          <path d="M363.7,159.5h-.8l-.6.3c-.5.2-.7.5-.7.8s.2.6.7.9l.7.3h1.5l.7-.3.4-.4c.2-.1.2-.3.3-.4l.3.2a.5.5,0,0,1-.3.4l-.4.4-.8.3h-1.9l-.8-.3c-.3-.2-.5-.3-.6-.5a1.4,1.4,0,0,1-.2-.6l.2-.5c.1-.2.3-.3.6-.5l.7-.3h.7Z" fill="#904dff"/>
          <path d="M367.1,160.7l-3.3-1.9.3-.2,1.3.8,1.9-1.1-1.4-.8h.3l3.4,1.9-.3.2-1.8-1-1.8,1,1.7,1Z" fill="#904dff"/>
          <path d="M369.9,159.1l-2-2.9,4.9,1.2-.3.2-1.6-.4-1.4.8.7.9Zm-.5-1.3,1.2-.7-2.1-.5Z" fill="#904dff"/>
          <path d="M373.2,157.2l-3.4-1.9.3-.2,3.4,1.9Z" fill="#904dff"/>
          <path d="M374.3,156.6l-3.5-2.1,5.2.3-2.7-1.5.3-.2,3.5,2-5.2-.3,2.7,1.6Z" fill="#904dff"/>
        </g>
        <g>
          <path d="M367.5,225.5h-.8l-.7.2a1.2,1.2,0,0,0-.6.9c0,.3.2.6.7.8a.9.9,0,0,0,.7.3h1.5l.6-.2.5-.4c.1-.2.2-.3.2-.5l.4.2-.3.5-.5.3a1.1,1.1,0,0,1-.8.3l-.9.2-.9-.2a1.6,1.6,0,0,1-.9-.3l-.5-.5c-.2-.1-.2-.3-.2-.5s0-.4.2-.5l.5-.5.7-.3h.8Z" fill="#904dff"/>
          <path d="M370.9,226.7l-3.6-2.1h.3l1.8,1v-.3l.3-.3.8-.2.7.2,1.4.8-.3.2-1.3-.8h-.5a.7.7,0,0,0-.6.1c-.2.1-.3.2-.3.4a1.1,1.1,0,0,0,.5.4l1,.6Z" fill="#904dff"/>
          <path d="M374.8,224.4l-.4-.2c.1.1.1.2.1.4l-.3.3-1,.2a2,2,0,0,1-1.1-.3c-.3-.2-.5-.4-.5-.6s.1-.4.3-.6l.6-.2h.6l-.3-.3h.2l2.1,1.2Zm-2.4.2.8.3.7-.2a.5.5,0,0,0,.3-.4c0-.2-.2-.3-.5-.5l-.7-.2h-.7c-.2.2-.3.3-.3.5S372.2,224.5,372.4,224.6Z" fill="#904dff"/>
          <path d="M373,222.2h.2C373.1,222.3,373,222.3,373,222.2Zm2.8,1.6-2-1.2h.3l2,1.1Z" fill="#904dff"/>
          <path d="M376.9,223.2l-2-1.2h.2l.3.2c0-.2,0-.3.1-.4l.3-.3.7-.2.7.2,1.4.8-.3.2-1.2-.7a.7.7,0,0,0-.6-.2H376c-.3.1-.4.3-.3.4s.1.3.4.4l1.1.6Z" fill="#904dff"/>
        </g>
        <g>
          <path d="M414.1,201.7l-3.4-1.9,1.7-.9h.3l-1.4.8,1.1.6,1.3-.8.3.2-1.4.8,1.5.8,1.3-.8.3.2Z" fill="#904dff"/>
          <path d="M417.9,199.5l-.4-.2c.1.1.2.2.1.4s-.1.2-.3.3l-1,.2a2.3,2.3,0,0,1-1.1-.3c-.3-.2-.5-.4-.5-.6a.7.7,0,0,1,.4-.6l.5-.2h.7l-1.9-1.1.3-.2,3.5,2Zm-2.3.2a1.1,1.1,0,0,0,.7.3l.8-.2c.2-.1.3-.3.2-.4s-.2-.3-.4-.5l-.8-.2h-.7c-.2.2-.3.3-.3.5A1.1,1.1,0,0,0,415.6,199.7Z" fill="#904dff"/>
          <path d="M417.2,197.6l1,.6.8.3.6-.2.3-.3a1.2,1.2,0,0,0-.5-.5l-1-.6h.2l1.2.6c.3.2.5.4.5.6s-.1.3-.4.5l-.9.2-.9-.3-1.2-.7Z" fill="#904dff"/>
          <path d="M422.8,193.6h-.9l-.6.2c-.5.3-.7.6-.7.9s.3.6.7.8a.9.9,0,0,0,.7.3h1.5l.7-.2.5-.4.2-.5.3.2c0,.2-.1.3-.3.5l-.4.3a1.3,1.3,0,0,1-.8.3l-1,.2h-.9l-.8-.4a1,1,0,0,1-.6-.5.8.8,0,0,1-.2-.5c0-.2.1-.3.2-.5s.3-.4.6-.5l.7-.3h.7Z" fill="#904dff"/>
          <path d="M426.1,194.8l-3.3-2h.3l1.4.7,1.8-1-1.4-.8.3-.2,3.4,2h-.3l-1.8-1-1.8,1.1,1.7,1Z" fill="#904dff"/>
          <path d="M428.9,193.1l-2-2.8,4.9,1.2-.3.2-1.6-.4-1.3.8.6.9Zm-.5-1.2,1.2-.7-2.1-.5Z" fill="#904dff"/>
          <path d="M432.2,191.3l-3.4-2h.3l3.4,1.9Z" fill="#904dff"/>
          <path d="M433.3,190.6l-3.5-2,5.2.3-2.7-1.6h.3l3.5,1.9-5.2-.2,2.7,1.6Z" fill="#904dff"/>
        </g>
        <g>
          <path d="M318.7,199.7l-3.1-1.8-.9.5h-.3l2.1-1.3.3.2-.9.5,3.1,1.8Z" fill="#904dff"/>
          <path d="M320.8,198.5l-.5.2h-1.2l-.5-.2c-.1-.1-.3-.2-.3-.3a.5.5,0,0,1,0-.6l.3-.3.5-.2h1.2l.5.2c.2,0,.3.1.3.2l.2.4-.2.3C321.1,198.4,320.9,198.4,320.8,198.5Zm-.3-.1c.3-.2.4-.3.4-.5s-.2-.3-.4-.5l-.8-.2-.8.2c-.2.1-.4.3-.3.5s.1.3.3.5l.8.2Z" fill="#904dff"/>
          <path d="M322.4,197.5l-3.5-2,.2-.2,2.4,1.4.2-1.1.3-.2v1.1h2.2l-.3.2h-2.2l1.1.6Z" fill="#904dff"/>
          <path d="M325.3,194.7l-1.6.9c.2.2.5.2.8.3l.7-.2.3-.3a.8.8,0,0,0-.1-.4h.4a.3.3,0,0,1,0,.4c0,.2-.1.3-.4.4a1.8,1.8,0,0,1-2,0,1.1,1.1,0,0,1-.6-.6c0-.2.2-.4.4-.6a1.6,1.6,0,0,1,1-.2,1.7,1.7,0,0,1,1,.3Zm-.6,0h-.6l-.6.2-.3.3.2.4Z" fill="#904dff"/>
          <path d="M326.9,194.9l-2.1-1.1.3-.2.3.2v-.4l.3-.2a1.2,1.2,0,0,1,.8-.2,1,1,0,0,1,.7.2l1.4.7-.3.2-1.3-.7-.5-.2h-.6l-.3.4a1.2,1.2,0,0,0,.5.5l1,.6Z" fill="#904dff"/>
        </g>
        <g>
          <path d="M371.8,165.1h.3l2.2,1.2a1.6,1.6,0,0,0,.9.3l1-.2a.7.7,0,0,0,.4-.6c0-.2-.2-.3-.5-.5l-2.2-1.3.3-.2,2.1,1.2c.5.3.7.5.7.8a1,1,0,0,1-.6.7,1.8,1.8,0,0,1-1.2.3,2.2,2.2,0,0,1-1.3-.4Z" fill="#904dff"/>
          <path d="M377.6,165v-.2h.6l.6-.2a.5.5,0,0,0,.3-.4c0-.2-.1-.3-.3-.4l-.6-.2h-2l-.6-.2c-.3-.1-.4-.3-.4-.4a.7.7,0,0,1,.4-.5l.6-.2h.6v.2H376c-.2.1-.3.2-.3.4l.3.3h2.5l.6.2c.3.2.5.4.5.6s-.2.4-.5.5a.9.9,0,0,1-.7.3Z" fill="#904dff"/>
          <path d="M380.7,163.8l-3.3-1.9.5-.3,1-.5.8-.2h1l.9.4.7.5a.7.7,0,0,1,.1.6.8.8,0,0,1-.2.4l-.9.6h-.1Zm0-.3.5-.2.7-.5a.4.4,0,0,0,.1-.3.9.9,0,0,0-.1-.5l-.6-.4-.8-.4h-1.4a2,2,0,0,0-.8.4h-.1l-.3.2Z" fill="#904dff"/>
          <path d="M383.9,158.8h-.8l-.7.3c-.4.3-.6.5-.6.8s.2.6.7.9l.7.3h1.5l.7-.3.4-.3c.1-.2.2-.3.2-.5l.4.2-.3.4-.4.4-.9.3H383l-.9-.3c-.2-.2-.4-.3-.5-.5a.6.6,0,0,1-.2-.5,1.4,1.4,0,0,1,.2-.6l.5-.4.7-.3.8-.2Z" fill="#904dff"/>
        </g>
        <g>
          <path d="M375.7,232.6l-3.1-1.8-.9.6-.3-.2,2.2-1.2h.3l-.9.6,3,1.7Z" fill="#904dff"/>
          <path d="M377.8,231.5l-.5.2h-1.1l-.5-.2-.4-.3c-.1-.1-.1-.2-.1-.4a.4.4,0,0,1,.1-.3l.4-.3.5-.2h1.2l.5.2.3.3a.4.4,0,0,1,.1.3c0,.2,0,.3-.1.4Zm-.2-.2a.5.5,0,0,0,.3-.4.5.5,0,0,0-.3-.5,1.5,1.5,0,0,0-.9-.2,1.2,1.2,0,0,0-.8.2c-.2.1-.3.2-.3.4a.5.5,0,0,0,.4.5l.8.2Z" fill="#904dff"/>
          <path d="M379.4,230.4l-3.5-2,.3-.2,2.4,1.4v-1.1l.4-.2-.2,1.2h2.3l-.4.3h-2.1l1,.6Z" fill="#904dff"/>
          <path d="M382.3,227.6l-1.6,1,.8.2a.8.8,0,0,0,.7-.2.3.3,0,0,0,.3-.3.4.4,0,0,0-.1-.3h.4c.1.2.2.3.1.5l-.4.4a1.6,1.6,0,0,1-1,.2,2,2,0,0,1-1.1-.3c-.3-.2-.5-.4-.5-.6a.7.7,0,0,1,.4-.6l1-.2,1,.3Zm-.6.1-.6-.2-.6.2-.2.3c0,.2,0,.3.2.4Z" fill="#904dff"/>
          <path d="M383.9,227.9l-2-1.2.3-.2.3.2a.2.2,0,0,1,0-.3l.3-.3.7-.2.7.2,1.4.8h-.3l-1.2-.7-.6-.2-.5.2c-.2.1-.3.2-.3.4s.2.2.4.4l1.1.6Z" fill="#904dff"/>
        </g>
        <g>
          <path d="M428.8,198.1l.3-.2,2.2,1.3,1,.3a1.6,1.6,0,0,0,.9-.3c.3-.2.5-.4.5-.5s-.2-.4-.5-.6l-2.2-1.3h.3l2.1,1.2a1.5,1.5,0,0,1,.7.7c0,.3-.2.5-.6.7a2,2,0,0,1-1.3.4,3.8,3.8,0,0,1-1.3-.4Z" fill="#904dff"/>
          <path d="M434.6,197.9v-.2h.7l.5-.2c.2-.1.4-.2.3-.4l-.3-.4h-1.4l-1.1.2-.7-.2c-.2-.2-.3-.3-.3-.5s.1-.3.4-.5l.5-.2h.6v.2h-.4l-.4.2-.2.3c0,.1.1.2.2.3a1.9,1.9,0,0,0,1.3,0h1.2c.2.1.5.1.7.3a.5.5,0,0,1,.4.5.7.7,0,0,1-.4.6l-.7.2Z" fill="#904dff"/>
          <path d="M437.8,196.8l-3.4-1.9.5-.3,1.1-.6h1.7l1,.4a1.7,1.7,0,0,1,.6.6.6.6,0,0,1,.2.5l-.3.5-.8.5h-.1Zm0-.3.4-.3c.4-.2.6-.3.7-.5l.2-.3-.2-.4c-.1-.2-.3-.3-.6-.5l-.7-.3h-1.4l-.9.4H435Z" fill="#904dff"/>
          <path d="M441,191.8h-.9l-.6.2c-.4.3-.7.6-.6.9a.9.9,0,0,0,.6.8,1.1,1.1,0,0,0,.7.3h1.6l.6-.2.5-.4c.1-.2.2-.3.2-.5l.4.2-.3.5-.5.3-.8.4H440l-.8-.4c-.3-.1-.4-.3-.6-.5a.8.8,0,0,1-.2-.5c0-.2.1-.3.2-.5l.6-.5.7-.3h.7Z" fill="#904dff"/>
        </g>
        <g>
          <path d="M327.1,205.8l-2-2.9,4.9,1.2-.4.2-1.5-.4-1.4.8.7.9Zm-.5-1.3,1.1-.7-2-.5Z" fill="#904dff"/>
          <path d="M330.6,203.8h-.3l-2-1.2h.3l.3.2a.3.3,0,0,1,0-.4l.2-.2.5-.2h.6a.2.2,0,0,1,0-.3l.3-.3.7-.2.7.2,1.4.8-.3.2-1.3-.7a.7.7,0,0,0-.6-.2h-.5c-.2.1-.2.2-.2.3s.2.3.5.5l1,.6h-.3l-1.2-.7-.6-.2h-.5c-.2.2-.3.3-.2.4s.2.3.4.4Z" fill="#904dff"/>
          <path d="M335,201.3l-.5.2h-1.2l-.5-.2-.3-.3a.4.4,0,0,1-.1-.3.6.6,0,0,1,.1-.4l.3-.3.5-.2h1.2l.5.2.4.3c0,.1.1.2.1.4s-.1.2-.2.3Zm-.2-.2c.2-.1.3-.2.3-.4a.5.5,0,0,0-.4-.5l-.8-.2-.8.2a.5.5,0,0,0-.3.5.5.5,0,0,0,.3.4,1.3,1.3,0,0,0,.9.2A1.2,1.2,0,0,0,334.8,201.1Z" fill="#904dff"/>
          <path d="M334.9,198.9l1,.6a1.3,1.3,0,0,0,.8.3.7.7,0,0,0,.6-.1c.2-.1.3-.3.2-.4s-.2-.3-.5-.4l-1-.6.3-.2,1.2.7a1.2,1.2,0,0,1,.5.5.7.7,0,0,1-.4.5l-.9.3-1-.3-1.1-.7Z" fill="#904dff"/>
          <path d="M339.1,198.9l-2.1-1.2.3-.2.3.2v-.3l.4-.3a.8.8,0,0,1,.7-.2,1,1,0,0,1,.7.2l1.4.8h-.3l-1.3-.7-.5-.2-.6.2c-.2.1-.3.2-.3.4l.5.4,1.1.6Z" fill="#904dff"/>
          <path d="M339.8,196.4l-.4.2h-.2l.3-.3-.8-.4.3-.2.8.5.4-.2h.3l-.4.2,1.7,1.1h-.2Z" fill="#904dff"/>
        </g>
        <g>
          <path d="M390.4,168.9l.2.2-2.1,1.2v-1.1c-.1-.7-.2-1.2-.5-1.3l-.7-.2-.7.2c-.3.1-.4.3-.3.4s.1.3.3.5l-.3.2h0a.6.6,0,0,1-.5-.6c0-.2.2-.4.5-.6a3.8,3.8,0,0,1,1-.3,1.7,1.7,0,0,1,1,.3c.4.2.5.6.6,1.2h0v.9Z" fill="#904dff"/>
          <path d="M392.4,168.1a1.6,1.6,0,0,1-1.2.2,3.3,3.3,0,0,1-1.6-.5,2.2,2.2,0,0,1-1-.9.6.6,0,0,1,.4-.8,2.5,2.5,0,0,1,1.3-.2,4.7,4.7,0,0,1,1.5.6,1.8,1.8,0,0,1,1,.9C392.9,167.7,392.8,167.9,392.4,168.1Zm-2.5-.5a4.3,4.3,0,0,0,1.3.5,1.6,1.6,0,0,0,1-.1c.2-.2.3-.4.2-.6a1.7,1.7,0,0,0-.9-.7,2.4,2.4,0,0,0-1.3-.5c-.4-.1-.7-.1-.9.1a.4.4,0,0,0-.3.6Z" fill="#904dff"/>
          <path d="M395.1,166.6a1.6,1.6,0,0,1-1.2.2,5.2,5.2,0,0,1-1.6-.6,2.2,2.2,0,0,1-1-.9c-.1-.3,0-.5.4-.7a1.8,1.8,0,0,1,1.3-.2,3,3,0,0,1,1.5.5c.6.4.9.7,1,1S395.5,166.4,395.1,166.6Zm-2.5-.5,1.3.5a1.6,1.6,0,0,0,1-.2.4.4,0,0,0,.2-.5c-.1-.3-.4-.5-.9-.8a4.3,4.3,0,0,0-1.3-.5,1.6,1.6,0,0,0-1,.1c-.2.2-.3.4-.2.6A3.8,3.8,0,0,0,392.6,166.1Z" fill="#904dff"/>
        </g>
        <g>
          <path d="M382.1,237.5l-2-2.8,4.9,1.1-.4.2-1.5-.4-1.4.8.7.9Zm-.5-1.3,1.1-.7-2-.5Z" fill="#904dff"/>
          <path d="M385.6,235.5l-.3.2-2-1.2.3-.2.3.2a.4.4,0,0,1-.1-.3l.3-.3h.5a.4.4,0,0,1,.5,0v-.4l.3-.3h.7a1.2,1.2,0,0,1,.8.2l1.3.8H388l-1.3-.7-.6-.2h-.5c-.2.1-.3.3-.2.4s.2.3.4.4l1.1.6-.3.2-1.2-.7a.7.7,0,0,0-.6-.2h-.5c-.2.1-.3.2-.2.4s.1.2.4.4Z" fill="#904dff"/>
          <path d="M390,233l-.5.2h-1.2l-.5-.2-.3-.2a.8.8,0,0,1-.1-.4.4.4,0,0,1,.1-.3l.3-.3.5-.2h1.2l.5.2.3.3.2.3-.2.4Zm-.3-.1a.5.5,0,0,0,.4-.5c0-.2-.2-.3-.4-.4a1.1,1.1,0,0,0-.8-.3l-.8.2c-.2.2-.4.3-.3.5s.1.3.3.5l.8.2Z" fill="#904dff"/>
          <path d="M389.8,230.7l1.1.6.7.3.7-.2c.2-.1.3-.2.2-.3s-.2-.3-.5-.5l-1-.6h.3l1.1.6c.4.2.5.4.5.6s-.1.3-.4.5l-.8.2a1.7,1.7,0,0,1-1-.3l-1.1-.6Z" fill="#904dff"/>
          <path d="M394.1,230.6l-2.1-1.2h.3l.3.2v-.4l.3-.3.8-.2.7.2,1.4.8-.3.2-1.3-.7a.6.6,0,0,0-.5-.2h-.6a.5.5,0,0,0-.3.4,1.1,1.1,0,0,0,.5.4l1,.6Z" fill="#904dff"/>
          <path d="M394.8,228.1l-.4.2h-.2l.3-.2-.8-.5h.3l.8.4.4-.2h.2l-.4.3,1.8,1-.3.2Z" fill="#904dff"/>
        </g>
        <g>
          <path d="M425.6,230.1l-3.4-1.9,1.9-1.1.5.3-1.4.8.9.4,1.3-.7.5.3-1.4.7,1.6.9Z" fill="#1c0f30"/>
          <path d="M426.2,227.3l1.2.7.6.2.6-.2q.3-.1.3-.3c0-.1-.1-.2-.4-.4l-1.2-.7.5-.3,1.1.7q.6.3.6.6c.1.2-.1.4-.5.7a2,2,0,0,1-1.1.3l-1.1-.4-1.1-.6Z" fill="#1c0f30"/>
          <path d="M430.6,227.2l-2.1-1.2.5-.3.3.2v-.4l.4-.3.5-.2h.8l.4.3,1.3.7-.5.3-1.1-.6-.6-.3h-.6c-.1.1-.1.2-.2.2s-.1.2,0,.3h.1l.4.3.9.5Z" fill="#1c0f30"/>
          <path d="M431.4,222.7l.5-.3,3.5,2.1-.5.2h-.2a.4.4,0,0,1-.1.3l-.3.3a1.2,1.2,0,0,1-1,.2,2,2,0,0,1-1.1-.3q-.6-.3-.6-.6a.5.5,0,0,1,.4-.6l.5-.2h.6Zm2.5,1.4-.7-.2h-.6a.5.5,0,0,0-.3.4l.4.4.7.2h.6c.2-.1.3-.3.2-.4A.5.5,0,0,0,433.9,224.1Z" fill="#1c0f30"/>
          <path d="M435.8,220.9l2.8,1.7-.5.3-2.9-1.7-.9.6-.4-.3,2.3-1.3.5.2Z" fill="#1c0f30"/>
          <path d="M438.2,220.8a.8.8,0,0,1-.1-.4l.2-.2h.5l.3.4h-.4c-.2.1-.2.2-.2.3l.6.5.9.5-.5.3-2.1-1.3.5-.2Z" fill="#1c0f30"/>
          <path d="M442.3,219.3l-1.7,1,.6.2.6-.2.3-.3a.2.2,0,0,0,0-.3h.6c.1.2.2.4.1.5a1.2,1.2,0,0,1-.5.5,2,2,0,0,1-1.1.3,2.4,2.4,0,0,1-1.2-.3,1,1,0,0,1-.5-.7.8.8,0,0,1,.5-.7,2,2,0,0,1,1.1-.3,1.5,1.5,0,0,1,1.1.4Zm-.8.1h-.6l-.5.2c-.2.1-.2.2-.3.3l.2.3Z" fill="#1c0f30"/>
          <path d="M445.9,218.4l-.5.3-.3-.2v.4l-.3.3-1.1.2a2.3,2.3,0,0,1-1.1-.3,1.9,1.9,0,0,1-.6-.7.7.7,0,0,1,.4-.6l.6-.2h.6l-.4-.2.5-.3Zm-1.6-.3a.8.8,0,0,0-.7-.2.7.7,0,0,0-.6.1c-.2.1-.3.2-.2.4l.3.4.7.2c.2,0,.5,0,.6-.2s.3-.2.3-.3S444.5,218.2,444.3,218.1Z" fill="#1c0f30"/>
          <path d="M445.9,217.9l.2-.3h.8l.2-.2c0-.1,0-.1-.1-.2h-2.2a.4.4,0,0,1-.2-.4c0-.2.2-.3.4-.5l.5-.2h.6v.4h-.8c0,.1,0,.1.1.2h2.2c.2.1.3.3.2.4a.7.7,0,0,1-.4.5l-.7.3Z" fill="#1c0f30"/>
          <path d="M446.9,215.4l1.2.7h1.1l.3-.3c0-.2-.1-.3-.3-.4l-1.2-.7.5-.3,1,.6c.5.3.7.5.7.7s-.2.4-.5.6l-1.1.3-1.2-.3-1-.7Z" fill="#1c0f30"/>
          <path d="M450,214a.8.8,0,0,1-.1-.4l.2-.2h.5l.2.4h-.4c-.1.1-.2.2-.1.3a2.3,2.3,0,0,0,.5.5l1,.5-.5.3-2.2-1.3.5-.2Z" fill="#1c0f30"/>
          <path d="M454.4,214.7l-.5.3-.6-1.1-2.8-.7.6-.3,1.5.4h.5l-.2-.3h0l-.6-1,.5-.3Z" fill="#1c0f30"/>
        </g>
        <g>
          <path d="M445.3,200.7h.3l-2.1,1.3v-1.2c-.1-.7-.2-1.1-.5-1.3a.9.9,0,0,0-.7-.1.8.8,0,0,0-.7.2c-.3.1-.4.2-.4.4l.4.4-.3.2h0c-.3-.2-.5-.4-.5-.6s.2-.4.5-.6a1.9,1.9,0,0,1,1-.3l1,.2a1.8,1.8,0,0,1,.6,1.3h0v.9Z" fill="#904dff"/>
          <path d="M447.4,199.9a1.6,1.6,0,0,1-1.2.2,4.4,4.4,0,0,1-1.6-.6,1.8,1.8,0,0,1-1-.9c-.1-.3,0-.5.4-.7a1.6,1.6,0,0,1,1.2-.2,3,3,0,0,1,1.6.5c.6.4.9.7,1,1S447.8,199.7,447.4,199.9Zm-2.5-.5,1.3.5a1.6,1.6,0,0,0,1-.2.4.4,0,0,0,.2-.5c-.1-.3-.4-.5-.9-.8a4.3,4.3,0,0,0-1.3-.5,1.6,1.6,0,0,0-1,.1c-.2.2-.3.4-.2.6A2.4,2.4,0,0,0,444.9,199.4Z" fill="#904dff"/>
          <path d="M450.1,198.3a1.7,1.7,0,0,1-1.3.2,3,3,0,0,1-1.5-.5,1.8,1.8,0,0,1-1-.9.6.6,0,0,1,.4-.8,2.2,2.2,0,0,1,1.2-.2,5.2,5.2,0,0,1,1.6.6,1.8,1.8,0,0,1,1,.9C450.6,197.9,450.5,198.1,450.1,198.3Zm-2.5-.5a3.5,3.5,0,0,0,1.3.5,1.6,1.6,0,0,0,1-.1c.2-.2.3-.4.2-.6a1.7,1.7,0,0,0-.9-.7,2.7,2.7,0,0,0-1.3-.5,1.1,1.1,0,0,0-1,.1.4.4,0,0,0-.2.6A2.5,2.5,0,0,0,447.6,197.8Z" fill="#904dff"/>
        </g>
        <g>
          <path d="M337.1,211l-3.4-1.9,1.7-1,.3.2-1.4.8,1.1.6,1.3-.8.3.2-1.3.7,1.7,1Z" fill="#904dff"/>
          <path d="M339.7,209.5l-.3.2-3.5-2.1.2-.2Z" fill="#904dff"/>
          <path d="M341.5,208.6l-.5.2h-1.2l-.5-.2-.4-.3c0-.1-.1-.3-.1-.4v-.3l.4-.3.5-.2H341l.5.2.3.3a.4.4,0,0,1,.1.3.6.6,0,0,1-.1.4Zm-.3-.2a.5.5,0,0,0,.3-.5.5.5,0,0,0-.3-.4,1.3,1.3,0,0,0-.9-.2h-.8c-.2.2-.3.3-.3.5s.1.3.4.5l.8.2Z" fill="#904dff"/>
          <path d="M343.7,207.3l-3-.7.3-.2,2,.5-.9-1.3,2.2.6-1-1.2h.3l1.4,1.7-2.3-.6Z" fill="#904dff"/>
        </g>
        <g>
          <path d="M384.2,183.8l-3.4-1.9.3-.2,3.1,1.8,1.1-.7.3.2Z" fill="#904dff"/>
          <path d="M383.2,181.1h0Zm2.9,1.6-2.1-1.2h.3l2.1,1.1Z" fill="#904dff"/>
          <path d="M387.1,182.1l-2-1.2h.3l.3.2c-.1-.2-.1-.3,0-.4l.3-.3.7-.2.8.2,1.3.8-.3.2-1.2-.7a.7.7,0,0,0-.6-.2h-.5a.5.5,0,0,0-.3.4l.4.4,1.1.6Z" fill="#904dff"/>
          <path d="M390.3,179.1l-1.6.9a1.3,1.3,0,0,0,.8.3l.7-.2.3-.3a.4.4,0,0,0-.1-.3h.4a.9.9,0,0,1,.1.5l-.4.4-1,.2a2,2,0,0,1-1.1-.3c-.3-.2-.5-.4-.5-.6s.1-.4.4-.6a1.5,1.5,0,0,1,.9-.2,1.7,1.7,0,0,1,1,.3Zm-.6.1-.6-.2-.6.2-.3.3c0,.2.1.3.3.4Z" fill="#904dff"/>
          <path d="M393.4,178.5l-.4-.2a.4.4,0,0,1,.1.3l-.3.3a1.9,1.9,0,0,1-1,.3,2,2,0,0,1-1.1-.3c-.3-.2-.5-.4-.5-.6s.1-.4.3-.6l.6-.2h.6l-.3-.2h.2l2.1,1.1Zm-2.4.2a1.2,1.2,0,0,0,.8.2.8.8,0,0,0,.7-.1.5.5,0,0,0,.3-.4c0-.2-.2-.4-.5-.5s-.5-.2-.7-.3l-.7.2a.4.4,0,0,0-.3.4C390.6,178.4,390.8,178.5,391,178.7Z" fill="#904dff"/>
          <path d="M393.1,176.8a.8.8,0,0,1-.1-.4l.2-.3h.3l.2.2h-.2c-.2.1-.3.2-.2.4s.2.3.4.5l1,.5-.3.2-2-1.2h.3Z" fill="#904dff"/>
          <path d="M397.3,176.2l-3.4-1.9,1.7-.9h.3l-1.4.8,1.1.6,1.3-.7h.2l-1.3.8,1.8,1Z" fill="#904dff"/>
          <path d="M399.9,174.7l-.3.2-3.5-2,.2-.2Z" fill="#904dff"/>
          <path d="M401.7,173.8l-.5.2H400l-.5-.2-.4-.3c0-.1-.1-.2-.1-.3v-.4l.4-.3.5-.2h1.2l.5.2.3.3c.1.1.1.2.1.4a.4.4,0,0,1-.1.3Zm-.3-.1c.2-.2.3-.3.3-.5a.5.5,0,0,0-.3-.5l-.9-.2-.8.2a.5.5,0,0,0-.3.5c0,.1.1.3.4.4a1.1,1.1,0,0,0,.8.2Z" fill="#904dff"/>
          <path d="M403.9,172.6l-3-.8.3-.2,2,.6-.9-1.3,2.2.5-1-1.1.3-.2,1.4,1.7-2.3-.5Z" fill="#904dff"/>
        </g>
        <g>
          <path d="M296.1,179.9a.2.2,0,0,0,0,.3l3.1,1.8h.5a.2.2,0,0,0,0-.3l-3.2-1.8Z" fill="#1c0f30"/>
          <path d="M300,182.1q-.3.2,0,.3l.4.2h.4c.2,0,.2-.2,0-.2l-.4-.3Z" fill="#1c0f30"/>
          <path d="M294,178.7c-2.5,1.4-2.5,3.7,0,5.2a10.2,10.2,0,0,0,9,0c2.5-1.5,2.5-3.8,0-5.2A9.6,9.6,0,0,0,294,178.7Zm8.5,4.9a8.9,8.9,0,0,1-8.1,0c-2.3-1.3-2.3-3.4,0-4.7a8.9,8.9,0,0,1,8.1,0C304.8,180.2,304.8,182.3,302.5,183.6Z" fill="#1c0f30"/>
        </g>
        <g>
          <path d="M420.3,229.4l-4.2.8H416l-1.4,2.4h.1l.4.2h.2l5.6-3.2h0l-.5-.2Zm.3.3-5.4,3.1-.3-.2,1.4-2.3,4-.8Z" fill="#1c0f30"/>
          <path d="M422.9,231.5l-4.6,2.6v.2l.4.2h.2l4.6-2.7c.1,0,.1,0,0-.1l-.4-.2Zm-4.1,2.8h-.2l4.4-2.6.3.2Z" fill="#1c0f30"/>
          <path d="M423.4,231.7l-4.7,2.7h.2l4.6-2.7c.1,0,.1,0,0-.1Z" fill="#1c0f30"/>
          <path d="M417.7,231.8h.2l2.3-1.3H420Zm2.5-1.9-4.6,2.7c-.1,0-.1,0,0,.1l.4.2h.2l4.6-2.6c.1-.1.1-.1,0-.1l-.4-.3Zm.3.3-4.4,2.6-.2-.2,4.4-2.5Z" fill="#1c0f30"/>
          <polygon points="419 233.9 418.8 234 416.3 232.6 416.5 232.5 419 233.9" fill="#1c0f30"/>
          <polygon points="420.2 233.2 420 233.3 417.6 231.9 417.7 231.8 420.2 233.2" fill="#1c0f30"/>
          <polygon points="421.4 232.5 421.2 232.6 418.8 231.2 419 231.1 421.4 232.5" fill="#1c0f30"/>
          <polygon points="422.7 231.8 422.5 231.9 420 230.5 420.2 230.4 422.7 231.8" fill="#1c0f30"/>
        </g>
      </g>
    </g>
    <g>
      <path d="M446.3,305.7h0v-6.8l-3.2,1.6L328.9,235.3a6.2,6.2,0,0,0-5.9,0l-55.4,32.3-17.1,10-80.7,47.1-2.3-1.9v6.6h0a2.2,2.2,0,0,0,1.2,1.5l116.2,66.4a6.5,6.5,0,0,0,5.9-.1l154.3-90a2.5,2.5,0,0,0,1.2-1.6h0Z" fill="#904dff" stroke="#1c0f30" stroke-linecap="round" stroke-linejoin="round" stroke-width="0.42"/>
      <g>
        <path d="M445.1,300.6,389.7,333l-17.1,9.9-81.9,47.8a6,6,0,0,1-5.8,0l-103.5-59-12.7-7.3c-1.6-.9-1.6-2.5,0-3.4l81.8-47.8,17.1-10L323,230.9a6.8,6.8,0,0,1,5.9,0l12.7,7.3,103.4,59C446.7,298.2,446.7,299.7,445.1,300.6Z" fill="#fff" stroke="#000" stroke-linecap="round" stroke-linejoin="round" stroke-width="0.45"/>
        <path d="M341.6,238.2,181.4,331.7l-12.7-7.3c-1.6-.9-1.6-2.5,0-3.4l81.8-47.8,17.1-10L323,230.9a6.8,6.8,0,0,1,5.9,0Z" fill="#dbf301" stroke="#000" stroke-linecap="round" stroke-linejoin="round" stroke-width="0.45"/>
        <path d="M274.6,297l-69.7,40.7c-1.6.9-1.6,2.4.1,3.4l8.4,4.8a6.8,6.8,0,0,0,5.9,0l69.6-40.7c1.7-.9,1.6-2.4,0-3.4l-8.4-4.8A6.8,6.8,0,0,0,274.6,297Z" fill="#e7d9fd" stroke="#000" stroke-linecap="round" stroke-linejoin="round" stroke-width="0.45"/>
        <path d="M352.2,251.7l-69.6,40.6c-1.6,1-1.6,2.5,0,3.4l8.5,4.9a6.5,6.5,0,0,0,5.9-.1l69.6-40.6c1.6-.9,1.6-2.5-.1-3.4l-8.4-4.8A6.5,6.5,0,0,0,352.2,251.7Z" fill="#e7d9fd" stroke="#000" stroke-linecap="round" stroke-linejoin="round" stroke-width="0.45"/>
        <path d="M398.3,278l-77.7,45.3-10.2,6L251,364c-1.6.9-1.6,2.4.1,3.4l8.4,4.8a6.8,6.8,0,0,0,5.9,0l59.4-34.7,10.2-6,77.7-45.3c1.6-.9,1.6-2.5-.1-3.4l-8.4-4.8A6.8,6.8,0,0,0,398.3,278Z" fill="#e7d9fd" stroke="#000" stroke-linecap="round" stroke-linejoin="round" stroke-width="0.45"/>
        <g>
          <path d="M178.8,321l4.6,2.6-.9.5-4.6-2.6-1.4.8-.7-.4,3.6-2.2.8.5Z" fill="#1c0f30"/>
          <path d="M182.7,320.7a.6.6,0,0,1-.2-.5c0-.2.1-.3.3-.4l.4-.2h.5l.3.6h-.3l-.3.2a.4.4,0,0,0-.2.5,2.5,2.5,0,0,0,.9.7l1.5.8-.8.5-3.5-2,.8-.4Z" fill="#1c0f30"/>
          <path d="M189.2,318.3l-2.7,1.6a1.9,1.9,0,0,0,1,.3l1-.2.5-.5a1.5,1.5,0,0,0-.1-.6h1a.8.8,0,0,1,.1.8c-.1.3-.4.5-.8.8a3.5,3.5,0,0,1-3.6,0c-.6-.3-.9-.7-.9-1.1s.3-.7.8-1.1a3.9,3.9,0,0,1,1.8-.4,3.1,3.1,0,0,1,1.8.5Zm-1.3.2a1.4,1.4,0,0,0-.9-.1l-.8.2c-.3.2-.4.3-.4.5s0,.3.2.5Z" fill="#1c0f30"/>
          <path d="M194.9,316.9l-.8.4-.4-.2a.4.4,0,0,1-.1.5c0,.2-.2.4-.5.5a2.7,2.7,0,0,1-1.6.4,4.3,4.3,0,0,1-1.8-.6c-.6-.3-.9-.6-.9-1s.1-.7.6-.9a1.6,1.6,0,0,1,.9-.3h.9l-.5-.3.8-.5Zm-2.5-.6a2,2,0,0,0-1.1-.3l-1,.2a.7.7,0,0,0-.4.6,1.9,1.9,0,0,0,.6.7l1.1.3,1-.2a.7.7,0,0,0,.4-.6A1,1,0,0,0,192.4,316.3Z" fill="#1c0f30"/>
          <path d="M195,316.1l.3-.6h.7l.6-.2q.3-.1.3-.3c0-.1,0-.2-.2-.3a1.6,1.6,0,0,0-1,0h-.4a3,3,0,0,1-1.2.2l-.8-.2c-.4-.2-.5-.4-.4-.6s.2-.5.6-.8l.9-.3h.8l-.2.6a.3.3,0,0,0-.4,0h-.5l-.3.3a.2.2,0,0,0,.2.2c.2.1.5.1,1.1-.1h1.5l.8.2c.4.2.5.4.5.7a1.9,1.9,0,0,1-.8.8,1.7,1.7,0,0,1-1,.3Z" fill="#1c0f30"/>
          <path d="M196.5,312l1.9,1.1,1,.3a1.6,1.6,0,0,0,.9-.3c.3-.2.4-.3.4-.5s-.2-.4-.5-.5l-1.9-1.2.7-.4,1.8,1c.6.3,1,.7,1,1s-.2.7-.8,1a3,3,0,0,1-1.7.5,3.8,3.8,0,0,1-1.9-.6l-1.7-1Z" fill="#1c0f30"/>
          <path d="M201.5,309.7a.6.6,0,0,1-.2-.5.5.5,0,0,1,.3-.4h.4l.4-.2.4.6h-.6c-.3.1-.3.3-.2.5a3,3,0,0,0,.8.7l1.6.9-.8.4-3.5-2,.8-.4Z" fill="#1c0f30"/>
          <path d="M208.6,310.8l-.9.5-.9-1.7-4.5-1,.9-.5,2.4.6h.5l.4.2-.4-.5h0l-1-1.5.8-.5Z" fill="#1c0f30"/>
          <path d="M213.9,302.8l-.4-.2-.5-.2.3.3c.1.1.2.2.2.3l1.5,2.4-4.3-.8h-.5l-.5-.2.4.3.3.2,2,1.9-.8.4-4.3-3.9,5,1h.3l.7.2-.4-.5h0L211,301l6.9,2.5-.8.4Z" fill="#1c0f30"/>
          <path d="M221.8,301.2l-.8.5-.5-.3a.6.6,0,0,1,0,.6l-.5.4a3.3,3.3,0,0,1-1.7.4,4.1,4.1,0,0,1-1.8-.5,2,2,0,0,1-.9-1,1.2,1.2,0,0,1,.6-1,1.6,1.6,0,0,1,.9-.3,1.7,1.7,0,0,1,1,0l-.6-.3.8-.5Zm-2.5-.5-1.1-.4a1.7,1.7,0,0,0-1,.3c-.3.1-.5.3-.4.6s.2.4.6.6a2,2,0,0,0,1.1.3,1.2,1.2,0,0,0,1-.2q.5-.3.3-.6C219.8,301.1,219.6,300.9,219.3,300.7Z" fill="#1c0f30"/>
          <path d="M222.9,300.6l-3.5-2,.7-.4.6.3a.6.6,0,0,1,0-.6,1.4,1.4,0,0,1,.7-.6l.7-.3a1.1,1.1,0,0,1,.8,0h.5l.7.3,2.1,1.2-.8.5-1.8-1a1.9,1.9,0,0,0-1.1-.4.9.9,0,0,0-.8.2l-.4.3c0,.1-.1.3,0,.4l.2.2a1.5,1.5,0,0,0,.6.4l1.6.9Z" fill="#1c0f30"/>
          <path d="M230.5,296.1l-.8.5-.4-.3a1.3,1.3,0,0,1-.1.6,1.1,1.1,0,0,1-.5.4,2.9,2.9,0,0,1-1.6.4,3.5,3.5,0,0,1-1.8-.5,1.9,1.9,0,0,1-1-1c0-.4.2-.7.7-1a1.2,1.2,0,0,1,.9-.3h.9l-.6-.3.8-.5Zm-2.5-.5-1.1-.4a1.7,1.7,0,0,0-1,.3c-.3.2-.4.3-.4.6s.2.4.6.6a2.3,2.3,0,0,0,1.1.3,1.2,1.2,0,0,0,1-.2c.3-.2.4-.3.4-.6A1.7,1.7,0,0,0,228,295.6Z" fill="#1c0f30"/>
          <path d="M234.6,293.5c.7.4,1,.7,1,1s-.3.7-.9,1.1a4.3,4.3,0,0,1-1.4.4,1.9,1.9,0,0,1-1.3-.2l.9-.5h.5l.7-.2c.3-.2.5-.4.5-.6s-.2-.3-.6-.5l-.4-.3a.4.4,0,0,1-.1.5c0,.2-.2.4-.5.5a2.7,2.7,0,0,1-1.6.4,3.2,3.2,0,0,1-1.8-.6c-.6-.3-.9-.6-.9-1s.1-.6.6-.9a1.6,1.6,0,0,1,.9-.3h.9l-.5-.3.8-.5Zm-2.3-.5a2,2,0,0,0-1.1-.3l-1,.2a.7.7,0,0,0-.4.6,1.3,1.3,0,0,0,.6.7l1.1.3a1.6,1.6,0,0,0,1-.2.7.7,0,0,0,.4-.6A1,1,0,0,0,232.3,293Z" fill="#1c0f30"/>
          <path d="M237.6,290.1l-2.7,1.6a1.9,1.9,0,0,0,1,.3,1.7,1.7,0,0,0,1-.3l.5-.4a1.3,1.3,0,0,0-.1-.6l1-.2a1,1,0,0,1,.1.9c-.1.3-.4.5-.8.7a2.7,2.7,0,0,1-1.8.5,4.1,4.1,0,0,1-1.9-.5c-.5-.3-.8-.6-.8-1a1.4,1.4,0,0,1,.8-1.1,3.7,3.7,0,0,1,1.8-.5,4.1,4.1,0,0,1,1.8.5Zm-1.3.2a1.5,1.5,0,0,0-.9-.2,1.3,1.3,0,0,0-.8.3,1.1,1.1,0,0,0-.5.4.9.9,0,0,0,.3.6Z" fill="#1c0f30"/>
          <path d="M240.9,290.1l-.8.4-3.5-1.9.7-.5.6.3a.6.6,0,0,1,0-.6c.1-.2.3-.3.6-.5l.8-.3h.9a1.5,1.5,0,0,1,.1-.7l.5-.5.7-.2h1.2l.5.3h.2l2.1,1.2-.8.5-1.7-1-1.1-.5-.8.2q-.4.3-.3.6a1.9,1.9,0,0,0,.8.7l1.6.9-.8.5-1.8-1a3.1,3.1,0,0,0-1-.5l-.8.2q-.3.2-.3.3c-.1.1-.1.2,0,.4l.2.2.6.4Z" fill="#1c0f30"/>
          <path d="M248.3,283.9l-2.8,1.6,1.1.2a1.8,1.8,0,0,0,1-.2c.2-.2.4-.3.4-.5a.4.4,0,0,0,0-.5l1-.2a1.4,1.4,0,0,1,.1.9,2.9,2.9,0,0,1-.8.7,4.1,4.1,0,0,1-1.8.5,4.1,4.1,0,0,1-1.9-.5,1.4,1.4,0,0,1-.8-1.1c0-.4.2-.7.8-1a2.6,2.6,0,0,1,1.7-.5,3.2,3.2,0,0,1,1.9.5Zm-1.3.1h-.9l-.8.2c-.3.2-.5.4-.5.5a.5.5,0,0,0,.3.5Z" fill="#1c0f30"/>
          <path d="M250.7,284.3l-3.4-2,.7-.4.6.3a.6.6,0,0,1,0-.6,1.7,1.7,0,0,1,.6-.6l.8-.3h1.3l.7.4,2.1,1.2-.8.4-1.8-1a2.1,2.1,0,0,0-1.1-.4,1.3,1.3,0,0,0-.8.2l-.4.3c-.1.2-.1.3,0,.4l.2.3.6.3,1.5.9Z" fill="#1c0f30"/>
          <path d="M255.3,281.6l-2.8-1.5-.6.3-.7-.4.6-.3-1.3-.8.8-.5,1.3.8.6-.4.7.4-.6.4,2.8,1.6Z" fill="#1c0f30"/>
        </g>
        <g>
          <path d="M320.1,238.8h-.8l-.7.3a.9.9,0,0,0-.6.8,1.2,1.2,0,0,0,.6.9l.7.2h1.6l.6-.2.5-.4a.8.8,0,0,0,.2-.5l.4.2-.3.5-.5.3-.8.4h-1.9l-.8-.3-.6-.5a.7.7,0,0,1-.1-.6.6.6,0,0,1,.2-.5c.1-.2.3-.3.5-.5l.7-.3h.8Z" fill="#1c0f30"/>
          <path d="M323.4,240l-3.5-2,.3-.2,1.8,1.1c-.1-.2-.1-.3,0-.4l.3-.3.7-.2.8.2,1.3.8-.2.2-1.3-.7a.7.7,0,0,0-.6-.2h-.5a.5.5,0,0,0-.3.4c0,.1.2.3.5.4l1,.6Z" fill="#1c0f30"/>
          <path d="M327.4,237.7l-.4-.2c.1.1.1.2,0,.4l-.3.3-1,.2a1.9,1.9,0,0,1-1-.3,1.7,1.7,0,0,1-.6-.6.7.7,0,0,1,.4-.6l.6-.2h.6l-.4-.2.3-.2,2,1.1Zm-2.4.2a1.3,1.3,0,0,0,.8.3l.7-.2a.5.5,0,0,0,.3-.4l-.5-.5-.8-.2a1,1,0,0,0-.7.2c-.2.1-.3.2-.2.4S324.7,237.8,325,237.9Z" fill="#1c0f30"/>
          <path d="M327,236c0-.1-.1-.3,0-.4l.2-.2h.3l.2.3h-.3c-.1.1-.2.3-.1.4s.1.3.4.5l1,.5-.3.2-2-1.1.2-.2Z" fill="#1c0f30"/>
          <path d="M328.1,235.2l-.3.2h-.3l.4-.2-.9-.5.3-.2.9.5.4-.2h.2l-.4.2,1.8,1.1h-.3Z" fill="#1c0f30"/>
        </g>
        <g>
          <path d="M194.7,334.8l.2-.4h.7l.6-.3q.3-.1.3-.3t-.3-.3c-.2-.2-.6-.2-1.1-.1h-.2l-1.4.2c-.3-.1-.6-.1-.8-.3s-.5-.4-.5-.6a1,1,0,0,1,.6-.7l.8-.3h.9l-.2.4h-1c-.1.1-.2.2-.2.3s0,.2.2.3.7.2,1.3,0h.1l1.3-.2a1.1,1.1,0,0,1,.8.3c.4.2.6.4.6.7a1,1,0,0,1-.6.7,2.3,2.3,0,0,1-1.1.3A1.7,1.7,0,0,1,194.7,334.8Z" fill="#1c0f30"/>
          <path d="M198.6,333.4l-4.1-2.3.5-.3,2,1.1v-.4a1,1,0,0,1,.5-.4l.5-.3h.9l.6.2,1.5.9-.6.3-1.3-.7-.8-.3a.6.6,0,0,0-.5.2c-.2,0-.3.1-.3.2a.4.4,0,0,0-.1.3c.1,0,.1.1.2.2l.4.2,1.1.7Z" fill="#1c0f30"/>
          <path d="M204.1,330.2l-.6.3-.3-.2v.4a.8.8,0,0,1-.4.4,2.7,2.7,0,0,1-1.2.3l-1.3-.4a1.7,1.7,0,0,1-.7-.8.8.8,0,0,1,.5-.7l.6-.2h.7l-.4-.2.6-.3Zm-1.8-.4-.8-.2h-.7c-.3.2-.3.3-.3.5s.1.3.4.4a1.3,1.3,0,0,0,.8.3l.7-.2a.5.5,0,0,0,.3-.4C202.7,330.1,202.5,330,202.3,329.8Z" fill="#1c0f30"/>
          <path d="M206.1,330.4l-3.7-2.1.5-.3.4.2c0-.1-.1-.2,0-.4l.4-.4a2.2,2.2,0,0,1,1.2-.2,2.7,2.7,0,0,1,1.2.3c.5.3.7.5.7.8s-.1.5-.4.7l-.6.2h-.7l1.5.9Zm-1.9-1.7.8.2a.8.8,0,0,0,.7-.1.5.5,0,0,0,.3-.4c0-.2-.2-.3-.4-.5l-.8-.2a1.1,1.1,0,0,0-.8.1l-.3.4A.8.8,0,0,0,204.2,328.7Z" fill="#1c0f30"/>
          <path d="M209.2,325.8l-2,1.2.8.2.7-.2q.3-.2.3-.3a.3.3,0,0,0,0-.4h.7a.7.7,0,0,1,.1.6,1,1,0,0,1-.6.5,2.3,2.3,0,0,1-2.6,0,.9.9,0,0,1-.6-.8,1,1,0,0,1,.5-.7,2.2,2.2,0,0,1,1.3-.4,2,2,0,0,1,1.3.4Zm-.9.2a.8.8,0,0,0-.7-.1H207l-.3.4c0,.1.1.2.2.4Z" fill="#1c0f30"/>
        </g>
        <g>
          <path d="M215.2,342l-3.3-1.9.3-.2,3.1,1.8,1.1-.7.3.2Z" fill="#904dff"/>
          <path d="M214.3,339.3c-.1,0-.1,0-.1-.1h.1c0-.1.1-.1.2-.1h-.2Zm2.8,1.6-2-1.2h.3l2,1.1Z" fill="#904dff"/>
          <path d="M218.2,340.3l-2-1.2h.5a.4.4,0,0,1,.1-.3q0-.2.3-.3l.7-.2.7.2,1.4.8-.3.2-1.2-.8h-.6a.4.4,0,0,0-.5.1c-.3.1-.4.2-.3.4s.1.3.4.4l1.1.6Z" fill="#904dff"/>
          <path d="M221.4,337.3l-1.7.9.9.3.7-.2.3-.3a.8.8,0,0,0-.1-.4h.4a.3.3,0,0,1,0,.4c0,.2-.1.3-.4.4a1.8,1.8,0,0,1-2,0,1.1,1.1,0,0,1-.6-.6.7.7,0,0,1,.4-.6,1.2,1.2,0,0,1,1-.2l1,.2Zm-.6,0h-.6l-.6.2-.3.3a.8.8,0,0,0,.2.4Z" fill="#904dff"/>
          <path d="M224.4,336.6l-.3-.2c0,.2.1.3,0,.4l-.3.3a1.2,1.2,0,0,1-1,.2,1.7,1.7,0,0,1-1-.3.7.7,0,0,1-.6-.6.5.5,0,0,1,.4-.5l.6-.2h.6l-.4-.2.3-.2,2,1.2Zm-2.3.3.8.2a1,1,0,0,0,.7-.2c.2-.1.3-.2.2-.4s-.1-.3-.4-.5l-.8-.2-.7.2c-.2.1-.3.2-.3.4A1.2,1.2,0,0,0,222.1,336.9Z" fill="#904dff"/>
          <path d="M224.1,334.9a.2.2,0,0,1,0-.3c0-.1.1-.2.2-.3a.1.1,0,0,0,.1-.1h.2v.2h-.1a.1.1,0,0,1-.1.1.5.5,0,0,0-.2.4l.4.4,1,.6h-.2l-2.1-1.1.3-.2Z" fill="#904dff"/>
        </g>
        <g>
          <path d="M260.7,368l-3.3-1.9,1.6-1,.3.2-1.3.7,1,.6,1.3-.7.3.2-1.3.7,1.7,1Z" fill="#904dff"/>
          <path d="M260,365.2c-.1-.1-.1-.1-.1-.2a.1.1,0,0,1,.1-.1h.4a.1.1,0,0,1,.1.1c0,.1,0,.1-.1.1H260Zm2.9,1.5-2.1-1.1.3-.2,2.1,1.2Z" fill="#904dff"/>
          <path d="M264.2,365.9l-.3.2-3.5-2,.3-.2Z" fill="#904dff"/>
          <path d="M265.3,365.3l-.3.2-3.5-2.1h.2Z" fill="#904dff"/>
          <path d="M264.5,362.5h-.1c0-.1.1-.1.1-.2h.5c0,.1.1.1.1.2h-.6Zm2.9,1.6-2-1.2.3-.2,2,1.2Z" fill="#904dff"/>
          <path d="M268.5,363.4l-2.1-1.1.3-.2.3.2V362l.3-.3a1.2,1.2,0,0,1,.8-.2,1,1,0,0,1,.7.2l1.4.7-.3.2-1.3-.7-.5-.2-.6.2-.3.3a1.2,1.2,0,0,0,.5.5l1.1.6Z" fill="#904dff"/>
          <path d="M273.7,360.4l-.3-.2c0,.1.1.2,0,.3s-.1.2-.3.3a1.8,1.8,0,0,1-2,0,1.1,1.1,0,0,1-.6-.6.7.7,0,0,1,.4-.6l.6-.2h.6l-.4-.2h.3l2,1.1Zm-2.3.2a1.1,1.1,0,0,0,.8.2.9.9,0,0,0,.7-.1c.2-.2.3-.3.3-.5a1.1,1.1,0,0,0-.5-.4l-.8-.3-.7.2a.5.5,0,0,0-.3.4Z" fill="#904dff"/>
          <path d="M274.8,359.8l-2.1-1.2h.6v-.3l.3-.3.8-.2.7.2,1.4.8h-.3l-1.3-.7-.5-.2-.6.2c-.2.1-.3.2-.3.4l.5.4,1,.6Z" fill="#904dff"/>
          <path d="M280,356.7l-.3-.2c0,.1.1.2,0,.3s-.1.3-.3.4l-1,.2a1.7,1.7,0,0,1-1-.3,1.1,1.1,0,0,1-.6-.6.7.7,0,0,1,.4-.6l.5-.2h.7l-.4-.3h.3l2,1.1Zm-2.3.2a1.1,1.1,0,0,0,.8.3l.7-.2c.2-.1.3-.3.2-.4s-.1-.3-.4-.5l-.8-.2h-.7c-.2.2-.3.3-.3.5A1.1,1.1,0,0,0,277.7,356.9Z" fill="#904dff"/>
          <path d="M281.3,355.9l-.2.2-2.1-1.2h.3l.3.2v-.4c0-.1.1-.2.3-.2l.5-.2h.5a.2.2,0,0,1,0-.3l.3-.3.7-.2.7.2,1.4.8-.3.2-1.3-.8-.5-.2-.5.2q-.3.1-.3.3a1.2,1.2,0,0,0,.5.5l1.1.6h-.3l-1.3-.7-.5-.2h-.5l-.3.4c0,.1.2.3.5.4Z" fill="#904dff"/>
          <path d="M285.7,353.5l-.5.2h-1.1l-.5-.2-.4-.3c-.1-.1-.1-.2-.1-.4a.4.4,0,0,1,.1-.3l.3-.3.6-.2h1.1l.5.2.4.3a.4.4,0,0,1,.1.3.6.6,0,0,1-.1.4Zm-.2-.2a.5.5,0,0,0,.3-.5.5.5,0,0,0-.3-.4,1.5,1.5,0,0,0-.9-.2,1.1,1.1,0,0,0-.8.2c-.2.1-.3.2-.3.4a.5.5,0,0,0,.4.5l.8.2Z" fill="#904dff"/>
          <path d="M285.6,351.1l1,.6.8.3a.7.7,0,0,0,.6-.2q.3-.2.3-.3a1.2,1.2,0,0,0-.5-.5l-1.1-.6h.3l1.2.6c.3.2.5.4.5.6s-.1.3-.4.5l-.9.2a1.6,1.6,0,0,1-.9-.3l-1.2-.6Z" fill="#904dff"/>
          <path d="M289.8,351l-2-1.2h.2l.3.2c0-.2,0-.3.1-.4s.1-.2.3-.3l.7-.2.7.2,1.4.8-.3.2-1.2-.7a.7.7,0,0,0-.6-.2h-.6c-.2.1-.3.3-.2.4s.1.3.4.4l1.1.6Z" fill="#904dff"/>
          <path d="M290.5,348.5l-.4.2h-.2l.4-.2-.9-.5h.3l.8.4.4-.2h.3l-.4.3,1.8,1h-.3Z" fill="#904dff"/>
          <path d="M293.3,348.8v-.2h.5a.1.1,0,0,1,.1.1v.2h-.4Z" fill="#904dff"/>
          <path d="M294.6,348v-.2a.1.1,0,0,1,.1-.1h.6c0,.1-.1.1-.1.2h-.5Z" fill="#904dff"/>
          <path d="M295.9,347.2h-.1c0-.1.1-.1.1-.2h.5c.1.1.1.1.1.2h-.3C296.1,347.3,296,347.2,295.9,347.2Z" fill="#904dff"/>
        </g>
        <g>
          <path d="M271.7,286.9l3.4,1.9-.6.3-3.4-1.9-1,.6-.5-.3,2.6-1.5.6.3Z" fill="#1c0f30"/>
          <path d="M274.6,287.6l-.5-.3a.9.9,0,0,1-.1-.5c0-.1.1-.2.2-.4l.4-.3c.2-.2.4-.2.6-.3h1.5l.6.2a.8.8,0,0,1,.4.4.5.5,0,0,1,0,.8.8.8,0,0,1-.4.4l-.6.2h-1.5Zm2.1-1.2a1.1,1.1,0,0,0-.8-.2h-.8c-.2.2-.3.3-.3.5s.1.3.4.5l.8.2.8-.2a.5.5,0,0,0,.3-.5C277.1,286.7,276.9,286.5,276.7,286.4Z" fill="#1c0f30"/>
          <path d="M279.2,286.4l-4.1-2.4.5-.3,2.7,1.5V284l.7-.4v1.3h2.7l-.8.4h-2.4l1.3.7Z" fill="#1c0f30"/>
          <path d="M283.2,282.7l-2,1.2h1.4a.8.8,0,0,0,.4-.4.8.8,0,0,0-.1-.4h.8a.6.6,0,0,1,0,.6l-.5.6a3.2,3.2,0,0,1-1.4.3,3.1,3.1,0,0,1-1.3-.3c-.4-.3-.6-.5-.6-.8a.9.9,0,0,1,.6-.8,2.8,2.8,0,0,1,1.3-.3l1.3.3Zm-1,.1h-.6l-.6.2-.4.3a.5.5,0,0,0,.2.4Z" fill="#1c0f30"/>
          <path d="M284.9,283l-2.5-1.4.6-.3.4.2c-.1-.2-.1-.3,0-.4a.8.8,0,0,1,.4-.4l.6-.3h.9l.5.2,1.5.9-.5.3-1.3-.7-.8-.3a.7.7,0,0,0-.6.2l-.3.2v.3a.3.3,0,0,1,.1.2l.5.2,1.1.7Z" fill="#1c0f30"/>
        </g>
        <g>
          <path d="M292.6,296.2V296a1.6,1.6,0,0,0,.7,0h.5c.2-.2.3-.3.3-.4s-.1-.3-.3-.4l-.5-.2h-2.1a.7.7,0,0,1-.6-.2c-.3-.1-.4-.3-.4-.4a1,1,0,0,1,.4-.5l.6-.2h.6v.2H291c-.2.1-.3.2-.3.4s.1.2.3.3h2.5l.7.2a.7.7,0,0,1,.4.6.5.5,0,0,1-.4.5c-.2.2-.5.2-.7.3Z" fill="#904dff"/>
          <path d="M296.4,293.5l-1.6.9.8.2h.8c.1-.1.2-.2.2-.3s0-.3-.1-.4h.4c.1.2.2.4.1.5s-.2.3-.4.4a1.7,1.7,0,0,1-1,.3,2.3,2.3,0,0,1-1.1-.3c-.3-.2-.5-.4-.5-.6a.5.5,0,0,1,.4-.6,1.7,1.7,0,0,1,1-.3l1,.3Zm-.5,0h-1.3l-.2.4c0,.1,0,.2.2.3Z" fill="#904dff"/>
          <path d="M298.3,293.5l-.3.2-3.5-2,.3-.2Z" fill="#904dff"/>
          <path d="M299.8,291.5l-1.6.9.8.3.7-.2q.3-.2.3-.3a.8.8,0,0,0-.1-.4h.4c.1.1.2.3.1.4a.8.8,0,0,1-.4.4,1.7,1.7,0,0,1-1,.3,2,2,0,0,1-1.1-.3c-.3-.2-.5-.4-.5-.6a.7.7,0,0,1,.4-.6,1.5,1.5,0,0,1,.9-.2l1.1.2Zm-.6,0h-.6l-.6.2-.2.3a.4.4,0,0,0,.2.4Z" fill="#904dff"/>
          <path d="M301.3,289.9h-.4l-.4.2c-.3.2-.4.3-.4.5s.2.3.5.5l.8.2.8-.2.3-.2v-.3h.3c0,.1-.1.2-.2.3l-.3.3-1.1.2a1.7,1.7,0,0,1-1-.3.6.6,0,0,1-.5-.6.7.7,0,0,1,.4-.6l.4-.2h.4Z" fill="#904dff"/>
          <path d="M301.8,289.4l-.4.2h-.2l.4-.2-.9-.5.3-.2.8.5.4-.2h.3l-.4.3,1.8,1h-.3Z" fill="#904dff"/>
          <path d="M306.7,288.6l-3.1-1.7-.9.5h-.3l2.1-1.3.3.2-.9.5,3.1,1.8Z" fill="#904dff"/>
          <path d="M308.8,287.5l-.5.2h-1.2l-.5-.2c-.1-.1-.3-.2-.3-.3a.4.4,0,0,1-.1-.3.6.6,0,0,1,.1-.4c0-.1.2-.2.3-.3l.5-.2h1.2l.5.2c.1.1.3.2.3.3a.5.5,0,0,1,.2.4c0,.1-.1.2-.2.3S308.9,287.4,308.8,287.5Zm-.3-.2c.3-.1.4-.2.4-.4a.7.7,0,0,0-.4-.5l-.8-.2-.8.2c-.2.1-.4.3-.3.5a.5.5,0,0,0,.3.4,1.2,1.2,0,0,0,.8.2C308.1,287.5,308.3,287.5,308.5,287.3Z" fill="#904dff"/>
          <path d="M310.4,286.5l-3.6-2.1h.3l2.4,1.4v-1.1l.4-.3v1.2h2.2l-.3.3h-2.2l1.1.6Z" fill="#904dff"/>
          <path d="M313.3,283.6l-1.7,1,.9.2a1,1,0,0,0,.7-.2l.3-.2c0-.2,0-.3-.1-.4h.4a.5.5,0,0,1,0,.5c0,.1-.1.3-.4.4a1.6,1.6,0,0,1-1,.2l-1-.2c-.4-.2-.6-.4-.6-.7a.7.7,0,0,1,.4-.6l1-.2a1.9,1.9,0,0,1,1,.3Zm-.6.1a.7.7,0,0,0-.6-.1h-.6c-.2.1-.3.2-.3.4l.2.3Z" fill="#904dff"/>
          <path d="M314.8,283.9l-2-1.2h.6a.2.2,0,0,1,0-.3l.3-.3.7-.2.8.2,1.3.8h-.2l-1.3-.7-.6-.2-.5.2c-.2.1-.3.2-.3.4s.2.2.5.4l1,.6Z" fill="#904dff"/>
        </g>
        <g>
          <path d="M245.6,360.7l-1.4-.3-1.5.9.5.8-.7.4-2.1-3.4,5.9,1.2Zm-3.2.1,1-.6-1.2-.3h-.5c.1.1.1.2.2.2Z" fill="#1c0f30"/>
          <path d="M247.2,359.8l-.6.3-2.5-1.4.5-.3.4.2v-.4a.8.8,0,0,1,.4-.4l.6-.2h.7v-.4a.8.8,0,0,1,.4-.4l.5-.2h1.2l.2.2,1.5.8-.5.4-1.3-.8-.8-.3h-.5c-.3.2-.3.3-.3.4s.3.3.6.6l1.2.6-.6.3-1.3-.7-.8-.3h-.5l-.3.3v.2l.2.2.4.2Z" fill="#1c0f30"/>
          <path d="M249.9,356.8l-.5-.4c0-.1-.1-.3-.1-.4a.5.5,0,0,1,.2-.4.8.8,0,0,1,.4-.4l.6-.2H252l.6.3.4.3.2.4c0,.2-.1.3-.2.5l-.4.3-.6.3h-1.5Zm2.1-1.3-.8-.2-.8.2a.5.5,0,0,0-.3.5c0,.1.1.3.4.4a1.1,1.1,0,0,0,.8.2h.8c.2-.2.3-.3.3-.5S252.2,355.7,252,355.5Z" fill="#1c0f30"/>
          <path d="M252.5,353.8l1.4.8.7.2.6-.2c.3-.1.4-.3.4-.4l-.4-.4-1.4-.8.6-.3,1.2.7c.5.3.7.5.7.8s-.1.5-.5.7a3.8,3.8,0,0,1-1.3.4,4.3,4.3,0,0,1-1.3-.5l-1.3-.7Z" fill="#1c0f30"/>
          <path d="M257.6,353.7l-2.5-1.4.6-.4.4.3a.5.5,0,0,1,0-.5l.4-.4.6-.2h.9l.5.2,1.5.9-.5.3-1.3-.7-.8-.3h-.6l-.3.3v.2a.3.3,0,0,0,.1.2l.5.3,1.1.7Z" fill="#1c0f30"/>
          <path d="M260.9,351.8l-2-1.2-.4.3-.5-.3.4-.3-.9-.5.5-.3,1,.5.4-.3.5.3-.4.3,2,1.1Z" fill="#1c0f30"/>
        </g>
        <g>
          <path d="M270.2,377l-3.1-1.7-.9.5-.3-.2,2.1-1.2h.3l-.9.6,3.1,1.7Z" fill="#904dff"/>
          <path d="M271.8,376l-3.5-2,.3-.2,1.8,1.1c-.1-.1,0-.3,0-.4l.3-.3.7-.2.8.2,1.4.8-.3.2-1.3-.7-.6-.2h-.5c-.2.2-.3.3-.3.4s.2.3.5.4l1,.7Z" fill="#904dff"/>
          <path d="M275,373l-1.6.9a1.3,1.3,0,0,0,.8.3l.7-.2q.3-.2.3-.3a.4.4,0,0,0-.1-.3h.4a.9.9,0,0,1,.1.5l-.4.4-1,.2a2,2,0,0,1-1.1-.3c-.3-.2-.5-.4-.5-.6a.7.7,0,0,1,.4-.6l.9-.2a1.7,1.7,0,0,1,1,.3Zm-.6.1-.6-.2-.6.2-.3.3c0,.2.1.3.3.4Z" fill="#904dff"/>
          <path d="M279.4,371.6l-.3-.2c0,.1.1.2,0,.3s-.1.3-.3.4l-1,.2a1.7,1.7,0,0,1-1-.3q-.6-.3-.6-.6a.7.7,0,0,1,.4-.6l.5-.2h.7l-.4-.2h.3l2,1.1Zm-2.3.2a1.1,1.1,0,0,0,.8.3l.7-.2c.2-.1.3-.3.2-.4a.5.5,0,0,0-.4-.5l-.8-.2h-.7c-.2.2-.3.3-.3.5A1.1,1.1,0,0,0,277.1,371.8Z" fill="#904dff"/>
          <path d="M280.7,370.8l-.2.2-2.1-1.2h.3l.3.2v-.4c0-.1.1-.2.3-.2l.5-.2h.5a.2.2,0,0,1,0-.3q0-.2.3-.3l.7-.2.7.2,1.4.8h-.3l-1.3-.7-.5-.2-.5.2q-.3.2-.3.3a1.1,1.1,0,0,0,.5.4l1.1.7h-.3l-1.3-.7-.5-.2h-.6a.8.8,0,0,0-.2.4c0,.1.2.3.5.4Z" fill="#904dff"/>
          <path d="M285.1,368.4l-.5.2h-1.1l-.5-.2-.4-.3c-.1-.1-.1-.2-.1-.4a.4.4,0,0,1,.1-.3l.3-.3.6-.2h1.1l.5.2.4.3a.4.4,0,0,1,.1.3.6.6,0,0,1-.1.4Zm-.2-.2a.5.5,0,0,0,.3-.5c0-.1-.1-.3-.4-.4a1.7,1.7,0,0,0-1.6,0c-.2.1-.3.2-.3.4a.5.5,0,0,0,.4.5l.8.2Z" fill="#904dff"/>
          <path d="M285,366l1,.6.8.3a.7.7,0,0,0,.6-.2q.3-.1.3-.3c-.1-.2-.2-.3-.6-.5l-1-.6h.3l1.2.6c.3.2.5.4.5.6s-.1.3-.4.5l-.9.2a1.6,1.6,0,0,1-.9-.3l-1.2-.6Z" fill="#904dff"/>
          <path d="M289.2,365.9l-2-1.2h.2l.3.2v-.4l.4-.3.7-.2.7.2,1.4.8-.3.2-1.2-.8h-1.2c-.2.1-.3.3-.2.4s.1.3.4.4l1.1.6Z" fill="#904dff"/>
          <path d="M289.9,363.4l-.4.2h-.2l.3-.2-.8-.5.3-.2.8.5.4-.2h.3l-.4.3,1.8,1h-.3Z" fill="#904dff"/>
          <path d="M292.4,362l-.4.2-.2-.2.3-.2-.8-.5h.3l.8.5.4-.3.3.2-.4.2,1.8,1-.3.2Z" fill="#904dff"/>
          <path d="M296.3,361.9l-.5.2h-1.2l-.5-.2q-.3-.1-.3-.3a.5.5,0,0,1-.2-.4l.2-.3q0-.1.3-.3l.5-.2h1.2l.5.2.3.3a.4.4,0,0,1,.1.3.6.6,0,0,1-.1.4Zm-.3-.2c.2-.1.4-.3.3-.5a.5.5,0,0,0-.3-.4,1.2,1.2,0,0,0-.8-.2c-.4,0-.6,0-.8.2s-.4.2-.4.4a.7.7,0,0,0,.4.5l.8.2Z" fill="#904dff"/>
          <path d="M299.5,359.9h-.3l-3.5-2h.2l1.9,1c0-.1-.1-.2,0-.3a.3.3,0,0,1,.3-.3,1.7,1.7,0,0,1,1-.3,2.3,2.3,0,0,1,1.1.3c.3.2.5.4.5.6s-.1.4-.4.6l-.6.2h-.6Zm.4-1.4-.9-.2h-.7c-.2.2-.3.3-.3.4l.4.5.9.2a.9.9,0,0,0,.7-.1.5.5,0,0,0,.3-.4C300.3,358.8,300.1,358.7,299.9,358.5Z" fill="#904dff"/>
          <path d="M302.5,357l-1.6.9c.2.2.5.2.8.3l.7-.2.3-.3a.8.8,0,0,0-.1-.4h.4a.3.3,0,0,1,0,.4c0,.2-.1.3-.4.4a1.8,1.8,0,0,1-2,0,1.1,1.1,0,0,1-.6-.6.7.7,0,0,1,.4-.6,1.6,1.6,0,0,1,1-.2l1,.2Zm-.6,0h-.6l-.6.2-.3.3a.8.8,0,0,0,.2.4Z" fill="#904dff"/>
          <path d="M303.7,355.4l-.4.2h-.2l.3-.3-.8-.4.3-.2.8.5.4-.3.2.2-.4.2,1.8,1-.2.2Z" fill="#904dff"/>
          <path d="M305.2,354.7a.8.8,0,0,1-.1-.4c.1-.1.1-.2.3-.3h.3v.2h-.2c-.2.1-.2.2-.2.4l.4.4,1,.6-.2.2-2.1-1.2.3-.2Z" fill="#904dff"/>
          <path d="M309.5,354l-.4-.2a.6.6,0,0,1,.1.4q0,.2-.3.3a1.6,1.6,0,0,1-1,.2,2.3,2.3,0,0,1-1.1-.3.7.7,0,0,1-.5-.6.5.5,0,0,1,.4-.5l.5-.2a.8.8,0,0,1,.7,0l-.4-.2.3-.2,2,1.2Zm-2.3.3.7.2a1.2,1.2,0,0,0,.8-.2c.2-.1.3-.2.2-.4s-.2-.3-.4-.5l-.8-.2a.8.8,0,0,0-.7.2c-.2.1-.3.2-.3.4S306.9,354.1,307.2,354.3Z" fill="#904dff"/>
          <path d="M310.5,353.4l-2-1.1.3-.2.3.2a.2.2,0,0,1,0-.3q.1-.3.3-.3a1,1,0,0,1,.7-.2h.8l1.3.8-.2.2-1.3-.7-.6-.2h-.5l-.3.4c0,.2.2.3.5.5l1,.6Z" fill="#904dff"/>
          <path d="M312.4,351.9v-.2h.8c.1-.1.2-.1.2-.2s0-.2-.1-.2h-2.1c-.2-.1-.2-.2-.2-.3s.1-.3.3-.4l.5-.2h.6v.3H312l-.4.2c-.1,0-.1.1-.1.2a.1.1,0,0,0,.1.1h.9c.3-.1.5-.2.7-.1h.5a.5.5,0,0,1,.2.4c0,.1-.1.3-.4.4l-.5.2Z" fill="#904dff"/>
          <path d="M314.8,350.9l-1.8-1-.4.2h-.2l.4-.2-.6-.4-.7-.5.3-.3a.1.1,0,0,1,.1-.1h.2l.2.2H312v.2l.4.3.8.4.4-.2h.2l-.4.3,1.8,1Z" fill="#904dff"/>
          <path d="M316.7,348.7l-1.6.9c.2.2.5.2.8.3l.7-.2c.2-.1.2-.2.3-.3a.8.8,0,0,0-.1-.4h.4a.6.6,0,0,1,.1.4.8.8,0,0,1-.4.4,2,2,0,0,1-1.1.3,1.9,1.9,0,0,1-1-.3c-.3-.2-.5-.4-.5-.6s.1-.4.4-.6a1.3,1.3,0,0,1,.9-.2l1,.2Zm-.6,0h-.6l-.6.2q-.3.1-.3.3a.5.5,0,0,0,.3.4Z" fill="#904dff"/>
          <path d="M316.9,347.8c0-.1-.1-.3,0-.4l.2-.2h.3l.2.2h-.3l-.2.3a.8.8,0,0,0,.5.5l1,.6h-.3l-2.1-1.1.3-.2Z" fill="#904dff"/>
          <path d="M320.5,346.5l-1.6.9a1.1,1.1,0,0,0,.8.2.9.9,0,0,0,.7-.1l.3-.3a.8.8,0,0,0-.1-.4h.4a.6.6,0,0,1,.1.4.7.7,0,0,1-.5.4,1.5,1.5,0,0,1-1,.3,1.7,1.7,0,0,1-1-.3,1.1,1.1,0,0,1-.6-.6c0-.2.2-.4.4-.6a1.2,1.2,0,0,1,1-.2l1,.2Zm-.6,0h-.6l-.6.2-.3.3a.8.8,0,0,0,.2.4Z" fill="#904dff"/>
          <path d="M323.6,345.8l-.4-.2c.1.2.1.3,0,.4s-.1.2-.3.3a1.6,1.6,0,0,1-1,.2,1.9,1.9,0,0,1-1-.3,1.2,1.2,0,0,1-.6-.6.5.5,0,0,1,.4-.5l.6-.2h.6l-1.9-1.1.3-.2,3.5,2.1Zm-2.4.3.8.2a1,1,0,0,0,.7-.2c.2-.1.3-.2.3-.4a1.2,1.2,0,0,0-.5-.5l-.8-.2-.7.2c-.2.1-.3.2-.2.4S320.9,345.9,321.2,346.1Z" fill="#904dff"/>
          <path d="M324.2,343.4l-.4.2h-.2l.3-.2-.8-.5.3-.2.8.5.4-.2h.3l-.4.2,1.8,1.1H326Z" fill="#904dff"/>
          <path d="M328.1,343.3l-.5.2h-1.2l-.5-.2q-.3-.2-.3-.3c-.1-.1-.2-.2-.2-.3a.8.8,0,0,1,.2-.4q0-.2.3-.3l.5-.2h1.2l.5.2.3.3a.4.4,0,0,1,.1.3c0,.2,0,.3-.1.4Zm-.3-.2c.2-.1.4-.2.4-.4a1,1,0,0,0-.4-.5l-.8-.2-.8.2a.5.5,0,0,0-.4.5c0,.1.2.3.4.4a1.7,1.7,0,0,0,1.6,0Z" fill="#904dff"/>
          <path d="M328.7,340.5l.3-.2,2.2.6-1.1-1.2.3-.2,2,2.3-.3.2-.6-.8Z" fill="#904dff"/>
          <path d="M333.9,339.9l-.5.2h-1.2l-.5-.2-.3-.3a.4.4,0,0,1-.1-.3.6.6,0,0,1,.1-.4l.3-.3.5-.2h1.2l.5.2q.3.1.3.3l.2.3a.5.5,0,0,1-.2.4Q334.2,339.8,333.9,339.9Zm-.3-.2c.3-.1.4-.2.4-.4a.7.7,0,0,0-.4-.5l-.8-.2-.8.2a.5.5,0,0,0-.3.5.5.5,0,0,0,.3.4,1.2,1.2,0,0,0,.8.2C333.2,339.9,333.4,339.9,333.6,339.7Z" fill="#904dff"/>
          <path d="M333.7,337.5l1.1.6.7.3h.7c.2-.2.3-.3.2-.4l-.5-.5-1-.5.3-.2,1.1.7c.4.1.5.3.5.5s-.1.4-.4.5a.8.8,0,0,1-.8.2l-1-.2-1.1-.7Z" fill="#904dff"/>
          <path d="M336.6,336.3a.6.6,0,0,1-.1-.4l.3-.2h.3v.2H337c-.2.1-.2.2-.2.4s.2.3.4.4l1,.6H338l-2.1-1.1.3-.2Z" fill="#904dff"/>
          <path d="M339,334.7l-.3.2h-.3l.4-.2-.8-.5h.2l.9.4.4-.2h.2l-.4.3,1.8,1-.3.2Z" fill="#904dff"/>
          <path d="M340.6,334a.6.6,0,0,1-.1-.4.2.2,0,0,1,.2-.2h.3l.2.2h-.1c-.1,0-.1,0-.1.1s-.3.2-.2.3.2.3.4.5l1,.6h-.3l-2-1.1.3-.2Z" fill="#904dff"/>
          <path d="M344.1,332.7l-1.6.9a1.3,1.3,0,0,0,.8.2.8.8,0,0,0,.7-.1q.3-.1.3-.3a.8.8,0,0,0-.1-.4h.4c.1.2.2.4.1.5a.8.8,0,0,1-.4.4,1.7,1.7,0,0,1-1,.3,2,2,0,0,1-1.1-.3c-.3-.2-.5-.4-.5-.6a.7.7,0,0,1,.4-.6,1,1,0,0,1,.9-.2l1.1.2Zm-.6,0h-.6l-.6.2c-.1.1-.2.2-.2.3s0,.2.2.4Z" fill="#904dff"/>
          <path d="M347.2,332l-.4-.2a.6.6,0,0,1,.1.4l-.3.3a1.6,1.6,0,0,1-1,.2,2,2,0,0,1-1.1-.3.6.6,0,0,1-.5-.6.5.5,0,0,1,.4-.5l.5-.2a.6.6,0,0,1,.6,0l-.3-.2.2-.2,2.1,1.2Zm-2.4.3.8.2a.8.8,0,0,0,.7-.2c.3-.1.3-.2.3-.4s-.2-.3-.4-.5l-.8-.2-.7.2c-.2.1-.3.2-.3.4S344.6,332.1,344.8,332.3Z" fill="#904dff"/>
          <path d="M347.6,331.4v-.3h.5l.4-.2.2-.2c0-.1-.1-.1-.2-.2s-.4-.1-.8,0h-.1l-.7.2-.4-.2q-.3-.2-.3-.3a.5.5,0,0,1,.3-.4l.6-.2h.5v.2h-.7a.2.2,0,0,0-.2.2.3.3,0,0,1,.1.2h2.1a.5.5,0,0,1,.3.4c-.1.1-.2.3-.4.4l-.6.2Z" fill="#904dff"/>
          <path d="M348.3,329.1l1,.6.8.2a.7.7,0,0,0,.6-.1c.2-.1.3-.2.2-.4l-.5-.4-1-.6.3-.2,1.1.7c.4.2.5.4.5.5s-.1.4-.3.5a1.6,1.6,0,0,1-.9.3,1.9,1.9,0,0,1-1-.3l-1.1-.7Z" fill="#904dff"/>
          <path d="M351.1,327.9a.8.8,0,0,1-.1-.4l.3-.3h.3v.2h-.2a.5.5,0,0,0-.2.4c.1.1.2.3.4.4l1,.6-.2.2-2.1-1.2.3-.2Z" fill="#904dff"/>
          <path d="M351.6,327.1l.3-.2,2.2.6-1.1-1.2.3-.2,2,2.4H355l-.6-.8Z" fill="#904dff"/>
        </g>
        <g>
          <path d="M226,352.1l-2.1-1.2-.7.4H223l1.5-.9h.2l-.6.4,2.1,1.2Z" fill="#904dff"/>
          <path d="M227.2,351.4l-2.5-1.4h.2l1.3.7c-.1,0-.1-.1,0-.2l.2-.2h1l1,.5-.2.2-.9-.5-.4-.2h-.4c-.1.1-.2.2-.2.3s.1.2.3.3l.8.4Z" fill="#904dff"/>
          <path d="M226.9,349.3h-.1c0-.1,0-.1.1-.1h0Zm2,1.1-1.4-.8h.2l1.4.8Z" fill="#904dff"/>
          <path d="M229.2,350v-.2h.7c0-.1,0-.1-.1-.2h-1.4c-.1-.1-.2-.2-.2-.3a.2.2,0,0,1,.2-.2l.4-.2h.4v.2h-.6c0,.1,0,.1.1.1h1.4c.1.1.2.2.2.3l-.3.3h-.8Z" fill="#904dff"/>
          <path d="M229.8,347.6a.1.1,0,0,1-.1-.1h.1c0-.1.1-.1.2-.1a.1.1,0,0,1,.1.1h.1c0,.1,0,.1-.1.1h-.3Zm2,1.1-1.4-.8h.2l1.4.8Z" fill="#904dff"/>
          <path d="M232.2,348.3v-.2h.8c0-.1-.1-.1-.1-.2h-1.5a.2.2,0,0,1-.2-.2l.3-.3h.7v.2h-.5a.1.1,0,1,0,0,.2H233c.2.1.2.2.2.3s-.1.1-.2.2l-.4.2Z" fill="#904dff"/>
          <path d="M235,346.9h-.2l-2.5-1.4h.2Z" fill="#904dff"/>
          <path d="M236.5,346l-.2-.2c0,.1.1.2,0,.3l-.2.2-.7.2-.7-.2c-.3-.2-.4-.3-.4-.5a.5.5,0,0,1,.3-.4h.7l1.4.8Zm-1.6.1.5.2h.5c.2-.1.3-.2.2-.3s-.1-.2-.3-.3l-.5-.2h-.5c-.2.1-.2.2-.2.3S234.7,346,234.9,346.1Z" fill="#904dff"/>
          <path d="M237.3,345.6l-1.5-.9h.2l.3.2a.2.2,0,0,1,0-.3c0-.1.1-.1.2-.2h1l1,.6h-.2l-.9-.5-.4-.2h-.4l-.2.3q0,.2.3.3l.8.4Z" fill="#904dff"/>
          <path d="M238.8,343l1.2.7.4.3a.1.1,0,0,1,.1.1.4.4,0,0,1,.1.3l-.3.2a.7.7,0,0,1-.6.2h-.5l.2-.2h.4l.3-.2h.2v-.2h-.6a.4.4,0,0,1,.1.3l-.2.2a.9.9,0,0,1-.7.1,1.2,1.2,0,0,1-.8-.2c-.2-.1-.3-.2-.3-.4a.4.4,0,0,1,.2-.4h.9l-.3-.2Zm-.6.5c-.1.1-.2.2-.1.3s.1.2.3.3l.5.2h.5c.1-.1.2-.2.2-.3a.5.5,0,0,0-.3-.4h-1.1Z" fill="#904dff"/>
          <path d="M239.5,342.6l.7.4.6.2h.4c.2-.1.2-.2.2-.2l-.4-.4-.7-.4h.2l.8.5c.2.1.4.2.4.4s-.1.2-.3.3l-.6.2-.7-.2-.8-.5Z" fill="#904dff"/>
          <path d="M243.5,341.9h-.3c.1.1.1.1.1.2a.2.2,0,0,1-.2.2,1,1,0,0,1-.7.2l-.8-.2c-.2-.1-.3-.3-.4-.4s.1-.3.3-.4l.4-.2h.4l-.2-.2h.2l1.4.8Zm-1.7.2.6.2.5-.2.2-.3q0-.2-.3-.3l-.6-.2-.5.2c-.1,0-.2.1-.2.3Z" fill="#904dff"/>
          <path d="M244,340l1.2.6.4.3h.2a.2.2,0,0,1,0,.3l-.3.3-.5.2h-.6l.3-.2h.6l.2-.2v-.2c-.1,0-.1,0-.1-.1h-.3l-.2-.2a.2.2,0,0,1,0,.3.2.2,0,0,1-.2.2l-.7.2-.7-.2c-.2-.2-.4-.3-.4-.5l.3-.4h.7Zm-.5.4c-.2.1-.2.2-.2.3s.1.2.3.3a.7.7,0,0,0,.6.2h.4c.2-.1.3-.2.2-.3s-.1-.2-.3-.3l-.5-.2Z" fill="#904dff"/>
          <path d="M246.5,339.4l-1.1.6.5.2h.5l.2-.2c.1-.1,0-.2,0-.3h.2a.4.4,0,0,1,.1.3q0,.2-.3.3a.8.8,0,0,1-.7.1.8.8,0,0,1-.7-.2c-.3-.1-.4-.2-.4-.4a.5.5,0,0,1,.3-.4l.6-.2.7.2Zm-.4,0h-.9a.4.4,0,0,0-.1.3c-.1.1,0,.1.1.2Z" fill="#904dff"/>
          <path d="M247.3,338.2l-.2.2h-.2l.3-.2-.6-.3h.2l.6.3h.1l1.3.7-.2.2Z" fill="#904dff"/>
          <path d="M249.4,338.5l-2.5-1.4h.2l1.2.7v-.2l.3-.2.5-.2.5.2.9.5h-.2l-.8-.5h-.8c-.2.1-.2.2-.2.3s.1.2.3.3l.7.4Z" fill="#904dff"/>
          <path d="M252.1,336.9h-.3c.1,0,.1.1.1.2a.2.2,0,0,1-.2.2l-.7.2-.8-.2c-.2-.1-.3-.3-.4-.4s.1-.3.3-.4l.4-.2h.4l1.4.8Zm-1.7.2h1.1l.2-.3q0-.2-.3-.3l-.6-.2h-.5l-.2.3Z" fill="#904dff"/>
          <path d="M251.6,335.7l-.3.2h-.1l.2-.2-.5-.3h.1l.6.3h.2l1.3.7-.2.2Z" fill="#904dff"/>
          <path d="M255,335.3l-2.1-.5h.2l1.4.3-.6-.9,1.5.4-.6-.8h.2l.9,1.2-1.6-.4Z" fill="#904dff"/>
          <path d="M254.7,333.1c-.1,0-.1,0-.1-.1h.1Zm2,1.1-1.4-.8h.2l1.4.8Z" fill="#904dff"/>
          <path d="M257.6,333.7h-.2l-2.4-1.4.2-.2Z" fill="#904dff"/>
          <path d="M258.4,333.2h-.2l-2.5-1.4h.2Z" fill="#904dff"/>
          <path d="M260.1,332.3h-.2l-2.5-1.5h.2l1.3.8c0-.1-.1-.2,0-.3l.2-.2a.8.8,0,0,1,.7-.1.8.8,0,0,1,.7.2c.3.1.4.2.4.4a.5.5,0,0,1-.3.4h-.8Zm.2-1-.5-.2h-.6c-.1.1-.2.2-.2.3l.3.3.6.2h.5c.2-.1.2-.2.2-.3S260.5,331.4,260.3,331.3Z" fill="#904dff"/>
          <path d="M262.1,330.2l-1.1.7h.6a.4.4,0,0,0,.5-.1.2.2,0,0,0,.2-.2v-.2h.3a.6.6,0,0,1,.1.4l-.3.2a1,1,0,0,1-.7.2l-.8-.2-.4-.4c0-.2.1-.3.3-.4a.8.8,0,0,1,.7-.2l.7.2Zm-.4.1h-.8c-.1.1-.2.1-.2.2s.1.2.2.3Z" fill="#904dff"/>
          <path d="M263,328.9l.7.4.5.2h.5c.1-.1.2-.1.1-.2l-.3-.4-.7-.4h.2l.8.5c.2.1.3.2.3.4s0,.2-.2.3l-.7.2-.6-.2-.8-.5Z" fill="#904dff"/>
          <path d="M265.5,328.8v-.2h.6a.1.1,0,0,0,.1-.1h-.1q-.1-.2-.6,0h-.8c-.2-.1-.2-.2-.2-.3s.1-.1.2-.2h.2a.1.1,0,0,0-.1.1c0,.1,0,.1.1.1h1.4l.2.3q0,.2-.3.3h-.8Z" fill="#904dff"/>
          <path d="M267.7,327l-1.2.7h1.1c.1-.1.2-.1.2-.2v-.3h.2a.4.4,0,0,1,.1.3l-.3.3-.7.2-.8-.2c-.2-.2-.3-.3-.3-.5s.1-.2.3-.4h.6a.8.8,0,0,1,.7.2Zm-.4,0h-.5l-.4.2a.2.2,0,0,0-.2.2l.2.2Z" fill="#904dff"/>
          <path d="M269.8,326.6l-.2-.2v.3l-.2.2h-.7a.8.8,0,0,1-.7-.2c-.3-.1-.4-.2-.4-.4a.8.8,0,0,1,.2-.4h.9l-1.4-.8h.2l2.5,1.4Zm-1.6.1.5.2h.5c.2-.1.2-.2.2-.3s-.1-.3-.3-.4h-1c-.2.1-.2.2-.2.3S268,326.6,268.2,326.7Z" fill="#904dff"/>
          <path d="M269.5,324.5a.1.1,0,0,1-.1-.1h.1Zm2,1.1-1.4-.8.2-.2,1.4.9Z" fill="#904dff"/>
          <path d="M272.2,325.1l-1.4-.8h.4v-.2l.3-.2h1l.9.5-.2.2-.8-.5-.4-.2h-.4c-.2.1-.2.2-.2.3l.3.3.7.4Z" fill="#904dff"/>
          <path d="M273.7,322.9h-.2l-.6-.4h.2l.6.4.3-.2h.1l-.2.2,1.2.7h-.2Z" fill="#904dff"/>
          <path d="M275.7,323.1l-2.5-1.4h.2l1.3.7c-.1,0-.1-.1,0-.2s.1-.1.2-.2l.5-.2.5.2,1,.5-.2.2-.9-.5-.4-.2H275c-.1.1-.2.2-.2.3l.3.3.8.4Z" fill="#904dff"/>
          <path d="M277.9,321l-1.1.7.5.2.5-.2a.2.2,0,0,0,.2-.2c.1,0,0-.1,0-.2h.3v.4c0,.1-.1.2-.3.2a.8.8,0,0,1-.7.2l-.7-.2c-.3-.1-.4-.3-.4-.4s.1-.3.3-.4l.6-.2.8.2Zm-.4.1h-.9c-.1.1-.1.1-.1.2a.4.4,0,0,0,.1.3Z" fill="#904dff"/>
          <path d="M281,320h-.3a.3.3,0,0,1,.1.2l-.2.3h-.7l-.8-.2a.5.5,0,0,1-.3-.4c-.1-.2,0-.3.2-.4h.8l-1.3-.8h.2l2.5,1.4Zm-1.6.2.5.2.5-.2c.1,0,.2-.1.2-.3l-.3-.3h-.6c-.2-.1-.3,0-.5.1l-.2.3Z" fill="#904dff"/>
          <path d="M282.8,319h-.3c.1,0,.1.1,0,.2l-.2.2-.7.2-.7-.2c-.2-.1-.4-.3-.4-.4s.1-.3.3-.4l.4-.2h.3l1.5.8Zm-1.7.2h1.1c.1-.1.2-.2.1-.3l-.3-.3-.5-.2H281c-.2.1-.2.2-.2.3S280.9,319.1,281.1,319.2Z" fill="#904dff"/>
          <path d="M283.1,318.5h.6l.2-.2h-.1q-.2-.2-.6,0h-.9c-.1,0-.2-.1-.1-.2s0-.2.2-.3h.7v.2a.1.1,0,0,0-.2,0h-.3c0,.1-.1.1-.1.2H284c.1.1.1.1.1.2l-.2.3-.4.2Z" fill="#904dff"/>
          <path d="M284.7,317.9l-2.5-1.5h.2l1.3.8v-.3l.2-.2H285l.9.6h-.2l-.9-.5-.4-.2h-.3c-.2.1-.3.2-.2.3s.1.2.3.3l.7.4Z" fill="#904dff"/>
          <path d="M286.6,316.8h-.2l-2.5-1.5h.2l1.4.8a.4.4,0,0,1-.1-.3l.3-.2a.7.7,0,0,1,.6-.1,1.1,1.1,0,0,1,.8.2.8.8,0,0,1,.4.4.5.5,0,0,1-.3.4h-.8Zm.3-1-.6-.2h-.5c-.1.1-.2.2-.2.3s.1.2.3.3l.6.2h.5l.2-.3Q287.2,316,286.9,315.8Z" fill="#904dff"/>
          <path d="M288.9,315.5h-1.5l-.3-.2a.3.3,0,0,0-.1-.2c0-.1.1-.2.1-.3l.3-.2h1.5c.1.1.2.1.2.2a.3.3,0,0,1,.1.2.4.4,0,0,1-.1.3Zm-.2-.1c.2-.1.2-.2.2-.3s0-.3-.2-.4h-1.2c-.1.1-.2.2-.2.3s.1.3.3.4h1.1Z" fill="#904dff"/>
          <path d="M291.1,314.2l-.3-.2a.2.2,0,0,1,0,.3l-.2.2-.7.2c-.2-.1-.5-.1-.7-.3s-.4-.2-.4-.4a.5.5,0,0,1,.3-.4h.5l.2-.2,1.4.8Zm-1.7.1.6.2h.5c.1-.1.2-.2.1-.3s-.1-.2-.3-.4h-1c-.2.1-.2.2-.2.3S289.2,314.2,289.4,314.3Z" fill="#904dff"/>
          <path d="M290.8,313v-.3l.2-.2h.2v.2h-.2a.4.4,0,0,0-.1.3q0,.2.3.3l.7.4h-.2l-1.4-.8h.2Z" fill="#904dff"/>
          <path d="M293.8,312.5h-.2c0,.1.1.2,0,.2l-.2.3h-.7l-.7-.2c-.2-.1-.4-.3-.4-.4s.1-.3.3-.4h.8l-1.3-.8h.2l2.4,1.4Zm-1.6.2.6.2.5-.2c.1,0,.2-.1.1-.3s-.1-.2-.3-.3h-.5a.4.4,0,0,0-.5.1c-.2.1-.2.2-.2.3S292,312.6,292.2,312.7Z" fill="#904dff"/>
        </g>
        <g>
          <path d="M303.7,306.8l-2.2-1.2-.6.4-.2-.2,1.5-.8h.2l-.7.4,2.2,1.2Z" fill="#904dff"/>
          <path d="M304.8,306.1l-2.5-1.4h.2l1.3.7v-.2c.1-.1.1-.2.2-.2l.5-.2.6.2.9.5h-.2l-.9-.5h-.7c-.2.1-.2.2-.2.3l.3.3.7.4Z" fill="#904dff"/>
          <path d="M304.5,304h.4c0,.1,0,.1-.1.1h-.3Zm2,1.1-1.4-.8h.2l1.4.8Z" fill="#904dff"/>
          <path d="M306.9,304.6h.8c0-.1-.1-.1-.1-.2h-1.5c-.1,0-.2-.1-.1-.2s0-.2.2-.3h.7v.2h-.5c0,.1-.1.1-.1.2h.1c.1,0,.1.1.2,0h1.3v.2c0,.1-.1.2-.2.3l-.4.2Z" fill="#904dff"/>
          <path d="M307.5,302.3c-.1,0-.1,0-.1-.1h.1Zm2,1.1-1.4-.8h.2l1.4.8Z" fill="#904dff"/>
          <path d="M309.8,302.9h.7c.1-.1.1-.1.1-.2a.1.1,0,0,0-.1-.1h-1.4c-.2,0-.2-.1-.2-.2l.2-.3h.8v.2c-.1,0-.2-.1-.3,0h-.2v.2a.1.1,0,0,0,.1.1h1.4a.2.2,0,0,1,.2.2q0,.2-.3.3l-.4.2Z" fill="#904dff"/>
          <path d="M312.6,301.6h-.2l-2.5-1.4h.2Z" fill="#904dff"/>
          <path d="M314.2,300.7l-.3-.2a.4.4,0,0,1,.1.3c-.1,0-.1.1-.2.2a.9.9,0,0,1-.7.1,1.2,1.2,0,0,1-.8-.2l-.4-.4a.5.5,0,0,1,.3-.4h.8l-.2-.2h.2l1.4.8Zm-1.7.1.6.2h.5l.2-.3a.5.5,0,0,0-.3-.4h-1.1c-.1.1-.2.2-.2.3Z" fill="#904dff"/>
          <path d="M314.9,300.2l-1.4-.8h.4v-.2l.2-.2h1l1,.5-.2.2-.9-.5a.5.5,0,0,0-.4-.2h-.3c-.2.1-.3.2-.2.3s.1.2.3.3l.7.4Z" fill="#904dff"/>
          <path d="M316.4,297.7l1.2.7.4.2c.1.1.2.1.2.2s.1.2,0,.2-.1.2-.3.3l-.5.2h.3a.2.2,0,0,0,.2-.2.1.1,0,0,0,.1-.1h-.1l-.2-.2h-.3c.1.1.1.2,0,.2s-.1.2-.2.3h-.7l-.7-.2c-.2-.1-.4-.3-.4-.4s.1-.3.3-.4h.4a.3.3,0,0,1,.4,0l-.3-.2Zm-.5.5c-.2.1-.2.2-.2.3s.1.2.3.3l.6.2h.4c.2-.1.3-.2.2-.4s-.1-.2-.3-.3h-.5A.4.4,0,0,0,315.9,298.2Z" fill="#904dff"/>
          <path d="M317.2,297.3l.7.4.5.2h.5c.1-.1.2-.2.1-.3s-.1-.2-.3-.3l-.7-.4h.2l.8.5q.3.2.3.3c0,.2-.1.3-.3.4l-.6.2-.6-.2-.8-.5Z" fill="#904dff"/>
          <path d="M321.1,296.6h-.2a.1.1,0,0,1,0,.2.2.2,0,0,1-.2.2l-.7.2-.7-.2c-.3-.1-.4-.3-.4-.4s.1-.3.3-.4l.3-.2h.4l1.4.8Zm-1.6.2h1c.2-.1.3-.2.2-.3s-.1-.2-.3-.3l-.5-.2h-.5c-.2.1-.2.2-.2.3A.5.5,0,0,0,319.5,296.8Z" fill="#904dff"/>
          <path d="M321.7,294.6l1.2.7.4.3h.1a.4.4,0,0,1,.1.3l-.4.3h-.5c-.2.1-.4,0-.5,0l.2-.2h.3l.4-.2h.2v-.2a.1.1,0,0,0-.1-.1h-.5a.4.4,0,0,1,.1.3c0,.1-.1.1-.2.2l-.7.2-.8-.3c-.2-.1-.3-.2-.3-.4s0-.3.2-.4h.6Zm-.6.5c-.1.1-.2.2-.1.3s.1.2.3.3l.5.2h.5c.1-.1.2-.2.2-.3s-.1-.2-.3-.3l-.6-.2Z" fill="#904dff"/>
          <path d="M324.1,294l-1.1.7.6.2.5-.2a.2.2,0,0,0,.2-.2.3.3,0,0,0-.1-.2h.3c.1.2.1.3,0,.4l-.2.2a1,1,0,0,1-.7.2,1.1,1.1,0,0,1-.8-.2l-.4-.4c0-.2.1-.3.3-.4l.7-.2.7.2Zm-.4.1h-.8c-.1.1-.2.1-.2.2l.2.3Z" fill="#904dff"/>
          <path d="M325,292.9l-.3.2h-.1l.2-.2-.6-.3h.2l.6.3.3-.2h.2l-.3.2,1.2.7h-.2Z" fill="#904dff"/>
          <path d="M327,293.2l-2.5-1.4h.2l1.3.7v-.3l.2-.2h1l1,.6H328l-.9-.5h-.8c-.1.1-.2.1-.2.2l.4.3.7.5Z" fill="#904dff"/>
          <path d="M329.7,291.6l-.2-.2c0,.1.1.2,0,.3s-.1.1-.2.2l-.7.2-.7-.2c-.3-.2-.4-.3-.4-.5l.3-.4h.7l1.4.8Zm-1.6.1.5.2h.5c.2-.1.3-.2.2-.3s-.1-.2-.3-.3l-.5-.2H328c-.2.1-.2.2-.2.3S327.9,291.6,328.1,291.7Z" fill="#904dff"/>
          <path d="M329.3,290.4l-.3.2h-.2l.3-.2-.6-.3h.2l.6.3.3-.2h.1l-.3.2,1.3.7h-.2Z" fill="#904dff"/>
          <path d="M332.6,290l-2-.5.2-.2,1.4.4-.7-.9,1.6.4-.7-.8h.2l1,1.2-1.6-.4Z" fill="#904dff"/>
          <path d="M332.3,287.8h.4a.1.1,0,0,1-.1.1h-.3Zm2,1.1-1.4-.8h.2l1.4.8Z" fill="#904dff"/>
          <path d="M335.3,288.3l-.2.2-2.5-1.5h.2Z" fill="#904dff"/>
          <path d="M336,287.9h-.2l-2.4-1.4h.2Z" fill="#904dff"/>
          <path d="M337.7,286.9h-.2l-2.5-1.4h.2l1.4.8a.4.4,0,0,1-.1-.3l.3-.2.6-.2.8.2c.2.2.3.3.3.5s0,.3-.2.4h-.6Zm.3-.9-.6-.2h-.5c-.2.1-.2.2-.2.3s.1.2.3.3l.6.2h.5l.2-.3Q338.3,286.2,338,286Z" fill="#904dff"/>
          <path d="M339.8,284.9l-1.1.7h1c.1-.1.2-.1.2-.2s0-.2,0-.3h.2a.4.4,0,0,1,.1.3q0,.2-.3.3l-.7.2-.7-.2c-.3-.1-.4-.3-.4-.4s.1-.3.3-.5h.6l.7.2Zm-.4,0H339l-.5.2c-.1,0-.1.1-.1.2a.4.4,0,0,0,.1.3Z" fill="#904dff"/>
          <path d="M340.6,283.6l.7.4.6.2h.4c.2-.1.2-.2.2-.3l-.4-.3-.7-.4h.2l.8.5c.3.1.4.2.4.3s-.1.3-.3.4l-.6.2-.7-.2-.8-.5Z" fill="#904dff"/>
          <path d="M343.2,283.5v-.2h.8c0-.1-.1-.1-.1-.2h-.6a.1.1,0,0,1-.1.1h-.8c-.1-.1-.2-.2-.2-.3s.1-.2.3-.2l.3-.2h.4v.2h-.6c0,.1,0,.1.1.1H344c.2.1.2.2.2.3l-.2.3h-.8Z" fill="#904dff"/>
          <path d="M345.3,281.7l-1.1.6.6.2h.5l.2-.2a.4.4,0,0,0-.1-.3h.3c0,.1.1.2,0,.3s-.1.2-.3.3l-.7.2-.7-.2c-.2-.2-.4-.3-.4-.5a.5.5,0,0,1,.3-.4.8.8,0,0,1,.7-.1h.7Zm-.4,0h-.8c-.2.1-.2.2-.2.3s0,.1.1.2Z" fill="#904dff"/>
          <path d="M347.5,281.2h-.3a.3.3,0,0,1,.1.2l-.3.3h-.7l-.7-.2c-.2-.1-.3-.3-.4-.4s.1-.3.3-.4l.4-.2h.4l-1.3-.8h.2l2.5,1.4Zm-1.7.2.6.2.5-.2.2-.3-.4-.3-.5-.2-.5.2c-.1.1-.2.1-.2.3Z" fill="#904dff"/>
          <path d="M347.1,279.2h.3c.1,0,.1,0,.1.1h-.4Zm2,1.1-1.4-.9h.2l1.5.8Z" fill="#904dff"/>
          <path d="M349.9,279.8l-1.4-.8h.4c-.1-.1-.1-.1,0-.2a.2.2,0,0,1,.2-.2l.5-.2.5.2,1,.5h-.2l-.9-.5h-.8c-.1.1-.2.2-.2.3s.1.2.3.3l.8.4Z" fill="#904dff"/>
          <path d="M351.3,277.5l-.2.2h-.2l.2-.2-.5-.3h.2l.5.3h.2l1.3.7-.2.2Z" fill="#904dff"/>
          <path d="M353.3,277.8l-2.4-1.4h.1l1.3.7v-.2c.1-.1.1-.2.2-.2l.6-.2.5.2.9.5h-.2l-.8-.5h-.8c-.2.1-.2.2-.2.3s.1.2.3.3l.7.4Z" fill="#904dff"/>
          <path d="M355.5,275.7l-1.1.7h1.1a.2.2,0,0,0,.2-.2.4.4,0,0,0-.1-.3h.3a.4.4,0,0,1,.1.3l-.3.3-.7.2-.8-.2-.4-.4c0-.2.1-.3.3-.5h.7l.7.2Zm-.4,0h-.4l-.4.2a.2.2,0,0,0-.2.2c0,.1.1.2.2.3Z" fill="#904dff"/>
          <path d="M358.6,274.7h-.2c0,.1.1.1,0,.2a.2.2,0,0,1-.2.2.8.8,0,0,1-.7.2l-.7-.2c-.3-.1-.4-.3-.4-.4s.1-.3.3-.4l.3-.2h.5l-1.3-.7h.2l2.4,1.4Zm-1.6.2h1c.2-.1.3-.2.2-.3s-.1-.2-.3-.3l-.5-.2h-.5c-.2.1-.2.2-.2.3S356.8,274.8,357,274.9Z" fill="#904dff"/>
          <path d="M360.4,273.7l-.3-.2a.4.4,0,0,1,.1.3l-.2.2-.7.2-.8-.2c-.2-.2-.3-.3-.3-.5s0-.2.2-.4h.8l1.4.8Zm-1.6.1.5.2h.5c.2-.1.2-.2.2-.3s-.1-.2-.3-.3l-.6-.2h-.5c-.1.1-.2.2-.2.3Z" fill="#904dff"/>
          <path d="M360.7,273.2V273h.6v-.2a.1.1,0,0,0-.1-.1H360c-.2-.1-.2-.1-.2-.2s.1-.2.2-.3h.8v.2h-.5c-.1.1-.1.1-.1.2h.7c.2,0,.3-.1.5,0h.3a.2.2,0,0,1,.2.2l-.3.3h-.4C361,273.3,360.9,273.2,360.7,273.2Z" fill="#904dff"/>
          <path d="M362.4,272.5l-2.5-1.4h.2l1.3.7c-.1,0-.1-.1,0-.2s.1-.1.2-.2h1l1,.5-.2.2-.9-.5-.4-.2h-.4l-.2.3q0,.2.3.3l.8.4Z" fill="#904dff"/>
          <path d="M364.3,271.4h-.2l-2.5-1.4h.2l1.3.8c0-.1-.1-.2,0-.3s.1-.1.2-.2l.7-.2.7.2c.3.2.4.3.4.5a.5.5,0,0,1-.3.4h-.5Zm.2-.9-.5-.2h-.6l-.2.3.3.3.6.2h.5c.2-.1.2-.2.2-.3S364.7,270.6,364.5,270.5Z" fill="#904dff"/>
          <path d="M366.5,270.2H365c-.1-.1-.2-.1-.2-.2a.4.4,0,0,1-.1-.3v-.2c0-.1.1-.1.2-.2h1.2l.3.2.3.2c0,.1.1.1.1.2s-.1.2-.1.3Zm-.1-.1a.5.5,0,0,0,.2-.4l-.3-.3h-1.1c-.2.1-.2.2-.2.3a.8.8,0,0,0,.2.4h1.2Z" fill="#904dff"/>
          <path d="M368.7,268.8h-.3v.2c0,.1-.1.2-.2.3h-.7a1.2,1.2,0,0,1-.8-.2c-.2-.1-.3-.2-.3-.4s0-.3.2-.4h.8l-.2-.2h.2l1.4.8Zm-1.6.2.5.2.5-.2c.2,0,.2-.1.2-.2s-.1-.3-.3-.4h-1.1l-.2.3Z" fill="#904dff"/>
          <path d="M368.5,267.7c-.1-.2-.1-.2-.1-.3l.2-.2h.2v.2h-.1c-.2.1-.2.2-.2.3l.3.3.7.4h-.2l-1.4-.8h.2Z" fill="#904dff"/>
          <path d="M371.5,267.2h-.3c.1,0,.1.1.1.2l-.2.2-.7.2-.8-.2a.5.5,0,0,1-.3-.4c-.1-.2,0-.3.2-.4l.4-.2h.4l-1.3-.7h.2l2.5,1.4Zm-1.6.2h1l.2-.3q0-.2-.3-.3l-.6-.2h-.5c-.1.1-.2.2-.2.3A.8.8,0,0,0,369.9,267.4Z" fill="#904dff"/>
        </g>
        <g>
          <path d="M313.5,245.9h-.4l-.4-2h2.1l-.7-1.9a.2.2,0,0,1,.2-.2h.3l.7,2.2h-2.1l.4,1.7Z" fill="#1c0f30"/>
          <path d="M316.1,242.5h-.3l-1.4-.4-.9.8h-.3c-.1,0-.1-.1,0-.1l.9-.9h.3l1.6.5h.1Z" fill="#1c0f30"/>
        </g>
        <g>
          <g>
            <path d="M277.5,304.7h1.9v-1a.2.2,0,0,1,.2-.2l.2.2v1.1h-2.2a.2.2,0,0,1-.2-.2Z" fill="#904dff"/>
            <path d="M278.8,303.2h-1.9v1h-.4v-1.2h2.3Z" fill="#904dff"/>
          </g>
          <g>
            <path d="M355.7,259.1h1.9v-1c0-.1.1-.1.2-.1s.3,0,.3.1v1.2h-2.3c-.1,0-.2,0-.2-.1Z" fill="#904dff"/>
            <path d="M357,257.6h-1.9v1l-.2.2-.2-.2v-1.1c0-.1.1-.1.2-.1h2c.1,0,.2,0,.2.1Z" fill="#904dff"/>
          </g>
        </g>
      </g>
    </g>
    <g>
      <path d="M282.6,409l-3.7,1.3L74.2,292.2a6.5,6.5,0,0,0-5.9-.1l-42,24.3-2.8-1.6v8h0v.2h0a2.2,2.2,0,0,0,1.2,1.5L231.9,444.1a6.2,6.2,0,0,0,5.9,0L281.4,419a2.1,2.1,0,0,0,1.2-1.7h0Z" fill="#904dff" stroke="#1c0f30" stroke-linecap="round" stroke-linejoin="round" stroke-width="0.42"/>
      <g>
        <path d="M281.4,410.8,237.8,436a6.8,6.8,0,0,1-5.9,0L39.8,325.1l-15.1-8.7c-1.6-1-1.6-2.5,0-3.5l43.6-25.1a6.8,6.8,0,0,1,5.9,0L281.4,407.4a3.6,3.6,0,0,1,.9.8h0C282.9,409.1,282.6,410.1,281.4,410.8Z" fill="#dbf301" stroke="#000" stroke-linecap="round" stroke-linejoin="round" stroke-width="0.45"/>
        <path d="M281.4,410.8,237.8,436a6.8,6.8,0,0,1-5.9,0L39.8,325.1c-.6-.9-.3-1.9.9-2.6l43.6-25.2a6.8,6.8,0,0,1,5.9,0L282.3,408.2h0C282.9,409.1,282.6,410.1,281.4,410.8Z" fill="#fff" stroke="#000" stroke-linecap="round" stroke-linejoin="round" stroke-width="0.45"/>
        <g>
          <path d="M36.9,313.8l-1.2.2-1.1.4a1.4,1.4,0,0,0-.8,1.1,1.4,1.4,0,0,0,.9,1.2,4.2,4.2,0,0,0,2,.5,4.1,4.1,0,0,0,1.9-.4,2.3,2.3,0,0,0,.7-.7.9.9,0,0,0,.3-.7l1,.5a1.6,1.6,0,0,1-.4.7l-.8.6-1.3.5-1.5.2a3.9,3.9,0,0,1-1.5-.2l-1.3-.5a3.5,3.5,0,0,1-.9-.7,1.5,1.5,0,0,1,0-1.8,3.6,3.6,0,0,1,.9-.8l1-.4,1.3-.2Z" fill="#1c0f30"/>
          <path d="M40,314.7a1,1,0,0,1-.6-.5,1,1,0,0,1,0-1.2l.6-.5.9-.3H43l.8.3c.3.2.5.3.6.5a1,1,0,0,1,0,1.2l-.6.5-.9.3h-2A1.2,1.2,0,0,1,40,314.7Zm3-1.7a2.1,2.1,0,0,0-1.2-.3l-1,.2c-.3.2-.5.4-.5.7s.2.4.5.6a2.4,2.4,0,0,0,1.2.3l1.1-.2a.8.8,0,0,0,.4-.7C43.5,313.4,43.3,313.2,43,313Z" fill="#1c0f30"/>
          <path d="M47.2,312.6l-.8.4-3.5-2,.8-.4.5.3a.6.6,0,0,1,0-.6c.1-.2.3-.3.6-.5a1.1,1.1,0,0,1,.8-.3h.9a1.5,1.5,0,0,1,.1-.7l.5-.5.8-.2H49l.5.3h.3l2.1,1.3-.8.4-1.8-1-1.1-.5-.7.2c-.3.2-.5.4-.4.6a1.9,1.9,0,0,0,.8.7l1.6.9-.8.5-1.8-1.1a2.6,2.6,0,0,0-1-.4,1.2,1.2,0,0,0-.8.2l-.3.3a.2.2,0,0,0,0,.3c0,.1.1.2.2.3l.6.4Z" fill="#1c0f30"/>
          <path d="M54.5,310.2l-5-3,.7-.4.6.3a1.1,1.1,0,0,1-.1-.5,1.7,1.7,0,0,1,.6-.6,4.1,4.1,0,0,1,1.6-.3,4.1,4.1,0,0,1,1.8.5c.6.3.9.7.9,1s-.1.7-.6,1l-.8.3a2.7,2.7,0,0,1-.9,0l2,1.2Zm-2.6-2.4a2.7,2.7,0,0,0,1.2.3,1.2,1.2,0,0,0,1-.2.7.7,0,0,0,.4-.6q0-.3-.6-.6l-1.1-.3a1.2,1.2,0,0,0-1,.2c-.3.2-.5.4-.4.6S51.6,307.6,51.9,307.8Z" fill="#1c0f30"/>
          <path d="M59,303.9l-2.8,1.6,1.1.2a1.5,1.5,0,0,0,.9-.2.8.8,0,0,0,.5-.5c.1-.1,0-.3-.1-.5l1.1-.2a1.4,1.4,0,0,1,0,.9,1.5,1.5,0,0,1-.7.7,4.1,4.1,0,0,1-1.9.5,4.1,4.1,0,0,1-1.8-.5,1.2,1.2,0,0,1-.8-1.1c0-.4.2-.7.7-1a3.1,3.1,0,0,1,1.8-.5,3.5,3.5,0,0,1,1.8.5Zm-1.4.1h-.8l-.9.2c-.2.2-.4.3-.4.5a.6.6,0,0,0,.2.5Z" fill="#1c0f30"/>
          <path d="M61.4,304.3l-3.4-2,.7-.4.6.3a.6.6,0,0,1,0-.6,1,1,0,0,1,.6-.5l.8-.4H62l.7.4,2.1,1.2-.8.5-1.8-1.1a3.7,3.7,0,0,0-1.1-.4l-.8.2a.8.8,0,0,0-.4.4.2.2,0,0,0,0,.3.4.4,0,0,0,.1.3l.6.4,1.6.9Z" fill="#1c0f30"/>
          <path d="M64.8,301.7l.3-.6h.7l.6-.2.3-.3c0-.1,0-.2-.2-.3a1.2,1.2,0,0,0-1,.1h-.4a2.6,2.6,0,0,1-1.2.1,1.1,1.1,0,0,1-.8-.2c-.3-.1-.5-.4-.4-.6s.2-.5.6-.7a1.6,1.6,0,0,1,.9-.3,1.1,1.1,0,0,1,.8,0l-.2.5h-.9l-.2.3c-.1.1,0,.2.1.3a2.3,2.3,0,0,0,1.1-.1h.4l1.1-.2a1.1,1.1,0,0,1,.8.3c.4.2.5.4.5.6a1.3,1.3,0,0,1-.8.8l-1,.4Z" fill="#1c0f30"/>
          <path d="M72.3,298.1l-.8.4-.5-.2a.5.5,0,0,1,0,.5c-.1.2-.3.3-.5.5a2.5,2.5,0,0,1-1.7.3,4.1,4.1,0,0,1-1.8-.5,2,2,0,0,1-.9-1,1.2,1.2,0,0,1,.6-1l.9-.3h1l-.6-.4.8-.4Zm-2.6-.6a1.9,1.9,0,0,0-1-.3,1.6,1.6,0,0,0-1,.2c-.3.2-.5.4-.4.6s.2.4.6.6a2.1,2.1,0,0,0,1.1.4,1.9,1.9,0,0,0,1-.3c.2-.1.4-.3.3-.5S70.1,297.7,69.7,297.5Z" fill="#1c0f30"/>
          <path d="M73.5,297.3l-2.7-1.6-.6.4-.7-.4.6-.4-1.3-.7.8-.5,1.3.8.6-.4.7.4-.6.4,2.7,1.6Z" fill="#1c0f30"/>
          <path d="M77.3,293.3l-2.7,1.6,1,.2a1.6,1.6,0,0,0,1-.2,1.2,1.2,0,0,0,.5-.5,1.1,1.1,0,0,0-.1-.5l1-.2a1,1,0,0,1,.1.9,1.9,1.9,0,0,1-.8.7,3.5,3.5,0,0,1-1.8.5,4.1,4.1,0,0,1-1.9-.5,1.4,1.4,0,0,1-.8-1.1c0-.4.3-.7.8-1a3.1,3.1,0,0,1,1.8-.5,4.1,4.1,0,0,1,1.8.5Zm-1.3.1h-.9l-.8.2c-.3.2-.4.3-.4.5a.4.4,0,0,0,.2.5Z" fill="#1c0f30"/>
        </g>
        <g>
          <g>
            <path d="M47.7,322.9h0l2.2,1.9-.5.3-3.5-3,4.7,1.1-1.9-2.7,5.1,2-.5.3-3.2-1.3h0l1.6,2.3Z" fill="#1c0f30"/>
            <path d="M56.6,320.9l-.5.2-.4-.2h0c.1.2.1.3,0,.4a.8.8,0,0,1-.4.4.8.8,0,0,1-.6.2H53.4l-.6-.3-.5-.3a.8.8,0,0,1-.1-.4c-.1-.1,0-.3,0-.4l.4-.4.7-.2H54l-.4-.2.5-.3Zm-1.3,0a.7.7,0,0,0-.4-.5,1.5,1.5,0,0,0-.9-.2,1.1,1.1,0,0,0-.8.1c-.3.2-.4.4-.4.5a.8.8,0,0,0,.5.5,1.1,1.1,0,0,0,.8.3l.9-.2C55.2,321.3,55.4,321.1,55.3,320.9Z" fill="#1c0f30"/>
            <path d="M53.9,317.9c.1,0,.3,0,.3.1l.2.2h-.8l-.2-.2a.2.2,0,0,1,.2-.2Zm4,2.3-.5.2L54.8,319l.5-.3Z" fill="#1c0f30"/>
            <path d="M56.9,318.2h0v-.3l.4-.3.5-.2h1l.5.3,1.5.9-.5.2-1.4-.8-.7-.3-.6.2q-.3.1-.3.3v.2l.3.2a.5.5,0,0,0,.4.2l1.1.7-.5.3-2.5-1.5.5-.2Z" fill="#1c0f30"/>
            <path d="M61.3,315.6h0v-.3l.3-.3.5-.2h.7c-.1-.1-.1-.2,0-.4s.1-.2.3-.3l.5-.2h1l.4.3,1.5.8-.4.3-1.5-.8-.3-.2h-.9l-.2.3v.2l.3.2.3.2,1.2.7-.5.3-1.3-.8h-.3l-.3-.2h-.7c-.1.1-.2.1-.2.2v.3a.2.2,0,0,1,.2.2l.4.2,1.2.7-.5.3-2.5-1.5.5-.3Z" fill="#1c0f30"/>
            <path d="M66.3,313.9l.8.2a1.1,1.1,0,0,0,.8-.2l.3-.3c.1-.1,0-.2,0-.4h.6a.6.6,0,0,1,0,.6.8.8,0,0,1-.5.5l-.6.2H66.4l-.6-.2c-.5-.3-.7-.5-.7-.8s.1-.5.5-.8a1.9,1.9,0,0,1,1.3-.2,3.1,3.1,0,0,1,1.3.3h0Zm1.1-1-.7-.2-.7.2-.3.4a.5.5,0,0,0,.3.4Z" fill="#1c0f30"/>
            <path d="M68.1,311.7h0a.6.6,0,0,1,.1-.4q0-.2.3-.3l.5-.2c.2,0,.3-.1.5,0H70l.5.2,1.5.9-.5.3-1.4-.9-.7-.2a.7.7,0,0,0-.6.1q-.3.1-.3.3v.2l.3.2.4.3,1.1.6-.5.3-2.5-1.4.5-.3Z" fill="#1c0f30"/>
            <path d="M70.6,309.9l1.4.8h1.4l.2-.2v-.4l-.3-.2-1.4-.8.5-.3,1.4.8c.4.3.6.5.6.7s-.1.4-.5.6a2.2,2.2,0,0,1-2.2,0l-1.5-.9Z" fill="#1c0f30"/>
          </g>
          <g>
            <path d="M70,326l-3.5-2.1.5-.3,1.1-.6h1.8l1,.4c.4.2.6.3.7.5a.7.7,0,0,1,.2.6,1.3,1.3,0,0,1-.3.5l-.9.6h-.1Zm0-.4.5-.2.7-.5a.8.8,0,0,0,.2-.4,1.7,1.7,0,0,0-.2-.5,1.5,1.5,0,0,0-.6-.4l-.8-.4H68.3l-.9.5h-.1l-.3.2Z" fill="#1c0f30"/>
            <path d="M75,323.1l-.4-.2c0,.1.1.2,0,.3s-.1.3-.3.4a2,2,0,0,1-1.1.2,2.3,2.3,0,0,1-1.1-.3c-.3-.2-.5-.4-.5-.6s.1-.5.4-.6l.5-.2a.8.8,0,0,1,.7,0l-.4-.2.3-.2,2.1,1.2Zm-2.5.2a1.1,1.1,0,0,0,.8.3l.7-.2c.3-.1.4-.3.3-.4a.7.7,0,0,0-.4-.5,1.6,1.6,0,0,0-.9-.3l-.7.2a.5.5,0,0,0-.3.4C72,323,72.2,323.2,72.5,323.3Z" fill="#1c0f30"/>
            <path d="M75.4,322.4v-.3H76l.4-.2a.2.2,0,0,0,.2-.2c0-.1,0-.1-.1-.2a1.4,1.4,0,0,0-.9,0H74.3c-.2-.1-.3-.2-.3-.4l.4-.3.5-.2h.6v.2h-.8v.2c0,.1,0,.2.1.2h.9l.7-.2.6.2c.2.1.3.2.2.4s-.1.3-.4.4a.8.8,0,0,1-.6.2Z" fill="#1c0f30"/>
            <path d="M77.9,321.4l-3.7-2.2h.3l1.9,1.1c-.1-.2,0-.3,0-.4l.3-.3.8-.2.8.2,1.4.8-.3.2-1.3-.8-.6-.2-.6.2a.5.5,0,0,0-.3.4l.5.5,1.1.6Z" fill="#1c0f30"/>
            <path d="M80.8,319.7l-.3.2-3.7-2.2h.3l1.9,1.1c0-.1-.1-.2,0-.4s.2-.2.3-.3a2,2,0,0,1,1.1-.2,2,2,0,0,1,1.1.3c.3.2.5.4.5.6s-.1.5-.4.6l-.5.2a1.6,1.6,0,0,1-.7,0Zm.4-1.4a1.6,1.6,0,0,0-.9-.3l-.7.2c-.3.1-.4.3-.3.4s.1.3.4.5l.8.3.8-.2c.3-.1.4-.3.3-.4A.5.5,0,0,0,81.2,318.3Z" fill="#1c0f30"/>
            <path d="M84.2,317.8l-.5.2H82.4l-.5-.2c-.1-.1-.3-.2-.3-.3s-.2-.2-.2-.3a.5.5,0,0,1,.2-.4c0-.1.2-.2.3-.3l.5-.2h1.3l.5.2.4.3c.1.1.1.2.1.4a.4.4,0,0,1-.1.3C84.5,317.7,84.4,317.8,84.2,317.8Zm-.2-.1c.2-.2.3-.3.3-.5a.5.5,0,0,0-.4-.5c-.2-.2-.5-.2-.9-.2a1.1,1.1,0,0,0-.8.2.5.5,0,0,0-.3.5.9.9,0,0,0,.3.5l.9.2Z" fill="#1c0f30"/>
            <path d="M87.5,315.9l-.4-.3a.8.8,0,0,1,.1.4l-.4.3a1.7,1.7,0,0,1-1,.3,2,2,0,0,1-1.1-.3c-.4-.2-.6-.4-.6-.7a.7.7,0,0,1,.4-.6l.6-.2h.6l-.3-.2.2-.2,2.2,1.3Zm-2.5.2.8.2a1.1,1.1,0,0,0,.8-.1c.2-.2.3-.3.3-.5a1.2,1.2,0,0,0-.5-.5l-.8-.2h-.8c-.2.2-.3.3-.3.5Z" fill="#1c0f30"/>
            <path d="M87.2,314.1a.8.8,0,0,1-.1-.4c0-.2.1-.2.2-.3h.3l.2.2h-.1a.1.1,0,0,0-.1.1c-.2.1-.3.2-.2.4s.2.3.4.4l1.1.7h-.3L86.4,314l.3-.2Z" fill="#1c0f30"/>
            <path d="M91.7,313.4l-.4-.2c.1.1.1.2.1.4l-.3.3a1.4,1.4,0,0,1-1.1.2,2,2,0,0,1-1.1-.3,1.1,1.1,0,0,1-.6-.6.5.5,0,0,1,.4-.6l.6-.2H90l-2-1.1.3-.2,3.7,2.1Zm-2.5.2a1.6,1.6,0,0,0,.9.3,1,1,0,0,0,.7-.2.5.5,0,0,0,.3-.4c0-.2-.2-.4-.5-.5a1.1,1.1,0,0,0-.8-.3l-.7.2c-.3.1-.4.3-.3.4A.7.7,0,0,0,89.2,313.6Z" fill="#1c0f30"/>
          </g>
          <g>
            <path d="M79.8,331.6l-3.5-2,1.7-1,.3.2-1.4.8,1.1.6,1.4-.8.3.2-1.4.8,1.5.9,1.5-.8h.3Z" fill="#1c0f30"/>
            <path d="M82.6,330l-.3.2L80.2,329l.3-.2.3.2a.2.2,0,0,1,0-.3.3.3,0,0,1,.3-.3l.5-.2h.5v-.3c.1-.1.2-.3.4-.3a.8.8,0,0,1,.7-.2,1.2,1.2,0,0,1,.8.2l1.4.8-.3.2-1.3-.8-.6-.2h-.6c-.2.2-.2.3-.2.4s.2.3.5.5l1.1.6-.3.2-1.3-.8-.6-.2-.5.2c-.3.1-.3.2-.3.3s.2.3.5.5Z" fill="#1c0f30"/>
            <path d="M87.3,328.6l-3.2-1.9h.2l.4.2v-.4l.3-.3a2,2,0,0,1,1.1-.3l1.1.4a1.7,1.7,0,0,1,.6.6.7.7,0,0,1-.4.6l-.6.2h-.7l1.5.8Zm-.4-2.3-.9-.2h-.7c-.3.2-.4.3-.3.5s.1.3.4.5l.9.2a1.2,1.2,0,0,0,.8-.2c.2-.1.3-.2.2-.4S87.1,326.5,86.9,326.3Z" fill="#1c0f30"/>
            <path d="M89.2,326.2l-.3.2-3.7-2.1.3-.2Z" fill="#1c0f30"/>
            <path d="M91.1,325.3l-.6.2H89.3l-.5-.2a.8.8,0,0,1-.4-.4.4.4,0,0,1-.1-.3.6.6,0,0,1,.1-.4l.4-.3.5-.2h1.2l.6.2.3.3c.1.1.1.2.1.4a.4.4,0,0,1-.1.3Zm-.3-.2a.6.6,0,0,0,0-1l-.9-.2a1.5,1.5,0,0,0-.9.2.5.5,0,0,0-.3.5c0,.2.1.3.4.5l.8.2Z" fill="#1c0f30"/>
            <path d="M90.3,323.1l.3-.2,2.3.6-1.1-1.3h.3l2.1,2.5h-.3l-.7-.8Z" fill="#1c0f30"/>
            <path d="M95.5,321.4l-1.7.9a1.6,1.6,0,0,0,.9.3.8.8,0,0,0,.7-.2l.3-.3a.8.8,0,0,0-.1-.4H96a.5.5,0,0,1,.1.6c0,.1-.2.2-.4.4a2,2,0,0,1-1.1.2,2,2,0,0,1-1.1-.3,1.7,1.7,0,0,1-.6-.6.6.6,0,0,1,.5-.6,1.8,1.8,0,0,1,2,0Zm-.6,0H93.6c-.2.1-.2.3-.3.4a.5.5,0,0,0,.3.4Z" fill="#1c0f30"/>
            <path d="M98,319.9l-1.7,1a1.1,1.1,0,0,0,.8.3l.8-.2.3-.3a.8.8,0,0,0-.1-.4h.4a1.1,1.1,0,0,1,.1.5,1.2,1.2,0,0,1-.5.5l-1,.2a2,2,0,0,1-1.1-.3q-.6-.3-.6-.6a.8.8,0,0,1,.4-.7l1-.2a2,2,0,0,1,1.1.3Zm-.6.1-.7-.2-.6.2a.5.5,0,0,0-.3.4c0,.1.1.2.2.4Z" fill="#1c0f30"/>
            <path d="M99,320.1v-.2h.9c.1-.1.2-.2.2-.3a.3.3,0,0,0-.1-.2,1.4,1.4,0,0,0-.9,0H97.9a.5.5,0,0,1-.3-.4.8.8,0,0,1,.4-.4l.5-.2h.6v.3h-.4l-.4.2c-.1,0-.1.1-.1.2a.3.3,0,0,0,.1.2h2.2c.2.2.2.3.2.4s-.1.3-.4.5l-.6.2Z" fill="#1c0f30"/>
          </g>
          <g>
            <path d="M90.3,337l-3.2-1.9-1,.6-.3-.2,2.3-1.3h.3l-1,.6,3.2,1.9Z" fill="#1c0f30"/>
            <path d="M90.2,335.1a.9.9,0,0,1-.1-.5.2.2,0,0,1,.2-.2h.2a.1.1,0,0,0,.1-.1l.2.3h-.1a.1.1,0,0,0-.1.1c-.2.1-.3.2-.2.4s.2.3.4.4l1.1.6-.3.2L89.4,335l.3-.2Z" fill="#1c0f30"/>
            <path d="M94.7,334.4l-.4-.2c.1.1.1.2.1.4l-.4.3a1.2,1.2,0,0,1-1,.2,2,2,0,0,1-1.1-.3q-.6-.3-.6-.6a.5.5,0,0,1,.4-.6l.6-.2H93l-.4-.2.3-.2,2.1,1.2Zm-2.5.2.8.3.8-.2a.5.5,0,0,0,.3-.4.8.8,0,0,0-.5-.5,1.3,1.3,0,0,0-.8-.3l-.8.2c-.2.1-.3.3-.2.4A.5.5,0,0,0,92.2,334.6Z" fill="#1c0f30"/>
            <path d="M95.8,333.8l-2.1-1.3h.2l.4.2c-.1-.2-.1-.3,0-.4l.3-.3.8-.2.7.2,1.5.8-.3.2-1.3-.8h-.6a.7.7,0,0,0-.6.1.5.5,0,0,0-.3.4c0,.1.2.3.5.5l1.1.6Z" fill="#1c0f30"/>
            <path d="M97.7,332.2l.2-.2h.8c.2-.1.2-.2.2-.3s0-.1-.1-.2h-.9a.1.1,0,0,1-.1.1H96.6c-.2-.2-.2-.3-.2-.4s.1-.3.3-.4l.5-.2h.6v.3h-.4l-.4.2c-.1,0-.1.1-.1.2v.2h2.2c.2.1.3.3.2.4s-.1.3-.3.5l-.6.2Z" fill="#1c0f30"/>
            <path d="M101.8,330.3l-.4-.2c.1.1.1.2.1.4l-.3.3a2,2,0,0,1-1.1.2,2,2,0,0,1-1.1-.3,1.1,1.1,0,0,1-.6-.6.5.5,0,0,1,.4-.6l.6-.2a.8.8,0,0,1,.7,0l-.4-.2.3-.2,2.1,1.2Zm-2.5.2a1.6,1.6,0,0,0,.9.3l.7-.2a.5.5,0,0,0,.3-.4c0-.2-.2-.4-.5-.5a1.1,1.1,0,0,0-.8-.3l-.7.2c-.3.1-.4.3-.3.4A.7.7,0,0,0,99.3,330.5Z" fill="#1c0f30"/>
            <path d="M102.8,327.7h-.5l-.3.2a.5.5,0,0,0-.4.5c0,.2.1.3.4.5l.9.2.8-.2.3-.2c.1-.1.2-.2.2-.3h.3l-.2.3-.3.3a2.4,2.4,0,0,1-1.2.3,2,2,0,0,1-1.1-.3.8.8,0,0,1-.5-.7c0-.3.1-.5.5-.7l.4-.2h.4Z" fill="#1c0f30"/>
            <path d="M103.3,327.2l-.4.3-.2-.2.4-.2-.9-.5.3-.2.9.5.4-.2h.3l-.5.3,1.9,1.1h-.3Z" fill="#1c0f30"/>
            <path d="M103.4,326h-.1v-.2h.5v.2h-.4Zm3,1.7-2.1-1.3.3-.2,2.1,1.3Z" fill="#1c0f30"/>
            <path d="M108.6,326.5l-.6.2h-1.2l-.5-.2-.4-.3c-.1-.1-.1-.2-.1-.4a.4.4,0,0,1,.1-.3l.4-.3.5-.2h1.3l.5.2a.3.3,0,0,1,.3.3c.1.1.2.2.2.3a.5.5,0,0,1-.2.4Zm-.3-.2c.2-.1.4-.3.3-.5a.9.9,0,0,0-.3-.5l-.9-.2-.8.2c-.3.2-.4.3-.4.5a.5.5,0,0,0,.4.5c.2.2.5.2.9.2A1.1,1.1,0,0,0,108.3,326.3Z" fill="#1c0f30"/>
            <path d="M110.3,325.4l-2.2-1.2.3-.2.3.2a.4.4,0,0,1,.1-.3c0-.2.1-.3.3-.4l.8-.2.7.2,1.5.9-.3.2-1.4-.8-.6-.2h-.5c-.3.2-.4.3-.3.4s.2.3.4.5l1.2.7Z" fill="#1c0f30"/>
            <path d="M112.2,323.9v-.3h.9l.2-.2c0-.1,0-.2-.1-.2a1.4,1.4,0,0,0-.9,0h-1.3c-.2-.1-.3-.2-.3-.4l.4-.4.5-.2h.6v.2h-.8v.2c-.1.1,0,.1.1.2h.3l.6-.2h.7l.6.2c.2.1.2.2.2.4s-.1.3-.4.4l-.6.2Z" fill="#1c0f30"/>
          </g>
          <g>
            <path d="M99.5,343,96,341l.6-.4.6-.3h1l.6.2c.3.2.5.4.5.6a2.2,2.2,0,0,1-.7.7l-.4.2,1.6.9ZM98,341.7h.2c.4-.2.6-.4.6-.5s-.1-.3-.3-.4l-.3-.2h-.8l-.6.3h-.2Z" fill="#1c0f30"/>
            <path d="M103.2,340.8l-.4-.2a.8.8,0,0,1,.1.4c0,.1-.2.2-.3.3a2.2,2.2,0,0,1-2.2,0,1.9,1.9,0,0,1-.6-.7.7.7,0,0,1,.4-.6l.6-.2h.7l-.4-.2.3-.2,2.1,1.3Zm-2.5.3.9.2h.7c.2-.2.3-.3.3-.5s-.2-.3-.5-.5l-.8-.2a.8.8,0,0,0-.7.1c-.3.2-.4.3-.3.5Z" fill="#1c0f30"/>
            <path d="M101.9,339.1h.3l2.3.6-1.1-1.3.3-.2,2.1,2.5-.3.2-.7-.9Z" fill="#1c0f30"/>
            <path d="M105.7,339v-.3h.5l.4-.2a.2.2,0,0,0,.2-.2l-.2-.2h-2.1q-.3-.1-.3-.3c0-.2.1-.3.3-.4l.6-.2h.6v.3h-.8l-.2.2a.2.2,0,0,0,.2.2c0,.1.1.1.3.1h.6l.7-.2.5.2a.5.5,0,0,1,.3.4c0,.1-.2.3-.4.4l-.6.2C106.1,339.1,105.9,339,105.7,339Z" fill="#1c0f30"/>
            <path d="M108.5,337.8l-.3.2-3.7-2.2.3-.2Z" fill="#1c0f30"/>
            <path d="M106.3,335.6c-.1,0-.1,0-.1-.1a.1.1,0,0,1,.1-.1h.5c0,.1,0,.1-.1.1h-.4Zm3,1.7-2.1-1.2.3-.2,2.1,1.2Z" fill="#1c0f30"/>
            <path d="M111.5,337.3l-3.2-1.9h.3l.4.2a.3.3,0,0,1,0-.4q0-.2.3-.3a1.2,1.2,0,0,1,1-.2,2,2,0,0,1,1.1.3q.6.3.6.6a.7.7,0,0,1-.4.6l-.6.2h-.7l1.5.8Zm-.4-2.2a1.3,1.3,0,0,0-.8-.3,1.1,1.1,0,0,0-.8.2c-.2.1-.3.2-.3.4s.2.3.5.5l.8.2a1.1,1.1,0,0,0,.8-.1c.2-.2.3-.3.3-.5S111.4,335.2,111.1,335.1Z" fill="#1c0f30"/>
            <path d="M112.5,335.1v-.3h.9c.1-.1.2-.1.2-.2s0-.2-.1-.2a1.4,1.4,0,0,0-.9,0h-1.3c-.2-.1-.3-.2-.3-.4l.3-.4.6-.2h.6v.2h-.8l-.2.2c0,.1.1.1.2.2h.3l.6-.2h.7l.5.2c.2.1.3.2.3.4s-.1.3-.4.4l-.6.2Z" fill="#1c0f30"/>
          </g>
          <g>
            <path d="M109.3,348.7l-3.5-2.1h.3l1.5.8,1.9-1.1-1.5-.9h.4l3.5,2-.3.2-1.8-1.1-2,1.1,1.9,1.1Z" fill="#1c0f30"/>
            <path d="M113.5,345l-1.7,1a1.6,1.6,0,0,0,.9.3l.7-.2.3-.3a.8.8,0,0,0-.1-.4h.4c.1.2.2.4.1.5s-.2.3-.4.5a2,2,0,0,1-1.1.2,2,2,0,0,1-1.1-.3,1.1,1.1,0,0,1-.6-.6c0-.3.2-.5.5-.7l1-.2a1.9,1.9,0,0,1,1,.3Zm-.6.1a.8.8,0,0,0-.7-.1h-.6a.4.4,0,0,0,0,.8Z" fill="#1c0f30"/>
            <path d="M115.5,345.1l-.3.2-3.7-2.2h.3Z" fill="#1c0f30"/>
            <path d="M117.4,345.3l-3.2-1.9h.3l.4.2a.8.8,0,0,1-.1-.4l.3-.3a2,2,0,0,1,1.1-.3,2.1,2.1,0,0,1,1.1.4l.6.6a.7.7,0,0,1-.4.6l-.6.2h-.7l1.5.8ZM117,343l-.9-.2h-.7c-.2.2-.3.3-.3.5s.1.3.4.5l.9.2a1.2,1.2,0,0,0,.8-.2c.2-.1.3-.2.2-.4S117.3,343.2,117,343Z" fill="#1c0f30"/>
            <path d="M122.8,340.9h-1a.7.7,0,0,1-.1.5.8.8,0,0,1-.4.4,1.7,1.7,0,0,1-1,.3l-1-.2-.4-.5a2,2,0,0,1,.1-.7h-1.2c-.2-.1-.3-.3-.2-.4s.1-.3.3-.4a1,1,0,0,1,.7-.2h.7l.3.4a1.1,1.1,0,0,1-.1.5h1.9v-.3a.4.4,0,0,1-.1-.3h.3c0,.1.1.2.1.3s.1.3.1.4h1.3Zm-3.7-.4V340c0-.1-.1-.1-.2-.2h-.8c-.2.1-.2.2-.3.3l.2.2h1Zm2.3.4-2-.2v.7q0,.2.3.3l.7.2.8-.2.3-.3Z" fill="#1c0f30"/>
            <path d="M125,336.3h-.9l-.7.3c-.4.3-.7.6-.7.9s.3.6.7.9l.8.3h1.6a1.1,1.1,0,0,0,.7-.3l.5-.4a.8.8,0,0,0,.2-.5l.4.3-.3.4-.5.4a3.2,3.2,0,0,1-.9.3l-1,.2H124l-.9-.4c-.3-.2-.5-.3-.6-.5a.7.7,0,0,1-.2-.6c0-.2.1-.3.2-.5a1,1,0,0,1,.6-.5,1.1,1.1,0,0,1,.7-.3l.8-.2Z" fill="#1c0f30"/>
            <path d="M129.3,335.9l-1.7,1a1.3,1.3,0,0,0,.8.3l.8-.2.3-.3a.8.8,0,0,0-.1-.4h.4a1.1,1.1,0,0,1,.1.5l-.4.5-1.1.2a2,2,0,0,1-1.1-.3q-.6-.3-.6-.6a.8.8,0,0,1,.4-.7l1-.2a2,2,0,0,1,1.1.3Zm-.6.1-.7-.2-.6.2c-.2.1-.3.2-.3.4s.1.2.2.4Z" fill="#1c0f30"/>
            <path d="M130.9,336.2l-2.1-1.2.3-.2.3.2v-.4l.4-.3.7-.2.8.2,1.4.9h-.3l-1.3-.7a.7.7,0,0,0-.6-.2H130c-.3.2-.4.3-.3.4s.1.3.4.5l1.1.6Z" fill="#1c0f30"/>
            <path d="M131.7,333.6l-.4.2H131l.4-.3-.8-.5h.3l.8.5.5-.3.2.2-.4.2,1.9,1.1-.3.2Z" fill="#1c0f30"/>
            <path d="M135.5,332.3l-1.7,1a1.6,1.6,0,0,0,.9.3l.7-.2q.3-.1.3-.3a.6.6,0,0,0-.1-.4h.4c.2.2.2.4.1.5s-.2.3-.4.5l-1.1.2a2,2,0,0,1-1.1-.3,1.7,1.7,0,0,1-.6-.6c0-.3.2-.5.5-.7l1-.2a1.7,1.7,0,0,1,1,.3Zm-.6.1-.6-.2-.7.2c-.2.1-.2.2-.3.4l.3.4Z" fill="#1c0f30"/>
            <path d="M135.8,331.4a.6.6,0,0,1-.1-.4q0-.2.3-.3h.3v.2h-.2a.4.4,0,0,0-.2.4.7.7,0,0,0,.4.5l1.1.6-.3.2-2.1-1.2.2-.2Z" fill="#1c0f30"/>
          </g>
          <g>
            <path d="M63.9,327.3l-.5.3h-.6l-1.5-.8c-.1-.1-.1-.3,0-.3l.6-.4a.4.4,0,0,1,.5,0l1.5.9Q64.2,327.2,63.9,327.3Zm-2.4-.7h0l1.5.9h.2l.6-.3h0l-1.5-.9h-.2Z" fill="#1c0f30"/>
            <path d="M65.5,328.2l-.5.3a.6.6,0,0,1-.6,0l-.7-.4q-.3-.2,0-.3l.6-.3a.4.4,0,0,1,.5,0l.7.4Q65.8,328.1,65.5,328.2Zm-1.6-.3c-.1,0-.1.1,0,.1l.7.4c.1.1.1.1.2,0l.6-.3h0l-.8-.4h-.1Z" fill="#1c0f30"/>
          </g>
          <g>
            <path d="M67,327.4l-.6.3a.4.4,0,0,1-.5,0l-1.5-.8c-.2-.1-.2-.3,0-.3l.6-.4h.5l1.5.9A.2.2,0,0,1,67,327.4Zm-2.4-.7h0l1.5.9h.1l.6-.3h0l-1.5-.9h-.2Z" fill="#1c0f30"/>
            <path d="M64.6,326l-.6.4h-.5l-.7-.5q-.3-.1,0-.3l.6-.3a.4.4,0,0,1,.5,0l.7.4Q64.9,325.9,64.6,326Zm-1.6-.3c-.1.1-.1.1,0,.1l.7.5h.2l.5-.4c.1,0,.1,0,0-.1l-.7-.4h-.2Z" fill="#1c0f30"/>
          </g>
          <g>
            <path d="M92.8,342.3l-2,1.2c-.1,0-.1,0,0,.1h0c-.1,0-.1.1,0,.1l2.8,1.6c0,.1.1.1.1,0l2-1.1h-.2l.2-.2h0l-2.8-1.7Zm2.7,2-1.9,1.1L91,343.9h.1l2.5,1.4h.1l1.6-.9Zm0-.3-1.9,1.1L91,343.5l1.8-1Z" fill="#1c0f30"/>
            <path d="M92.1,343.8l1.3-.7h-.2l-1.2.8h.1Z" fill="#1c0f30"/>
            <path d="M92.7,344.2l1.2-.8h-.1l-1.3.7h.2Z" fill="#1c0f30"/>
            <path d="M93.3,344.5l.9-.6c.1,0,.1,0,0-.1h-.1l-1,.6h.2Z" fill="#1c0f30"/>
          </g>
          <g>
            <path d="M75.7,333.8a4.4,4.4,0,0,1-3.9,0c-1.1-.6-1.1-1.6,0-2.3a4.4,4.4,0,0,1,3.9,0C76.8,332.2,76.8,333.2,75.7,333.8Zm-3.8-2.2c-1,.6-1,1.5,0,2.1a3.8,3.8,0,0,0,3.6,0c1-.6,1-1.5,0-2.1A4.5,4.5,0,0,0,71.9,331.6Z" fill="#1c0f30"/>
            <path d="M74.2,332.4h-.4c0-.1-.1-.3-.2-.3L73,332h-.5c-.3.1-.3.4,0,.6h.6a.4.4,0,0,0,.1.7h.2a.9.9,0,0,0,.7,0l1-.6.2-.3-.2-.2H75A1.1,1.1,0,0,0,74.2,332.4Zm-1.6.3c-.2-.1-.2-.3,0-.5h.8c.1.1.2.2.2.3a.1.1,0,0,1-.1.1h-.1A1.1,1.1,0,0,1,72.6,332.7Zm2.4,0a.2.2,0,0,1,0,.3l-1,.6h-.6c-.3-.2-.3-.5,0-.6l.3-.2h.1a1.1,1.1,0,0,1,1,.1Z" fill="#1c0f30"/>
            <path d="M74.2,332.2c0-.1,0-.2-.2-.3a1.1,1.1,0,0,0-1.1,0h1c.1.1.2.2.1.3h.4a1.3,1.3,0,0,1,.9.1h.1c.1,0,.1.2,0,.2h.2a.2.2,0,0,0,0-.4h-.2A1.6,1.6,0,0,0,74.2,332.2Z" fill="#1c0f30"/>
          </g>
          <g>
            <path d="M105.2,350.9a4.5,4.5,0,0,1-3.9,0c-1.1-.7-1.1-1.7,0-2.3a4.4,4.4,0,0,1,3.9,0C106.3,349.2,106.3,350.2,105.2,350.9Zm-3.7-2.2c-1,.6-1,1.5,0,2.1a4.5,4.5,0,0,0,3.6,0c1-.6,1-1.5,0-2.1A3.8,3.8,0,0,0,101.5,348.7Z" fill="#1c0f30"/>
            <path d="M103.7,350.1h-.1l-.3-.2v-.4h-.9c0,.1,0,.2.2.3h-.3a.8.8,0,0,1-.2-.4c0-.1,0-.2.2-.2l.5-.2.5.2h.2c0,.1.1.2.1.3v.2l.3.2Zm.4.3-.2-.2h.5Z" fill="#1c0f30"/>
          </g>
          <g>
            <path d="M82.8,339.3h0c-.4-.2-.4-.5,0-.7l1.7-1v.3h.2v-.4h-.8c-.1,0-.1,0-.1.1h.5l-1.7,1a.4.4,0,0,0,0,.8Z" fill="#1c0f30"/>
            <path d="M85.2,337.8c-.1,0-.1.1,0,.1a.4.4,0,0,1,0,.7l-1.7.9v-.2h-.1a.1.1,0,0,0-.1.1v.4h.3l1.7-1a.4.4,0,0,0,0-.8Z" fill="#1c0f30"/>
          </g>
        </g>
      </g>
    </g>
  </g>
</svg>
