<svg width="626" height="382" viewBox="0 0 626 382" fill="none" xmlns="http://www.w3.org/2000/svg">
<g clip-path="url(#clip0_1_2)">
<mask id="mask0_1_2" style="mask-type:luminance" maskUnits="userSpaceOnUse" x="-222" y="-230" width="577" height="842">
<path d="M354.2 -230H-221.6V612H354.2V-230Z" fill="white"/>
</mask>
<g mask="url(#mask0_1_2)">
<path d="M354.2 -229.7H-221.6V611.8H354.2V-229.7Z" fill="white"/>
<path d="M378.3 -240.9H-244.3V634.11H378.3V-240.9Z" stroke="black" stroke-width="0.43" stroke-linecap="round" stroke-linejoin="round"/>
<path d="M12.4001 677.3V-349.2" stroke="#929292" stroke-width="0.43" stroke-linecap="round" stroke-linejoin="round"/>
<path d="M30.4001 677.3V-349.2" stroke="#929292" stroke-width="0.43" stroke-linecap="round" stroke-linejoin="round"/>
<path d="M48.4001 677.3V-349.2" stroke="#929292" stroke-width="0.43" stroke-linecap="round" stroke-linejoin="round"/>
<path d="M66.3 685.6V-349.2" stroke="#929292" stroke-width="0.43" stroke-linecap="round" stroke-linejoin="round"/>
<path d="M84.3 685.6V-349.2" stroke="#929292" stroke-width="0.43" stroke-linecap="round" stroke-linejoin="round"/>
<path d="M102.3 685.6V-349.2" stroke="#929292" stroke-width="0.43" stroke-linecap="round" stroke-linejoin="round"/>
<path d="M120.3 685.6V-349.2" stroke="#929292" stroke-width="0.43" stroke-linecap="round" stroke-linejoin="round"/>
<path d="M138.3 685.6V-349.2" stroke="#929292" stroke-width="0.43" stroke-linecap="round" stroke-linejoin="round"/>
<path d="M156.3 685.6V-349.2" stroke="#929292" stroke-width="0.43" stroke-linecap="round" stroke-linejoin="round"/>
<path d="M174.3 685.6V-349.2" stroke="#929292" stroke-width="0.43" stroke-linecap="round" stroke-linejoin="round"/>
<path d="M192.3 685.7V-349.1" stroke="#929292" stroke-width="0.43" stroke-linecap="round" stroke-linejoin="round"/>
<path d="M210.3 685.7V-349.1" stroke="#929292" stroke-width="0.43" stroke-linecap="round" stroke-linejoin="round"/>
<path d="M228.2 685.7V-349.1" stroke="#929292" stroke-width="0.43" stroke-linecap="round" stroke-linejoin="round"/>
<path d="M246.2 685.7V-349.1" stroke="#929292" stroke-width="0.43" stroke-linecap="round" stroke-linejoin="round"/>
<path d="M264.2 685.7V-349.1" stroke="#929292" stroke-width="0.43" stroke-linecap="round" stroke-linejoin="round"/>
<path d="M282.2 688V-349.2" stroke="#929292" stroke-width="0.43" stroke-linecap="round" stroke-linejoin="round"/>
<path d="M300.2 688V-349.2" stroke="#929292" stroke-width="0.43" stroke-linecap="round" stroke-linejoin="round"/>
<path d="M318.2 688V-349.2" stroke="#929292" stroke-width="0.43" stroke-linecap="round" stroke-linejoin="round"/>
<path d="M336.2 688V-349.2" stroke="#929292" stroke-width="0.43" stroke-linecap="round" stroke-linejoin="round"/>
<path d="M354.2 685.7V-349.3" stroke="#929292" stroke-width="0.43" stroke-linecap="round" stroke-linejoin="round"/>
<path d="M454.2 483.3L-434.7 -30" stroke="#929292" stroke-width="0.43" stroke-linecap="round" stroke-linejoin="round"/>
<path d="M463.2 467.7L-425.7 -45.5" stroke="#929292" stroke-width="0.43" stroke-linecap="round" stroke-linejoin="round"/>
<path d="M473.3 452.8L-415.6 -60.5" stroke="#929292" stroke-width="0.43" stroke-linecap="round" stroke-linejoin="round"/>
<path d="M482.4 437.1L-406.6 -76.1" stroke="#929292" stroke-width="0.43" stroke-linecap="round" stroke-linejoin="round"/>
<path d="M492.5 422.1L-396.4 -91.1" stroke="#929292" stroke-width="0.43" stroke-linecap="round" stroke-linejoin="round"/>
<path d="M501.5 406.5L-387.4 -106.7" stroke="#929292" stroke-width="0.43" stroke-linecap="round" stroke-linejoin="round"/>
<path d="M510.6 391L-378.3 -122.2" stroke="#929292" stroke-width="0.43" stroke-linecap="round" stroke-linejoin="round"/>
<path d="M519.6 375.5L-369.3 -137.8" stroke="#929292" stroke-width="0.43" stroke-linecap="round" stroke-linejoin="round"/>
<path d="M528.6 359.9L-360.3 -153.4" stroke="#929292" stroke-width="0.43" stroke-linecap="round" stroke-linejoin="round"/>
<path d="M537.6 344.3L-351.3 -169" stroke="#929292" stroke-width="0.43" stroke-linecap="round" stroke-linejoin="round"/>
<path d="M546.5 328.6L-342.5 -184.6" stroke="#929292" stroke-width="0.43" stroke-linecap="round" stroke-linejoin="round"/>
<path d="M555.5 313.1L-333.5 -200.2" stroke="#929292" stroke-width="0.43" stroke-linecap="round" stroke-linejoin="round"/>
<path d="M564.5 297.5L-324.5 -215.8" stroke="#929292" stroke-width="0.43" stroke-linecap="round" stroke-linejoin="round"/>
<path d="M573.5 281.9L-315.5 -231.3" stroke="#929292" stroke-width="0.43" stroke-linecap="round" stroke-linejoin="round"/>
<path d="M582.5 266.3L-306.5 -246.9" stroke="#929292" stroke-width="0.43" stroke-linecap="round" stroke-linejoin="round"/>
<path d="M591.5 250.7L-297.5 -262.5" stroke="#929292" stroke-width="0.43" stroke-linecap="round" stroke-linejoin="round"/>
<path d="M607.6 239.4L-288.5 -278" stroke="#929292" stroke-width="0.43" stroke-linecap="round" stroke-linejoin="round"/>
<path d="M616.6 223.8L-279.5 -293.6" stroke="#929292" stroke-width="0.43" stroke-linecap="round" stroke-linejoin="round"/>
<path d="M625.6 208.2L-270.5 -309.2" stroke="#929292" stroke-width="0.43" stroke-linecap="round" stroke-linejoin="round"/>
<path d="M634.6 192.6L-261.5 -324.8" stroke="#929292" stroke-width="0.43" stroke-linecap="round" stroke-linejoin="round"/>
<path d="M643.6 177L-252.5 -340.3" stroke="#929292" stroke-width="0.43" stroke-linecap="round" stroke-linejoin="round"/>
<path d="M652.6 161.5L-243.6 -355.9" stroke="#929292" stroke-width="0.43" stroke-linecap="round" stroke-linejoin="round"/>
<path d="M661.6 145.9L-234.6 -371.5" stroke="#929292" stroke-width="0.43" stroke-linecap="round" stroke-linejoin="round"/>
<path d="M670.7 130.4L-225.4 -387" stroke="#929292" stroke-width="0.43" stroke-linecap="round" stroke-linejoin="round"/>
<path d="M679.7 114.8L-216.4 -402.6" stroke="#929292" stroke-width="0.43" stroke-linecap="round" stroke-linejoin="round"/>
<path d="M688.7 99.2L-207.4 -418.2" stroke="#929292" stroke-width="0.43" stroke-linecap="round" stroke-linejoin="round"/>
<path d="M697.7 83.6L-198.5 -433.8" stroke="#929292" stroke-width="0.43" stroke-linecap="round" stroke-linejoin="round"/>
<path d="M706.7 68L-189.5 -449.3" stroke="#929292" stroke-width="0.43" stroke-linecap="round" stroke-linejoin="round"/>
<path d="M717.6 53.6L-180.6 -465" stroke="#929292" stroke-width="0.43" stroke-linecap="round" stroke-linejoin="round"/>
<path d="M726.6 38L-171.6 -480.6" stroke="#929292" stroke-width="0.43" stroke-linecap="round" stroke-linejoin="round"/>
<path d="M735.6 22.4L-162.6 -496.2" stroke="#929292" stroke-width="0.43" stroke-linecap="round" stroke-linejoin="round"/>
<path d="M744.6 6.79999L-153.6 -511.7" stroke="#929292" stroke-width="0.43" stroke-linecap="round" stroke-linejoin="round"/>
<path d="M239.2 878.5L-649.8 365.3" stroke="#929292" stroke-width="0.43" stroke-linecap="round" stroke-linejoin="round"/>
<path d="M249.3 863.6L-639.7 350.4" stroke="#929292" stroke-width="0.43" stroke-linecap="round" stroke-linejoin="round"/>
<path d="M258.4 848L-630.6 334.7" stroke="#929292" stroke-width="0.43" stroke-linecap="round" stroke-linejoin="round"/>
<path d="M268.5 833L-620.5 319.7" stroke="#929292" stroke-width="0.43" stroke-linecap="round" stroke-linejoin="round"/>
<path d="M277.5 817.4L-611.5 304.1" stroke="#929292" stroke-width="0.43" stroke-linecap="round" stroke-linejoin="round"/>
<path d="M286.6 801.9L-602.4 288.6" stroke="#929292" stroke-width="0.43" stroke-linecap="round" stroke-linejoin="round"/>
<path d="M295.6 786.3L-593.4 273.1" stroke="#929292" stroke-width="0.43" stroke-linecap="round" stroke-linejoin="round"/>
<path d="M304.6 770.7L-584.4 257.5" stroke="#929292" stroke-width="0.43" stroke-linecap="round" stroke-linejoin="round"/>
<path d="M313.6 755.1L-575.4 241.9" stroke="#929292" stroke-width="0.43" stroke-linecap="round" stroke-linejoin="round"/>
<path d="M322.5 739.5L-566.5 226.2" stroke="#929292" stroke-width="0.43" stroke-linecap="round" stroke-linejoin="round"/>
<path d="M331.5 723.9L-557.5 210.7" stroke="#929292" stroke-width="0.43" stroke-linecap="round" stroke-linejoin="round"/>
<path d="M340.5 708.3L-548.5 195.1" stroke="#929292" stroke-width="0.43" stroke-linecap="round" stroke-linejoin="round"/>
<path d="M349.5 692.7L-539.5 179.5" stroke="#929292" stroke-width="0.43" stroke-linecap="round" stroke-linejoin="round"/>
<path d="M358.5 677.2L-530.5 163.9" stroke="#929292" stroke-width="0.43" stroke-linecap="round" stroke-linejoin="round"/>
<path d="M367.5 661.6L-521.5 148.3" stroke="#929292" stroke-width="0.43" stroke-linecap="round" stroke-linejoin="round"/>
<path d="M383.6 650.2L-512.6 132.8" stroke="#929292" stroke-width="0.43" stroke-linecap="round" stroke-linejoin="round"/>
<path d="M392.6 634.6L-503.6 117.2" stroke="#929292" stroke-width="0.43" stroke-linecap="round" stroke-linejoin="round"/>
<path d="M401.6 619L-494.6 101.7" stroke="#929292" stroke-width="0.43" stroke-linecap="round" stroke-linejoin="round"/>
<path d="M410.6 603.5L-485.6 86.1" stroke="#929292" stroke-width="0.43" stroke-linecap="round" stroke-linejoin="round"/>
<path d="M419.6 587.9L-476.6 70.5" stroke="#929292" stroke-width="0.43" stroke-linecap="round" stroke-linejoin="round"/>
<path d="M428.6 572.3L-467.6 54.9" stroke="#929292" stroke-width="0.43" stroke-linecap="round" stroke-linejoin="round"/>
<path d="M437.6 556.7L-458.6 39.3" stroke="#929292" stroke-width="0.43" stroke-linecap="round" stroke-linejoin="round"/>
<path d="M446.7 541.2L-449.5 23.8" stroke="#929292" stroke-width="0.43" stroke-linecap="round" stroke-linejoin="round"/>
<path d="M455.7 525.6L-440.5 8.20001" stroke="#929292" stroke-width="0.43" stroke-linecap="round" stroke-linejoin="round"/>
<path d="M464.7 510.1L-431.5 -7.29999" stroke="#929292" stroke-width="0.43" stroke-linecap="round" stroke-linejoin="round"/>
<path d="M-352.3 480.3L536.6 -32.9" stroke="#929292" stroke-width="0.43" stroke-linecap="round" stroke-linejoin="round"/>
<path d="M-361.3 464.8L527.6 -48.5" stroke="#929292" stroke-width="0.43" stroke-linecap="round" stroke-linejoin="round"/>
<path d="M-371.5 449.8L517.5 -63.4" stroke="#929292" stroke-width="0.43" stroke-linecap="round" stroke-linejoin="round"/>
<path d="M-380.5 434.2L508.5 -79.1" stroke="#929292" stroke-width="0.43" stroke-linecap="round" stroke-linejoin="round"/>
<path d="M-390.6 419.2L498.3 -94.1" stroke="#929292" stroke-width="0.43" stroke-linecap="round" stroke-linejoin="round"/>
<path d="M-399.6 403.6L489.3 -109.7" stroke="#929292" stroke-width="0.43" stroke-linecap="round" stroke-linejoin="round"/>
<path d="M-408.8 388.1L480.2 -125.2" stroke="#929292" stroke-width="0.43" stroke-linecap="round" stroke-linejoin="round"/>
<path d="M-417.7 372.5L471.2 -140.7" stroke="#929292" stroke-width="0.43" stroke-linecap="round" stroke-linejoin="round"/>
<path d="M-426.7 356.9L462.2 -156.3" stroke="#929292" stroke-width="0.43" stroke-linecap="round" stroke-linejoin="round"/>
<path d="M-435.7 341.3L453.2 -171.9" stroke="#929292" stroke-width="0.43" stroke-linecap="round" stroke-linejoin="round"/>
<path d="M-444.6 325.7L444.4 -187.6" stroke="#929292" stroke-width="0.43" stroke-linecap="round" stroke-linejoin="round"/>
<path d="M-453.6 310.1L435.4 -203.1" stroke="#929292" stroke-width="0.43" stroke-linecap="round" stroke-linejoin="round"/>
<path d="M-462.6 294.5L426.4 -218.7" stroke="#929292" stroke-width="0.43" stroke-linecap="round" stroke-linejoin="round"/>
<path d="M-471.6 279L417.4 -234.3" stroke="#929292" stroke-width="0.43" stroke-linecap="round" stroke-linejoin="round"/>
<path d="M-480.6 263.4L408.4 -249.9" stroke="#929292" stroke-width="0.43" stroke-linecap="round" stroke-linejoin="round"/>
<path d="M-489.6 247.8L399.4 -265.5" stroke="#929292" stroke-width="0.43" stroke-linecap="round" stroke-linejoin="round"/>
<path d="M-505.7 236.4L390.4 -281" stroke="#929292" stroke-width="0.43" stroke-linecap="round" stroke-linejoin="round"/>
<path d="M-514.7 220.8L381.4 -296.6" stroke="#929292" stroke-width="0.43" stroke-linecap="round" stroke-linejoin="round"/>
<path d="M-523.7 205.2L372.4 -312.1" stroke="#929292" stroke-width="0.43" stroke-linecap="round" stroke-linejoin="round"/>
<path d="M-532.7 189.7L363.4 -327.7" stroke="#929292" stroke-width="0.43" stroke-linecap="round" stroke-linejoin="round"/>
<path d="M-541.7 174.1L354.4 -343.3" stroke="#929292" stroke-width="0.43" stroke-linecap="round" stroke-linejoin="round"/>
<path d="M-550.7 158.5L345.4 -358.9" stroke="#929292" stroke-width="0.43" stroke-linecap="round" stroke-linejoin="round"/>
<path d="M-559.7 142.9L336.5 -374.5" stroke="#929292" stroke-width="0.43" stroke-linecap="round" stroke-linejoin="round"/>
<path d="M-568.8 127.4L327.3 -390" stroke="#929292" stroke-width="0.43" stroke-linecap="round" stroke-linejoin="round"/>
<path d="M-577.8 111.8L318.3 -405.5" stroke="#929292" stroke-width="0.43" stroke-linecap="round" stroke-linejoin="round"/>
<path d="M-586.8 96.3L309.3 -421.1" stroke="#929292" stroke-width="0.43" stroke-linecap="round" stroke-linejoin="round"/>
<path d="M-595.8 80.7L300.3 -436.7" stroke="#929292" stroke-width="0.43" stroke-linecap="round" stroke-linejoin="round"/>
<path d="M-604.8 65.1L291.3 -452.3" stroke="#929292" stroke-width="0.43" stroke-linecap="round" stroke-linejoin="round"/>
<path d="M-615.7 50.6L282.5 -467.9" stroke="#929292" stroke-width="0.43" stroke-linecap="round" stroke-linejoin="round"/>
<path d="M-624.7 35L273.5 -483.5" stroke="#929292" stroke-width="0.43" stroke-linecap="round" stroke-linejoin="round"/>
<path d="M-633.7 19.5L264.5 -499.1" stroke="#929292" stroke-width="0.43" stroke-linecap="round" stroke-linejoin="round"/>
<path d="M-642.7 3.90002L255.5 -514.7" stroke="#929292" stroke-width="0.43" stroke-linecap="round" stroke-linejoin="round"/>
<path d="M-137.3 875.6L751.7 362.3" stroke="#929292" stroke-width="0.43" stroke-linecap="round" stroke-linejoin="round"/>
<path d="M-147.4 860.7L741.5 347.4" stroke="#929292" stroke-width="0.43" stroke-linecap="round" stroke-linejoin="round"/>
<path d="M-156.5 845L732.5 331.8" stroke="#929292" stroke-width="0.43" stroke-linecap="round" stroke-linejoin="round"/>
<path d="M-166.6 830L722.4 316.8" stroke="#929292" stroke-width="0.43" stroke-linecap="round" stroke-linejoin="round"/>
<path d="M-175.6 814.4L713.4 301.2" stroke="#929292" stroke-width="0.43" stroke-linecap="round" stroke-linejoin="round"/>
<path d="M-184.7 798.9L704.2 285.7" stroke="#929292" stroke-width="0.43" stroke-linecap="round" stroke-linejoin="round"/>
<path d="M-193.7 783.4L695.2 270.1" stroke="#929292" stroke-width="0.43" stroke-linecap="round" stroke-linejoin="round"/>
<path d="M-202.7 767.8L686.3 254.5" stroke="#929292" stroke-width="0.43" stroke-linecap="round" stroke-linejoin="round"/>
<path d="M-211.7 752.2L677.3 238.9" stroke="#929292" stroke-width="0.43" stroke-linecap="round" stroke-linejoin="round"/>
<path d="M-220.6 736.5L668.4 223.3" stroke="#929292" stroke-width="0.43" stroke-linecap="round" stroke-linejoin="round"/>
<path d="M-229.6 721L659.4 207.7" stroke="#929292" stroke-width="0.43" stroke-linecap="round" stroke-linejoin="round"/>
<path d="M-238.6 705.4L650.4 192.1" stroke="#929292" stroke-width="0.43" stroke-linecap="round" stroke-linejoin="round"/>
<path d="M-247.6 689.8L641.4 176.5" stroke="#929292" stroke-width="0.43" stroke-linecap="round" stroke-linejoin="round"/>
<path d="M-256.6 674.2L632.4 161" stroke="#929292" stroke-width="0.43" stroke-linecap="round" stroke-linejoin="round"/>
<path d="M-265.6 658.6L623.4 145.4" stroke="#929292" stroke-width="0.43" stroke-linecap="round" stroke-linejoin="round"/>
<path d="M-281.7 647.3L614.4 129.9" stroke="#929292" stroke-width="0.43" stroke-linecap="round" stroke-linejoin="round"/>
<path d="M-290.7 631.7L605.5 114.3" stroke="#929292" stroke-width="0.43" stroke-linecap="round" stroke-linejoin="round"/>
<path d="M-299.7 616.1L596.5 98.7" stroke="#929292" stroke-width="0.43" stroke-linecap="round" stroke-linejoin="round"/>
<path d="M-308.7 600.5L587.5 83.1" stroke="#929292" stroke-width="0.43" stroke-linecap="round" stroke-linejoin="round"/>
<path d="M-317.7 584.9L578.5 67.5" stroke="#929292" stroke-width="0.43" stroke-linecap="round" stroke-linejoin="round"/>
<path d="M-326.7 569.4L569.5 52" stroke="#929292" stroke-width="0.43" stroke-linecap="round" stroke-linejoin="round"/>
<path d="M-335.7 553.8L560.5 36.4" stroke="#929292" stroke-width="0.43" stroke-linecap="round" stroke-linejoin="round"/>
<path d="M-344.8 538.3L551.4 20.9" stroke="#929292" stroke-width="0.43" stroke-linecap="round" stroke-linejoin="round"/>
<path d="M-353.8 522.7L542.4 5.29999" stroke="#929292" stroke-width="0.43" stroke-linecap="round" stroke-linejoin="round"/>
<path d="M-362.8 507.1L533.4 -10.3" stroke="#929292" stroke-width="0.43" stroke-linecap="round" stroke-linejoin="round"/>
</g>
<mask id="mask1_1_2" style="mask-type:luminance" maskUnits="userSpaceOnUse" x="354" y="-230" width="576" height="842">
<path d="M930 -230H354.2V612H930V-230Z" fill="white"/>
</mask>
<g mask="url(#mask1_1_2)">
<path d="M930 -229.7H354.2V611.8H930V-229.7Z" fill="white"/>
<path d="M954 -240.9H331.4V634.11H954V-240.9Z" stroke="black" stroke-width="0.43" stroke-linecap="round" stroke-linejoin="round"/>
<path d="M354.2 674.7V-351.8" stroke="#929292" stroke-width="0.43" stroke-linecap="round" stroke-linejoin="round"/>
<path d="M372.2 674.7V-351.8" stroke="#929292" stroke-width="0.43" stroke-linecap="round" stroke-linejoin="round"/>
<path d="M390.2 676V-350.5" stroke="#929292" stroke-width="0.43" stroke-linecap="round" stroke-linejoin="round"/>
<path d="M408.2 676V-350.5" stroke="#929292" stroke-width="0.43" stroke-linecap="round" stroke-linejoin="round"/>
<path d="M426.3 677.3V-349.2" stroke="#929292" stroke-width="0.43" stroke-linecap="round" stroke-linejoin="round"/>
<path d="M444.3 677.3V-349.2" stroke="#929292" stroke-width="0.43" stroke-linecap="round" stroke-linejoin="round"/>
<path d="M462.3 677.4V-349.1" stroke="#929292" stroke-width="0.43" stroke-linecap="round" stroke-linejoin="round"/>
<path d="M480.3 677.4V-349.1" stroke="#929292" stroke-width="0.43" stroke-linecap="round" stroke-linejoin="round"/>
<path d="M498.3 677.4V-349.1" stroke="#929292" stroke-width="0.43" stroke-linecap="round" stroke-linejoin="round"/>
<path d="M516.2 677.4V-349.1" stroke="#929292" stroke-width="0.43" stroke-linecap="round" stroke-linejoin="round"/>
<path d="M534.2 677.3V-349.2" stroke="#929292" stroke-width="0.43" stroke-linecap="round" stroke-linejoin="round"/>
<path d="M552.2 677.3V-349.2" stroke="#929292" stroke-width="0.43" stroke-linecap="round" stroke-linejoin="round"/>
<path d="M570.2 677.3V-349.2" stroke="#929292" stroke-width="0.43" stroke-linecap="round" stroke-linejoin="round"/>
<path d="M588.2 677.3V-349.2" stroke="#929292" stroke-width="0.43" stroke-linecap="round" stroke-linejoin="round"/>
<path d="M606.2 677.3V-349.2" stroke="#929292" stroke-width="0.43" stroke-linecap="round" stroke-linejoin="round"/>
<path d="M624.2 677.3V-349.2" stroke="#929292" stroke-width="0.43" stroke-linecap="round" stroke-linejoin="round"/>
<path d="M1030 483.3L141 -30" stroke="#929292" stroke-width="0.43" stroke-linecap="round" stroke-linejoin="round"/>
<path d="M1039 467.7L150 -45.5" stroke="#929292" stroke-width="0.43" stroke-linecap="round" stroke-linejoin="round"/>
<path d="M1049.1 452.8L160.2 -60.5" stroke="#929292" stroke-width="0.43" stroke-linecap="round" stroke-linejoin="round"/>
<path d="M1058.2 437.1L169.2 -76.1" stroke="#929292" stroke-width="0.43" stroke-linecap="round" stroke-linejoin="round"/>
<path d="M1068.3 422.1L179.3 -91.1" stroke="#929292" stroke-width="0.43" stroke-linecap="round" stroke-linejoin="round"/>
<path d="M1077.3 406.5L188.3 -106.7" stroke="#929292" stroke-width="0.43" stroke-linecap="round" stroke-linejoin="round"/>
<path d="M1086.4 391L197.5 -122.2" stroke="#929292" stroke-width="0.43" stroke-linecap="round" stroke-linejoin="round"/>
<path d="M1095.4 375.5L206.5 -137.8" stroke="#929292" stroke-width="0.43" stroke-linecap="round" stroke-linejoin="round"/>
<path d="M1104.4 359.9L215.4 -153.4" stroke="#929292" stroke-width="0.43" stroke-linecap="round" stroke-linejoin="round"/>
<path d="M1113.4 344.3L224.4 -169" stroke="#929292" stroke-width="0.43" stroke-linecap="round" stroke-linejoin="round"/>
<path d="M1122.3 328.6L233.3 -184.6" stroke="#929292" stroke-width="0.43" stroke-linecap="round" stroke-linejoin="round"/>
<path d="M1131.3 313.1L242.3 -200.2" stroke="#929292" stroke-width="0.43" stroke-linecap="round" stroke-linejoin="round"/>
<path d="M1140.3 297.5L251.3 -215.8" stroke="#929292" stroke-width="0.43" stroke-linecap="round" stroke-linejoin="round"/>
<path d="M1149.3 281.9L260.3 -231.3" stroke="#929292" stroke-width="0.43" stroke-linecap="round" stroke-linejoin="round"/>
<path d="M1158.3 266.3L269.3 -246.9" stroke="#929292" stroke-width="0.43" stroke-linecap="round" stroke-linejoin="round"/>
<path d="M1167.3 250.7L278.3 -262.5" stroke="#929292" stroke-width="0.43" stroke-linecap="round" stroke-linejoin="round"/>
<path d="M1183.4 239.4L287.3 -278" stroke="#929292" stroke-width="0.43" stroke-linecap="round" stroke-linejoin="round"/>
<path d="M1192.4 223.8L296.2 -293.6" stroke="#929292" stroke-width="0.43" stroke-linecap="round" stroke-linejoin="round"/>
<path d="M1201.4 208.2L305.2 -309.2" stroke="#929292" stroke-width="0.43" stroke-linecap="round" stroke-linejoin="round"/>
<path d="M1210.4 192.6L314.2 -324.8" stroke="#929292" stroke-width="0.43" stroke-linecap="round" stroke-linejoin="round"/>
<path d="M1219.4 177L323.2 -340.3" stroke="#929292" stroke-width="0.43" stroke-linecap="round" stroke-linejoin="round"/>
<path d="M1228.4 161.5L332.2 -355.9" stroke="#929292" stroke-width="0.43" stroke-linecap="round" stroke-linejoin="round"/>
<path d="M1237.4 145.9L341.2 -371.5" stroke="#929292" stroke-width="0.43" stroke-linecap="round" stroke-linejoin="round"/>
<path d="M1246.5 130.4L350.3 -387" stroke="#929292" stroke-width="0.43" stroke-linecap="round" stroke-linejoin="round"/>
<path d="M1255.5 114.8L359.3 -402.6" stroke="#929292" stroke-width="0.43" stroke-linecap="round" stroke-linejoin="round"/>
<path d="M1264.5 99.2L368.3 -418.2" stroke="#929292" stroke-width="0.43" stroke-linecap="round" stroke-linejoin="round"/>
<path d="M1273.5 83.6L377.3 -433.8" stroke="#929292" stroke-width="0.43" stroke-linecap="round" stroke-linejoin="round"/>
<path d="M1282.5 68L386.3 -449.3" stroke="#929292" stroke-width="0.43" stroke-linecap="round" stroke-linejoin="round"/>
<path d="M1293.4 53.6L395.2 -465" stroke="#929292" stroke-width="0.43" stroke-linecap="round" stroke-linejoin="round"/>
<path d="M1302.4 38L404.2 -480.6" stroke="#929292" stroke-width="0.43" stroke-linecap="round" stroke-linejoin="round"/>
<path d="M1311.4 22.4L413.2 -496.2" stroke="#929292" stroke-width="0.43" stroke-linecap="round" stroke-linejoin="round"/>
<path d="M1320.4 6.79999L422.2 -511.7" stroke="#929292" stroke-width="0.43" stroke-linecap="round" stroke-linejoin="round"/>
<path d="M815 878.5L-73.9999 365.3" stroke="#929292" stroke-width="0.43" stroke-linecap="round" stroke-linejoin="round"/>
<path d="M825.1 863.6L-63.9 350.4" stroke="#929292" stroke-width="0.43" stroke-linecap="round" stroke-linejoin="round"/>
<path d="M834.1 848L-54.7999 334.7" stroke="#929292" stroke-width="0.43" stroke-linecap="round" stroke-linejoin="round"/>
<path d="M844.3 833L-44.7 319.7" stroke="#929292" stroke-width="0.43" stroke-linecap="round" stroke-linejoin="round"/>
<path d="M853.3 817.4L-35.7 304.1" stroke="#929292" stroke-width="0.43" stroke-linecap="round" stroke-linejoin="round"/>
<path d="M862.4 801.9L-26.5999 288.6" stroke="#929292" stroke-width="0.43" stroke-linecap="round" stroke-linejoin="round"/>
<path d="M871.4 786.3L-17.5999 273.1" stroke="#929292" stroke-width="0.43" stroke-linecap="round" stroke-linejoin="round"/>
<path d="M880.4 770.7L-8.59991 257.5" stroke="#929292" stroke-width="0.43" stroke-linecap="round" stroke-linejoin="round"/>
<path d="M889.4 755.1L0.400085 241.9" stroke="#929292" stroke-width="0.43" stroke-linecap="round" stroke-linejoin="round"/>
<path d="M898.3 739.5L9.30005 226.2" stroke="#929292" stroke-width="0.43" stroke-linecap="round" stroke-linejoin="round"/>
<path d="M907.3 723.9L18.3 210.7" stroke="#929292" stroke-width="0.43" stroke-linecap="round" stroke-linejoin="round"/>
<path d="M916.3 708.3L27.3 195.1" stroke="#929292" stroke-width="0.43" stroke-linecap="round" stroke-linejoin="round"/>
<path d="M925.3 692.7L36.3 179.5" stroke="#929292" stroke-width="0.43" stroke-linecap="round" stroke-linejoin="round"/>
<path d="M934.2 677.2L45.3 163.9" stroke="#929292" stroke-width="0.43" stroke-linecap="round" stroke-linejoin="round"/>
<path d="M943.2 661.6L54.3 148.3" stroke="#929292" stroke-width="0.43" stroke-linecap="round" stroke-linejoin="round"/>
<path d="M959.4 650.2L63.2001 132.8" stroke="#929292" stroke-width="0.43" stroke-linecap="round" stroke-linejoin="round"/>
<path d="M968.4 634.6L72.2001 117.2" stroke="#929292" stroke-width="0.43" stroke-linecap="round" stroke-linejoin="round"/>
<path d="M977.4 619L81.2001 101.7" stroke="#929292" stroke-width="0.43" stroke-linecap="round" stroke-linejoin="round"/>
<path d="M986.4 603.5L90.2001 86.1" stroke="#929292" stroke-width="0.43" stroke-linecap="round" stroke-linejoin="round"/>
<path d="M995.4 587.9L99.2001 70.5" stroke="#929292" stroke-width="0.43" stroke-linecap="round" stroke-linejoin="round"/>
<path d="M1004.3 572.3L108.2 54.9" stroke="#929292" stroke-width="0.43" stroke-linecap="round" stroke-linejoin="round"/>
<path d="M1013.3 556.7L117.2 39.3" stroke="#929292" stroke-width="0.43" stroke-linecap="round" stroke-linejoin="round"/>
<path d="M1022.5 541.2L126.3 23.8" stroke="#929292" stroke-width="0.43" stroke-linecap="round" stroke-linejoin="round"/>
<path d="M1031.5 525.6L135.3 8.20001" stroke="#929292" stroke-width="0.43" stroke-linecap="round" stroke-linejoin="round"/>
<path d="M1040.5 510.1L144.3 -7.29999" stroke="#929292" stroke-width="0.43" stroke-linecap="round" stroke-linejoin="round"/>
<path d="M223.4 480.3L1112.4 -32.9" stroke="#929292" stroke-width="0.43" stroke-linecap="round" stroke-linejoin="round"/>
<path d="M214.4 464.8L1103.4 -48.5" stroke="#929292" stroke-width="0.43" stroke-linecap="round" stroke-linejoin="round"/>
<path d="M204.3 449.8L1093.3 -63.4" stroke="#929292" stroke-width="0.43" stroke-linecap="round" stroke-linejoin="round"/>
<path d="M195.3 434.2L1084.3 -79.1" stroke="#929292" stroke-width="0.43" stroke-linecap="round" stroke-linejoin="round"/>
<path d="M185.1 419.2L1074.1 -94.1" stroke="#929292" stroke-width="0.43" stroke-linecap="round" stroke-linejoin="round"/>
<path d="M176.2 403.6L1065.1 -109.7" stroke="#929292" stroke-width="0.43" stroke-linecap="round" stroke-linejoin="round"/>
<path d="M167 388.1L1056 -125.2" stroke="#929292" stroke-width="0.43" stroke-linecap="round" stroke-linejoin="round"/>
<path d="M158 372.5L1047 -140.7" stroke="#929292" stroke-width="0.43" stroke-linecap="round" stroke-linejoin="round"/>
<path d="M149 356.9L1038 -156.3" stroke="#929292" stroke-width="0.43" stroke-linecap="round" stroke-linejoin="round"/>
<path d="M140 341.3L1029 -171.9" stroke="#929292" stroke-width="0.43" stroke-linecap="round" stroke-linejoin="round"/>
<path d="M131.2 325.7L1020.1 -187.6" stroke="#929292" stroke-width="0.43" stroke-linecap="round" stroke-linejoin="round"/>
<path d="M122.2 310.1L1011.2 -203.1" stroke="#929292" stroke-width="0.43" stroke-linecap="round" stroke-linejoin="round"/>
<path d="M113.2 294.5L1002.2 -218.7" stroke="#929292" stroke-width="0.43" stroke-linecap="round" stroke-linejoin="round"/>
<path d="M104.2 279L993.2 -234.3" stroke="#929292" stroke-width="0.43" stroke-linecap="round" stroke-linejoin="round"/>
<path d="M95.2001 263.4L984.2 -249.9" stroke="#929292" stroke-width="0.43" stroke-linecap="round" stroke-linejoin="round"/>
<path d="M86.2001 247.8L975.2 -265.5" stroke="#929292" stroke-width="0.43" stroke-linecap="round" stroke-linejoin="round"/>
<path d="M70.1001 236.4L966.2 -281" stroke="#929292" stroke-width="0.43" stroke-linecap="round" stroke-linejoin="round"/>
<path d="M61.1001 220.8L957.2 -296.6" stroke="#929292" stroke-width="0.43" stroke-linecap="round" stroke-linejoin="round"/>
<path d="M52.1 205.2L948.2 -312.1" stroke="#929292" stroke-width="0.43" stroke-linecap="round" stroke-linejoin="round"/>
<path d="M43.1 189.7L939.2 -327.7" stroke="#929292" stroke-width="0.43" stroke-linecap="round" stroke-linejoin="round"/>
<path d="M34.1 174.1L930.2 -343.3" stroke="#929292" stroke-width="0.43" stroke-linecap="round" stroke-linejoin="round"/>
<path d="M25.1 158.5L921.2 -358.9" stroke="#929292" stroke-width="0.43" stroke-linecap="round" stroke-linejoin="round"/>
<path d="M16.1 142.9L912.2 -374.5" stroke="#929292" stroke-width="0.43" stroke-linecap="round" stroke-linejoin="round"/>
<path d="M7.00006 127.4L903.1 -390" stroke="#929292" stroke-width="0.43" stroke-linecap="round" stroke-linejoin="round"/>
<path d="M-1.99994 111.8L894.1 -405.5" stroke="#929292" stroke-width="0.43" stroke-linecap="round" stroke-linejoin="round"/>
<path d="M-10.9999 96.3L885.1 -421.1" stroke="#929292" stroke-width="0.43" stroke-linecap="round" stroke-linejoin="round"/>
<path d="M-19.9999 80.7L876.1 -436.7" stroke="#929292" stroke-width="0.43" stroke-linecap="round" stroke-linejoin="round"/>
<path d="M-28.9999 65.1L867.1 -452.3" stroke="#929292" stroke-width="0.43" stroke-linecap="round" stroke-linejoin="round"/>
<path d="M-39.9 50.6L858.3 -467.9" stroke="#929292" stroke-width="0.43" stroke-linecap="round" stroke-linejoin="round"/>
<path d="M-48.9 35L849.3 -483.5" stroke="#929292" stroke-width="0.43" stroke-linecap="round" stroke-linejoin="round"/>
<path d="M-57.9 19.5L840.3 -499.1" stroke="#929292" stroke-width="0.43" stroke-linecap="round" stroke-linejoin="round"/>
<path d="M-66.9 3.90002L831.3 -514.7" stroke="#929292" stroke-width="0.43" stroke-linecap="round" stroke-linejoin="round"/>
<path d="M438.5 875.6L1327.4 362.3" stroke="#929292" stroke-width="0.43" stroke-linecap="round" stroke-linejoin="round"/>
<path d="M428.4 860.7L1317.3 347.4" stroke="#929292" stroke-width="0.43" stroke-linecap="round" stroke-linejoin="round"/>
<path d="M419.3 845L1308.3 331.8" stroke="#929292" stroke-width="0.43" stroke-linecap="round" stroke-linejoin="round"/>
<path d="M409.2 830L1298.1 316.8" stroke="#929292" stroke-width="0.43" stroke-linecap="round" stroke-linejoin="round"/>
<path d="M400.2 814.4L1289.1 301.2" stroke="#929292" stroke-width="0.43" stroke-linecap="round" stroke-linejoin="round"/>
<path d="M391.1 798.9L1280 285.7" stroke="#929292" stroke-width="0.43" stroke-linecap="round" stroke-linejoin="round"/>
<path d="M382.1 783.4L1271 270.1" stroke="#929292" stroke-width="0.43" stroke-linecap="round" stroke-linejoin="round"/>
<path d="M373.1 767.8L1262 254.5" stroke="#929292" stroke-width="0.43" stroke-linecap="round" stroke-linejoin="round"/>
<path d="M364.1 752.2L1253 238.9" stroke="#929292" stroke-width="0.43" stroke-linecap="round" stroke-linejoin="round"/>
<path d="M355.2 736.5L1244.2 223.3" stroke="#929292" stroke-width="0.43" stroke-linecap="round" stroke-linejoin="round"/>
<path d="M346.2 721L1235.2 207.7" stroke="#929292" stroke-width="0.43" stroke-linecap="round" stroke-linejoin="round"/>
<path d="M337.2 705.4L1226.2 192.1" stroke="#929292" stroke-width="0.43" stroke-linecap="round" stroke-linejoin="round"/>
<path d="M328.2 689.8L1217.2 176.5" stroke="#929292" stroke-width="0.43" stroke-linecap="round" stroke-linejoin="round"/>
<path d="M319.2 674.2L1208.2 161" stroke="#929292" stroke-width="0.43" stroke-linecap="round" stroke-linejoin="round"/>
<path d="M310.2 658.6L1199.2 145.4" stroke="#929292" stroke-width="0.43" stroke-linecap="round" stroke-linejoin="round"/>
<path d="M294.1 647.3L1190.2 129.9" stroke="#929292" stroke-width="0.43" stroke-linecap="round" stroke-linejoin="round"/>
<path d="M285.1 631.7L1181.2 114.3" stroke="#929292" stroke-width="0.43" stroke-linecap="round" stroke-linejoin="round"/>
<path d="M276.1 616.1L1172.2 98.7" stroke="#929292" stroke-width="0.43" stroke-linecap="round" stroke-linejoin="round"/>
<path d="M267.1 600.5L1163.2 83.1" stroke="#929292" stroke-width="0.43" stroke-linecap="round" stroke-linejoin="round"/>
<path d="M258.1 584.9L1154.3 67.5" stroke="#929292" stroke-width="0.43" stroke-linecap="round" stroke-linejoin="round"/>
<path d="M249.1 569.4L1145.3 52" stroke="#929292" stroke-width="0.43" stroke-linecap="round" stroke-linejoin="round"/>
<path d="M240.1 553.8L1136.3 36.4" stroke="#929292" stroke-width="0.43" stroke-linecap="round" stroke-linejoin="round"/>
<path d="M231 538.3L1127.1 20.9" stroke="#929292" stroke-width="0.43" stroke-linecap="round" stroke-linejoin="round"/>
<path d="M222 522.7L1118.1 5.29999" stroke="#929292" stroke-width="0.43" stroke-linecap="round" stroke-linejoin="round"/>
<path d="M213 507.1L1109.2 -10.3" stroke="#929292" stroke-width="0.43" stroke-linecap="round" stroke-linejoin="round"/>
</g>
<path d="M626 0H0V382H626V0Z" fill="#AE7EFF"/>
<path d="M480.4 310.3L133.9 110.2" stroke="#904DFF" stroke-width="2" stroke-miterlimit="10"/>
<path d="M133.9 310.3L480.4 110.2" stroke="#904DFF" stroke-width="2" stroke-miterlimit="10"/>
<path d="M480.4 99.8H133.9V321.09H480.4V99.8Z" stroke="#904DFF" stroke-width="2" stroke-miterlimit="10"/>
<path d="M195.2 318.5L136.7 284.7C135.752 284.255 134.709 284.05 133.663 284.102C132.617 284.155 131.599 284.463 130.7 285L73.1 318.2C71.3 319.3 71.1 320.8 72.7 321.7L131.1 355.5C132.06 355.898 133.096 356.078 134.134 356.026C135.172 355.974 136.185 355.692 137.1 355.2L194.7 321.9C196.5 320.9 196.7 319.4 195.2 318.5Z" fill="#1C0F30" stroke="#1C0F30" stroke-width="0.48" stroke-linecap="round" stroke-linejoin="round"/>
<path d="M183.2 291.5H152.4L136.1 282.1C135.356 281.762 134.543 281.603 133.726 281.638C132.909 281.673 132.113 281.9 131.4 282.3L115.5 291.5H84.7V310.1C84.6 310.5 84.9 311 85.5 311.3L131.7 338C132.461 338.339 133.291 338.498 134.123 338.463C134.956 338.429 135.77 338.201 136.5 337.8L182 311.5C182.298 311.38 182.562 311.19 182.771 310.947C182.98 310.703 183.127 310.413 183.2 310.1V291.5Z" fill="#904DFF" stroke="#1C0F30" stroke-width="0.48" stroke-linecap="round" stroke-linejoin="round"/>
<path d="M131.7 319.6L85.5 292.9C84.3 292.2 84.4 291 85.8 290.2L131.4 263.9C132.113 263.5 132.91 263.273 133.726 263.238C134.543 263.203 135.356 263.362 136.1 263.7L182.4 290.4C183.6 291.1 183.4 292.3 182 293.1L136.5 319.4C135.77 319.802 134.956 320.029 134.123 320.063C133.291 320.098 132.461 319.939 131.7 319.6Z" fill="#AE7EFF" stroke="#1C0F30" stroke-width="0.48" stroke-linecap="round" stroke-linejoin="round"/>
<path d="M103.1 290.3L131.6 273.8C132.257 273.442 132.99 273.247 133.738 273.229C134.486 273.212 135.227 273.373 135.9 273.7L165.1 290.5C166.2 291.1 166 292.2 164.7 293L136.2 309.4C135.56 309.799 134.829 310.027 134.076 310.062C133.323 310.097 132.574 309.938 131.9 309.6L102.8 292.8C101.7 292.2 101.8 291 103.1 290.3Z" fill="#AE7EFF" stroke="#1C0F30" stroke-width="0.48" stroke-linecap="round" stroke-linejoin="round"/>
<path d="M133.6 269.7C135.146 269.7 136.4 268.984 136.4 268.1C136.4 267.216 135.146 266.5 133.6 266.5C132.054 266.5 130.8 267.216 130.8 268.1C130.8 268.984 132.054 269.7 133.6 269.7Z" fill="#DBF301" stroke="#1C0F30" stroke-width="0.48" stroke-linecap="round" stroke-linejoin="round"/>
<path d="M174.7 293.4C176.246 293.4 177.5 292.684 177.5 291.8C177.5 290.916 176.246 290.2 174.7 290.2C173.154 290.2 171.9 290.916 171.9 291.8C171.9 292.684 173.154 293.4 174.7 293.4Z" fill="#DBF301" stroke="#1C0F30" stroke-width="0.48" stroke-linecap="round" stroke-linejoin="round"/>
<path d="M93.1 293.1C94.6464 293.1 95.9 292.384 95.9 291.5C95.9 290.616 94.6464 289.9 93.1 289.9C91.5536 289.9 90.3 290.616 90.3 291.5C90.3 292.384 91.5536 293.1 93.1 293.1Z" fill="#DBF301" stroke="#1C0F30" stroke-width="0.48" stroke-linecap="round" stroke-linejoin="round"/>
<path d="M134.2 316.8C135.746 316.8 137 316.084 137 315.2C137 314.316 135.746 313.6 134.2 313.6C132.654 313.6 131.4 314.316 131.4 315.2C131.4 316.084 132.654 316.8 134.2 316.8Z" fill="#DBF301" stroke="#1C0F30" stroke-width="0.48" stroke-linecap="round" stroke-linejoin="round"/>
<path d="M123 326.2L91.7 308.1C91.2862 307.8 90.9454 307.41 90.703 306.96C90.4607 306.51 90.3229 306.011 90.3 305.5V303.1C90.3 302.1 91 301.6 91.7 302L123 320.1C123.431 320.383 123.785 320.769 124.03 321.223C124.274 321.677 124.401 322.184 124.4 322.7V325.2C124.4 326.2 123.8 326.6 123 326.2Z" fill="#DBF301" stroke="#1C0F30" stroke-width="0.48" stroke-linecap="round" stroke-linejoin="round"/>
<path d="M148.342 322.927C149.336 321.205 149.328 319.339 148.324 318.76C147.319 318.18 145.699 319.105 144.705 320.827C143.711 322.549 143.719 324.415 144.724 324.995C145.728 325.575 147.348 324.649 148.342 322.927Z" fill="#DBF301" stroke="#1C0F30" stroke-width="0.48" stroke-linecap="round" stroke-linejoin="round"/>
<path d="M155.555 318.705C156.549 316.983 156.541 315.118 155.536 314.538C154.532 313.958 152.912 314.883 151.918 316.605C150.924 318.327 150.932 320.193 151.936 320.773C152.941 321.353 154.561 320.427 155.555 318.705Z" fill="#DBF301" stroke="#1C0F30" stroke-width="0.48" stroke-linecap="round" stroke-linejoin="round"/>
<path d="M162.818 314.57C163.812 312.848 163.803 310.982 162.799 310.402C161.795 309.822 160.174 310.748 159.18 312.47C158.186 314.192 158.195 316.058 159.199 316.638C160.203 317.218 161.824 316.292 162.818 314.57Z" fill="#DBF301" stroke="#1C0F30" stroke-width="0.48" stroke-linecap="round" stroke-linejoin="round"/>
<path d="M170.067 310.485C171.061 308.763 171.053 306.897 170.048 306.317C169.044 305.737 167.424 306.663 166.43 308.385C165.435 310.106 165.444 311.972 166.448 312.552C167.453 313.132 169.073 312.206 170.067 310.485Z" fill="#DBF301" stroke="#1C0F30" stroke-width="0.48" stroke-linecap="round" stroke-linejoin="round"/>
<path d="M177.28 306.163C178.274 304.441 178.265 302.575 177.261 301.995C176.257 301.415 174.636 302.341 173.642 304.063C172.648 305.784 172.657 307.65 173.661 308.23C174.665 308.81 176.285 307.884 177.28 306.163Z" fill="#DBF301" stroke="#1C0F30" stroke-width="0.48" stroke-linecap="round" stroke-linejoin="round"/>
<path d="M183.2 267.2H152.4L136.1 257.8C135.356 257.462 134.543 257.303 133.726 257.338C132.909 257.373 132.113 257.6 131.4 258L115.5 267.2H84.7V285.8C84.6 286.3 84.9 286.7 85.5 287.1L131.7 313.8C132.461 314.139 133.291 314.298 134.123 314.263C134.956 314.228 135.77 314.002 136.5 313.6L182 287.3C182.296 287.151 182.557 286.94 182.764 286.681C182.971 286.422 183.12 286.122 183.2 285.8V267.2Z" fill="#904DFF" stroke="#1C0F30" stroke-width="0.48" stroke-linecap="round" stroke-linejoin="round"/>
<path d="M131.7 295.4L85.5 268.7C84.3 268 84.4 266.7 85.8 265.9L131.4 239.6C132.113 239.2 132.91 238.973 133.726 238.938C134.543 238.903 135.356 239.062 136.1 239.4L182.4 266.1C183.6 266.8 183.4 268 182 268.8L136.5 295.2C135.77 295.602 134.956 295.828 134.123 295.863C133.291 295.898 132.461 295.739 131.7 295.4Z" fill="#AE7EFF" stroke="#1C0F30" stroke-width="0.48" stroke-linecap="round" stroke-linejoin="round"/>
<path d="M103.1 266L131.6 249.6C132.249 249.227 132.978 249.014 133.726 248.979C134.474 248.944 135.219 249.088 135.9 249.4L165.1 266.2C166.2 266.9 166 268 164.7 268.7L136.2 285.2C135.543 285.551 134.817 285.752 134.073 285.786C133.329 285.821 132.586 285.689 131.9 285.4L102.8 268.5C101.7 267.9 101.8 266.8 103.1 266Z" fill="#E7D9FD" stroke="#1C0F30" stroke-width="0.48" stroke-linecap="round" stroke-linejoin="round"/>
<path d="M133.6 245.4C135.146 245.4 136.4 244.684 136.4 243.8C136.4 242.916 135.146 242.2 133.6 242.2C132.054 242.2 130.8 242.916 130.8 243.8C130.8 244.684 132.054 245.4 133.6 245.4Z" fill="#DBF301" stroke="#1C0F30" stroke-width="0.48" stroke-linecap="round" stroke-linejoin="round"/>
<path d="M174.7 269.2C176.246 269.2 177.5 268.484 177.5 267.6C177.5 266.716 176.246 266 174.7 266C173.154 266 171.9 266.716 171.9 267.6C171.9 268.484 173.154 269.2 174.7 269.2Z" fill="#DBF301" stroke="#1C0F30" stroke-width="0.48" stroke-linecap="round" stroke-linejoin="round"/>
<path d="M93.1 268.8C94.6464 268.8 95.9 268.084 95.9 267.2C95.9 266.316 94.6464 265.6 93.1 265.6C91.5536 265.6 90.3 266.316 90.3 267.2C90.3 268.084 91.5536 268.8 93.1 268.8Z" fill="#DBF301" stroke="#1C0F30" stroke-width="0.48" stroke-linecap="round" stroke-linejoin="round"/>
<path d="M134.2 292.5C135.746 292.5 137 291.784 137 290.9C137 290.016 135.746 289.3 134.2 289.3C132.654 289.3 131.4 290.016 131.4 290.9C131.4 291.784 132.654 292.5 134.2 292.5Z" fill="#DBF301" stroke="#1C0F30" stroke-width="0.48" stroke-linecap="round" stroke-linejoin="round"/>
<path d="M123 301.9L91.7 283.9C91.2838 283.579 90.9428 283.172 90.7009 282.705C90.4591 282.239 90.3222 281.725 90.3 281.2V278.8C90.3 277.8 91 277.3 91.7 277.8L123 295.8C123.421 296.116 123.766 296.522 124.009 296.99C124.251 297.457 124.385 297.974 124.4 298.5V300.9C124.4 301.9 123.8 302.4 123 301.9Z" fill="#DBF301" stroke="#1C0F30" stroke-width="0.48" stroke-linecap="round" stroke-linejoin="round"/>
<path d="M148.298 298.677C149.292 296.955 149.284 295.09 148.279 294.51C147.275 293.93 145.655 294.855 144.661 296.577C143.666 298.299 143.675 300.165 144.679 300.745C145.684 301.325 147.304 300.399 148.298 298.677Z" fill="#DBF301" stroke="#1C0F30" stroke-width="0.48" stroke-linecap="round" stroke-linejoin="round"/>
<path d="M155.611 294.455C156.605 292.733 156.596 290.868 155.592 290.288C154.587 289.708 152.967 290.633 151.973 292.355C150.979 294.077 150.987 295.943 151.992 296.523C152.996 297.103 154.616 296.177 155.611 294.455Z" fill="#DBF301" stroke="#1C0F30" stroke-width="0.48" stroke-linecap="round" stroke-linejoin="round"/>
<path d="M162.86 290.37C163.854 288.648 163.846 286.782 162.841 286.202C161.837 285.622 160.217 286.548 159.223 288.27C158.228 289.992 158.237 291.858 159.241 292.438C160.246 293.018 161.866 292.092 162.86 290.37Z" fill="#DBF301" stroke="#1C0F30" stroke-width="0.48" stroke-linecap="round" stroke-linejoin="round"/>
<path d="M170.023 286.135C171.017 284.413 171.008 282.547 170.004 281.967C168.999 281.387 167.379 282.313 166.385 284.035C165.391 285.756 165.399 287.622 166.404 288.202C167.408 288.782 169.028 287.856 170.023 286.135Z" fill="#DBF301" stroke="#1C0F30" stroke-width="0.48" stroke-linecap="round" stroke-linejoin="round"/>
<path d="M177.335 281.913C178.329 280.191 178.321 278.325 177.317 277.745C176.312 277.165 174.692 278.091 173.698 279.813C172.704 281.534 172.712 283.4 173.717 283.98C174.721 284.56 176.341 283.634 177.335 281.913Z" fill="#DBF301" stroke="#1C0F30" stroke-width="0.48" stroke-linecap="round" stroke-linejoin="round"/>
<path d="M195.6 118.2L137.1 84.4C136.146 83.9796 135.106 83.7878 134.064 83.8398C133.023 83.8919 132.008 84.1865 131.1 84.7L73.5 118C71.7 119 71.5 120.5 73 121.4L131.5 155.2C132.448 155.645 133.491 155.85 134.537 155.798C135.584 155.745 136.601 155.437 137.5 154.9L195.1 121.7C196.9 120.6 197.1 119.1 195.6 118.2Z" fill="#1C0F30" stroke="#1C0F30" stroke-width="0.48" stroke-linecap="round" stroke-linejoin="round"/>
<path d="M183.6 91.2H152.7L136.5 81.8C135.756 81.4616 134.943 81.3034 134.126 81.3381C133.309 81.3729 132.513 81.5996 131.8 82L115.9 91.2H85V109.8C85.0119 110.054 85.0927 110.3 85.2336 110.511C85.3745 110.722 85.5703 110.891 85.8 111L132.1 137.7C132.836 138.054 133.645 138.229 134.462 138.211C135.278 138.194 136.079 137.985 136.8 137.6L182.4 111.2C183.1 110.8 183.5 110.3 183.5 109.8H183.6V91.2Z" fill="#904DFF" stroke="#1C0F30" stroke-width="0.48" stroke-linecap="round" stroke-linejoin="round"/>
<path d="M132.1 119.3L85.8 92.6C84.6 91.9 84.8 90.7 86.2 89.9L131.8 63.6C132.513 63.1996 133.31 62.9729 134.126 62.9381C134.943 62.9034 135.756 63.0616 136.5 63.4L182.7 90.1C184 90.8 183.8 92 182.4 92.8L136.8 119.1C136.087 119.5 135.291 119.727 134.474 119.762C133.657 119.797 132.844 119.638 132.1 119.3Z" fill="#AE7EFF" stroke="#1C0F30" stroke-width="0.48" stroke-linecap="round" stroke-linejoin="round"/>
<path d="M103.5 90L132 73.6C132.64 73.2011 133.371 72.9733 134.124 72.9382C134.877 72.9032 135.626 73.0622 136.3 73.4L165.4 90.2C166.5 90.8 166.4 92 165.1 92.7L136.6 109.2C135.943 109.558 135.21 109.753 134.462 109.771C133.714 109.788 132.973 109.627 132.3 109.3L103.1 92.5C102 91.9 102.2 90.8 103.5 90Z" fill="#AE7EFF" stroke="#1C0F30" stroke-width="0.48" stroke-linecap="round" stroke-linejoin="round"/>
<path d="M134 69.4C135.546 69.4 136.8 68.6837 136.8 67.8C136.8 66.9163 135.546 66.2 134 66.2C132.454 66.2 131.2 66.9163 131.2 67.8C131.2 68.6837 132.454 69.4 134 69.4Z" fill="#DBF301" stroke="#1C0F30" stroke-width="0.48" stroke-linecap="round" stroke-linejoin="round"/>
<path d="M175.1 93.1C176.646 93.1 177.9 92.3837 177.9 91.5C177.9 90.6163 176.646 89.9 175.1 89.9C173.554 89.9 172.3 90.6163 172.3 91.5C172.3 92.3837 173.554 93.1 175.1 93.1Z" fill="#DBF301" stroke="#1C0F30" stroke-width="0.48" stroke-linecap="round" stroke-linejoin="round"/>
<path d="M93.5 92.8C95.0464 92.8 96.3 92.0837 96.3 91.2C96.3 90.3163 95.0464 89.6 93.5 89.6C91.9536 89.6 90.7 90.3163 90.7 91.2C90.7 92.0837 91.9536 92.8 93.5 92.8Z" fill="#DBF301" stroke="#1C0F30" stroke-width="0.48" stroke-linecap="round" stroke-linejoin="round"/>
<path d="M134.6 116.5C136.146 116.5 137.4 115.784 137.4 114.9C137.4 114.016 136.146 113.3 134.6 113.3C133.054 113.3 131.8 114.016 131.8 114.9C131.8 115.784 133.054 116.5 134.6 116.5Z" fill="#DBF301" stroke="#1C0F30" stroke-width="0.48" stroke-linecap="round" stroke-linejoin="round"/>
<path d="M123.4 125.9L92.1 107.9C91.6786 107.584 91.3338 107.177 91.0914 106.71C90.849 106.243 90.7152 105.726 90.7 105.2V102.8C90.7 101.8 91.3 101.3 92.1 101.7L123.4 119.8C123.833 120.105 124.186 120.509 124.43 120.979C124.673 121.449 124.8 121.971 124.8 122.5V124.9C124.8 125.9 124.2 126.4 123.4 125.9Z" fill="#DBF301" stroke="#1C0F30" stroke-width="0.48" stroke-linecap="round" stroke-linejoin="round"/>
<path d="M148.777 122.631C149.771 120.909 149.763 119.043 148.759 118.463C147.754 117.883 146.134 118.809 145.14 120.531C144.146 122.253 144.154 124.119 145.159 124.699C146.163 125.278 147.783 124.353 148.777 122.631Z" fill="#DBF301" stroke="#1C0F30" stroke-width="0.48" stroke-linecap="round" stroke-linejoin="round"/>
<path d="M155.94 118.495C156.934 116.774 156.926 114.908 155.921 114.328C154.917 113.748 153.297 114.674 152.303 116.395C151.309 118.117 151.317 119.983 152.321 120.563C153.326 121.143 154.946 120.217 155.94 118.495Z" fill="#DBF301" stroke="#1C0F30" stroke-width="0.48" stroke-linecap="round" stroke-linejoin="round"/>
<path d="M163.153 114.274C164.147 112.552 164.138 110.686 163.134 110.106C162.13 109.526 160.51 110.452 159.515 112.174C158.521 113.895 158.53 115.761 159.534 116.341C160.538 116.921 162.159 115.995 163.153 114.274Z" fill="#DBF301" stroke="#1C0F30" stroke-width="0.48" stroke-linecap="round" stroke-linejoin="round"/>
<path d="M170.402 110.188C171.396 108.466 171.388 106.6 170.383 106.02C169.379 105.441 167.759 106.366 166.765 108.088C165.771 109.81 165.779 111.676 166.783 112.256C167.788 112.836 169.408 111.91 170.402 110.188Z" fill="#DBF301" stroke="#1C0F30" stroke-width="0.48" stroke-linecap="round" stroke-linejoin="round"/>
<path d="M177.665 105.953C178.659 104.231 178.65 102.365 177.646 101.785C176.642 101.205 175.022 102.131 174.027 103.853C173.033 105.575 173.042 107.441 174.046 108.02C175.05 108.6 176.671 107.675 177.665 105.953Z" fill="#DBF301" stroke="#1C0F30" stroke-width="0.48" stroke-linecap="round" stroke-linejoin="round"/>
<path d="M183.6 66.9H152.7L136.5 57.5C135.756 57.1616 134.943 57.0034 134.126 57.0381C133.309 57.0729 132.513 57.2996 131.8 57.7L115.9 66.9H85V85.5C85.0228 85.7641 85.107 86.0191 85.2459 86.2448C85.3848 86.4706 85.5745 86.6607 85.8 86.8L132.1 113.5C132.844 113.838 133.657 113.997 134.474 113.962C135.291 113.927 136.087 113.7 136.8 113.3L182.4 87C182.697 86.8652 182.953 86.6565 183.146 86.3938C183.339 86.1311 183.461 85.8233 183.5 85.5H183.6V66.9Z" fill="#904DFF" stroke="#1C0F30" stroke-width="0.48" stroke-linecap="round" stroke-linejoin="round"/>
<path d="M132.1 95.1L85.8 68.4C84.6 67.7 84.8 66.4 86.2 65.6L131.8 39.3C132.513 38.8996 133.31 38.6729 134.126 38.6381C134.943 38.6034 135.756 38.7616 136.5 39.1L182.7 65.8C184 66.5 183.8 67.8 182.4 68.6L136.8 94.9C136.087 95.3004 135.291 95.5271 134.474 95.5619C133.657 95.5966 132.844 95.4384 132.1 95.1Z" fill="#AE7EFF" stroke="#1C0F30" stroke-width="0.48" stroke-linecap="round" stroke-linejoin="round"/>
<path d="M103.5 65.8L132 49.3C132.657 48.9485 133.383 48.7482 134.127 48.7136C134.871 48.679 135.614 48.811 136.3 49.1L165.4 65.9C166.5 66.6 166.4 67.7 165.1 68.4L136.6 84.9C135.943 85.2515 135.217 85.4518 134.473 85.4864C133.729 85.521 132.986 85.389 132.3 85.1L103.1 68.3C102 67.6 102.2 66.5 103.5 65.8Z" fill="#E7D9FD" stroke="#1C0F30" stroke-width="0.48" stroke-linecap="round" stroke-linejoin="round"/>
<path d="M134 45.1C135.546 45.1 136.8 44.3837 136.8 43.5C136.8 42.6163 135.546 41.9 134 41.9C132.454 41.9 131.2 42.6163 131.2 43.5C131.2 44.3837 132.454 45.1 134 45.1Z" fill="#DBF301" stroke="#1C0F30" stroke-width="0.48" stroke-linecap="round" stroke-linejoin="round"/>
<path d="M175.1 68.9C176.646 68.9 177.9 68.1837 177.9 67.3C177.9 66.4163 176.646 65.7 175.1 65.7C173.554 65.7 172.3 66.4163 172.3 67.3C172.3 68.1837 173.554 68.9 175.1 68.9Z" fill="#DBF301" stroke="#1C0F30" stroke-width="0.48" stroke-linecap="round" stroke-linejoin="round"/>
<path d="M93.5 68.5C95.0464 68.5 96.3 67.7837 96.3 66.9C96.3 66.0163 95.0464 65.3 93.5 65.3C91.9536 65.3 90.7 66.0163 90.7 66.9C90.7 67.7837 91.9536 68.5 93.5 68.5Z" fill="#DBF301" stroke="#1C0F30" stroke-width="0.48" stroke-linecap="round" stroke-linejoin="round"/>
<path d="M134.6 92.3C136.146 92.3 137.4 91.5837 137.4 90.7C137.4 89.8163 136.146 89.1 134.6 89.1C133.054 89.1 131.8 89.8163 131.8 90.7C131.8 91.5837 133.054 92.3 134.6 92.3Z" fill="#DBF301" stroke="#1C0F30" stroke-width="0.48" stroke-linecap="round" stroke-linejoin="round"/>
<path d="M123.4 101.7L92.1 83.6C91.6808 83.3051 91.336 82.9166 91.093 82.4653C90.85 82.014 90.7154 81.5123 90.7 81V78.5C90.7 77.5 91.3 77 92.1 77.5L123.4 95.6C123.831 95.8828 124.185 96.2686 124.429 96.7226C124.674 97.1766 124.801 97.6844 124.8 98.2V100.6C124.8 101.6 124.2 102.1 123.4 101.7Z" fill="#DBF301" stroke="#1C0F30" stroke-width="0.48" stroke-linecap="round" stroke-linejoin="round"/>
<path d="M148.733 98.3809C149.727 96.659 149.719 94.7931 148.714 94.2132C147.71 93.6333 146.09 94.559 145.096 96.2809C144.102 98.0027 144.11 99.8687 145.114 100.449C146.119 101.028 147.739 100.103 148.733 98.3809Z" fill="#DBF301" stroke="#1C0F30" stroke-width="0.48" stroke-linecap="round" stroke-linejoin="round"/>
<path d="M155.982 94.2955C156.976 92.5736 156.968 90.7077 155.964 90.1278C154.959 89.5479 153.339 90.4736 152.345 92.1955C151.351 93.9173 151.359 95.7833 152.364 96.3632C153.368 96.9431 154.988 96.0173 155.982 94.2955Z" fill="#DBF301" stroke="#1C0F30" stroke-width="0.48" stroke-linecap="round" stroke-linejoin="round"/>
<path d="M163.195 89.9735C164.189 88.2516 164.181 86.3857 163.176 85.8058C162.172 85.2259 160.552 86.1517 159.558 87.8735C158.564 89.5954 158.572 91.4613 159.576 92.0412C160.581 92.6211 162.201 91.6954 163.195 89.9735Z" fill="#DBF301" stroke="#1C0F30" stroke-width="0.48" stroke-linecap="round" stroke-linejoin="round"/>
<path d="M170.458 85.8381C171.452 84.1163 171.443 82.2503 170.439 81.6704C169.435 81.0905 167.814 82.0163 166.82 83.7381C165.826 85.46 165.835 87.3259 166.839 87.9058C167.843 88.4857 169.464 87.56 170.458 85.8381Z" fill="#DBF301" stroke="#1C0F30" stroke-width="0.48" stroke-linecap="round" stroke-linejoin="round"/>
<path d="M177.62 81.7027C178.614 79.9809 178.606 78.1149 177.602 77.535C176.597 76.9551 174.977 77.8809 173.983 79.6027C172.989 81.3246 172.997 83.1905 174.002 83.7704C175.006 84.3503 176.626 83.4246 177.62 81.7027Z" fill="#DBF301" stroke="#1C0F30" stroke-width="0.48" stroke-linecap="round" stroke-linejoin="round"/>
<path d="M541.6 318.7L483.1 284.9C482.169 284.455 481.142 284.25 480.112 284.302C479.082 284.355 478.081 284.663 477.2 285.2L419.5 318.4C417.8 319.5 417.6 321 419.1 321.9L477.6 355.7C479.1 356.6 481.8 356.4 483.6 355.4L541.2 322.1C543 321.1 543.2 319.6 541.6 318.7Z" fill="#1C0F30" stroke="#1C0F30" stroke-width="0.48" stroke-linecap="round" stroke-linejoin="round"/>
<path d="M529.6 291.7H498.8L482.6 282.3C481.839 281.961 481.009 281.802 480.177 281.837C479.344 281.872 478.53 282.099 477.8 282.5L461.9 291.7H431.1V310.3C431.1 310.557 431.176 310.808 431.318 311.021C431.461 311.235 431.663 311.401 431.9 311.5L478.2 338.2C478.937 338.564 479.754 338.736 480.576 338.701C481.397 338.666 482.196 338.425 482.9 338L528.5 311.7C529.2 311.3 529.6 310.8 529.6 310.3V291.7Z" fill="#904DFF" stroke="#1C0F30" stroke-width="0.48" stroke-linecap="round" stroke-linejoin="round"/>
<path d="M478.2 319.8L431.9 293.1C430.7 292.4 430.9 291.2 432.3 290.4L477.8 264.1C478.53 263.699 479.344 263.472 480.177 263.437C481.009 263.402 481.839 263.561 482.6 263.9L528.8 290.6C530 291.3 529.9 292.5 528.5 293.3L482.9 319.6C482.187 320 481.391 320.227 480.574 320.262C479.757 320.297 478.944 320.138 478.2 319.8Z" fill="#AE7EFF" stroke="#1C0F30" stroke-width="0.48" stroke-linecap="round" stroke-linejoin="round"/>
<path d="M449.5 290.5L478 274C478.675 273.641 479.424 273.446 480.188 273.428C480.952 273.411 481.71 273.572 482.4 273.9L511.5 290.7C512.6 291.3 512.5 292.5 511.2 293.2L482.7 309.7C482.025 310.059 481.276 310.254 480.512 310.272C479.748 310.289 478.99 310.128 478.3 309.8L449.2 293C448.1 292.4 448.2 291.2 449.5 290.5Z" fill="#AE7EFF" stroke="#1C0F30" stroke-width="0.48" stroke-linecap="round" stroke-linejoin="round"/>
<path d="M480.1 269.9C481.646 269.9 482.9 269.184 482.9 268.3C482.9 267.416 481.646 266.7 480.1 266.7C478.554 266.7 477.3 267.416 477.3 268.3C477.3 269.184 478.554 269.9 480.1 269.9Z" fill="#DBF301" stroke="#1C0F30" stroke-width="0.48" stroke-linecap="round" stroke-linejoin="round"/>
<path d="M521.2 293.6C522.746 293.6 524 292.884 524 292C524 291.116 522.746 290.4 521.2 290.4C519.654 290.4 518.4 291.116 518.4 292C518.4 292.884 519.654 293.6 521.2 293.6Z" fill="#DBF301" stroke="#1C0F30" stroke-width="0.48" stroke-linecap="round" stroke-linejoin="round"/>
<path d="M439.6 293.3C441.146 293.3 442.4 292.584 442.4 291.7C442.4 290.816 441.146 290.1 439.6 290.1C438.054 290.1 436.8 290.816 436.8 291.7C436.8 292.584 438.054 293.3 439.6 293.3Z" fill="#DBF301" stroke="#1C0F30" stroke-width="0.48" stroke-linecap="round" stroke-linejoin="round"/>
<path d="M480.7 317C482.246 317 483.5 316.284 483.5 315.4C483.5 314.516 482.246 313.8 480.7 313.8C479.154 313.8 477.9 314.516 477.9 315.4C477.9 316.284 479.154 317 480.7 317Z" fill="#DBF301" stroke="#1C0F30" stroke-width="0.48" stroke-linecap="round" stroke-linejoin="round"/>
<path d="M469.5 326.4L438.2 308.3C437.769 308.017 437.415 307.631 437.171 307.177C436.926 306.723 436.799 306.216 436.8 305.7V303.3C436.8 302.3 437.4 301.8 438.2 302.2L469.5 320.3C469.914 320.6 470.255 320.99 470.497 321.44C470.739 321.89 470.877 322.389 470.9 322.9V325.4C470.9 326.4 470.2 326.9 469.5 326.4Z" fill="#DBF301" stroke="#1C0F30" stroke-width="0.48" stroke-linecap="round" stroke-linejoin="round"/>
<path d="M494.865 323.149C495.86 321.428 495.851 319.562 494.847 318.982C493.842 318.402 492.222 319.328 491.228 321.049C490.234 322.771 490.242 324.637 491.247 325.217C492.251 325.797 493.871 324.871 494.865 323.149Z" fill="#DBF301" stroke="#1C0F30" stroke-width="0.48" stroke-linecap="round" stroke-linejoin="round"/>
<path d="M502.028 319.014C503.022 317.292 503.014 315.426 502.01 314.846C501.005 314.267 499.385 315.192 498.391 316.914C497.397 318.636 497.405 320.502 498.41 321.082C499.414 321.662 501.034 320.736 502.028 319.014Z" fill="#DBF301" stroke="#1C0F30" stroke-width="0.48" stroke-linecap="round" stroke-linejoin="round"/>
<path d="M509.241 314.692C510.235 312.97 510.227 311.104 509.222 310.524C508.218 309.945 506.598 310.87 505.604 312.592C504.609 314.314 504.618 316.18 505.622 316.76C506.627 317.34 508.247 316.414 509.241 314.692Z" fill="#DBF301" stroke="#1C0F30" stroke-width="0.48" stroke-linecap="round" stroke-linejoin="round"/>
<path d="M516.59 310.607C517.584 308.885 517.576 307.019 516.571 306.439C515.567 305.859 513.947 306.785 512.953 308.507C511.959 310.229 511.967 312.095 512.971 312.674C513.976 313.254 515.596 312.329 516.59 310.607Z" fill="#DBF301" stroke="#1C0F30" stroke-width="0.48" stroke-linecap="round" stroke-linejoin="round"/>
<path d="M524.965 304.377C525.959 302.647 525.947 300.775 524.938 300.195C523.929 299.615 522.305 300.547 521.311 302.277C520.317 304.007 520.329 305.879 521.338 306.459C522.347 307.039 523.971 306.107 524.965 304.377Z" fill="#DBF301" stroke="#1C0F30" stroke-width="0.481653" stroke-linecap="round" stroke-linejoin="round"/>
<path d="M529.6 267.4H498.8L482.6 258C481.839 257.661 481.009 257.502 480.177 257.537C479.344 257.572 478.53 257.799 477.8 258.2L461.9 267.4H431.1V286C431.105 286.268 431.182 286.531 431.322 286.759C431.463 286.988 431.663 287.175 431.9 287.3L478.2 314C478.944 314.338 479.757 314.497 480.574 314.462C481.391 314.427 482.187 314.2 482.9 313.8L528.5 287.5C529.2 287 529.6 286.5 529.6 286V267.4Z" fill="#904DFF" stroke="#1C0F30" stroke-width="0.48" stroke-linecap="round" stroke-linejoin="round"/>
<path d="M478.2 295.6L431.9 268.9C430.7 268.2 430.9 266.9 432.3 266.1L477.8 239.8C478.53 239.398 479.344 239.172 480.177 239.137C481.009 239.102 481.839 239.261 482.6 239.6L528.8 266.3C530 267 529.9 268.2 528.5 269.1L482.9 295.4C482.187 295.8 481.391 296.027 480.574 296.062C479.757 296.097 478.944 295.938 478.2 295.6Z" fill="#AE7EFF" stroke="#1C0F30" stroke-width="0.48" stroke-linecap="round" stroke-linejoin="round"/>
<path d="M449.5 266.2L478 249.8C478.667 249.426 479.412 249.212 480.176 249.178C480.94 249.143 481.702 249.288 482.4 249.6L511.5 266.4C512.6 267.1 512.5 268.2 511.2 268.9L482.7 285.4C482.026 285.753 481.283 285.954 480.522 285.989C479.762 286.023 479.003 285.891 478.3 285.6L449.2 268.8C448.1 268.1 448.2 267 449.5 266.2Z" fill="#E7D9FD" stroke="#1C0F30" stroke-width="0.48" stroke-linecap="round" stroke-linejoin="round"/>
<path d="M480.1 245.6C481.646 245.6 482.9 244.884 482.9 244C482.9 243.116 481.646 242.4 480.1 242.4C478.554 242.4 477.3 243.116 477.3 244C477.3 244.884 478.554 245.6 480.1 245.6Z" fill="#DBF301" stroke="#1C0F30" stroke-width="0.48" stroke-linecap="round" stroke-linejoin="round"/>
<path d="M521.2 269.4C522.746 269.4 524 268.684 524 267.8C524 266.916 522.746 266.2 521.2 266.2C519.654 266.2 518.4 266.916 518.4 267.8C518.4 268.684 519.654 269.4 521.2 269.4Z" fill="#DBF301" stroke="#1C0F30" stroke-width="0.48" stroke-linecap="round" stroke-linejoin="round"/>
<path d="M439.6 269C441.146 269 442.4 268.284 442.4 267.4C442.4 266.516 441.146 265.8 439.6 265.8C438.054 265.8 436.8 266.516 436.8 267.4C436.8 268.284 438.054 269 439.6 269Z" fill="#DBF301" stroke="#1C0F30" stroke-width="0.48" stroke-linecap="round" stroke-linejoin="round"/>
<path d="M480.7 292.7C482.246 292.7 483.5 291.984 483.5 291.1C483.5 290.216 482.246 289.5 480.7 289.5C479.154 289.5 477.9 290.216 477.9 291.1C477.9 291.984 479.154 292.7 480.7 292.7Z" fill="#DBF301" stroke="#1C0F30" stroke-width="0.48" stroke-linecap="round" stroke-linejoin="round"/>
<path d="M469.5 302.1L438.2 284.1C437.767 283.795 437.414 283.391 437.17 282.921C436.927 282.451 436.8 281.929 436.8 281.4V279C436.8 278 437.4 277.5 438.2 278L469.5 296C469.907 296.329 470.241 296.739 470.482 297.204C470.723 297.668 470.865 298.178 470.9 298.7V301.1C470.9 302.1 470.2 302.6 469.5 302.1Z" fill="#DBF301" stroke="#1C0F30" stroke-width="0.48" stroke-linecap="round" stroke-linejoin="round"/>
<path d="M494.821 298.799C495.815 297.078 495.807 295.212 494.802 294.632C493.798 294.052 492.178 294.978 491.184 296.699C490.19 298.421 490.198 300.287 491.202 300.867C492.207 301.447 493.827 300.521 494.821 298.799Z" fill="#DBF301" stroke="#1C0F30" stroke-width="0.48" stroke-linecap="round" stroke-linejoin="round"/>
<path d="M501.984 294.664C502.978 292.942 502.97 291.076 501.965 290.496C500.961 289.917 499.341 290.842 498.346 292.564C497.352 294.286 497.361 296.152 498.365 296.732C499.37 297.312 500.99 296.386 501.984 294.664Z" fill="#DBF301" stroke="#1C0F30" stroke-width="0.48" stroke-linecap="round" stroke-linejoin="round"/>
<path d="M509.283 290.492C510.277 288.77 510.269 286.904 509.264 286.324C508.26 285.745 506.64 286.67 505.646 288.392C504.652 290.114 504.66 291.98 505.664 292.56C506.669 293.14 508.289 292.214 509.283 290.492Z" fill="#DBF301" stroke="#1C0F30" stroke-width="0.48" stroke-linecap="round" stroke-linejoin="round"/>
<path d="M516.546 286.357C517.54 284.635 517.531 282.769 516.527 282.189C515.523 281.609 513.903 282.535 512.908 284.257C511.914 285.979 511.923 287.845 512.927 288.424C513.931 289.004 515.552 288.079 516.546 286.357Z" fill="#DBF301" stroke="#1C0F30" stroke-width="0.48" stroke-linecap="round" stroke-linejoin="round"/>
<path d="M524.834 280.097C525.828 278.367 525.816 276.495 524.807 275.915C523.798 275.335 522.174 276.267 521.18 277.997C520.186 279.727 520.198 281.599 521.207 282.179C522.216 282.759 523.84 281.827 524.834 280.097Z" fill="#DBF301" stroke="#1C0F30" stroke-width="0.481653" stroke-linecap="round" stroke-linejoin="round"/>
<path d="M368.8 218.5L310.3 184.7C309.352 184.255 308.309 184.05 307.263 184.102C306.216 184.155 305.199 184.463 304.3 185L246.7 218.2C244.9 219.3 244.7 220.8 246.2 221.7L304.7 255.5C305.654 255.92 306.694 256.112 307.736 256.06C308.777 256.008 309.792 255.714 310.7 255.2L368.3 221.9C370.1 220.9 370.3 219.4 368.8 218.5Z" fill="#1C0F30" stroke="#1C0F30" stroke-width="0.48" stroke-linecap="round" stroke-linejoin="round"/>
<path d="M356.8 191.5H325.9L309.7 182.1C308.956 181.762 308.143 181.603 307.326 181.638C306.51 181.673 305.713 181.9 305 182.3L289.1 191.5H258.2V210.1H258.3C258.2 210.5 258.5 211 259.1 211.3L305.3 238C306.044 238.338 306.857 238.497 307.674 238.462C308.491 238.427 309.287 238.2 310 237.8L355.6 211.5C355.889 211.367 356.147 211.174 356.354 210.932C356.561 210.69 356.713 210.406 356.8 210.1V191.5Z" fill="#904DFF" stroke="#1C0F30" stroke-width="0.48" stroke-linecap="round" stroke-linejoin="round"/>
<path d="M305.3 219.6L259.1 192.9C257.8 192.2 258 191 259.4 190.2L305 163.9C305.713 163.5 306.51 163.273 307.326 163.238C308.143 163.203 308.956 163.362 309.7 163.7L356 190.4C357.2 191.1 357 192.3 355.6 193.1L310 219.4C309.287 219.8 308.491 220.027 307.674 220.062C306.857 220.097 306.044 219.938 305.3 219.6Z" fill="#AE7EFF" stroke="#1C0F30" stroke-width="0.48" stroke-linecap="round" stroke-linejoin="round"/>
<path d="M276.7 190.3L305.2 173.8C305.857 173.442 306.59 173.247 307.338 173.229C308.086 173.212 308.827 173.373 309.5 173.7L338.7 190.5C339.8 191.1 339.6 192.2 338.3 193L309.8 209.5C309.143 209.858 308.41 210.053 307.662 210.071C306.914 210.088 306.173 209.927 305.5 209.6L276.4 192.8C275.3 192.2 275.4 191 276.7 190.3Z" fill="#AE7EFF" stroke="#1C0F30" stroke-width="0.48" stroke-linecap="round" stroke-linejoin="round"/>
<path d="M307.2 169.7C308.746 169.7 310 168.984 310 168.1C310 167.216 308.746 166.5 307.2 166.5C305.654 166.5 304.4 167.216 304.4 168.1C304.4 168.984 305.654 169.7 307.2 169.7Z" fill="#DBF301" stroke="#1C0F30" stroke-width="0.48" stroke-linecap="round" stroke-linejoin="round"/>
<path d="M348.3 193.4C349.846 193.4 351.1 192.684 351.1 191.8C351.1 190.916 349.846 190.2 348.3 190.2C346.754 190.2 345.5 190.916 345.5 191.8C345.5 192.684 346.754 193.4 348.3 193.4Z" fill="#DBF301" stroke="#1C0F30" stroke-width="0.48" stroke-linecap="round" stroke-linejoin="round"/>
<path d="M266.7 193.1C268.246 193.1 269.5 192.384 269.5 191.5C269.5 190.616 268.246 189.9 266.7 189.9C265.154 189.9 263.9 190.616 263.9 191.5C263.9 192.384 265.154 193.1 266.7 193.1Z" fill="#DBF301" stroke="#1C0F30" stroke-width="0.48" stroke-linecap="round" stroke-linejoin="round"/>
<path d="M307.8 216.8C309.346 216.8 310.6 216.084 310.6 215.2C310.6 214.316 309.346 213.6 307.8 213.6C306.254 213.6 305 214.316 305 215.2C305 216.084 306.254 216.8 307.8 216.8Z" fill="#DBF301" stroke="#1C0F30" stroke-width="0.48" stroke-linecap="round" stroke-linejoin="round"/>
<path d="M296.6 226.2L265.3 208.1C264.886 207.8 264.545 207.41 264.303 206.96C264.061 206.51 263.923 206.011 263.9 205.5V203.1C263.9 202.1 264.6 201.6 265.3 202L296.6 220.1C297.031 220.383 297.385 220.769 297.629 221.223C297.874 221.677 298.001 222.184 298 222.7V225.2C298 226.2 297.4 226.7 296.6 226.2Z" fill="#DBF301" stroke="#1C0F30" stroke-width="0.48" stroke-linecap="round" stroke-linejoin="round"/>
<path d="M321.94 222.985C322.934 221.263 322.926 219.397 321.921 218.818C320.917 218.238 319.297 219.163 318.302 220.885C317.308 222.607 317.317 224.473 318.321 225.053C319.326 225.633 320.946 224.707 321.94 222.985Z" fill="#DBF301" stroke="#1C0F30" stroke-width="0.48" stroke-linecap="round" stroke-linejoin="round"/>
<path d="M329.152 218.763C330.147 217.041 330.138 215.175 329.134 214.596C328.129 214.016 326.509 214.941 325.515 216.663C324.521 218.385 324.529 220.251 325.534 220.831C326.538 221.411 328.158 220.485 329.152 218.763Z" fill="#DBF301" stroke="#1C0F30" stroke-width="0.48" stroke-linecap="round" stroke-linejoin="round"/>
<path d="M336.415 214.528C337.409 212.806 337.401 210.94 336.396 210.36C335.392 209.78 333.772 210.706 332.778 212.428C331.784 214.15 331.792 216.016 332.796 216.596C333.801 217.175 335.421 216.25 336.415 214.528Z" fill="#DBF301" stroke="#1C0F30" stroke-width="0.48" stroke-linecap="round" stroke-linejoin="round"/>
<path d="M343.664 210.443C344.659 208.721 344.65 206.855 343.646 206.275C342.641 205.695 341.021 206.621 340.027 208.343C339.033 210.064 339.041 211.93 340.046 212.51C341.05 213.09 342.67 212.164 343.664 210.443Z" fill="#DBF301" stroke="#1C0F30" stroke-width="0.48" stroke-linecap="round" stroke-linejoin="round"/>
<path d="M350.877 206.221C351.871 204.499 351.863 202.633 350.858 202.053C349.854 201.473 348.234 202.399 347.24 204.121C346.246 205.842 346.254 207.708 347.258 208.288C348.263 208.868 349.883 207.942 350.877 206.221Z" fill="#DBF301" stroke="#1C0F30" stroke-width="0.48" stroke-linecap="round" stroke-linejoin="round"/>
<path d="M356.8 167.2H325.9L309.7 157.8C308.956 157.462 308.143 157.303 307.326 157.338C306.51 157.373 305.713 157.6 305 158L289.1 167.2H258.2V185.8H258.3C258.2 186.3 258.5 186.7 259.1 187.1L305.3 213.8C306.044 214.138 306.857 214.297 307.674 214.262C308.491 214.227 309.287 214 310 213.6L355.6 187.3C356.17 186.964 356.597 186.43 356.8 185.8V167.2Z" fill="#904DFF" stroke="#1C0F30" stroke-width="0.48" stroke-linecap="round" stroke-linejoin="round"/>
<path d="M305.3 195.4L259.1 168.7C257.8 168 258 166.7 259.4 165.9L305 139.6C305.713 139.2 306.51 138.973 307.326 138.938C308.143 138.903 308.956 139.062 309.7 139.4L356 166.1C357.2 166.8 357 168 355.6 168.9L310 195.2C309.287 195.6 308.491 195.827 307.674 195.862C306.857 195.897 306.044 195.738 305.3 195.4Z" fill="#AE7EFF" stroke="#1C0F30" stroke-width="0.48" stroke-linecap="round" stroke-linejoin="round"/>
<path d="M276.7 166L305.2 149.6C305.849 149.227 306.578 149.014 307.326 148.979C308.074 148.944 308.819 149.088 309.5 149.4L338.7 166.2C339.8 166.9 339.6 168 338.3 168.7L309.8 185.2C309.143 185.551 308.417 185.752 307.673 185.786C306.929 185.821 306.186 185.689 305.5 185.4L276.4 168.5C275.3 167.9 275.4 166.8 276.7 166Z" fill="#E7D9FD" stroke="#1C0F30" stroke-width="0.48" stroke-linecap="round" stroke-linejoin="round"/>
<path d="M307.2 145.4C308.746 145.4 310 144.684 310 143.8C310 142.916 308.746 142.2 307.2 142.2C305.654 142.2 304.4 142.916 304.4 143.8C304.4 144.684 305.654 145.4 307.2 145.4Z" fill="#DBF301" stroke="#1C0F30" stroke-width="0.48" stroke-linecap="round" stroke-linejoin="round"/>
<path d="M348.3 169.2C349.846 169.2 351.1 168.484 351.1 167.6C351.1 166.716 349.846 166 348.3 166C346.754 166 345.5 166.716 345.5 167.6C345.5 168.484 346.754 169.2 348.3 169.2Z" fill="#DBF301" stroke="#1C0F30" stroke-width="0.48" stroke-linecap="round" stroke-linejoin="round"/>
<path d="M266.7 168.8C268.246 168.8 269.5 168.084 269.5 167.2C269.5 166.316 268.246 165.6 266.7 165.6C265.154 165.6 263.9 166.316 263.9 167.2C263.9 168.084 265.154 168.8 266.7 168.8Z" fill="#DBF301" stroke="#1C0F30" stroke-width="0.48" stroke-linecap="round" stroke-linejoin="round"/>
<path d="M307.8 192.5C309.346 192.5 310.6 191.784 310.6 190.9C310.6 190.016 309.346 189.3 307.8 189.3C306.254 189.3 305 190.016 305 190.9C305 191.784 306.254 192.5 307.8 192.5Z" fill="#DBF301" stroke="#1C0F30" stroke-width="0.48" stroke-linecap="round" stroke-linejoin="round"/>
<path d="M296.6 201.9L265.3 183.9C264.884 183.579 264.543 183.172 264.301 182.705C264.059 182.239 263.922 181.725 263.9 181.2V178.8C263.9 177.8 264.6 177.3 265.3 177.8L296.6 195.8C297.021 196.116 297.366 196.523 297.609 196.99C297.851 197.457 297.985 197.974 298 198.5V200.9C298 201.9 297.4 202.4 296.6 201.9Z" fill="#DBF301" stroke="#1C0F30" stroke-width="0.48" stroke-linecap="round" stroke-linejoin="round"/>
<path d="M321.895 198.735C322.889 197.013 322.881 195.147 321.877 194.568C320.872 193.988 319.252 194.913 318.258 196.635C317.264 198.357 317.272 200.223 318.277 200.803C319.281 201.383 320.901 200.457 321.895 198.735Z" fill="#DBF301" stroke="#1C0F30" stroke-width="0.48" stroke-linecap="round" stroke-linejoin="round"/>
<path d="M329.208 194.413C330.202 192.691 330.194 190.825 329.189 190.246C328.185 189.666 326.565 190.591 325.571 192.313C324.577 194.035 324.585 195.901 325.589 196.481C326.594 197.061 328.214 196.135 329.208 194.413Z" fill="#DBF301" stroke="#1C0F30" stroke-width="0.48" stroke-linecap="round" stroke-linejoin="round"/>
<path d="M336.457 190.328C337.451 188.606 337.443 186.74 336.439 186.16C335.434 185.58 333.814 186.506 332.82 188.228C331.826 189.95 331.834 191.816 332.839 192.396C333.843 192.975 335.463 192.05 336.457 190.328Z" fill="#DBF301" stroke="#1C0F30" stroke-width="0.48" stroke-linecap="round" stroke-linejoin="round"/>
<path d="M343.62 186.193C344.614 184.471 344.606 182.605 343.601 182.025C342.597 181.445 340.977 182.371 339.983 184.093C338.989 185.814 338.997 187.68 340.001 188.26C341.006 188.84 342.626 187.914 343.62 186.193Z" fill="#DBF301" stroke="#1C0F30" stroke-width="0.48" stroke-linecap="round" stroke-linejoin="round"/>
<path d="M350.833 181.971C351.827 180.249 351.818 178.383 350.814 177.803C349.81 177.223 348.19 178.149 347.195 179.871C346.201 181.592 346.21 183.458 347.214 184.038C348.218 184.618 349.839 183.692 350.833 181.971Z" fill="#DBF301" stroke="#1C0F30" stroke-width="0.48" stroke-linecap="round" stroke-linejoin="round"/>
<path d="M541.6 118.5L483.1 84.7C482.169 84.2552 481.142 84.0497 480.112 84.1021C479.082 84.1545 478.081 84.4631 477.2 85L419.5 118.2C417.8 119.3 417.6 120.8 419.1 121.7L477.6 155.5C479.1 156.4 481.8 156.2 483.6 155.2L541.2 121.9C543 120.9 543.2 119.4 541.6 118.5Z" fill="#1C0F30" stroke="#1C0F30" stroke-width="0.48" stroke-linecap="round" stroke-linejoin="round"/>
<path d="M529.6 91.5H498.8L482.6 82.1C481.839 81.7606 481.009 81.6021 480.177 81.6368C479.344 81.6715 478.53 81.8985 477.8 82.3L461.9 91.5H431.1V110.1C431.1 110.357 431.176 110.608 431.318 110.821C431.461 111.035 431.663 111.201 431.9 111.3L478.2 138C478.937 138.364 479.754 138.536 480.576 138.501C481.397 138.466 482.196 138.225 482.9 137.8L528.5 111.5C529.2 111.1 529.6 110.6 529.6 110.1V91.5Z" fill="#904DFF" stroke="#1C0F30" stroke-width="0.48" stroke-linecap="round" stroke-linejoin="round"/>
<path d="M478.2 119.6L431.9 92.9C430.7 92.2 430.9 91 432.3 90.2L477.8 63.9C478.53 63.4985 479.344 63.2715 480.177 63.2368C481.009 63.2021 481.839 63.3607 482.6 63.7L528.8 90.4C530 91.1 529.9 92.3 528.5 93.1L482.9 119.4C482.187 119.8 481.391 120.027 480.574 120.062C479.757 120.097 478.944 119.938 478.2 119.6Z" fill="#AE7EFF" stroke="#1C0F30" stroke-width="0.48" stroke-linecap="round" stroke-linejoin="round"/>
<path d="M449.5 90.3L478 73.8C478.675 73.4414 479.424 73.2456 480.188 73.2282C480.952 73.2108 481.71 73.3724 482.4 73.7L511.5 90.5C512.6 91.1 512.5 92.3 511.2 93L482.7 109.5C482.025 109.859 481.276 110.054 480.512 110.072C479.748 110.089 478.99 109.928 478.3 109.6L449.2 92.8C448.1 92.2 448.2 91 449.5 90.3Z" fill="#AE7EFF" stroke="#1C0F30" stroke-width="0.48" stroke-linecap="round" stroke-linejoin="round"/>
<path d="M480.1 69.7C481.646 69.7 482.9 68.9837 482.9 68.1C482.9 67.2163 481.646 66.5 480.1 66.5C478.554 66.5 477.3 67.2163 477.3 68.1C477.3 68.9837 478.554 69.7 480.1 69.7Z" fill="#DBF301" stroke="#1C0F30" stroke-width="0.48" stroke-linecap="round" stroke-linejoin="round"/>
<path d="M521.2 93.4C522.746 93.4 524 92.6837 524 91.8C524 90.9163 522.746 90.2 521.2 90.2C519.654 90.2 518.4 90.9163 518.4 91.8C518.4 92.6837 519.654 93.4 521.2 93.4Z" fill="#DBF301" stroke="#1C0F30" stroke-width="0.48" stroke-linecap="round" stroke-linejoin="round"/>
<path d="M439.6 93.1C441.146 93.1 442.4 92.3837 442.4 91.5C442.4 90.6163 441.146 89.9 439.6 89.9C438.054 89.9 436.8 90.6163 436.8 91.5C436.8 92.3837 438.054 93.1 439.6 93.1Z" fill="#DBF301" stroke="#1C0F30" stroke-width="0.48" stroke-linecap="round" stroke-linejoin="round"/>
<path d="M480.7 116.8C482.246 116.8 483.5 116.084 483.5 115.2C483.5 114.316 482.246 113.6 480.7 113.6C479.154 113.6 477.9 114.316 477.9 115.2C477.9 116.084 479.154 116.8 480.7 116.8Z" fill="#DBF301" stroke="#1C0F30" stroke-width="0.48" stroke-linecap="round" stroke-linejoin="round"/>
<path d="M469.5 126.2L438.2 108.1C437.769 107.817 437.415 107.431 437.171 106.977C436.926 106.523 436.799 106.016 436.8 105.5V103.1C436.8 102.1 437.4 101.6 438.2 102L469.5 120.1C469.914 120.4 470.255 120.79 470.497 121.24C470.739 121.69 470.877 122.189 470.9 122.7V125.2C470.9 126.2 470.2 126.7 469.5 126.2Z" fill="#DBF301" stroke="#1C0F30" stroke-width="0.48" stroke-linecap="round" stroke-linejoin="round"/>
<path d="M494.787 122.949C495.781 121.228 495.773 119.362 494.769 118.782C493.764 118.202 492.144 119.128 491.15 120.849C490.156 122.571 490.164 124.437 491.169 125.017C492.173 125.597 493.793 124.671 494.787 122.949Z" fill="#DBF301" stroke="#1C0F30" stroke-width="0.48" stroke-linecap="round" stroke-linejoin="round"/>
<path d="M502.05 118.814C503.044 117.092 503.036 115.226 502.031 114.646C501.027 114.067 499.407 114.992 498.413 116.714C497.418 118.436 497.427 120.302 498.431 120.882C499.436 121.462 501.056 120.536 502.05 118.814Z" fill="#DBF301" stroke="#1C0F30" stroke-width="0.48" stroke-linecap="round" stroke-linejoin="round"/>
<path d="M509.263 114.492C510.257 112.77 510.248 110.904 509.244 110.324C508.239 109.745 506.619 110.67 505.625 112.392C504.631 114.114 504.639 115.98 505.644 116.56C506.648 117.14 508.268 116.214 509.263 114.492Z" fill="#DBF301" stroke="#1C0F30" stroke-width="0.48" stroke-linecap="round" stroke-linejoin="round"/>
<path d="M516.512 110.407C517.506 108.685 517.498 106.819 516.493 106.239C515.489 105.659 513.869 106.585 512.875 108.307C511.88 110.029 511.889 111.895 512.893 112.474C513.898 113.054 515.518 112.129 516.512 110.407Z" fill="#DBF301" stroke="#1C0F30" stroke-width="0.48" stroke-linecap="round" stroke-linejoin="round"/>
<path d="M523.775 106.271C524.769 104.549 524.76 102.684 523.756 102.104C522.751 101.524 521.131 102.449 520.137 104.171C519.143 105.893 519.151 107.759 520.156 108.339C521.16 108.919 522.78 107.993 523.775 106.271Z" fill="#DBF301" stroke="#1C0F30" stroke-width="0.48" stroke-linecap="round" stroke-linejoin="round"/>
<path d="M529.6 67.2H498.8L482.6 57.8C481.839 57.4606 481.009 57.3021 480.177 57.3368C479.344 57.3715 478.53 57.5985 477.8 58L461.9 67.2H431.1V85.8C431.105 86.0685 431.182 86.3307 431.322 86.5594C431.463 86.788 431.663 86.9747 431.9 87.1L478.2 113.8C478.944 114.138 479.757 114.297 480.574 114.262C481.391 114.227 482.187 114 482.9 113.6L528.5 87.3C529.2 86.8 529.6 86.3 529.6 85.8V67.2Z" fill="#904DFF" stroke="#1C0F30" stroke-width="0.48" stroke-linecap="round" stroke-linejoin="round"/>
<path d="M478.2 95.4L431.9 68.7C430.7 68 430.9 66.7 432.3 65.9L477.8 39.6C478.53 39.1985 479.344 38.9715 480.177 38.9368C481.009 38.9021 481.839 39.0607 482.6 39.4L528.8 66.1C530 66.8 529.9 68 528.5 68.9L482.9 95.2C482.187 95.6004 481.391 95.8271 480.574 95.8619C479.757 95.8966 478.944 95.7384 478.2 95.4Z" fill="#AE7EFF" stroke="#1C0F30" stroke-width="0.48" stroke-linecap="round" stroke-linejoin="round"/>
<path d="M449.5 66L478 49.6C478.667 49.2256 479.412 49.0125 480.176 48.9778C480.94 48.943 481.702 49.0876 482.4 49.4L511.5 66.2C512.6 66.9 512.5 68 511.2 68.7L482.7 85.2C482.026 85.5533 481.283 85.7543 480.522 85.7889C479.762 85.8234 479.003 85.6907 478.3 85.4L449.2 68.6C448.1 67.9 448.2 66.8 449.5 66Z" fill="#E7D9FD" stroke="#1C0F30" stroke-width="0.48" stroke-linecap="round" stroke-linejoin="round"/>
<path d="M480.1 45.4C481.646 45.4 482.9 44.6837 482.9 43.8C482.9 42.9163 481.646 42.2 480.1 42.2C478.554 42.2 477.3 42.9163 477.3 43.8C477.3 44.6837 478.554 45.4 480.1 45.4Z" fill="#DBF301" stroke="#1C0F30" stroke-width="0.48" stroke-linecap="round" stroke-linejoin="round"/>
<path d="M521.2 69.2C522.746 69.2 524 68.4837 524 67.6C524 66.7163 522.746 66 521.2 66C519.654 66 518.4 66.7163 518.4 67.6C518.4 68.4837 519.654 69.2 521.2 69.2Z" fill="#DBF301" stroke="#1C0F30" stroke-width="0.48" stroke-linecap="round" stroke-linejoin="round"/>
<path d="M439.6 68.8C441.146 68.8 442.4 68.0837 442.4 67.2C442.4 66.3163 441.146 65.6 439.6 65.6C438.054 65.6 436.8 66.3163 436.8 67.2C436.8 68.0837 438.054 68.8 439.6 68.8Z" fill="#DBF301" stroke="#1C0F30" stroke-width="0.48" stroke-linecap="round" stroke-linejoin="round"/>
<path d="M480.7 92.5C482.246 92.5 483.5 91.7837 483.5 90.9C483.5 90.0163 482.246 89.3 480.7 89.3C479.154 89.3 477.9 90.0163 477.9 90.9C477.9 91.7837 479.154 92.5 480.7 92.5Z" fill="#DBF301" stroke="#1C0F30" stroke-width="0.48" stroke-linecap="round" stroke-linejoin="round"/>
<path d="M469.5 101.9L438.2 83.9C437.767 83.5952 437.414 83.1908 437.17 82.7209C436.927 82.251 436.8 81.7293 436.8 81.2V78.8C436.8 77.8 437.4 77.3 438.2 77.8L469.5 95.8C469.907 96.1294 470.241 96.5392 470.482 97.0038C470.723 97.4684 470.865 97.9778 470.9 98.5V100.9C470.9 101.9 470.2 102.4 469.5 101.9Z" fill="#DBF301" stroke="#1C0F30" stroke-width="0.48" stroke-linecap="round" stroke-linejoin="round"/>
<path d="M494.843 98.5995C495.837 96.8776 495.829 95.0117 494.824 94.4318C493.82 93.8519 492.2 94.7776 491.205 96.4995C490.211 98.2213 490.22 100.087 491.224 100.667C492.229 101.247 493.849 100.321 494.843 98.5995Z" fill="#DBF301" stroke="#1C0F30" stroke-width="0.48" stroke-linecap="round" stroke-linejoin="round"/>
<path d="M502.005 94.4641C503 92.7422 502.991 90.8763 501.987 90.2964C500.982 89.7165 499.362 90.6422 498.368 92.3641C497.374 94.0859 497.382 95.9519 498.387 96.5318C499.391 97.1117 501.011 96.1859 502.005 94.4641Z" fill="#DBF301" stroke="#1C0F30" stroke-width="0.48" stroke-linecap="round" stroke-linejoin="round"/>
<path d="M509.305 90.2921C510.299 88.5703 510.291 86.7043 509.286 86.1244C508.282 85.5445 506.662 86.4703 505.667 88.1921C504.673 89.914 504.682 91.7799 505.686 92.3598C506.691 92.9397 508.311 92.014 509.305 90.2921Z" fill="#DBF301" stroke="#1C0F30" stroke-width="0.48" stroke-linecap="round" stroke-linejoin="round"/>
<path d="M516.467 86.1567C517.462 84.4349 517.453 82.5689 516.449 81.989C515.444 81.4091 513.824 82.3349 512.83 84.0567C511.836 85.7786 511.844 87.6445 512.849 88.2244C513.853 88.8043 515.473 87.8786 516.467 86.1567Z" fill="#DBF301" stroke="#1C0F30" stroke-width="0.48" stroke-linecap="round" stroke-linejoin="round"/>
<path d="M523.73 82.0213C524.724 80.2995 524.716 78.4336 523.711 77.8537C522.707 77.2738 521.087 78.1995 520.093 79.9213C519.099 81.6432 519.107 83.5092 520.111 84.0891C521.116 84.669 522.736 83.7432 523.73 82.0213Z" fill="#DBF301" stroke="#1C0F30" stroke-width="0.48" stroke-linecap="round" stroke-linejoin="round"/>
<path d="M498.9 36.2L469.8 19.4C469.518 19.1748 469.16 19.0673 468.8 19.1C468.6 19.1 468.2 19.2 468.1 19.4L463.4 22.2C462.8 22.3 462.3 22.9 462.3 23.9V57C462.315 57.7452 462.504 58.4766 462.851 59.1361C463.199 59.7957 463.695 60.3654 464.3 60.8L493.5 77.6C493.704 77.7384 493.941 77.8206 494.187 77.8381C494.432 77.8557 494.679 77.808 494.9 77.7L500.3 74.5C500.525 74.3039 500.697 74.055 500.802 73.7757C500.907 73.4965 500.94 73.1955 500.9 72.9V40C500.893 39.2533 500.707 38.5191 500.359 37.8582C500.012 37.1974 499.511 36.629 498.9 36.2Z" fill="white" stroke="#1C0F30" stroke-width="0.45" stroke-linecap="round" stroke-linejoin="round"/>
<path d="M500.1 37.8L493.4 41.7" stroke="#1C0F30" stroke-width="0.45" stroke-linecap="round" stroke-linejoin="round"/>
<path d="M462.3 56.9V24C462.3 22.5 463.2 21.8 464.3 22.5L493.5 39.3C494.106 39.7346 494.602 40.3043 494.949 40.9639C495.296 41.6235 495.485 42.3548 495.5 43.1V76.1C495.5 77.5 494.6 78.2 493.5 77.6L464.3 60.8C463.692 60.3445 463.196 59.7566 462.85 59.0808C462.503 58.4051 462.315 57.6593 462.3 56.9Z" fill="#DBF301" stroke="#1C0F30" stroke-width="0.45" stroke-linecap="round" stroke-linejoin="round"/>
<path d="M486.2 47.7C486.17 46.9225 486.38 46.1546 486.8 45.5L474.4 38.4C473.9 38.1 473.5 38.3 473.5 38.8V41.9C473.527 42.2019 473.621 42.4938 473.777 42.7536C473.933 43.0135 474.146 43.2345 474.4 43.4L486.8 50.5C486.42 49.6146 486.216 48.6635 486.2 47.7Z" fill="#1C0F30"/>
<path d="M471.6 45.8C471.644 46.579 471.433 47.3511 471 48L483.4 55.1C483.9 55.4 484.3 55.2 484.3 54.7V51.6C484.273 51.2981 484.179 51.0062 484.023 50.7464C483.867 50.4865 483.654 50.2655 483.4 50.1L471 43C471.38 43.8854 471.584 44.8365 471.6 45.8Z" fill="#1C0F30"/>
<path d="M486.2 60.8C486.156 60.021 486.367 59.2489 486.8 58.6L474.4 51.4C473.9 51.2 473.5 51.4 473.5 51.9V55C473.517 55.2909 473.609 55.5725 473.767 55.8177C473.925 56.0628 474.143 56.2634 474.4 56.4L486.8 63.6C486.431 62.711 486.228 61.7621 486.2 60.8Z" fill="#1C0F30"/>
<path d="M153.1 35.9L124 19.1C123.855 19.001 123.692 18.9322 123.52 18.8978C123.349 18.8635 123.172 18.8642 123 18.9C122.8 18.9 122.4 19 122.3 19.2L117.6 22C117 22.1 116.5 22.7 116.5 23.8V56.7C116.508 57.4467 116.693 58.1809 117.041 58.8418C117.388 59.5026 117.889 60.071 118.5 60.5L147.7 77.4C147.904 77.5465 148.149 77.6253 148.4 77.6253C148.651 77.6253 148.896 77.5465 149.1 77.4L154.5 74.2C154.724 74.0257 154.898 73.7949 155.003 73.5313C155.109 73.2677 155.142 72.9808 155.1 72.7V39.8C155.085 39.0407 154.897 38.2949 154.55 37.6192C154.204 36.9434 153.708 36.3555 153.1 35.9Z" fill="white" stroke="#1C0F30" stroke-width="0.45" stroke-linecap="round" stroke-linejoin="round"/>
<path d="M154.3 37.5L147.6 41.4" stroke="#1C0F30" stroke-width="0.45" stroke-linecap="round" stroke-linejoin="round"/>
<path d="M116.5 56.6V23.7C116.5 22.2 117.4 21.6 118.5 22.2L147.7 39C148.308 39.4555 148.804 40.0434 149.15 40.7192C149.497 41.3949 149.685 42.1407 149.7 42.9V75.8C149.7 77.3 148.8 78 147.7 77.3L118.5 60.5C117.892 60.0445 117.396 59.4566 117.05 58.7808C116.703 58.1051 116.515 57.3593 116.5 56.6Z" fill="#DBF301" stroke="#1C0F30" stroke-width="0.45" stroke-linecap="round" stroke-linejoin="round"/>
<path d="M136.9 54.3C136.9 52 135.7 50.5 133.3 48.7C130.9 46.9 131.2 46.7 131.2 45.8C131.2 44.9 131.8 44.6 132.9 45.2C133.407 45.4426 133.846 45.8071 134.177 46.2608C134.509 46.7145 134.723 47.2434 134.8 47.8L135.2 48.3L136.2 48.9C136.4 49 136.6 48.9 136.6 48.6C136.305 46.8908 135.376 45.3556 134 44.3V42.7C133.989 42.5358 133.937 42.3769 133.85 42.2373C133.763 42.0978 133.643 41.9819 133.5 41.9L132.6 41.4C132.4 41.3 132.2 41.4 132.2 41.7V43.2C130.4 42.5 129.3 43.2 129.3 44.8C129.3 46.4 130.5 48.6 132.9 50.3C135.3 52 135.1 52.3 135.1 53.4C135.1 54.5 134.3 54.7 133.2 54.1C132.612 53.8228 132.103 53.4031 131.719 52.8792C131.335 52.3553 131.088 51.7437 131 51.1C130.913 50.843 130.777 50.6053 130.6 50.4L129.6 49.9C129.3 49.7 129.2 49.8 129.2 50.1C129.319 51.0843 129.648 52.0315 130.166 52.8771C130.683 53.7227 131.377 54.4467 132.2 55V56.6C132.211 56.7642 132.262 56.9231 132.35 57.0627C132.437 57.2022 132.557 57.3181 132.7 57.4L133.6 57.9C133.8 58.1 134 58 134 57.7V56.2C135.8 56.8 136.9 56.1 136.9 54.3Z" fill="#1C0F30"/>
<path d="M130.2 57.4C125.6 52.9 123.3 45.8 125 41.6C125.364 40.5601 126.089 39.6854 127.043 39.1348C127.997 38.5842 129.118 38.3945 130.2 38.6C130.4 38.6 130.5 38.5 130.5 38.2V37.2C130.487 36.9384 130.38 36.6902 130.2 36.5H129.9C124.4 35.3 121.4 40.4 123.1 47.7C124.255 52.1771 126.605 56.2559 129.9 59.5C130.2 59.7 130.4 59.7 130.4 59.5C130.4 59.3 130.5 59.4 130.5 59.3V58.3C130.456 57.9841 130.354 57.6791 130.2 57.4ZM136.3 40.1C136.1 39.8 135.8 39.8 135.8 40.1C135.8 40.4 135.7 40.2 135.7 40.3V41.2C135.728 41.5365 135.869 41.8536 136.1 42.1C140.6 46.6 142.9 53.7 141.2 57.9C140.875 58.9446 140.172 59.8306 139.23 60.3853C138.287 60.9399 137.171 61.1234 136.1 60.9C135.8 60.9 135.7 61 135.7 61.4V62.3C135.699 62.4416 135.735 62.5811 135.805 62.7041C135.876 62.8271 135.977 62.9292 136.1 63C136.1 63.1 136.2 63.1 136.3 63.1C141.8 64.3 144.8 59.3 143.1 51.9C141.969 47.4132 139.615 43.3282 136.3 40.1Z" fill="#1C0F30"/>
<path d="M498.2 237.2L469.1 220.4C468.955 220.301 468.792 220.232 468.62 220.198C468.449 220.163 468.272 220.164 468.1 220.2H468C467.738 220.213 467.49 220.32 467.3 220.5L462.7 223.3C462 223.4 461.6 224 461.6 225.1V258C461.608 258.747 461.793 259.481 462.141 260.142C462.488 260.803 462.989 261.371 463.6 261.8L492.7 278.6C493.3 279 493.8 279 494.1 278.7L499.6 275.5C499.824 275.326 499.998 275.095 500.103 274.831C500.209 274.568 500.242 274.281 500.2 274V241C500.185 240.255 499.996 239.523 499.649 238.864C499.302 238.204 498.806 237.635 498.2 237.2Z" fill="white" stroke="#1C0F30" stroke-width="0.48" stroke-linecap="round" stroke-linejoin="round"/>
<path d="M499.3 238.8L492.7 242.7" stroke="#1C0F30" stroke-width="0.48" stroke-linecap="round" stroke-linejoin="round"/>
<path d="M461.6 258V225.1C461.6 223.6 462.5 222.9 463.6 223.5L492.7 240.4C493.342 240.805 493.871 241.366 494.239 242.03C494.606 242.694 494.799 243.441 494.8 244.2V277.1C494.8 278.6 493.9 279.3 492.7 278.6L463.6 261.8C462.989 261.371 462.488 260.803 462.141 260.142C461.793 259.481 461.608 258.747 461.6 258Z" fill="#DBF301" stroke="#1C0F30" stroke-width="0.48" stroke-linecap="round" stroke-linejoin="round"/>
<path fill-rule="evenodd" clip-rule="evenodd" d="M480 252.9L478.2 251.9L476.3 250.8C472.6 248.4 469.9 246.1 469.9 245.2C469.9 244.3 472.6 245.2 476.3 247.1V250L478.2 251.2L480 252.2V249.3C483.7 251.6 486.5 253.9 486.5 254.8C486.5 255.7 483.7 254.8 480 252.9ZM480 249V246.4L485.2 249.3V245.4L471.2 237.3V241.2L476.3 244.2V246.8C472.1 244.6 469 243.8 469 244.9C469 246 472.1 248.8 476.3 251.5V259.8L480 261.9V253.6C484.2 255.8 487.4 256.6 487.4 255.5C487.4 254.4 484.2 251.6 480 249Z" fill="#1C0F30"/>
<path d="M152.1 236.6L123 219.8C122.855 219.701 122.692 219.632 122.52 219.598C122.349 219.563 122.172 219.564 122 219.6C121.707 219.607 121.425 219.713 121.2 219.9L116.6 222.7C116 222.8 115.5 223.4 115.5 224.5V257.4C115.508 258.147 115.693 258.881 116.041 259.542C116.388 260.203 116.889 260.771 117.5 261.2L146.7 278C146.885 278.177 147.126 278.284 147.382 278.302C147.638 278.321 147.892 278.249 148.1 278.1L153.5 274.9C153.724 274.726 153.898 274.495 154.003 274.231C154.109 273.968 154.142 273.681 154.1 273.4V240.5C154.092 239.739 153.908 238.991 153.56 238.314C153.213 237.637 152.713 237.05 152.1 236.6Z" fill="white" stroke="#1C0F30" stroke-width="0.48" stroke-linecap="round" stroke-linejoin="round"/>
<path d="M153.2 238.2L146.6 242.1" stroke="#1C0F30" stroke-width="0.48" stroke-linecap="round" stroke-linejoin="round"/>
<path d="M115.5 257.5V224.6C115.5 223.1 116.4 222.4 117.5 223L146.7 239.8C147.308 240.256 147.804 240.843 148.15 241.519C148.497 242.195 148.685 242.941 148.7 243.7V276.6C148.7 278.1 147.8 278.8 146.7 278.1L117.5 261.3C116.889 260.871 116.388 260.303 116.041 259.642C115.693 258.981 115.508 258.247 115.5 257.5Z" fill="#DBF301" stroke="#1C0F30" stroke-width="0.48" stroke-linecap="round" stroke-linejoin="round"/>
<path d="M325.8 136.6L296.7 119.8C296.555 119.701 296.392 119.632 296.22 119.598C296.049 119.563 295.872 119.564 295.7 119.6C295.5 119.6 295.1 119.7 295 119.9L290.3 122.7C289.7 122.8 289.2 123.4 289.2 124.5V157.4C289.208 158.147 289.393 158.881 289.741 159.542C290.089 160.203 290.589 160.771 291.2 161.2L320.4 178.1C320.604 178.247 320.849 178.325 321.1 178.325C321.351 178.325 321.596 178.247 321.8 178.1L327.2 174.9C327.435 174.73 327.622 174.503 327.745 174.241C327.867 173.978 327.921 173.689 327.9 173.4V140.5C327.866 139.734 327.659 138.985 327.296 138.31C326.932 137.635 326.421 137.05 325.8 136.6Z" fill="white" stroke="#1C0F30" stroke-width="0.48" stroke-linecap="round" stroke-linejoin="round"/>
<path d="M327 138.2L320.3 142.1" stroke="#1C0F30" stroke-width="0.48" stroke-linecap="round" stroke-linejoin="round"/>
<path d="M289.2 157.4V124.5C289.2 123 290.1 122.3 291.2 122.9L320.4 139.8C321.011 140.229 321.512 140.797 321.859 141.458C322.207 142.119 322.393 142.853 322.4 143.6V176.5C322.4 178 321.5 178.7 320.4 178.1L291.2 161.2C290.589 160.771 290.089 160.203 289.741 159.542C289.393 158.881 289.208 158.147 289.2 157.4Z" fill="#DBF301" stroke="#1C0F30" stroke-width="0.48" stroke-linecap="round" stroke-linejoin="round"/>
<path d="M316.4 323.2C315.839 323.715 315.237 324.183 314.6 324.6C312.279 325.731 309.732 326.319 307.15 326.319C304.568 326.319 302.021 325.731 299.7 324.6C299.063 324.183 298.461 323.715 297.9 323.2C295.8 320.9 296.4 317.9 299.7 316C302.021 314.869 304.568 314.281 307.15 314.281C309.732 314.281 312.279 314.869 314.6 316C317.9 317.9 318.5 320.9 316.4 323.2Z" fill="#AE7EFF" stroke="#904DFF" stroke-width="2" stroke-miterlimit="10"/>
<path d="M142.5 196C141.968 196.576 141.363 197.081 140.7 197.5C138.379 198.631 135.832 199.219 133.25 199.219C130.668 199.219 128.121 198.631 125.8 197.5C125.137 197.081 124.532 196.576 124 196C121.9 193.8 122.5 190.8 125.8 188.9C128.105 187.716 130.659 187.098 133.25 187.098C135.841 187.098 138.395 187.716 140.7 188.9C144 190.8 144.6 193.8 142.5 196Z" fill="#AE7EFF" stroke="#904DFF" stroke-width="2" stroke-miterlimit="10"/>
<path d="M489.3 196C488.768 196.576 488.163 197.081 487.5 197.5C485.179 198.631 482.632 199.219 480.05 199.219C477.468 199.219 474.921 198.631 472.6 197.5C471.937 197.081 471.332 196.576 470.8 196C468.7 193.8 469.3 190.8 472.6 188.9C474.905 187.716 477.459 187.098 480.05 187.098C482.641 187.098 485.195 187.716 487.5 188.9C490.8 190.8 491.4 193.8 489.3 196Z" fill="#AE7EFF" stroke="#904DFF" stroke-width="2" stroke-miterlimit="10"/>
<path d="M408.3 160.2C407.765 160.744 407.16 161.215 406.5 161.6C404.195 162.784 401.641 163.402 399.05 163.402C396.459 163.402 393.905 162.784 391.6 161.6C390.941 161.215 390.335 160.744 389.8 160.2C387.7 157.9 388.3 155 391.6 153.1C393.905 151.916 396.459 151.298 399.05 151.298C401.641 151.298 404.195 151.916 406.5 153.1C409.8 155 410.4 157.9 408.3 160.2Z" fill="#AE7EFF" stroke="#904DFF" stroke-width="2" stroke-miterlimit="10"/>
<path d="M227.1 160.2C226.565 160.744 225.96 161.215 225.3 161.6C221.2 164 214.5 164 210.5 161.6C209.794 161.241 209.152 160.768 208.6 160.2C206.5 157.9 207.1 155 210.5 153.1C213.9 151.2 221.2 150.7 225.3 153.1C229.4 155.5 229.2 157.9 227.1 160.2Z" fill="#AE7EFF" stroke="#904DFF" stroke-width="2" stroke-miterlimit="10"/>
<path d="M408.3 264.8C407.765 265.344 407.16 265.815 406.5 266.2C404.195 267.384 401.641 268.002 399.05 268.002C396.459 268.002 393.905 267.384 391.6 266.2C390.941 265.815 390.335 265.344 389.8 264.8C387.7 262.5 388.3 259.6 391.6 257.6C393.921 256.469 396.468 255.881 399.05 255.881C401.632 255.881 404.179 256.469 406.5 257.6C409.8 259.6 410.4 262.5 408.3 264.8Z" fill="#AE7EFF" stroke="#904DFF" stroke-width="2" stroke-miterlimit="10"/>
<path d="M227.1 264.8C226.565 265.344 225.96 265.815 225.3 266.2C221.2 268.6 214.5 268.6 210.5 266.2C209.794 265.841 209.152 265.368 208.6 264.8C206.5 262.5 207.1 259.6 210.5 257.6C213.9 255.6 221.2 255.3 225.3 257.6C229.4 259.9 229.2 262.5 227.1 264.8Z" fill="#AE7EFF" stroke="#904DFF" stroke-width="2" stroke-miterlimit="10"/>
<path d="M316.4 102.6C315.868 103.176 315.263 103.681 314.6 104.1C312.279 105.231 309.732 105.819 307.15 105.819C304.568 105.819 302.021 105.231 299.7 104.1C299.037 103.681 298.432 103.176 297.9 102.6C295.8 100.4 296.4 97.4 299.7 95.5C302.005 94.3156 304.559 93.6978 307.15 93.6978C309.741 93.6978 312.295 94.3156 314.6 95.5C317.9 97.4 318.5 100.4 316.4 102.6Z" fill="#AE7EFF" stroke="#904DFF" stroke-width="2" stroke-miterlimit="10"/>
<g clip-path="url(#clip1_1_2)">
<path fill-rule="evenodd" clip-rule="evenodd" d="M295 144.5C295 150.851 299.415 158.649 304.861 161.916C310.307 165.184 314.722 162.684 314.722 156.333C314.722 149.982 310.307 142.184 304.861 138.917C299.415 135.649 295 138.149 295 144.5Z" fill="#1C0F30"/>
<path fill-rule="evenodd" clip-rule="evenodd" d="M300.512 145.098L300.755 144.367C300.804 144.218 300.925 144.151 301.079 144.189L301.834 144.371C301.939 144.397 301.94 144.225 301.836 144.124L301.084 143.388C300.931 143.239 300.812 143.027 300.765 142.82L300.533 141.799C300.501 141.658 300.353 141.568 300.32 141.669L300.076 142.4C300.027 142.549 299.906 142.615 299.752 142.578L298.997 142.395C298.892 142.37 298.891 142.541 298.995 142.643L299.747 143.378C299.9 143.527 300.019 143.74 300.066 143.947L300.298 144.968C300.33 145.109 300.478 145.199 300.512 145.098Z" fill="#FAFAFA"/>
<path fill-rule="evenodd" clip-rule="evenodd" d="M312.457 151.754C312.145 151.161 311.659 150.64 311.186 150.263C310.71 149.887 310.21 149.596 309.74 149.411C308.788 149.027 307.923 148.968 307.169 149.083C306.777 149.126 306.443 149.248 306.097 149.368C305.931 149.434 305.779 149.519 305.62 149.598L305.188 149.841C304.718 150.131 304.254 150.375 303.806 150.539C303.356 150.699 302.935 150.774 302.521 150.754C302.106 150.734 301.663 150.603 301.085 150.278C300.512 149.958 299.835 149.431 299.11 148.797C298.381 148.161 297.615 147.42 296.76 146.664C297.059 147.808 297.508 148.931 298.085 150.057C298.669 151.174 299.398 152.31 300.334 153.331C301.257 154.354 302.417 155.219 303.501 155.615C304.588 156.023 305.542 156.009 306.314 155.793C307.087 155.572 307.712 155.166 308.24 154.671C308.385 154.534 308.462 154.455 308.568 154.342L308.859 154.014C309.061 153.824 309.246 153.581 309.446 153.393C309.838 152.983 310.226 152.57 310.676 152.246C310.902 152.08 311.141 151.935 311.423 151.827C311.563 151.777 311.715 151.735 311.883 151.717C312.054 151.691 312.234 151.699 312.457 151.754Z" fill="#4B4949"/>
<path fill-rule="evenodd" clip-rule="evenodd" d="M312.457 151.754C312.122 150.568 311.5 149.366 310.664 148.253C309.834 147.15 308.681 146.149 307.539 145.727C306.975 145.516 306.428 145.433 305.948 145.471C305.47 145.51 305.042 145.644 304.672 145.842C304.487 145.941 304.319 146.06 304.152 146.181L303.719 146.564L303.052 147.199C302.2 148.019 301.284 149.03 299.779 148.589C298.302 148.157 297.662 147.371 296.76 146.664C296.925 147.259 297.129 147.863 297.406 148.453C297.677 149.049 297.998 149.648 298.397 150.235C298.599 150.523 298.812 150.816 299.048 151.098C299.283 151.374 299.537 151.646 299.808 151.898C300.347 152.393 300.953 152.818 301.54 153.077C302.128 153.338 302.69 153.458 303.18 153.464C303.675 153.475 304.106 153.386 304.49 153.25C305.255 152.968 305.85 152.507 306.352 151.981C306.605 151.719 306.834 151.435 307.046 151.141L307.296 150.789C307.372 150.688 307.45 150.587 307.528 150.497C307.844 150.134 308.154 149.877 308.53 149.771C308.9 149.652 309.416 149.71 310.106 150.065C310.793 150.418 311.586 151.003 312.457 151.754Z" fill="#FAFAFA"/>
<path fill-rule="evenodd" clip-rule="evenodd" d="M308.741 157.708C308.741 158.431 309.244 159.32 309.864 159.692C310.485 160.064 310.987 159.779 310.987 159.056C310.987 158.332 310.485 157.444 309.864 157.072C309.244 156.7 308.741 156.985 308.741 157.708Z" fill="#4B4949"/>
</g>
<path d="M140.385 245.837L139.699 246.233C141.337 249.248 142.245 252.475 142.245 255.278C142.245 258.081 141.337 260.258 139.699 261.38L140.385 262.569C142.206 261.339 143.216 258.934 143.216 255.831C143.216 252.728 142.206 249.155 140.385 245.821V245.837Z" fill="#5A5564"/>
<path d="M125.949 237.566C127.74 236.709 130.08 237.011 132.507 238.414C134.934 239.816 137.274 242.217 139.065 245.143L139.751 244.748C137.775 241.502 135.186 238.838 132.498 237.286C129.811 235.733 127.222 235.405 125.246 236.367L125.949 237.566Z" fill="#5A5564"/>
<path d="M125.306 253.076C123.67 250.062 122.763 246.838 122.763 244.037C122.763 241.235 123.67 239.059 125.306 237.937L124.62 236.748C122.799 237.978 121.787 240.383 121.787 243.487C121.787 246.591 122.799 250.165 124.62 253.5L125.306 253.076Z" fill="#5A5564"/>
<path d="M139.058 261.751C137.267 262.607 134.927 262.305 132.5 260.902C130.073 259.5 127.733 257.099 125.942 254.173L125.256 254.569C127.232 257.814 129.821 260.478 132.509 262.031C135.196 263.583 137.785 263.911 139.761 262.949L139.058 261.751Z" fill="#5A5564"/>
<path d="M136.834 249.517C136.696 247.784 135.462 246.518 133.898 245.445V243.165L132.689 242.466V244.702L131.724 244.144V241.909L130.525 241.216V243.51L128.076 242.095V243.586C128.076 243.586 128.968 244.083 128.954 244.094C129.115 244.166 129.276 244.312 129.404 244.5C129.532 244.688 129.617 244.904 129.64 245.103V251.383C129.633 251.51 129.58 251.603 129.494 251.64C129.408 251.677 129.296 251.656 129.183 251.582C129.199 251.607 128.304 251.074 128.304 251.074L128.075 252.61L130.503 254.012V256.343L131.709 257.04V254.743L132.675 255.301V257.587L133.885 258.286V255.982C135.926 257.018 137.349 257.26 137.528 255.156C137.672 253.464 136.949 252.253 135.793 251.268C136.497 251.273 136.932 250.784 136.834 249.517ZM135.138 253.5C135.138 255.234 132.567 253.55 131.748 253.077V250.001C132.569 250.478 135.138 251.69 135.138 253.5ZM134.58 248.844C134.58 250.428 132.434 248.996 131.752 248.602V245.807C132.434 246.201 134.58 247.193 134.58 248.844Z" fill="#6D6A69"/>
<path d="M132.498 264.094C125.594 260.103 120 250.406 120 242.434C120 234.462 125.599 231.235 132.502 235.223C139.406 239.212 144.999 248.906 145 256.878C145.001 264.85 139.406 268.083 132.502 264.096L132.498 264.094ZM132.498 236.347C126.136 232.677 120.985 235.661 120.989 243.01C120.993 250.36 126.154 259.291 132.516 262.962C138.878 266.633 144.023 263.654 144.025 256.316C144.028 248.977 138.873 240.036 132.512 236.355L132.498 236.347Z" fill="#282138"/>
</g>
<defs>
<clipPath id="clip0_1_2">
<rect width="626" height="382" fill="white"/>
</clipPath>
<clipPath id="clip1_1_2">
<rect width="23" height="23" fill="white" transform="matrix(0.857493 0.514496 0 1 295 133)"/>
</clipPath>
</defs>
</svg>
