<svg xmlns="http://www.w3.org/2000/svg" viewBox="0 0 626 382">
  <title>Artboard 1</title>
  <g>
    <rect width="626" height="382" fill="#ae7eff"/>
    <polygon points="626 293.1 626 382 360.9 382 218.2 244.1 397.3 232.2 626 293.1" fill="#1c0f30" stroke="#1c0f30" stroke-linecap="round" stroke-linejoin="round" stroke-width="0.46"/>
  </g>
  <g>
    <g>
      <g>
        <ellipse cx="389.9" cy="172.1" rx="4.3" ry="2.5" fill="none" stroke="#914dff" stroke-linecap="round" stroke-linejoin="round" stroke-width="1.05"/>
        <ellipse cx="210.1" cy="275.9" rx="4.3" ry="2.5" fill="none" stroke="#914dff" stroke-linecap="round" stroke-linejoin="round" stroke-width="1.05"/>
        <line x1="420.3" y1="154.6" x2="393" y2="170.4" fill="none" stroke="#914dff" stroke-linecap="round" stroke-linejoin="round" stroke-width="1.05"/>
        <line x1="207.1" y1="277.7" x2="182.8" y2="291.7" fill="none" stroke="#914dff" stroke-linecap="round" stroke-linejoin="round" stroke-width="1.05"/>
        <line x1="386.9" y1="173.8" x2="213.1" y2="274.2" fill="none" stroke="#914dff" stroke-linecap="round" stroke-linejoin="round" stroke-width="1.05"/>
      </g>
      <g>
        <ellipse cx="389.9" cy="274.2" rx="4.3" ry="2.5" fill="none" stroke="#914dff" stroke-linecap="round" stroke-linejoin="round" stroke-width="1.05"/>
        <ellipse cx="210.1" cy="170.3" rx="4.3" ry="2.5" fill="none" stroke="#914dff" stroke-linecap="round" stroke-linejoin="round" stroke-width="1.05"/>
        <line x1="420.3" y1="291.7" x2="393" y2="275.9" fill="none" stroke="#914dff" stroke-linecap="round" stroke-linejoin="round" stroke-width="1.05"/>
        <line x1="207.1" y1="168.6" x2="182.8" y2="154.6" fill="none" stroke="#914dff" stroke-linecap="round" stroke-linejoin="round" stroke-width="1.05"/>
        <line x1="386.9" y1="272.4" x2="213.1" y2="172.1" fill="none" stroke="#914dff" stroke-linecap="round" stroke-linejoin="round" stroke-width="1.05"/>
      </g>
    </g>
    <path d="M480.6,104.1a5.7,5.7,0,0,0-2.2-2.6L402.6,57.8a1.6,1.6,0,0,0-1.6-.3l-.6.3h0L384,67.4h0c-.8.2-1.3,1.1-1.3,2.5v60.7a7.7,7.7,0,0,0,1.5,4.3,5.7,5.7,0,0,0,1.4,1.3l75.8,43.7a1.8,1.8,0,0,0,2.2,0h0l16.7-9.7h.1a2.6,2.6,0,0,0,.9-2.3V107.2A7,7,0,0,0,480.6,104.1Z" fill="#1c0f30" stroke="#1c0f30" stroke-linecap="round" stroke-linejoin="round" stroke-width="0.46"/>
    <g>
      <path d="M463.6,106.5a7.1,7.1,0,0,1,.8,3.1v60.7a2.8,2.8,0,0,1-.8,2.2h0a1.9,1.9,0,0,1-2.2,0l-75.8-43.8a4.3,4.3,0,0,1-1.4-1.3,7.5,7.5,0,0,1-1.5-4.3V62.5c0-1.4.5-2.3,1.3-2.5h0a1.8,1.8,0,0,1,1.6.2l14.1,8.1L461.4,104A6,6,0,0,1,463.6,106.5Z" fill="#ae7eff" stroke="#1c0f30" stroke-linecap="round" stroke-linejoin="round" stroke-width="0.46"/>
      <path d="M481.3,99.7v60.6a2.7,2.7,0,0,1-.9,2.4h-.1l-16.7,9.7a2.8,2.8,0,0,0,.8-2.2V109.6a7.1,7.1,0,0,0-.8-3.1l17-9.8h0A6.3,6.3,0,0,1,481.3,99.7Z" fill="#904dff" stroke="#1c0f30" stroke-linecap="round" stroke-linejoin="round" stroke-width="0.46"/>
      <path d="M480.6,96.7l-17,9.8a6,6,0,0,0-2.2-2.5L399.7,68.3l-14.1-8.1A1.8,1.8,0,0,0,384,60l16.4-9.6h0l.6-.4a2.4,2.4,0,0,1,1.6.3l75.8,43.8a5.7,5.7,0,0,1,2.2,2.6Z" fill="#ae7eff" stroke="#1c0f30" stroke-linecap="round" stroke-linejoin="round" stroke-width="0.46"/>
      <path d="M459.1,98.3a2.9,2.9,0,0,1-2.9-2.9V72.7c0-8-5.1-17.6-11-21L413.4,33.4c-1.2-.7-3.5-1.7-5.2-.7s-2.8,3.7-2.8,7.3V62.7a2.9,2.9,0,1,1-5.8,0V40c0-5.8,2.1-10.2,5.7-12.3s7.1-1.6,11,.6l31.8,18.4c7.8,4.5,13.9,15.9,13.9,26V95.4A2.9,2.9,0,0,1,459.1,98.3Z" fill="#1c0f30" stroke="#1c0f30" stroke-linecap="round" stroke-linejoin="round" stroke-width="0.46"/>
      <g>
        <path d="M418.4,96.9c-10.2-5.9-18.5-1.1-18.5,10.7s8.3,26.1,18.5,32,18.4,1.1,18.4-10.7S428.6,102.8,418.4,96.9Z" fill="#dbf301" stroke="#1c0f30" stroke-linecap="round" stroke-linejoin="round" stroke-width="0.46"/>
        <path d="M418.4,99.5c-9-5.1-16.3-.9-16.3,9.4s7.3,22.9,16.3,28.1,16.2.9,16.2-9.4S427.3,104.7,418.4,99.5Z" fill="#dbf301" stroke="#1c0f30" stroke-linecap="round" stroke-linejoin="round" stroke-width="0.46"/>
        <path d="M423.6,115.5c0,2.6-1.5,4-3.5,3.7v10.5c0,1.1-.8,1.6-1.7,1a3.7,3.7,0,0,1-1.8-3V117.1a11.5,11.5,0,0,1-3.4-7.6c0-3.3,2.3-4.7,5.2-3A11.6,11.6,0,0,1,423.6,115.5Z" fill="#1c0f30" stroke="#1c0f30" stroke-linecap="round" stroke-linejoin="round" stroke-width="0.46"/>
      </g>
    </g>
    <g>
      <g>
        <path d="M393.5,234.4l-79.2-45.8c-4.7-2.6-11.7-2.9-15.8-.6l-81.4,47c-4.1,2.4-3.6,6.4,1.1,9.1l79.2,45.7c4.7,2.7,11.7,3,15.8.7l81.4-47C398.6,241.1,398.1,237.1,393.5,234.4Z" fill="#1c0f30" stroke="#1c0f30" stroke-linecap="round" stroke-linejoin="round" stroke-width="0.46"/>
        <path d="M397.3,221.1H385.8l-71.5-41.3c-4.7-2.7-11.7-3-15.8-.6l-71.6,41.3H214.4v9.9h0c.1,1.7,1.4,3.5,3.8,4.9l79.2,45.7c4.7,2.7,11.7,3,15.8.7l81.4-47.1c1.9-1,2.8-2.5,2.7-4h0Z" fill="#dbf301" stroke="#1c0f30" stroke-linecap="round" stroke-linejoin="round" stroke-width="0.46"/>
        <g>
          <path d="M297.4,271.7l-79.2-45.8c-4.7-2.7-5.2-6.7-1.1-9.1l81.4-47c4.1-2.3,11.1-2,15.8.7l79.2,45.7c4.6,2.7,5.1,6.8,1.1,9.1l-81.4,47C309.1,274.6,302.1,274.4,297.4,271.7Z" fill="#fff" stroke="#1c0f30" stroke-linecap="round" stroke-linejoin="round" stroke-width="0.46"/>
          <path d="M391.1,223.5l-81,46.8a10.3,10.3,0,0,1-9.2-.4l-79.6-46c-2.7-1.6-3-3.9-.7-5.3l81-46.7c2.3-1.4,6.4-1.2,9.1.3l79.7,46C393.1,219.8,393.4,222.2,391.1,223.5Z" fill="#904dff" stroke="#1c0f30" stroke-linecap="round" stroke-linejoin="round" stroke-width="0.46"/>
        </g>
        <path d="M374.7,243.5l-32.9,19c-.5.3-.9-.1-.9-.7v-.5a2.3,2.3,0,0,1,.9-1.8l32.9-19c.5-.3.9,0,.9.7v.5A2.3,2.3,0,0,1,374.7,243.5Z" fill="#1c0f30" stroke="#1c0f30" stroke-linecap="round" stroke-linejoin="round" stroke-width="0.46"/>
      </g>
      <g>
        <g>
          <path d="M345.3,238.3,273.8,197c-4.4-2.6-8-9.4-8-15.2V102c0-5.9,3.6-8.5,8-6l71.5,41.3c4.4,2.5,8,9.3,8,15.2v79.8C353.3,238.1,349.7,240.8,345.3,238.3Z" fill="#fff" stroke="#1c0f30" stroke-linecap="round" stroke-linejoin="round" stroke-width="0.46"/>
          <g>
            <g>
              <path d="M334,147.4v45.5c0,2.3-1.3,3.6-3.1,3.3a3.2,3.2,0,0,1-1.7-.6l-39.3-22.7a10,10,0,0,1-4.8-8.3V119.1c0-3,2.1-4.2,4.8-2.7l39.3,22.7A10.4,10.4,0,0,1,334,147.4Z" fill="#fff" stroke="#1c0f30" stroke-linecap="round" stroke-linejoin="round" stroke-width="0.46"/>
              <ellipse cx="309.5" cy="149.9" rx="7.8" ry="13.6" transform="translate(-33.5 174.9) rotate(-30)" stroke-width="0.46" stroke="#1c0f30" stroke-linecap="round" stroke-linejoin="round" fill="#fff"/>
              <path d="M330.9,196.2a3.2,3.2,0,0,1-1.7-.6l-39.3-22.7a10.9,10.9,0,0,1-1.7-1.3c1.7-10.8,10.6-14.7,21.3-8.5S329.2,183.4,330.9,196.2Z" fill="#fff" stroke="#1c0f30" stroke-linecap="round" stroke-linejoin="round" stroke-width="0.46"/>
            </g>
            <path d="M332.1,210,287,183.9a5.2,5.2,0,0,1-2.3-4.3v-.3c0-1.6,1-2.4,2.3-1.7l45.1,26.1a5.4,5.4,0,0,1,2.2,4.3v.3C334.3,210,333.3,210.7,332.1,210Z" fill="#fff" stroke="#1c0f30" stroke-linecap="round" stroke-linejoin="round" stroke-width="0.46"/>
            <path d="M332.1,219.6,287,193.5a5.2,5.2,0,0,1-2.3-4.3v-.3c0-1.7,1-2.4,2.3-1.7l45.1,26a5.7,5.7,0,0,1,2.2,4.3v.4C334.3,219.5,333.3,220.3,332.1,219.6Z" fill="#fff" stroke="#1c0f30" stroke-linecap="round" stroke-linejoin="round" stroke-width="0.46"/>
          </g>
        </g>
        <g>
          <path d="M340.4,242.4l-71.6-41.3c-4.4-2.5-7.9-9.3-7.9-15.2V106.1c0-5.8,3.5-8.5,7.9-6l71.6,41.3c4.4,2.6,7.9,9.4,7.9,15.2v79.8C348.3,242.3,344.8,245,340.4,242.4Z" fill="#fff" stroke="#1c0f30" stroke-linecap="round" stroke-linejoin="round" stroke-width="0.46"/>
          <g>
            <g>
              <path d="M329.1,151.5V197c0,2.4-1.3,3.6-3.1,3.4a4.1,4.1,0,0,1-1.7-.7L284.9,177a7,7,0,0,1-1.7-1.3,10.7,10.7,0,0,1-3.1-7V123.3c0-3.1,2.2-4.3,4.8-2.8l39.4,22.8A10.6,10.6,0,0,1,329.1,151.5Z" fill="#fff" stroke="#1c0f30" stroke-linecap="round" stroke-linejoin="round" stroke-width="0.46"/>
              <ellipse cx="304.6" cy="154.1" rx="7.8" ry="13.6" transform="translate(-36.2 172.9) rotate(-30)" stroke-width="0.46" stroke="#1c0f30" stroke-linecap="round" stroke-linejoin="round" fill="#fff"/>
              <path d="M326,200.4a4.1,4.1,0,0,1-1.7-.7L284.9,177a7,7,0,0,1-1.7-1.3c1.8-10.8,10.7-14.6,21.4-8.4S324.2,187.6,326,200.4Z" fill="#fff" stroke="#1c0f30" stroke-linecap="round" stroke-linejoin="round" stroke-width="0.46"/>
            </g>
            <path d="M327.2,214.1l-45.2-26a5.5,5.5,0,0,1-2.2-4.3v-.3c0-1.7,1-2.5,2.2-1.7l45.2,26a5.5,5.5,0,0,1,2.2,4.3v.3C329.4,214.1,328.4,214.8,327.2,214.1Z" fill="#fff" stroke="#1c0f30" stroke-linecap="round" stroke-linejoin="round" stroke-width="0.46"/>
            <path d="M327.2,223.7,282,197.6a5.4,5.4,0,0,1-2.2-4.3V193c0-1.6,1-2.4,2.2-1.7l45.2,26.1a5.4,5.4,0,0,1,2.2,4.3v.3C329.4,223.6,328.4,224.4,327.2,223.7Z" fill="#fff" stroke="#1c0f30" stroke-linecap="round" stroke-linejoin="round" stroke-width="0.46"/>
          </g>
        </g>
        <g>
          <path d="M335.4,246.6l-71.5-41.4c-4.4-2.5-8-9.3-8-15.1V110.3c0-5.9,3.6-8.6,8-6l71.5,41.3c4.4,2.5,8,9.3,8,15.2v79.8C343.4,246.4,339.8,249.1,335.4,246.6Z" fill="#fff" stroke="#1c0f30" stroke-linecap="round" stroke-linejoin="round" stroke-width="0.46"/>
          <g>
            <g>
              <path d="M324.1,155.7v45.4c0,2.4-1.3,3.7-3.1,3.4l-1.7-.6L280,181.2a7.5,7.5,0,0,1-1.7-1.4,10.7,10.7,0,0,1-3.1-6.9V127.4c0-3,2.1-4.3,4.8-2.7l39.3,22.7A10.4,10.4,0,0,1,324.1,155.7Z" fill="#fff" stroke="#1c0f30" stroke-linecap="round" stroke-linejoin="round" stroke-width="0.46"/>
              <ellipse cx="299.6" cy="158.2" rx="7.8" ry="13.6" transform="translate(-39 171) rotate(-30)" stroke-width="0.46" stroke="#1c0f30" stroke-linecap="round" stroke-linejoin="round" fill="#fff"/>
              <path d="M321,204.5l-1.7-.6L280,181.2a7.5,7.5,0,0,1-1.7-1.4c1.7-10.8,10.6-14.6,21.3-8.4S319.3,191.7,321,204.5Z" fill="#fff" stroke="#1c0f30" stroke-linecap="round" stroke-linejoin="round" stroke-width="0.46"/>
            </g>
            <path d="M322.2,218.3l-45.1-26.1a5.2,5.2,0,0,1-2.3-4.3v-.3c0-1.7,1-2.4,2.3-1.7L322.2,212a5.2,5.2,0,0,1,2.3,4.2v.4C324.5,218.2,323.5,219,322.2,218.3Z" fill="#fff" stroke="#1c0f30" stroke-linecap="round" stroke-linejoin="round" stroke-width="0.46"/>
            <path d="M322.2,227.8l-45.1-26a5.3,5.3,0,0,1-2.3-4.3v-.3c0-1.7,1-2.5,2.3-1.7l45.1,26a5.2,5.2,0,0,1,2.3,4.3v.3C324.5,227.8,323.5,228.5,322.2,227.8Z" fill="#fff" stroke="#1c0f30" stroke-linecap="round" stroke-linejoin="round" stroke-width="0.46"/>
          </g>
        </g>
        <g>
          <path d="M330.5,250.7l-71.6-41.3c-4.4-2.6-7.9-9.4-7.9-15.2V114.4c0-5.8,3.5-8.5,7.9-6l71.6,41.3c4.4,2.5,7.9,9.3,7.9,15.2v79.8C338.4,250.5,334.9,253.2,330.5,250.7Z" fill="#fff" stroke="#1c0f30" stroke-linecap="round" stroke-linejoin="round" stroke-width="0.46"/>
          <g>
            <g>
              <path d="M319.2,159.8v45.5c0,2.3-1.3,3.6-3.1,3.3a2.9,2.9,0,0,1-1.7-.6L275,185.3l-1.7-1.3a10.9,10.9,0,0,1-3.1-7V131.6c0-3.1,2.2-4.3,4.8-2.8l39.4,22.7A10.9,10.9,0,0,1,319.2,159.8Z" fill="#dbf301" stroke="#1c0f30" stroke-linecap="round" stroke-linejoin="round" stroke-width="0.46"/>
              <ellipse cx="294.7" cy="162.3" rx="7.8" ry="13.6" transform="translate(-41.7 169.1) rotate(-30)" stroke-width="0.46" stroke="#1c0f30" stroke-linecap="round" stroke-linejoin="round" fill="#fff"/>
              <path d="M316.1,208.6a2.9,2.9,0,0,1-1.7-.6L275,185.3l-1.7-1.3c1.8-10.8,10.7-14.7,21.4-8.5S314.3,195.8,316.1,208.6Z" fill="#fff" stroke="#1c0f30" stroke-linecap="round" stroke-linejoin="round" stroke-width="0.46"/>
            </g>
            <path d="M317.3,222.4l-45.2-26.1a5.3,5.3,0,0,1-2.2-4.2v-.4c0-1.6,1-2.4,2.2-1.7l45.2,26.1a5.4,5.4,0,0,1,2.2,4.3v.3C319.5,222.4,318.5,223.1,317.3,222.4Z" fill="#ae7eff" stroke="#1c0f30" stroke-linecap="round" stroke-linejoin="round" stroke-width="0.46"/>
            <path d="M317.3,232l-45.2-26.1a5.4,5.4,0,0,1-2.2-4.3v-.3c0-1.7,1-2.4,2.2-1.7l45.2,26a5.7,5.7,0,0,1,2.2,4.3v.4C319.5,231.9,318.5,232.7,317.3,232Z" fill="#ae7eff" stroke="#1c0f30" stroke-linecap="round" stroke-linejoin="round" stroke-width="0.46"/>
          </g>
        </g>
      </g>
      <g>
        <g opacity="0.25">
          <path d="M297.4,141a17.2,17.2,0,0,0,8.4,2.2V273.9a18.4,18.4,0,0,1-8.4-2.2l-79.2-45.8c-2.4-1.4-3.7-3.1-3.8-4.8h-.1V90.4c.1,1.7,1.4,3.5,3.8,4.9Z" fill="#904dff" stroke="#1c0f30" stroke-linecap="round" stroke-linejoin="round" stroke-width="0.46"/>
          <path d="M397.3,90.6V221.3h0c.1,1.5-.8,2.9-2.7,4l-81.4,47a15.5,15.5,0,0,1-7.4,1.6V143.2a14.4,14.4,0,0,0,7.4-1.5l81.4-47.1c1.9-1,2.8-2.5,2.7-4Z" fill="#904dff" stroke="#1c0f30" stroke-linecap="round" stroke-linejoin="round" stroke-width="0.46"/>
        </g>
        <g>
          <path d="M297.4,141a17.2,17.2,0,0,0,8.4,2.2V273.9a18.4,18.4,0,0,1-8.4-2.2l-79.2-45.8c-2.4-1.4-3.7-3.1-3.8-4.8h-.1V90.4c.1,1.7,1.4,3.5,3.8,4.9Z" fill="none" stroke="#1c0f30" stroke-linecap="round" stroke-linejoin="round" stroke-width="0.46"/>
          <path d="M397.3,90.6V221.3h0c.1,1.5-.8,2.9-2.7,4l-81.4,47a15.5,15.5,0,0,1-7.4,1.6V143.2a14.4,14.4,0,0,0,7.4-1.5l81.4-47.1c1.9-1,2.8-2.5,2.7-4Z" fill="none" stroke="#1c0f30" stroke-linecap="round" stroke-linejoin="round" stroke-width="0.46"/>
        </g>
      </g>
      <g>
        <path d="M397.3,81.2H385.8L314.3,39.8c-4.7-2.7-11.7-3-15.8-.6L226.9,80.5H214.4v9.9h0c.1,1.7,1.4,3.5,3.8,4.9L297.4,141c4.7,2.7,11.7,3,15.8.7l81.4-47.1c1.9-1,2.8-2.5,2.7-4h0Z" fill="#dbf301" stroke="#1c0f30" stroke-linecap="round" stroke-linejoin="round" stroke-width="0.46"/>
        <g>
          <path d="M297.4,131.8,218.2,86.1c-4.7-2.7-5.2-6.8-1.1-9.1l81.4-47.1c4.1-2.3,11.1-2,15.8.7l79.2,45.7c4.6,2.7,5.1,6.8,1.1,9.1l-81.4,47C309.1,134.8,302.1,134.5,297.4,131.8Z" fill="#904dff" stroke="#1c0f30" stroke-linecap="round" stroke-linejoin="round" stroke-width="0.46"/>
          <path d="M306.3,120.7a7.3,7.3,0,0,1-2.3-.4L236.3,81.2l68.4-39.5h.7a5.3,5.3,0,0,1,2.2.5l67.7,39.1-68.4,39.5Z" fill="#ae7eff" stroke="#1c0f30" stroke-linecap="round" stroke-linejoin="round" stroke-width="0.46"/>
          <path d="M391.1,83.6l-81,46.8a10.3,10.3,0,0,1-9.2-.4L221.3,84c-2.7-1.6-3-3.9-.7-5.3l81-46.7c2.3-1.4,6.4-1.2,9.1.3l79.7,46C393.1,79.9,393.4,82.3,391.1,83.6Z" fill="#dbf301" stroke="#1c0f30" stroke-linecap="round" stroke-linejoin="round" stroke-width="0.46"/>
        </g>
        <path d="M374.7,103.6l-32.9,19c-.5.3-.9,0-.9-.7v-.5a2.3,2.3,0,0,1,.9-1.8l32.9-19c.5-.3.9.1.9.7v.5A2.3,2.3,0,0,1,374.7,103.6Z" fill="#1c0f30" stroke="#1c0f30" stroke-linecap="round" stroke-linejoin="round" stroke-width="0.46"/>
      </g>
    </g>
  </g>
  <g>
    <g>
      <path d="M195.1,131c-.4-5.8-4.5-11.6-12.1-16-16.3-9.4-42.7-9.4-58.9,0-7.7,4.4-11.8,10.2-12.2,16h0v8.9h0c.2,6,4.3,11.9,12.2,16.4,16.2,9.4,42.6,9.4,58.9,0,7.8-4.5,11.9-10.4,12.1-16.4h0V131Z" fill="#1c0f30" stroke="#1c0f30" stroke-linecap="round" stroke-linejoin="round" stroke-width="0.46"/>
      <g>
        <path d="M192.5,123.4a27.7,27.7,0,0,0-9.5-8.6c-16.3-9.4-42.7-9.4-58.9,0a27.2,27.2,0,0,0-9.6,8.6h-2.6v9h0c.2,5.9,4.3,11.8,12.2,16.4,16.2,9.4,42.6,9.4,58.9,0,7.8-4.6,11.9-10.5,12.1-16.4h0v-9Z" fill="#e7d9fd" stroke="#1c0f30" stroke-linecap="round" stroke-linejoin="round" stroke-width="0.46"/>
        <ellipse cx="153.5" cy="124.5" rx="41.6" ry="24" fill="#ae7eff" stroke="#1c0f30" stroke-linecap="round" stroke-linejoin="round" stroke-width="0.46"/>
      </g>
      <g>
        <path d="M177.9,59.8V87.3a14.2,14.2,0,0,1-2,6.8l-9.5,16.5h-.1l-3.4,6.1v.2l-3.7,6.7c-2,3.6-5.5,5.6-7.5,4.3l-7.1-4.9-9.6-5.7a3.2,3.2,0,0,1-1.5-1.9,5.3,5.3,0,0,1-.5-2.6V85.5c0-3.8,2.3-8.4,5.5-11.1a126.2,126.2,0,0,1,17.4-12.1,82.9,82.9,0,0,1,14.4-6.6l2.1-.7a5.4,5.4,0,0,1,2.8-.1l1,.5h0C177.3,56.3,177.9,57.8,177.9,59.8Z" fill="#dbf301" stroke="#1c0f30" stroke-linecap="round" stroke-linejoin="round" stroke-width="0.46"/>
        <path d="M176.2,55.4l-1-.5a5.4,5.4,0,0,0-2.8.1l-2.1.7a82.9,82.9,0,0,0-14.4,6.6,126.2,126.2,0,0,0-17.4,12.1c-3.2,2.7-5.5,7.3-5.5,11.1V113a5.3,5.3,0,0,0,.5,2.6l-2.4-1.3c-1.3-.8-2-2.4-2-4.6V82.3a15.6,15.6,0,0,1,5.6-11.1A140.8,140.8,0,0,1,152,59a94.2,94.2,0,0,1,14.5-6.5l2-.7a4.5,4.5,0,0,1,2.8-.1,3.4,3.4,0,0,1,1.8,1.4Z" fill="#914dff" stroke="#1c0f30" stroke-linecap="round" stroke-linejoin="round" stroke-width="0.46"/>
        <path d="M138.2,86.8v21.5c0,1.7.5,3,1.5,3.6l7.4,4.6,5.5,3.9c1.5,1,4.2-.5,5.7-3.3l5.5-10.1,7.3-13.1a10.8,10.8,0,0,0,1.6-5.3V67.1c0-3-1.8-4.6-4.3-3.8a61.7,61.7,0,0,0-12.6,5.5,103.3,103.3,0,0,0-13.3,9.4,12,12,0,0,0-4.3,8.6" fill="#e8dafe" stroke="#1c0f30" stroke-linecap="round" stroke-linejoin="round" stroke-width="0.46"/>
        <g>
          <path d="M160.9,80.5v3.7a6,6,0,0,0-1.8.7l-1.1.6V83.6c0-1.7-1.1-2.3-2.6-1.5a5.7,5.7,0,0,0-2.6,4.4v2l-1.1.6a11,11,0,0,0-1.8,1.4V86.8a10.1,10.1,0,0,1,4.6-7.9l1.8-1C158.9,76.4,160.9,77.6,160.9,80.5Z" fill="#914dff" stroke="#1c0f30" stroke-linecap="round" stroke-linejoin="round" stroke-width="0.46"/>
          <path d="M160.9,84.2a6,6,0,0,0-1.8.7l-7.4,4.2a11,11,0,0,0-1.8,1.4,11.4,11.4,0,0,0-3.3,7.4v4.5c0,3.2,2.3,4.5,5.1,2.9l7.4-4.2a11.1,11.1,0,0,0,5.2-8.8V87.8C164.3,85.3,162.9,83.9,160.9,84.2Zm-4.5,10.6v2.8a1.3,1.3,0,0,1-.6,1.1l-.8.4c-.3.2-.6.1-.6-.3V95.9c-.8,0-1.4-.7-1.2-2a4.9,4.9,0,0,1,2-3.4c1.4-1,2.5-.4,2.5,1.2A5,5,0,0,1,156.4,94.8Z" fill="#914dff" stroke="#1c0f30" stroke-linecap="round" stroke-linejoin="round" stroke-width="0.46"/>
          <path d="M155.2,90.5a4.9,4.9,0,0,0-2,3.4c-.2,1.3.4,2,1.2,2v2.9c0,.4.3.5.6.3l.8-.4a1.3,1.3,0,0,0,.6-1.1V94.8a5,5,0,0,0,1.3-3.1C157.7,90.1,156.6,89.5,155.2,90.5Z" fill="#dbf301" stroke="#1c0f30" stroke-linecap="round" stroke-linejoin="round" stroke-width="0.46"/>
        </g>
      </g>
    </g>
    <g>
      <path d="M489,310.2c-.4-5.8-4.5-11.5-12.2-16-16.2-9.4-42.6-9.4-58.9,0-7.6,4.5-11.7,10.2-12.1,16h0v8.9h0c.2,6,4.3,11.9,12.1,16.4,16.3,9.4,42.7,9.4,58.9,0,7.9-4.5,12-10.4,12.2-16.4h0v-8.9Z" fill="#1c0f30" stroke="#1c0f30" stroke-linecap="round" stroke-linejoin="round" stroke-width="0.46"/>
      <g>
        <path d="M486.4,302.9q-3-4.8-9.6-8.7c-16.2-9.4-42.6-9.4-58.9,0a27.9,27.9,0,0,0-9.5,8.7h-2.6v8.9h0c.2,6,4.3,11.9,12.1,16.4,16.3,9.4,42.7,9.4,58.9,0,7.9-4.5,12-10.4,12.2-16.4h0v-8.9Z" fill="#e7d9fd" stroke="#1c0f30" stroke-linecap="round" stroke-linejoin="round" stroke-width="0.46"/>
        <ellipse cx="447.4" cy="303.9" rx="41.6" ry="24" fill="#ae7eff" stroke="#1c0f30" stroke-linecap="round" stroke-linejoin="round" stroke-width="0.46"/>
      </g>
      <g>
        <path d="M471.8,239.2v27.5a13.9,13.9,0,0,1-2,6.8l-9.5,16.6h-.1l-3.4,6.2h0l-3.8,6.8c-2,3.6-5.4,5.6-7.4,4.2l-7.2-4.8-9.5-5.8a4,4,0,0,1-1.6-1.8,7.6,7.6,0,0,1-.5-2.7V265c0-3.8,2.4-8.5,5.6-11.1a140.8,140.8,0,0,1,17.3-12.2,78.2,78.2,0,0,1,14.5-6.5l2.1-.7a3.6,3.6,0,0,1,2.7-.1l1.1.5h0C471.2,235.7,471.8,237.2,471.8,239.2Z" fill="#dbf301" stroke="#1c0f30" stroke-linecap="round" stroke-linejoin="round" stroke-width="0.46"/>
        <path d="M470.1,234.9l-1.1-.5a3.6,3.6,0,0,0-2.7.1l-2.1.7a78.2,78.2,0,0,0-14.5,6.5,140.8,140.8,0,0,0-17.3,12.2c-3.2,2.6-5.6,7.3-5.6,11.1v27.4a7.6,7.6,0,0,0,.5,2.7l-2.3-1.4c-1.3-.8-2-2.4-2-4.5V261.8a15.2,15.2,0,0,1,5.6-11.1,130.7,130.7,0,0,1,17.3-12.2,86.4,86.4,0,0,1,14.4-6.6l2.1-.6a4.6,4.6,0,0,1,2.8-.2,4.9,4.9,0,0,1,1.8,1.4Z" fill="#914dff" stroke="#1c0f30" stroke-linecap="round" stroke-linejoin="round" stroke-width="0.46"/>
        <path d="M432.1,266.3v21.5a4.1,4.1,0,0,0,1.5,3.6L441,296l5.5,3.8c1.5,1.1,4.1-.4,5.7-3.2l5.5-10.2,7.3-13a11.5,11.5,0,0,0,1.6-5.3V246.5c0-3-1.8-4.5-4.3-3.8a63,63,0,0,0-12.6,5.6,89,89,0,0,0-13.3,9.3,12.4,12.4,0,0,0-4.3,8.7" fill="#e8dafe" stroke="#1c0f30" stroke-linecap="round" stroke-linejoin="round" stroke-width="0.46"/>
        <g>
          <path d="M454.8,260v3.7l-1.8.6-1.1.7v-2c0-1.6-1.1-2.3-2.6-1.5a6.1,6.1,0,0,0-2.6,4.5v1.9l-1.1.7a7.3,7.3,0,0,0-1.8,1.4v-3.8a9.9,9.9,0,0,1,4.6-7.8l1.8-1.1C452.8,255.9,454.8,257.1,454.8,260Z" fill="#914dff" stroke="#1c0f30" stroke-linecap="round" stroke-linejoin="round" stroke-width="0.46"/>
          <path d="M454.8,263.7l-1.8.6-7.4,4.3a7.3,7.3,0,0,0-1.8,1.4,11.2,11.2,0,0,0-3.3,7.3v4.6c0,3.2,2.3,4.5,5.1,2.9l7.4-4.3a10.9,10.9,0,0,0,5.1-8.7v-4.5C458.1,264.7,456.8,263.4,454.8,263.7Zm-4.5,10.5v2.9a1.1,1.1,0,0,1-.6,1l-.8.5c-.3.2-.6,0-.6-.4v-2.8c-.8,0-1.4-.8-1.3-2a5.1,5.1,0,0,1,2.1-3.4c1.3-1,2.5-.4,2.5,1.1A4.6,4.6,0,0,1,450.3,274.2Z" fill="#914dff" stroke="#1c0f30" stroke-linecap="round" stroke-linejoin="round" stroke-width="0.46"/>
          <path d="M449.1,270a5.1,5.1,0,0,0-2.1,3.4c-.1,1.2.5,2,1.3,2v2.8c0,.4.3.6.6.4l.8-.5a1.1,1.1,0,0,0,.6-1v-2.9a4.6,4.6,0,0,0,1.3-3.1C451.6,269.6,450.4,269,449.1,270Z" fill="#dbf301" stroke="#1c0f30" stroke-linecap="round" stroke-linejoin="round" stroke-width="0.46"/>
        </g>
      </g>
    </g>
    <path d="M211.3,265.4a7.2,7.2,0,0,0-2.2-2.6l-75.8-43.7a1.7,1.7,0,0,0-1.6-.3l-.6.3h0l-16.4,9.6h0c-.8.2-1.3,1.1-1.3,2.5v60.7a7.4,7.4,0,0,0,1.5,4.2,4.7,4.7,0,0,0,1.4,1.4l75.8,43.7q1.3.8,2.1,0h.1l16.6-9.7h.2a2.6,2.6,0,0,0,.9-2.3V268.5A8.7,8.7,0,0,0,211.3,265.4Z" fill="#1c0f30" stroke="#1c0f30" stroke-linecap="round" stroke-linejoin="round" stroke-width="0.46"/>
    <g>
      <path d="M194.2,266.9a7.3,7.3,0,0,1,.9,3.2v60.6a2.8,2.8,0,0,1-.8,2.2h-.1q-.7.8-2.1,0l-75.8-43.7a4.7,4.7,0,0,1-1.4-1.4,7.5,7.5,0,0,1-1.5-4.3V222.9c0-1.4.5-2.3,1.3-2.5h0a1.6,1.6,0,0,1,1.6.3l14,8.1,61.8,35.6A5.3,5.3,0,0,1,194.2,266.9Z" fill="#ae7eff" stroke="#1c0f30" stroke-linecap="round" stroke-linejoin="round" stroke-width="0.46"/>
      <path d="M212,260.1v60.7a2.6,2.6,0,0,1-.9,2.3h-.2l-16.6,9.7a2.8,2.8,0,0,0,.8-2.2V270.1a7.3,7.3,0,0,0-.9-3.2l17.1-9.8h0A8.2,8.2,0,0,1,212,260.1Z" fill="#904dff" stroke="#1c0f30" stroke-linecap="round" stroke-linejoin="round" stroke-width="0.46"/>
      <path d="M211.3,257.1l-17.1,9.8a5.3,5.3,0,0,0-2.1-2.5l-61.8-35.6-14-8.1a1.6,1.6,0,0,0-1.6-.3l16.4-9.6h0l.6-.3a1.7,1.7,0,0,1,1.6.3l75.8,43.7a7.2,7.2,0,0,1,2.2,2.6Z" fill="#ae7eff" stroke="#1c0f30" stroke-linecap="round" stroke-linejoin="round" stroke-width="0.46"/>
      <path d="M189.7,258.7a2.9,2.9,0,0,1-2.9-2.9V233.1c0-7.9-5-17.5-10.9-21l-31.8-18.3c-1.2-.7-3.5-1.7-5.3-.7s-2.7,3.8-2.7,7.3v22.8a2.9,2.9,0,0,1-5.8,0V200.4c0-5.7,2-10.2,5.6-12.3s7.2-1.6,11.1.7l31.8,18.3c7.7,4.5,13.8,15.9,13.8,26v22.7A2.9,2.9,0,0,1,189.7,258.7Z" fill="#1c0f30" stroke="#1c0f30" stroke-linecap="round" stroke-linejoin="round" stroke-width="0.46"/>
      <g>
        <path d="M149,257.3c-10.2-5.9-18.5-1.1-18.5,10.7s8.3,26.1,18.5,32,18.5,1.1,18.5-10.7S159.2,263.2,149,257.3Z" fill="#dbf301" stroke="#1c0f30" stroke-linecap="round" stroke-linejoin="round" stroke-width="0.46"/>
        <path d="M149,260c-8.9-5.2-16.2-1-16.2,9.3s7.3,22.9,16.2,28.1,16.2,1,16.2-9.4S158,265.1,149,260Z" fill="#dbf301" stroke="#1c0f30" stroke-linecap="round" stroke-linejoin="round" stroke-width="0.46"/>
        <path d="M154.2,275.9c0,2.6-1.4,4-3.4,3.7v10.5c0,1.1-.8,1.6-1.8,1a3.9,3.9,0,0,1-1.7-3V277.6a11.9,11.9,0,0,1-3.5-7.7c0-3.3,2.4-4.6,5.2-3A11.5,11.5,0,0,1,154.2,275.9Z" fill="#1c0f30" stroke="#1c0f30" stroke-linecap="round" stroke-linejoin="round" stroke-width="0.46"/>
      </g>
    </g>
  </g>
</svg>
