<svg xmlns="http://www.w3.org/2000/svg" viewBox="0 0 626 382">
  <title>Artboard 1</title>
  <rect width="626" height="382" fill="#ae7eff"/>
  <g>
    <g>
      <polygon points="626 341.3 626 382 320.3 382 262 299.3 533 307.9 626 341.3" fill="#1c0f30"/>
      <g>
        <path d="M391.1,361.2l7.9-20.3,9.2-5.8,40.3-103.9L408,207.3a6,6,0,0,0-4.3.2L262.9,288.6a2,2,0,0,0,0,3.4l127.2,74.9A13.6,13.6,0,0,1,391.1,361.2Z" fill="#fff" stroke="#1c0f30" stroke-linecap="round" stroke-linejoin="round" stroke-width="0.48"/>
        <g>
          <path d="M421.8,303.6l-78.4-45.3a11.4,11.4,0,0,0-10.5,0l-9.5,5.5-8.9,5.1-26,15c-2.9,1.7-2.9,4.4,0,6.1L367,335.3a11.4,11.4,0,0,0,10.5,0l26-15,8.9-5.1,9.4-5.5C424.8,308,424.8,305.3,421.8,303.6Z" fill="#e7d9fd" stroke="#1c0f30" stroke-linecap="round" stroke-linejoin="round" stroke-width="0.48"/>
          <polygon points="412.4 315.2 403.5 320.3 314.5 268.9 323.4 263.8 412.4 315.2" fill="#1c0f30" stroke="#1c0f30" stroke-linecap="round" stroke-linejoin="round" stroke-width="0.48"/>
          <path d="M309.9,287.5c-.7.3-.4.9-.2,1.3s.3.6.1.7a1.3,1.3,0,0,1-1.2-.2,1.6,1.6,0,0,1-.9-.9l-1.3.5a4.8,4.8,0,0,0,1.1.9,3.8,3.8,0,0,0,3.7.3c1.2-.7-.4-1.7.1-2a1.4,1.4,0,0,1,.9,0,2.9,2.9,0,0,1,1,.8l1.2-.4a3.6,3.6,0,0,0-.9-.8,3.9,3.9,0,0,0-3.6-.2Zm6.6,2.1a1.1,1.1,0,0,0-.8-.1l-6.1,1.4,1.3.8.9-.3,1.5.9-.5.5,1.1.6,3.6-3.2-1-.6Zm-1,.8-1.4,1.2-1-.5,2.4-.7Zm-5.7-4.7-5.6,2.1,1.2.7,5.6-2.1-1.2-.7Zm-1.7-1-4.4,1.1,2.2-1.8c.2-.2.2-.4-.1-.6l-2.1-1.2h-.1l.8.9a.4.4,0,0,1-.2.4l-2.7,2.7,1.3.7,6.5-1.6-1.2-.7Z" fill="#232058"/>
        </g>
        <g>
          <g>
            <path d="M489.6,266.3,411.1,221a12.1,12.1,0,0,0-10.5,0l-9.5,5.5-8.9,5.1-25.9,15c-2.9,1.7-2.9,4.4,0,6.1L434.7,298a11.4,11.4,0,0,0,10.5,0l26-15,8.9-5.1,9.5-5.5C492.5,270.7,492.5,268,489.6,266.3Z" fill="#e7d9fd" stroke="#1c0f30" stroke-linecap="round" stroke-linejoin="round" stroke-width="0.48"/>
            <polygon points="480.1 277.9 471.2 283 382.2 231.6 391.1 226.5 480.1 277.9" fill="#1c0f30" stroke="#1c0f30" stroke-linecap="round" stroke-linejoin="round" stroke-width="0.48"/>
          </g>
          <g>
            <path d="M366.6,250.7h.8a.2.2,0,0,1,0,.4h0a.8.8,0,0,1-.8.1h0c-.2-.2-.2-.3,0-.5Zm1,.6.6-.4h-.4c.1-.1,0-.3-.2-.4a1.7,1.7,0,0,0-1.2,0h0c-.4.1-.4.5-.1.7h.7Zm9,5.2a.8.8,0,0,1,.8,0h0a.2.2,0,0,1,0,.4h0a1.1,1.1,0,0,1-.8,0h0a.2.2,0,0,1,0-.4Zm1,.6,1.1-.7h-.3l-.6.3c0-.1,0-.2-.2-.3a1.3,1.3,0,0,0-1.2,0h-.1a.4.4,0,0,0,0,.7h.7Zm-6.3-4.1q.3.1,0,.3l-.6-.4Zm.3-.2a1.3,1.3,0,0,0-1.2,0h-.1c-.3.1-.4.4-.1.6h.1l.7.2v-.2h-.4c-.2-.1-.3-.3-.1-.4l.9.5h.1c.4-.1.4-.4.1-.6Zm2.5,2.3a.8.8,0,0,1,.8-.1h0c.2.2.2.4,0,.5h-.8a.2.2,0,0,1,0-.4Zm1,.5.6-.3-.2-.2h-.2c.1-.1,0-.2-.2-.3a1.3,1.3,0,0,0-1.2,0h0c-.4.2-.4.5-.1.7h0a.7.7,0,0,0,.6.1h-.1l.2.2Zm-2.5-1.4a.4.4,0,0,0,0,.7h.1l.5.2v-.2h-.4a.2.2,0,0,1,0-.4h0a.6.6,0,0,1,.7-.1h.1l.2.3h.3q0-.1-.3-.3a1.3,1.3,0,0,0-1.2,0Zm4.1,1.6h-.6l-1.2.7h.2l.7-.4h.9Zm-7.2-4a.8.8,0,0,0-.4-.4,1,1,0,0,0-.9-.1c-.2.1-.2.3,0,.5h.2c.1.1.1.1,0,.2H368l-.3-.3h-.3l.4.4a1,1,0,0,0,.9.1.2.2,0,0,0,0-.4h-.1c-.1-.1-.2-.2-.1-.2h.4c.1.1.2.2.2.3Zm3.5,1.9h-.3l-.3-.2-1.2.8h.2l.7-.4a.6.6,0,0,1,.6,0h.3Zm-2.3-1.3-.4-.3.4-.2h-.3l-.4.2-.2-.2-.3.2h.3l-.6.3c-.3.2-.3.4,0,.5l.4.2.2-.2h-.3c-.2-.1-.1-.1,0-.2l.5-.3.5.2Zm-5.2-1.6.8-.5c.3-.1.3-.3.1-.5h-.1a.8.8,0,0,0-.7-.1c.1-.2,0-.3-.1-.4h-.7l-1.2.7h.2l.7-.4h.7c.1.1.1.2-.1.3l-.7.4.3.2.7-.4h.6c.2.1.1.2-.1.3l-.6.4Z" fill="#221f1f"/>
            <polygon points="375.6 252.8 371.6 250.5 378.8 246.3 382.8 248.6 375.6 252.8" fill="#e7d9fd"/>
            <path d="M375.4,248.5a10.3,10.3,0,0,1,5.4-1.1,3.4,3.4,0,0,0-1.8-2.2,10.8,10.8,0,0,0-9.3,0c-2.5,1.5-2.5,3.9,0,5.3a9.4,9.4,0,0,0,3.9,1.1c-.3-1.1.4-2.3,1.8-3.1Z" fill="#904dff"/>
            <path d="M384.6,253.8a10,10,0,0,1-9.2,0,3.2,3.2,0,0,1-1.8-2.2,8.8,8.8,0,0,0,5.4-1.1c1.4-.8,2.1-1.9,1.8-3.1a9.4,9.4,0,0,1,3.9,1.1c2.5,1.5,2.5,3.9,0,5.3Z" fill="#ae7eff"/>
          </g>
        </g>
        <g>
          <polygon points="356.2 262.7 456.3 320.5 393.7 356.6 293.6 298.8 356.2 262.7" fill="#1c0f30" stroke="#1c0f30" stroke-linecap="round" stroke-linejoin="round" stroke-width="0.48"/>
          <polygon points="357.2 263.2 457.3 321 394.7 357.1 294.6 299.3 357.2 263.2" fill="#904dff" stroke="#1c0f30" stroke-linecap="round" stroke-linejoin="round" stroke-width="0.48"/>
          <polygon points="363.6 266.9 457.3 321 394.7 357.1 301.1 303.1 363.6 266.9" fill="#e7d9fd" stroke="#1c0f30" stroke-linecap="round" stroke-linejoin="round" stroke-width="0.48"/>
          <g>
            <polyline points="395.5 351.6 393.6 352.7 391.7 351.6" fill="none" stroke="#904dff" stroke-linecap="round" stroke-linejoin="round" stroke-width="0.45"/>
            <line x1="387.8" y1="349.4" x2="312.6" y2="305.9" fill="none" stroke-dasharray="4.46 4.46" stroke-linecap="round" stroke-linejoin="round" stroke-width="0.45" stroke="#904dff"/>
            <polyline points="310.6 304.8 308.7 303.7 310.6 302.6" fill="none" stroke="#904dff" stroke-linecap="round" stroke-linejoin="round" stroke-width="0.45"/>
            <line x1="314.6" y1="300.3" x2="360.9" y2="273.6" fill="none" stroke-dasharray="4.64 4.64" stroke-linecap="round" stroke-linejoin="round" stroke-width="0.45" stroke="#904dff"/>
            <polyline points="362.9 272.5 364.8 271.4 366.7 272.5" fill="none" stroke="#904dff" stroke-linecap="round" stroke-linejoin="round" stroke-width="0.45"/>
            <line x1="370.5" y1="274.7" x2="445.8" y2="318.2" fill="none" stroke-dasharray="4.46 4.46" stroke-linecap="round" stroke-linejoin="round" stroke-width="0.45" stroke="#904dff"/>
            <polyline points="447.7 319.3 449.6 320.4 447.7 321.5" fill="none" stroke="#904dff" stroke-linecap="round" stroke-linejoin="round" stroke-width="0.45"/>
            <line x1="443.7" y1="323.8" x2="397.5" y2="350.5" fill="none" stroke-dasharray="4.64 4.64" stroke-linecap="round" stroke-linejoin="round" stroke-width="0.45" stroke="#904dff"/>
          </g>
        </g>
        <g>
          <polygon points="423.4 223.7 523.5 281.5 460.9 317.7 360.8 259.8 423.4 223.7" fill="#1c0f30" stroke="#1c0f30" stroke-linecap="round" stroke-linejoin="round" stroke-width="0.48"/>
          <polygon points="424.5 224.3 524.6 282.1 462.1 318.3 361.9 260.4 424.5 224.3" fill="#904dff" stroke="#1c0f30" stroke-linecap="round" stroke-linejoin="round" stroke-width="0.48"/>
          <polygon points="431 228.1 524.6 282.1 462.1 318.3 368.4 264.2 431 228.1" fill="#e7d9fd" stroke="#1c0f30" stroke-linecap="round" stroke-linejoin="round" stroke-width="0.48"/>
          <g>
            <polyline points="462.8 312.7 460.9 313.8 459 312.7" fill="none" stroke="#904dff" stroke-linecap="round" stroke-linejoin="round" stroke-width="0.45"/>
            <line x1="455.2" y1="310.5" x2="379.9" y2="267.1" fill="none" stroke-dasharray="4.46 4.46" stroke-linecap="round" stroke-linejoin="round" stroke-width="0.45" stroke="#904dff"/>
            <polyline points="378 265.9 376.1 264.8 378 263.8" fill="none" stroke="#904dff" stroke-linecap="round" stroke-linejoin="round" stroke-width="0.45"/>
            <line x1="382" y1="261.4" x2="428.2" y2="234.7" fill="none" stroke-dasharray="4.64 4.64" stroke-linecap="round" stroke-linejoin="round" stroke-width="0.45" stroke="#904dff"/>
            <polyline points="430.2 233.6 432.1 232.5 434 233.6" fill="none" stroke="#904dff" stroke-linecap="round" stroke-linejoin="round" stroke-width="0.45"/>
            <line x1="437.9" y1="235.8" x2="513.2" y2="279.3" fill="none" stroke-dasharray="4.46 4.46" stroke-linecap="round" stroke-linejoin="round" stroke-width="0.45" stroke="#904dff"/>
            <polyline points="515.1 280.4 517 281.5 515.1 282.6" fill="none" stroke="#904dff" stroke-linecap="round" stroke-linejoin="round" stroke-width="0.45"/>
            <line x1="511.1" y1="284.9" x2="464.8" y2="311.6" fill="none" stroke-dasharray="4.64 4.64" stroke-linecap="round" stroke-linejoin="round" stroke-width="0.45" stroke="#904dff"/>
          </g>
        </g>
        <path d="M587.8,148.5a4.3,4.3,0,0,0-.1-.5h0v-.2a1.3,1.3,0,0,0-.7-.9l-6.5-4.7-.5-.4h-.7a4,4,0,0,0-2,.7l-115,66.3c-3.6,2.1-8.1,8.1-10.2,13.4l-3.5,9.1L408.2,335.1l-9.2,5.8-7.9,20.3a10.7,10.7,0,0,0-.9,5h0a1.6,1.6,0,0,0,.9,1.4l12.1,6.6a1.6,1.6,0,0,0,2.1.9l1.5-.6,114.9-66.4c3.6-2,8.2-8,10.2-13.3l54.9-141.5a12.3,12.3,0,0,0,.8-2.6h0c.1-.2.1-.5.2-.7v-1.4Z" fill="#fff" stroke="#1c0f30" stroke-linecap="round" stroke-linejoin="round" stroke-width="0.48"/>
        <g>
          <path d="M594.4,152.6c-.1-.8-.4-1.3-.9-1.4h.1l-6.2-3.8-.2-.2h-1.6l-.6.2h-.1l-.8.4-.4.3L546.9,169a4,4,0,0,1-3-2.9c-3-10.7-5.9-14.3-10-20a22.2,22.2,0,0,0-25-7.9l-.7.3a12.1,12.1,0,0,0-5.2,19.3c3.7,4.3,7.3,8.8,8.7,11.9,2.8,5.7,4,13.7-1.6,20.5l-40.9,23.7c-3.6,2-8.1,8-10.2,13.3l-3.2,8.3h.1L404.2,368.7a1.4,1.4,0,0,0-.2.6l-.3.8c-.1.2-.1.5-.2.8a6.8,6.8,0,0,0-.2,1.4,2.2,2.2,0,0,0-.1.8v.7h.1a11.2,11.2,0,0,1-2.6-.8c-2.9-1.5-5.6-3.3-8.4-5l-11.5-6.7-62.6-36.9-29-17.1c-6.3-3.7-12.6-7.3-18.6-11.3l-8.7-5.8v6.3c0,1.7-.3,3.5,1.4,4.6l10,5.8,9.2,5.4,22.1,12.9,28.8,16.8,28.8,16.8,22.6,13.2,10,5.8c4.6,2.7,9.3,5.7,14.7,3.1,3.3-1.7,111.1-64.3,116.7-67.6s10-8.6,12.5-15c1.5-4,3.1-8.1,4.7-12.2l9.5-24.5c4-10.3,8-20.7,12.1-31.1s8.1-20.9,12.1-31.4c3.4-8.6,6.8-17.3,10.1-25.9l5.7-14.6C593.6,156.8,594.6,154.7,594.4,152.6Z" fill="#dbf301" stroke="#1c0f30" stroke-linecap="round" stroke-linejoin="round" stroke-width="0.48"/>
          <path d="M527.7,154.6l-.7.7c-3.1,3-8.7,2.8-13-.6s-6-8.7-3.9-12.5a2.4,2.4,0,0,1,.6-.9c2.8-3.7,9-3.7,13.7-.1S530.6,150.8,527.7,154.6Z" fill="#e7d9fd" stroke="#1c0f30" stroke-linecap="round" stroke-linejoin="round" stroke-width="0.48"/>
          <path d="M527,155.3a3.5,3.5,0,0,1-.6.9c-2.9,3.8-9,3.8-13.7.2s-6.2-9.7-3.4-13.4l.8-.8c-2.1,3.8-.5,9.1,3.9,12.5S523.9,158.3,527,155.3Z" fill="#1c0f30" stroke="#1c0f30" stroke-linecap="round" stroke-linejoin="round" stroke-width="0.48"/>
        </g>
      </g>
    </g>
    <g>
      <path d="M99.9,39.8h-.1c-3.1,4.9-3.2,12.3.3,21,4.6,11.3,14.2,21.9,24.7,28.5l2.6,1.5h0a39.8,39.8,0,0,0,14,4.9c6.3.9,11.3-.5,14.5-3.6h0a15.7,15.7,0,0,0,2-2.5l5.3-6.7c-3.1,4-8.5,5.9-15.7,4.9a40.8,40.8,0,0,1-14-5L131,81.3c-10.6-6.6-20.1-17.2-24.7-28.4-3.6-8.7-3.4-16.1-.3-21l-4.7,6A8.5,8.5,0,0,0,99.9,39.8Z" fill="#904dff" stroke="#1c0f30" stroke-linecap="round" stroke-linejoin="round" stroke-width="0.48"/>
      <path d="M133.5,82.8l-6.2,7.9h.1a39.8,39.8,0,0,0,14,4.9c6.3.9,11.3-.5,14.5-3.6h0a15.7,15.7,0,0,0,2-2.5l5.3-6.7c-3.1,4-8.5,5.9-15.7,4.9A40.8,40.8,0,0,1,133.5,82.8Z" fill="#1c0f30" stroke="#1c0f30" stroke-linecap="round" stroke-linejoin="round" stroke-width="0.48"/>
      <path d="M99.9,39.8h-.1c-3.1,4.9-3.2,12.3.3,21,4.6,11.3,14.2,21.9,24.7,28.5l6.2-8c-10.6-6.6-20.1-17.2-24.7-28.4-3.6-8.7-3.4-16.1-.3-21l-4.7,6A8.5,8.5,0,0,0,99.9,39.8Z" fill="#904dff" stroke="#1c0f30" stroke-linecap="round" stroke-linejoin="round" stroke-width="0.48"/>
      <path d="M106.3,52.9c6.9,17.1,25.4,32.7,41.2,34.9s23.1-9.9,16.1-27-25.4-32.7-41.2-34.9S99.3,35.8,106.3,52.9Z" fill="#fff" stroke="#1c0f30" stroke-linecap="round" stroke-linejoin="round" stroke-width="0.48"/>
      <ellipse cx="135" cy="56.8" rx="17.5" ry="31" transform="translate(-0.5 112.5) rotate(-45.2)" stroke-width="0.48" stroke="#1c0f30" stroke-linecap="round" stroke-linejoin="round" fill="#dbf301"/>
      <g>
        <path d="M143.7,69.1a2.9,2.9,0,0,1-1.3,0,7.8,7.8,0,0,1-2.6-.4,17.8,17.8,0,0,1-4.7-1.7,26.2,26.2,0,0,1-8.4-6.7,18.6,18.6,0,0,1-2.8-4.3c-1.4-2.9-1.7-5.4-1-7.5s3-3.9,6.3-4a8.4,8.4,0,0,1,3.1.3,23.9,23.9,0,0,1,8.7,3.9,27.1,27.1,0,0,1,6.1,6.1c1,1.4.5,2.5-1,2.3l-2.9-.5a16.7,16.7,0,0,1-7.3-3.2l-4.7-3.7-.6-.4c-.7-.4-1.4-.3-1.5.1a1.6,1.6,0,0,0,.7,1.7,13.5,13.5,0,0,1,3.7,4.3c1.1,2,1.3,3.8.6,5.2l-.3.5c-.5.6.2,1.7,1.2,2.2h.1l2,1.4,6.4,4.3Z" fill="#1c0f30"/>
        <path d="M143.7,69.1l-1.3-.8L139,66l-3.8-2.5c0-.1-.1-.1-.1-.2s1.2.2,1.4-.2l1.9-2.3a5.9,5.9,0,0,1,4.3-1.7l1.9.2,2.6.4a3.9,3.9,0,0,1,2.8,2.2,2.2,2.2,0,0,1,.1,1.1c-.2,3.7-2.2,5.8-6.3,6.1Z" fill="#1c0f30"/>
      </g>
    </g>
    <g>
      <path d="M350.2,280.1h0c-2.8,3.5-3.5,9.2-1.4,16.2,2.6,8.9,9.1,17.8,16.7,23.7l1.9,1.4h0a34.5,34.5,0,0,0,10.3,4.9c4.8,1.1,8.8.4,11.5-1.7h0a9.8,9.8,0,0,0,1.7-1.8l4.6-4.7c-2.7,2.8-7,3.9-12.4,2.6a32,32,0,0,1-10.4-5l-1.8-1.3c-7.6-5.9-14.1-14.8-16.8-23.8-2-6.9-1.3-12.6,1.4-16.1l-4,4.3A8,8,0,0,0,350.2,280.1Z" fill="#904dff" stroke="#1c0f30" stroke-linecap="round" stroke-linejoin="round" stroke-width="0.48"/>
      <path d="M372.7,315.7l-5.4,5.6h.1a34.5,34.5,0,0,0,10.3,4.9c4.8,1.1,8.8.4,11.5-1.7h0a9.8,9.8,0,0,0,1.7-1.8l4.6-4.7c-2.7,2.8-7,3.9-12.4,2.6A32,32,0,0,1,372.7,315.7Z" fill="#1c0f30" stroke="#1c0f30" stroke-linecap="round" stroke-linejoin="round" stroke-width="0.48"/>
      <path d="M350.2,280.1h0c-2.8,3.5-3.5,9.2-1.4,16.2,2.6,8.9,9.1,17.8,16.7,23.7l5.4-5.6c-7.6-5.9-14.1-14.8-16.8-23.8-2-6.9-1.3-12.6,1.4-16.1l-4,4.3A8,8,0,0,0,350.2,280.1Z" fill="#904dff" stroke="#1c0f30" stroke-linecap="round" stroke-linejoin="round" stroke-width="0.48"/>
      <path d="M354.1,290.6c4,13.7,17,27.1,29,30.1s18.4-5.9,14.4-19.5-16.9-27.1-28.9-30S350.1,277,354.1,290.6Z" fill="#904dff" stroke="#1c0f30" stroke-linecap="round" stroke-linejoin="round" stroke-width="0.48"/>
      <ellipse cx="375.8" cy="295.9" rx="13.5" ry="23.9" transform="translate(-102.4 305.7) rotate(-39.4)" stroke-width="0.48" stroke="#1c0f30" stroke-linecap="round" stroke-linejoin="round" fill="#dbf301"/>
      <path d="M385.2,312.3a8.2,8.2,0,0,1-2.6-.4c-8.2-2-17.6-11.8-20.4-21.4-1.2-3.9-1-7.4.4-9.3a4.5,4.5,0,0,1,3.9-1.7,13.8,13.8,0,0,1,2.6.4c8.2,2,17.6,11.8,20.4,21.4,1.1,4,1,7.5-.4,9.3a4.5,4.5,0,0,1-3.9,1.7Z" fill="#fff" stroke="#1c0f30" stroke-linecap="round" stroke-linejoin="round" stroke-width="0.48"/>
    </g>
    <g>
      <path d="M254.4,206.2h0c-2.8,3.5-3.5,9.2-1.4,16.1,2.6,9,9.1,17.9,16.7,23.8l1.9,1.4h0a34.5,34.5,0,0,0,10.3,4.9c4.8,1.1,8.7.4,11.5-1.7h0a14.5,14.5,0,0,0,1.7-1.8l4.6-4.7c-2.7,2.8-7,3.8-12.4,2.5a29.8,29.8,0,0,1-10.4-4.9l-1.8-1.3c-7.6-5.9-14.1-14.8-16.8-23.8-2-6.9-1.3-12.6,1.4-16.1l-4.1,4.2Z" fill="#904dff" stroke="#1c0f30" stroke-linecap="round" stroke-linejoin="round" stroke-width="0.48"/>
      <path d="M276.9,241.9l-5.4,5.6h.1a34.5,34.5,0,0,0,10.3,4.9c4.8,1.1,8.7.4,11.5-1.7h0a14.5,14.5,0,0,0,1.7-1.8l4.6-4.7c-2.7,2.8-7,3.8-12.4,2.5A29.8,29.8,0,0,1,276.9,241.9Z" fill="#1c0f30" stroke="#1c0f30" stroke-linecap="round" stroke-linejoin="round" stroke-width="0.48"/>
      <path d="M254.4,206.2h0c-2.8,3.5-3.5,9.2-1.4,16.1,2.6,9,9.1,17.9,16.7,23.8l5.4-5.6c-7.6-5.9-14.1-14.8-16.8-23.8-2-6.9-1.3-12.6,1.4-16.1l-4.1,4.2Z" fill="#904dff" stroke="#1c0f30" stroke-linecap="round" stroke-linejoin="round" stroke-width="0.48"/>
      <path d="M258.3,216.8c4,13.7,17,27.1,29,30s18.4-5.8,14.4-19.4-17-27.2-28.9-30.1S254.3,203.2,258.3,216.8Z" fill="#904dff" stroke="#1c0f30" stroke-linecap="round" stroke-linejoin="round" stroke-width="0.48"/>
      <ellipse cx="280" cy="222.1" rx="13.5" ry="23.9" transform="translate(-77.3 228.2) rotate(-39.4)" stroke-width="0.48" stroke="#1c0f30" stroke-linecap="round" stroke-linejoin="round" fill="#dbf301"/>
    </g>
    <g>
      <path d="M273.1,221.6l.5-1.4,4.3,4.3,1-2.7,2,2-1,2.7,4.4,4.3-.5,1.3-4.4-4.3-.9,2.7-2-2,.9-2.7Z"/>
      <path d="M276.3,212.2l.5-1.3,4.3,4.2,1-2.7,2,2-1,2.7,4.3,4.3-.4,1.4-4.4-4.3-.9,2.7-2.1-2,1-2.7Z"/>
    </g>
    <g>
      <path d="M215,131.9h0c-2.8,3.5-3.5,9.2-1.4,16.2,2.6,9,9.1,17.9,16.7,23.7a13.3,13.3,0,0,0,1.9,1.4h0a30.2,30.2,0,0,0,10.3,4.9c4.8,1.2,8.7.5,11.5-1.7h0a13.7,13.7,0,0,0,1.7-1.7l4.6-4.8c-2.7,2.9-7,3.9-12.4,2.6a31.7,31.7,0,0,1-10.4-4.9l-1.8-1.4c-7.6-5.8-14.1-14.7-16.8-23.7-2-7-1.3-12.7,1.4-16.2l-4.1,4.3Z" fill="#904dff" stroke="#1c0f30" stroke-linecap="round" stroke-linejoin="round" stroke-width="0.48"/>
      <path d="M237.5,167.6l-5.4,5.5h.1a30.2,30.2,0,0,0,10.3,4.9c4.8,1.2,8.7.5,11.5-1.7h0a13.7,13.7,0,0,0,1.7-1.7l4.6-4.8c-2.7,2.9-7,3.9-12.4,2.6A31.7,31.7,0,0,1,237.5,167.6Z" fill="#1c0f30" stroke="#1c0f30" stroke-linecap="round" stroke-linejoin="round" stroke-width="0.48"/>
      <path d="M215,131.9h0c-2.8,3.5-3.5,9.2-1.4,16.2,2.6,9,9.1,17.9,16.7,23.7l5.4-5.6c-7.6-5.8-14.1-14.7-16.8-23.7-2-7-1.3-12.7,1.4-16.2l-4.1,4.3Z" fill="#904dff" stroke="#1c0f30" stroke-linecap="round" stroke-linejoin="round" stroke-width="0.48"/>
      <path d="M218.9,142.5c4,13.6,17,27.1,29,30s18.4-5.8,14.4-19.5-17-27.1-28.9-30S214.9,128.8,218.9,142.5Z" fill="#904dff" stroke="#1c0f30" stroke-linecap="round" stroke-linejoin="round" stroke-width="0.48"/>
      <ellipse cx="240.6" cy="147.7" rx="13.5" ry="23.9" transform="translate(-39.1 186.3) rotate(-39.4)" stroke-width="0.48" stroke="#1c0f30" stroke-linecap="round" stroke-linejoin="round" fill="#904dff"/>
    </g>
    <g>
      <path d="M435.2,156.9h.1c5.3,2.2,9.8,8.2,11.9,17.3,2.8,11.8,1.2,26-3.6,37.5l-1.2,2.7h0a42.4,42.4,0,0,1-8.6,12.1c-4.6,4.4-9.5,6.1-13.9,5.4h-.1a17.1,17.1,0,0,1-3-.9l-8.2-2.4c4.8,1.5,10.3-.1,15.6-5a45,45,0,0,0,8.6-12.2c.4-.9.8-1.8,1.1-2.7,4.8-11.5,6.5-25.7,3.7-37.5-2.2-9.1-6.6-15.1-11.9-17.3l7.3,2.2Z" fill="#904dff" stroke="#1c0f30" stroke-linecap="round" stroke-linejoin="round" stroke-width="0.48"/>
      <path d="M432.8,211.5l9.5,2.8h.1a42.4,42.4,0,0,1-8.6,12.1c-4.6,4.4-9.5,6.1-13.9,5.4h-.1a17.1,17.1,0,0,1-3-.9l-8.2-2.4c4.8,1.5,10.3-.1,15.6-5A45,45,0,0,0,432.8,211.5Z" fill="#1c0f30" stroke="#1c0f30" stroke-linecap="round" stroke-linejoin="round" stroke-width="0.48"/>
      <path d="M435.2,156.9h.1c5.3,2.2,9.8,8.2,11.9,17.3,2.8,11.8,1.2,26-3.6,37.5l-9.7-2.9c4.8-11.5,6.5-25.7,3.7-37.5-2.2-9.1-6.6-15.1-11.9-17.3l7.3,2.2Z" fill="#904dff" stroke="#1c0f30" stroke-linecap="round" stroke-linejoin="round" stroke-width="0.48"/>
      <path d="M437.6,171.3c4.2,18-1.8,41.4-13.4,52.4s-24.5,5.2-28.8-12.7,1.8-41.4,13.4-52.4S433.4,153.4,437.6,171.3Z" fill="#904dff" stroke="#1c0f30" stroke-linecap="round" stroke-linejoin="round" stroke-width="0.48"/>
      <ellipse cx="416.5" cy="191.2" rx="31" ry="17.5" transform="translate(157.4 569.1) rotate(-80.2)" stroke-width="0.48" stroke="#1c0f30" stroke-linecap="round" stroke-linejoin="round" fill="#dbf301"/>
      <path d="M413,217.8c-4.2,0-7.9-4.4-9.6-11.6-3-13,1.4-30.5,9.7-38.3,2.3-2.2,4.8-3.4,7-3.4,4.1,0,7.8,4.4,9.5,11.6,3,13-1.4,30.5-9.7,38.3C417.6,216.7,415.2,217.8,413,217.8Z" fill="#fff" stroke="#1c0f30" stroke-linecap="round" stroke-linejoin="round" stroke-width="0.48"/>
    </g>
    <g>
      <path d="M387.5,123h0c-1.5,5.2-6.6,9.9-14.9,12.8-10.7,3.8-24,3.7-35.1.4l-2.7-.9h0a36.2,36.2,0,0,1-12.1-6.7c-4.6-3.9-6.7-8.2-6.5-12.4h0a25,25,0,0,1,.5-2.9l1.4-7.9c-.8,4.6,1.2,9.6,6.3,14a39.7,39.7,0,0,0,12.2,6.7l2.6.8c11.1,3.3,24.5,3.4,35.1-.3,8.3-2.9,13.4-7.6,14.9-12.8l-1.3,7A15.5,15.5,0,0,1,387.5,123Z" fill="#904dff" stroke="#1c0f30" stroke-linecap="round" stroke-linejoin="round" stroke-width="0.48"/>
      <path d="M336.6,126.2l-1.7,9.2h-.1a36.2,36.2,0,0,1-12.1-6.7c-4.6-3.9-6.7-8.2-6.5-12.4h0a25,25,0,0,1,.5-2.9l1.4-7.9c-.8,4.6,1.2,9.6,6.3,14A39.7,39.7,0,0,0,336.6,126.2Z" fill="#904dff" stroke="#1c0f30" stroke-linecap="round" stroke-linejoin="round" stroke-width="0.48"/>
      <path d="M387.5,123h0c-1.5,5.2-6.6,9.9-14.9,12.8-10.7,3.8-24,3.7-35.1.4l1.7-9.3c11.1,3.3,24.5,3.4,35.1-.3,8.3-2.9,13.4-7.6,14.9-12.8l-1.3,7A15.5,15.5,0,0,1,387.5,123Z" fill="#1c0f30" stroke="#1c0f30" stroke-linecap="round" stroke-linejoin="round" stroke-width="0.48"/>
      <path d="M374.3,126.7c-16.2,5.7-38.6,2.5-49.9-7.2s-7.3-22.3,8.9-28,38.6-2.5,49.9,7.2S390.6,120.9,374.3,126.7Z" fill="#e7d9fd" stroke="#1c0f30" stroke-linecap="round" stroke-linejoin="round" stroke-width="0.48"/>
      <ellipse cx="353.8" cy="109.1" rx="16.4" ry="28.9" transform="translate(222.6 455.3) rotate(-86.4)" stroke-width="0.48" stroke="#1c0f30" stroke-linecap="round" stroke-linejoin="round" fill="#dbf301"/>
      <g>
        <path d="M366,115.5l-1.2.7a13.3,13.3,0,0,1-2.4,1,18.5,18.5,0,0,1-4.9.9,25.9,25.9,0,0,1-10.7-1.4,18.8,18.8,0,0,1-4.5-2.2c-2.7-1.7-4.4-3.7-4.8-6s.6-4.8,3.3-6.6l2.8-1.4a24.2,24.2,0,0,1,9.5-1.1,28.8,28.8,0,0,1,8.4,2.1c1.5.7,1.7,1.9.3,2.4l-2.7,1.2a18.6,18.6,0,0,1-8,1l-5.9-.8h-.8c-.7.1-1.2.4-1.2.9s.8.9,1.6,1a14.4,14.4,0,0,1,5.3,1.8c2,1.2,3.1,2.6,3.3,4.1a1.3,1.3,0,0,1-.1.6c-.1.8,1.2,1.4,2.2,1.3H358l7.7.3Z" fill="#1c0f30"/>
        <path d="M366,115.5h-1.6l-4.1-.2-4.5-.2h-.2c.7-.2,1.1-.5,1.1-.9s.3-2,.4-3a5.7,5.7,0,0,1,2.8-3.6,5.1,5.1,0,0,1,1.8-.9l2.4-1a4.3,4.3,0,0,1,3.5.4,2.8,2.8,0,0,1,.7.9c1.8,3.3,1,6.1-2.2,8.5Z" fill="#1c0f30"/>
      </g>
    </g>
    <g>
      <path d="M223.7,150.1h0c2.8,3.7,3.5,9.5,1.3,16.7-2.9,9.2-9.7,18.2-17.6,24.2l-1.9,1.4h0a34.1,34.1,0,0,1-10.7,4.9c-5,1.1-9,.3-11.8-1.9h0a15.4,15.4,0,0,1-1.7-1.9l-4.7-4.9c2.8,2.9,7.1,4.1,12.7,2.8a31.5,31.5,0,0,0,10.8-4.9l1.9-1.4c7.9-5.9,14.7-15,17.5-24.2,2.2-7.1,1.6-13-1.2-16.6l4.1,4.4Z" fill="#904dff" stroke="#1c0f30" stroke-linecap="round" stroke-linejoin="round" stroke-width="0.48"/>
      <path d="M200.1,186.5l5.4,5.8h0a34.1,34.1,0,0,1-10.7,4.9c-5,1.1-9,.3-11.8-1.9h0a15.4,15.4,0,0,1-1.7-1.9l-4.7-4.9c2.8,2.9,7.1,4.1,12.7,2.8A31.5,31.5,0,0,0,200.1,186.5Z" fill="#904dff" stroke="#1c0f30" stroke-linecap="round" stroke-linejoin="round" stroke-width="0.48"/>
      <path d="M223.7,150.1h0c2.8,3.7,3.5,9.5,1.3,16.7-2.9,9.2-9.7,18.2-17.6,24.2l-5.4-5.9c7.9-5.9,14.7-15,17.5-24.2,2.2-7.1,1.6-13-1.2-16.6l4.1,4.4Z" fill="#1c0f30" stroke="#1c0f30" stroke-linecap="round" stroke-linejoin="round" stroke-width="0.48"/>
      <path d="M219.5,160.9c-4.3,14-17.8,27.7-30.2,30.5s-18.9-6.2-14.6-20.2,17.9-27.7,30.2-30.5S223.8,146.9,219.5,160.9Z" fill="#904dff" stroke="#1c0f30" stroke-linecap="round" stroke-linejoin="round" stroke-width="0.48"/>
      <ellipse cx="197.1" cy="166" rx="24.6" ry="13.9" transform="translate(-56.9 209.6) rotate(-49.8)" stroke-width="0.48" stroke="#1c0f30" stroke-linecap="round" stroke-linejoin="round" fill="#dbf301"/>
      <g>
        <path d="M207.6,161a2.2,2.2,0,0,1-.1,1.1,9.8,9.8,0,0,1-.5,2.2,13.5,13.5,0,0,1-1.9,3.8,23.3,23.3,0,0,1-6.3,6.6,17.4,17.4,0,0,1-3.8,2c-2.6,1-4.8,1-6.5.2s-3-2.8-2.9-5.6a13.2,13.2,0,0,1,.5-2.6,19.2,19.2,0,0,1,4-7,21,21,0,0,1,5.7-4.7c1.2-.7,2.1-.3,1.8,1a21,21,0,0,1-.6,2.4,15,15,0,0,1-3.3,6l-3.5,3.6-.4.5c-.4.6-.4,1.1,0,1.3a1.4,1.4,0,0,0,1.5-.5,12.8,12.8,0,0,1,3.9-2.8c1.8-.7,3.3-.8,4.5-.1l.4.3c.4.5,1.5,0,1.9-.8h.1a18.3,18.3,0,0,1,1.3-1.6l4.1-5.1Z" fill="#1c0f30"/>
        <path d="M207.6,161l-.8,1-2.2,2.7-2.4,3h-.1c.2-.6.2-1-.1-1.2l-1.8-1.8a4.6,4.6,0,0,1-1.1-3.7,5.1,5.1,0,0,1,.3-1.7c.2-.7.3-1.4.5-2.1a3.5,3.5,0,0,1,2.1-2.2h1c3.1.4,4.7,2.3,4.7,5.8Z" fill="#1c0f30"/>
      </g>
    </g>
    <g>
      <path d="M134.5,137h.1c2.7,3.6,3.4,9.5,1.2,16.6-2.8,9.2-9.7,18.3-17.5,24.2l-2,1.4h0a32,32,0,0,1-10.7,4.9c-5,1.2-9,.4-11.8-1.9h0a9.8,9.8,0,0,1-1.7-1.8l-4.7-4.9c2.8,2.9,7.2,4,12.7,2.8a31.8,31.8,0,0,0,10.8-5l1.9-1.3c7.9-5.9,14.7-15,17.5-24.2,2.2-7.1,1.6-13-1.2-16.6l4.2,4.4Z" fill="#904dff" stroke="#1c0f30" stroke-linecap="round" stroke-linejoin="round" stroke-width="0.48"/>
      <path d="M110.9,173.4l5.4,5.9h0a32,32,0,0,1-10.7,4.9c-5,1.2-9,.4-11.8-1.9h0a9.8,9.8,0,0,1-1.7-1.8l-4.7-4.9c2.8,2.9,7.2,4,12.7,2.8A31.8,31.8,0,0,0,110.9,173.4Z" fill="#904dff" stroke="#1c0f30" stroke-linecap="round" stroke-linejoin="round" stroke-width="0.48"/>
      <path d="M134.5,137h.1c2.7,3.6,3.4,9.5,1.2,16.6-2.8,9.2-9.7,18.3-17.5,24.2l-5.5-5.8c7.9-5.9,14.7-15,17.5-24.2,2.2-7.1,1.6-13-1.2-16.6l4.2,4.4Z" fill="#1c0f30" stroke="#1c0f30" stroke-linecap="round" stroke-linejoin="round" stroke-width="0.48"/>
      <path d="M130.3,147.9c-4.3,14-17.8,27.6-30.2,30.5s-18.9-6.3-14.6-20.3,17.9-27.6,30.2-30.5S134.6,133.9,130.3,147.9Z" fill="#904dff" stroke="#1c0f30" stroke-linecap="round" stroke-linejoin="round" stroke-width="0.48"/>
      <ellipse cx="107.9" cy="153" rx="24.6" ry="13.9" transform="translate(-78.6 136.9) rotate(-49.8)" stroke-width="0.48" stroke="#1c0f30" stroke-linecap="round" stroke-linejoin="round" fill="#dbf301"/>
    </g>
    <g>
      <g>
        <path d="M292.4,26.7h.1c4.5,3.6,7.1,10.5,6.7,19.9-.6,12.1-6.1,25.3-13.8,35L283.5,84h0a41.3,41.3,0,0,1-11.6,9.3c-5.6,2.9-10.8,3.2-14.9,1.4h0L254.3,93l-7.2-4.6c4.3,2.8,10,2.8,16.4-.5a43.6,43.6,0,0,0,11.6-9.4l1.8-2.3c7.8-9.7,13.3-22.9,13.8-35,.5-9.4-2.1-16.3-6.7-19.9l6.5,4.1Z" fill="#904dff" stroke="#1c0f30" stroke-linecap="round" stroke-linejoin="round" stroke-width="0.48"/>
        <path d="M275.1,78.5l8.4,5.4h0a41.3,41.3,0,0,1-11.6,9.3c-5.6,2.9-10.8,3.2-14.9,1.4h0L254.3,93l-7.2-4.6c4.3,2.8,10,2.8,16.4-.5A43.6,43.6,0,0,0,275.1,78.5Z" fill="#1c0f30" stroke="#1c0f30" stroke-linecap="round" stroke-linejoin="round" stroke-width="0.48"/>
        <path d="M292.4,26.7h.1c4.5,3.6,7.1,10.5,6.7,19.9-.6,12.1-6.1,25.3-13.8,35l-8.5-5.4c7.8-9.7,13.3-22.9,13.8-35,.5-9.4-2.1-16.3-6.7-19.9l6.5,4.1Z" fill="#904dff" stroke="#1c0f30" stroke-linecap="round" stroke-linejoin="round" stroke-width="0.48"/>
        <path d="M290.7,41.2c-.8,18.4-13.1,39.3-27.2,46.7s-25-1.7-24.2-20.1,13.1-39.4,27.3-46.7S291.6,22.8,290.7,41.2Z" fill="#fff" stroke="#1c0f30" stroke-linecap="round" stroke-linejoin="round" stroke-width="0.48"/>
        <ellipse cx="265" cy="54.5" rx="31" ry="17.5" transform="translate(101 269.6) rotate(-64.3)" stroke-width="0.48" stroke="#1c0f30" stroke-linecap="round" stroke-linejoin="round" fill="#dbf301"/>
      </g>
      <g>
        <path d="M258.3,52c.8-3,2.6-9.9,2.7-10l-1.7.6L251.6,59l.6,1.6,5.4-11.3-4.2,14.3.5,1.4,11.9-25.2-2.1.7Z" fill="#1c0f30"/>
        <polygon points="271.3 39.6 273.1 44.4 274.9 42.6 272.6 36.7 267.8 38.7 254.7 66.6 255.3 68.7 261.9 54.6 267 56.7 268.3 53.9 263.2 51.8 268.5 40.6 271.3 39.6" fill="#1c0f30"/>
        <polygon points="273.5 45.3 274.4 48 264.8 68.5 267 67.7 275.2 50 276.1 53 277.4 50.3 275.2 43.7 273.5 45.3" fill="#1c0f30"/>
      </g>
    </g>
    <g>
      <g>
        <path d="M212.8,261.7h0c-2.7,4.2-8.4,7-16.5,7.4-10.4.5-22.1-3-31.1-8.8l-2.1-1.5h0a36.6,36.6,0,0,1-9-9c-3-4.7-3.7-9-2.4-12.7h0a10.8,10.8,0,0,1,1.2-2.4l3.3-6.6c-2,3.9-1.5,8.8,1.9,14a33.7,33.7,0,0,0,9,9.1l2,1.4c9,5.8,20.7,9.4,31.1,8.8,8.1-.4,13.8-3.2,16.5-7.4l-3,5.9Z" fill="#904dff" stroke="#1c0f30" stroke-linecap="round" stroke-linejoin="round" stroke-width="0.42"/>
        <path d="M167.1,251.3l-3.9,7.6h-.1a36.6,36.6,0,0,1-9-9c-3-4.7-3.7-9-2.4-12.7h0a10.8,10.8,0,0,1,1.2-2.4l3.3-6.6c-2,3.9-1.5,8.8,1.9,14A33.7,33.7,0,0,0,167.1,251.3Z" fill="#1c0f30" stroke="#1c0f30" stroke-linecap="round" stroke-linejoin="round" stroke-width="0.42"/>
        <path d="M212.8,261.7h0c-2.7,4.2-8.4,7-16.5,7.4-10.4.5-22.1-3-31.1-8.8l3.9-7.7c9,5.8,20.7,9.4,31.1,8.8,8.1-.4,13.8-3.2,16.5-7.4l-3,5.9Z" fill="#904dff" stroke="#1c0f30" stroke-linecap="round" stroke-linejoin="round" stroke-width="0.42"/>
        <path d="M200.2,261.5c-15.8.8-34.7-7.9-42.1-19.3s-.7-21.6,15.1-22.4,34.7,7.9,42.2,19.4S216,260.7,200.2,261.5Z" fill="#e7d9fd" stroke="#1c0f30" stroke-linecap="round" stroke-linejoin="round" stroke-width="0.42"/>
        <ellipse cx="186.7" cy="240.7" rx="15" ry="26.6" transform="translate(-103.4 333.4) rotate(-69.9)" stroke-width="0.42" stroke="#1c0f30" stroke-linecap="round" stroke-linejoin="round" fill="#dbf301"/>
      </g>
      <g>
        <path d="M188.3,234.7l8.7,1.5-.7-1.5-14.6-5.1-1.3.7,10.1,3.6L178,231.5l-1.2.6,22.5,8-.8-1.7Z" fill="#1c0f30"/>
        <polygon points="200 244.8 196 246.8 197.7 248.1 202.5 245.7 200.4 241.7 175.5 232.8 173.8 233.6 186.3 238 185 242.5 187.5 243.4 188.9 238.9 198.8 242.4 200 244.8" fill="#1c0f30"/>
        <polygon points="195.3 247.2 193 248.1 174.7 241.7 175.6 243.4 191.4 249 188.9 250 191.3 250.8 196.8 248.4 195.3 247.2" fill="#1c0f30"/>
      </g>
    </g>
    <g>
      <path d="M115.7,157.6h-.9l2.1-3.1-1.8-.2.9-1.5,1.8.2,2-3.1h.9l-2,3.1,1.7.3-.9,1.4-1.8-.2Z"/>
      <path d="M107.5,153a21.1,21.1,0,0,1,2.8-3.4,3,3,0,0,1,2.3-1c.6,0,.9.5.7,1.4a11.8,11.8,0,0,1-1.8,3.6,18.5,18.5,0,0,1-2.8,3.5,3.2,3.2,0,0,1-2.3,1.1c-.7-.1-.9-.6-.7-1.5A13.3,13.3,0,0,1,107.5,153Zm2.7.5a17.6,17.6,0,0,0,1.2-2.3c.2-.5.2-.7,0-.7s-.6.1-1,.6a21.6,21.6,0,0,0-1.6,2.2,23.4,23.4,0,0,0-1.3,2.2c-.2.5-.2.8.1.8s.5-.2,1-.6Z"/>
      <path d="M109,149.5l-.8.9-.8.3a.5.5,0,0,1-.3-.5,3.1,3.1,0,0,1,.4-.9,2.4,2.4,0,0,1,.8-.9l.8-.3c.2,0,.3.2.3.4Z"/>
      <path d="M105.9,148l-4.6,7.1h1.2l-2,2-1.9-.2,6-9.2Z"/>
      <path d="M100.4,147.2l-1.3,2.1,2.4.3-1.2,1.9-5.4,5-1.7-.2,3.4-5.3h-.5l1.1-1.8h.6l1.4-2.1Zm-2.5,3.9-1.8,2.7a4.3,4.3,0,0,1-.4.7l-.3.4c.2-.2.3-.4.5-.5l.6-.6,2.7-2.5Z"/>
    </g>
  </g>
</svg>
